ISO-10303-21;
HEADER;
/* Generated by software containing ST-Developer
 * from STEP Tools, Inc. (www.steptools.com) 
 */
/* OPTION: using custom schema-name function */

FILE_DESCRIPTION(
/* description */ (''),
/* implementation_level */ '2;1');

FILE_NAME(
/* name */ 'component4.stp',
/* time_stamp */ '2026-07-19T12:57:40+02:00',
/* author */ (''),
/* organization */ (''),
/* preprocessor_version */ 'ST-DEVELOPER v18.102',
/* originating_system */ 'SIEMENS PLM Software NX2206.6002',
/* authorisation */ '');

FILE_SCHEMA (('AUTOMOTIVE_DESIGN { 1 0 10303 214 3 1 1 1 }'));
ENDSEC;

DATA;
#10=SHAPE_REPRESENTATION_RELATIONSHIP('None',
'relationship between component4-None and component4-None',#22,#11);
#11=ADVANCED_BREP_SHAPE_REPRESENTATION('component4-None',(#32),#593);
#12=SHAPE_DEFINITION_REPRESENTATION(#13,#22);
#13=PRODUCT_DEFINITION_SHAPE('','',#14);
#14=PRODUCT_DEFINITION(' ','',#16,#15);
#15=PRODUCT_DEFINITION_CONTEXT('part definition',#21,'design');
#16=PRODUCT_DEFINITION_FORMATION_WITH_SPECIFIED_SOURCE(' ',' ',#18,
 .NOT_KNOWN.);
#17=PRODUCT_RELATED_PRODUCT_CATEGORY('part','',(#18));
#18=PRODUCT('component4','component4',' ',(#19));
#19=PRODUCT_CONTEXT(' ',#21,'mechanical');
#20=APPLICATION_PROTOCOL_DEFINITION('international standard',
'automotive_design',2010,#21);
#21=APPLICATION_CONTEXT(
'core data for automotive mechanical design processes');
#22=SHAPE_REPRESENTATION('component4-None',(#384),#593);
#23=PRESENTATION_LAYER_ASSIGNMENT('1','Layer 1',(#32));
#24=STYLED_ITEM('',(#25),#32);
#25=PRESENTATION_STYLE_ASSIGNMENT((#26));
#26=SURFACE_STYLE_USAGE(.BOTH.,#27);
#27=SURFACE_SIDE_STYLE('',(#28));
#28=SURFACE_STYLE_FILL_AREA(#29);
#29=FILL_AREA_STYLE('',(#30));
#30=FILL_AREA_STYLE_COLOUR('',#31);
#31=COLOUR_RGB('medium crimson',0.8,0.2,0.2);
#32=MANIFOLD_SOLID_BREP('',#33);
#33=CLOSED_SHELL('',(#36,#37,#38,#39,#40,#41,#42,#43,#44,#45,#46,#47,#48,
#49,#50,#51,#52,#53,#54));
#34=FACE_BOUND('',#100,.T.);
#35=FACE_BOUND('',#101,.T.);
#36=ADVANCED_FACE('',(#74),#55,.F.);
#37=ADVANCED_FACE('',(#75),#56,.F.);
#38=ADVANCED_FACE('',(#76),#57,.F.);
#39=ADVANCED_FACE('',(#77),#58,.F.);
#40=ADVANCED_FACE('',(#78),#59,.F.);
#41=ADVANCED_FACE('',(#79),#60,.T.);
#42=ADVANCED_FACE('',(#80),#61,.F.);
#43=ADVANCED_FACE('',(#81),#62,.F.);
#44=ADVANCED_FACE('',(#34,#35),#63,.F.);
#45=ADVANCED_FACE('',(#82),#64,.F.);
#46=ADVANCED_FACE('',(#83),#65,.F.);
#47=ADVANCED_FACE('',(#84),#66,.F.);
#48=ADVANCED_FACE('',(#85),#67,.F.);
#49=ADVANCED_FACE('',(#86),#68,.F.);
#50=ADVANCED_FACE('',(#87),#69,.F.);
#51=ADVANCED_FACE('',(#88),#70,.F.);
#52=ADVANCED_FACE('',(#89),#71,.F.);
#53=ADVANCED_FACE('',(#90),#72,.F.);
#54=ADVANCED_FACE('',(#91),#73,.F.);
#55=PLANE('',#385);
#56=PLANE('',#386);
#57=PLANE('',#387);
#58=PLANE('',#388);
#59=PLANE('',#389);
#60=PLANE('',#390);
#61=PLANE('',#391);
#62=PLANE('',#392);
#63=PLANE('',#393);
#64=PLANE('',#394);
#65=PLANE('',#395);
#66=PLANE('',#396);
#67=PLANE('',#397);
#68=PLANE('',#398);
#69=PLANE('',#399);
#70=PLANE('',#400);
#71=PLANE('',#401);
#72=PLANE('',#402);
#73=PLANE('',#403);
#74=FACE_OUTER_BOUND('',#92,.T.);
#75=FACE_OUTER_BOUND('',#93,.T.);
#76=FACE_OUTER_BOUND('',#94,.T.);
#77=FACE_OUTER_BOUND('',#95,.T.);
#78=FACE_OUTER_BOUND('',#96,.T.);
#79=FACE_OUTER_BOUND('',#97,.T.);
#80=FACE_OUTER_BOUND('',#98,.T.);
#81=FACE_OUTER_BOUND('',#99,.T.);
#82=FACE_OUTER_BOUND('',#102,.T.);
#83=FACE_OUTER_BOUND('',#103,.T.);
#84=FACE_OUTER_BOUND('',#104,.T.);
#85=FACE_OUTER_BOUND('',#105,.T.);
#86=FACE_OUTER_BOUND('',#106,.T.);
#87=FACE_OUTER_BOUND('',#107,.T.);
#88=FACE_OUTER_BOUND('',#108,.T.);
#89=FACE_OUTER_BOUND('',#109,.T.);
#90=FACE_OUTER_BOUND('',#110,.T.);
#91=FACE_OUTER_BOUND('',#111,.T.);
#92=EDGE_LOOP('',(#112,#113,#114,#115,#116,#117,#118,#119,#120,#121,#122,
#123));
#93=EDGE_LOOP('',(#124,#125,#126,#127,#128,#129,#130,#131));
#94=EDGE_LOOP('',(#132,#133,#134,#135));
#95=EDGE_LOOP('',(#136,#137,#138,#139));
#96=EDGE_LOOP('',(#140,#141,#142,#143));
#97=EDGE_LOOP('',(#144,#145,#146,#147));
#98=EDGE_LOOP('',(#148,#149,#150,#151));
#99=EDGE_LOOP('',(#152,#153,#154,#155));
#100=EDGE_LOOP('',(#156,#157,#158,#159,#160,#161,#162,#163));
#101=EDGE_LOOP('',(#164,#165,#166,#167));
#102=EDGE_LOOP('',(#168,#169,#170,#171));
#103=EDGE_LOOP('',(#172,#173,#174,#175));
#104=EDGE_LOOP('',(#176,#177,#178,#179));
#105=EDGE_LOOP('',(#180,#181,#182,#183));
#106=EDGE_LOOP('',(#184,#185,#186,#187));
#107=EDGE_LOOP('',(#188,#189,#190,#191));
#108=EDGE_LOOP('',(#192,#193,#194,#195));
#109=EDGE_LOOP('',(#196,#197,#198,#199));
#110=EDGE_LOOP('',(#200,#201,#202,#203));
#111=EDGE_LOOP('',(#204,#205,#206,#207));
#112=ORIENTED_EDGE('',*,*,#240,.F.);
#113=ORIENTED_EDGE('',*,*,#241,.T.);
#114=ORIENTED_EDGE('',*,*,#242,.F.);
#115=ORIENTED_EDGE('',*,*,#243,.F.);
#116=ORIENTED_EDGE('',*,*,#244,.F.);
#117=ORIENTED_EDGE('',*,*,#245,.F.);
#118=ORIENTED_EDGE('',*,*,#246,.F.);
#119=ORIENTED_EDGE('',*,*,#247,.F.);
#120=ORIENTED_EDGE('',*,*,#248,.F.);
#121=ORIENTED_EDGE('',*,*,#249,.F.);
#122=ORIENTED_EDGE('',*,*,#250,.F.);
#123=ORIENTED_EDGE('',*,*,#251,.F.);
#124=ORIENTED_EDGE('',*,*,#252,.F.);
#125=ORIENTED_EDGE('',*,*,#253,.F.);
#126=ORIENTED_EDGE('',*,*,#254,.F.);
#127=ORIENTED_EDGE('',*,*,#246,.T.);
#128=ORIENTED_EDGE('',*,*,#255,.F.);
#129=ORIENTED_EDGE('',*,*,#256,.F.);
#130=ORIENTED_EDGE('',*,*,#257,.T.);
#131=ORIENTED_EDGE('',*,*,#242,.T.);
#132=ORIENTED_EDGE('',*,*,#244,.T.);
#133=ORIENTED_EDGE('',*,*,#258,.F.);
#134=ORIENTED_EDGE('',*,*,#259,.F.);
#135=ORIENTED_EDGE('',*,*,#260,.T.);
#136=ORIENTED_EDGE('',*,*,#243,.T.);
#137=ORIENTED_EDGE('',*,*,#257,.F.);
#138=ORIENTED_EDGE('',*,*,#261,.F.);
#139=ORIENTED_EDGE('',*,*,#258,.T.);
#140=ORIENTED_EDGE('',*,*,#245,.T.);
#141=ORIENTED_EDGE('',*,*,#260,.F.);
#142=ORIENTED_EDGE('',*,*,#262,.F.);
#143=ORIENTED_EDGE('',*,*,#255,.T.);
#144=ORIENTED_EDGE('',*,*,#259,.T.);
#145=ORIENTED_EDGE('',*,*,#261,.T.);
#146=ORIENTED_EDGE('',*,*,#256,.T.);
#147=ORIENTED_EDGE('',*,*,#262,.T.);
#148=ORIENTED_EDGE('',*,*,#252,.T.);
#149=ORIENTED_EDGE('',*,*,#241,.F.);
#150=ORIENTED_EDGE('',*,*,#263,.T.);
#151=ORIENTED_EDGE('',*,*,#264,.F.);
#152=ORIENTED_EDGE('',*,*,#254,.T.);
#153=ORIENTED_EDGE('',*,*,#265,.T.);
#154=ORIENTED_EDGE('',*,*,#266,.T.);
#155=ORIENTED_EDGE('',*,*,#247,.T.);
#156=ORIENTED_EDGE('',*,*,#253,.T.);
#157=ORIENTED_EDGE('',*,*,#264,.T.);
#158=ORIENTED_EDGE('',*,*,#267,.T.);
#159=ORIENTED_EDGE('',*,*,#268,.T.);
#160=ORIENTED_EDGE('',*,*,#269,.T.);
#161=ORIENTED_EDGE('',*,*,#270,.T.);
#162=ORIENTED_EDGE('',*,*,#271,.T.);
#163=ORIENTED_EDGE('',*,*,#265,.F.);
#164=ORIENTED_EDGE('',*,*,#272,.T.);
#165=ORIENTED_EDGE('',*,*,#273,.T.);
#166=ORIENTED_EDGE('',*,*,#274,.T.);
#167=ORIENTED_EDGE('',*,*,#275,.T.);
#168=ORIENTED_EDGE('',*,*,#240,.T.);
#169=ORIENTED_EDGE('',*,*,#276,.T.);
#170=ORIENTED_EDGE('',*,*,#267,.F.);
#171=ORIENTED_EDGE('',*,*,#263,.F.);
#172=ORIENTED_EDGE('',*,*,#271,.F.);
#173=ORIENTED_EDGE('',*,*,#277,.F.);
#174=ORIENTED_EDGE('',*,*,#248,.T.);
#175=ORIENTED_EDGE('',*,*,#266,.F.);
#176=ORIENTED_EDGE('',*,*,#278,.T.);
#177=ORIENTED_EDGE('',*,*,#279,.T.);
#178=ORIENTED_EDGE('',*,*,#272,.F.);
#179=ORIENTED_EDGE('',*,*,#280,.F.);
#180=ORIENTED_EDGE('',*,*,#281,.T.);
#181=ORIENTED_EDGE('',*,*,#282,.T.);
#182=ORIENTED_EDGE('',*,*,#273,.F.);
#183=ORIENTED_EDGE('',*,*,#279,.F.);
#184=ORIENTED_EDGE('',*,*,#283,.T.);
#185=ORIENTED_EDGE('',*,*,#284,.T.);
#186=ORIENTED_EDGE('',*,*,#274,.F.);
#187=ORIENTED_EDGE('',*,*,#282,.F.);
#188=ORIENTED_EDGE('',*,*,#250,.T.);
#189=ORIENTED_EDGE('',*,*,#285,.T.);
#190=ORIENTED_EDGE('',*,*,#269,.F.);
#191=ORIENTED_EDGE('',*,*,#286,.F.);
#192=ORIENTED_EDGE('',*,*,#249,.T.);
#193=ORIENTED_EDGE('',*,*,#277,.T.);
#194=ORIENTED_EDGE('',*,*,#270,.F.);
#195=ORIENTED_EDGE('',*,*,#285,.F.);
#196=ORIENTED_EDGE('',*,*,#251,.T.);
#197=ORIENTED_EDGE('',*,*,#286,.T.);
#198=ORIENTED_EDGE('',*,*,#268,.F.);
#199=ORIENTED_EDGE('',*,*,#276,.F.);
#200=ORIENTED_EDGE('',*,*,#287,.T.);
#201=ORIENTED_EDGE('',*,*,#280,.T.);
#202=ORIENTED_EDGE('',*,*,#275,.F.);
#203=ORIENTED_EDGE('',*,*,#284,.F.);
#204=ORIENTED_EDGE('',*,*,#281,.F.);
#205=ORIENTED_EDGE('',*,*,#278,.F.);
#206=ORIENTED_EDGE('',*,*,#287,.F.);
#207=ORIENTED_EDGE('',*,*,#283,.F.);
#208=VERTEX_POINT('',#494);
#209=VERTEX_POINT('',#495);
#210=VERTEX_POINT('',#497);
#211=VERTEX_POINT('',#499);
#212=VERTEX_POINT('',#501);
#213=VERTEX_POINT('',#503);
#214=VERTEX_POINT('',#505);
#215=VERTEX_POINT('',#507);
#216=VERTEX_POINT('',#509);
#217=VERTEX_POINT('',#511);
#218=VERTEX_POINT('',#513);
#219=VERTEX_POINT('',#515);
#220=VERTEX_POINT('',#519);
#221=VERTEX_POINT('',#521);
#222=VERTEX_POINT('',#524);
#223=VERTEX_POINT('',#526);
#224=VERTEX_POINT('',#530);
#225=VERTEX_POINT('',#532);
#226=VERTEX_POINT('',#541);
#227=VERTEX_POINT('',#545);
#228=VERTEX_POINT('',#549);
#229=VERTEX_POINT('',#551);
#230=VERTEX_POINT('',#553);
#231=VERTEX_POINT('',#555);
#232=VERTEX_POINT('',#558);
#233=VERTEX_POINT('',#559);
#234=VERTEX_POINT('',#561);
#235=VERTEX_POINT('',#563);
#236=VERTEX_POINT('',#571);
#237=VERTEX_POINT('',#572);
#238=VERTEX_POINT('',#577);
#239=VERTEX_POINT('',#581);
#240=EDGE_CURVE('',#208,#209,#288,.T.);
#241=EDGE_CURVE('',#208,#210,#289,.T.);
#242=EDGE_CURVE('',#211,#210,#290,.T.);
#243=EDGE_CURVE('',#212,#211,#291,.T.);
#244=EDGE_CURVE('',#213,#212,#292,.T.);
#245=EDGE_CURVE('',#214,#213,#293,.T.);
#246=EDGE_CURVE('',#215,#214,#294,.T.);
#247=EDGE_CURVE('',#216,#215,#295,.T.);
#248=EDGE_CURVE('',#217,#216,#296,.T.);
#249=EDGE_CURVE('',#218,#217,#297,.T.);
#250=EDGE_CURVE('',#219,#218,#298,.T.);
#251=EDGE_CURVE('',#209,#219,#299,.T.);
#252=EDGE_CURVE('',#220,#210,#300,.T.);
#253=EDGE_CURVE('',#221,#220,#301,.T.);
#254=EDGE_CURVE('',#215,#221,#302,.T.);
#255=EDGE_CURVE('',#222,#214,#303,.T.);
#256=EDGE_CURVE('',#223,#222,#304,.T.);
#257=EDGE_CURVE('',#223,#211,#305,.T.);
#258=EDGE_CURVE('',#224,#212,#306,.T.);
#259=EDGE_CURVE('',#225,#224,#307,.T.);
#260=EDGE_CURVE('',#225,#213,#308,.T.);
#261=EDGE_CURVE('',#224,#223,#309,.T.);
#262=EDGE_CURVE('',#222,#225,#310,.T.);
#263=EDGE_CURVE('',#208,#226,#311,.T.);
#264=EDGE_CURVE('',#220,#226,#312,.T.);
#265=EDGE_CURVE('',#221,#227,#313,.T.);
#266=EDGE_CURVE('',#227,#216,#314,.T.);
#267=EDGE_CURVE('',#226,#228,#315,.T.);
#268=EDGE_CURVE('',#228,#229,#316,.T.);
#269=EDGE_CURVE('',#229,#230,#317,.T.);
#270=EDGE_CURVE('',#230,#231,#318,.T.);
#271=EDGE_CURVE('',#231,#227,#319,.T.);
#272=EDGE_CURVE('',#232,#233,#320,.T.);
#273=EDGE_CURVE('',#233,#234,#321,.T.);
#274=EDGE_CURVE('',#234,#235,#322,.T.);
#275=EDGE_CURVE('',#235,#232,#323,.T.);
#276=EDGE_CURVE('',#209,#228,#324,.T.);
#277=EDGE_CURVE('',#217,#231,#325,.T.);
#278=EDGE_CURVE('',#236,#237,#326,.T.);
#279=EDGE_CURVE('',#237,#233,#327,.T.);
#280=EDGE_CURVE('',#236,#232,#328,.T.);
#281=EDGE_CURVE('',#237,#238,#329,.T.);
#282=EDGE_CURVE('',#238,#234,#330,.T.);
#283=EDGE_CURVE('',#238,#239,#331,.T.);
#284=EDGE_CURVE('',#239,#235,#332,.T.);
#285=EDGE_CURVE('',#218,#230,#333,.T.);
#286=EDGE_CURVE('',#219,#229,#334,.T.);
#287=EDGE_CURVE('',#239,#236,#335,.T.);
#288=LINE('',#493,#336);
#289=LINE('',#496,#337);
#290=LINE('',#498,#338);
#291=LINE('',#500,#339);
#292=LINE('',#502,#340);
#293=LINE('',#504,#341);
#294=LINE('',#506,#342);
#295=LINE('',#508,#343);
#296=LINE('',#510,#344);
#297=LINE('',#512,#345);
#298=LINE('',#514,#346);
#299=LINE('',#516,#347);
#300=LINE('',#518,#348);
#301=LINE('',#520,#349);
#302=LINE('',#522,#350);
#303=LINE('',#523,#351);
#304=LINE('',#525,#352);
#305=LINE('',#527,#353);
#306=LINE('',#529,#354);
#307=LINE('',#531,#355);
#308=LINE('',#533,#356);
#309=LINE('',#535,#357);
#310=LINE('',#537,#358);
#311=LINE('',#540,#359);
#312=LINE('',#542,#360);
#313=LINE('',#544,#361);
#314=LINE('',#546,#362);
#315=LINE('',#548,#363);
#316=LINE('',#550,#364);
#317=LINE('',#552,#365);
#318=LINE('',#554,#366);
#319=LINE('',#556,#367);
#320=LINE('',#557,#368);
#321=LINE('',#560,#369);
#322=LINE('',#562,#370);
#323=LINE('',#564,#371);
#324=LINE('',#566,#372);
#325=LINE('',#568,#373);
#326=LINE('',#570,#374);
#327=LINE('',#573,#375);
#328=LINE('',#574,#376);
#329=LINE('',#576,#377);
#330=LINE('',#578,#378);
#331=LINE('',#580,#379);
#332=LINE('',#582,#380);
#333=LINE('',#584,#381);
#334=LINE('',#585,#382);
#335=LINE('',#589,#383);
#336=VECTOR('',#406,1.);
#337=VECTOR('',#407,1.);
#338=VECTOR('',#408,1.);
#339=VECTOR('',#409,1.);
#340=VECTOR('',#410,1.);
#341=VECTOR('',#411,1.);
#342=VECTOR('',#412,1.);
#343=VECTOR('',#413,1.);
#344=VECTOR('',#414,1.);
#345=VECTOR('',#415,1.);
#346=VECTOR('',#416,1.);
#347=VECTOR('',#417,1.);
#348=VECTOR('',#420,1.);
#349=VECTOR('',#421,1.);
#350=VECTOR('',#422,1.);
#351=VECTOR('',#423,1.);
#352=VECTOR('',#424,1.);
#353=VECTOR('',#425,1.);
#354=VECTOR('',#428,1.);
#355=VECTOR('',#429,1.);
#356=VECTOR('',#430,1.);
#357=VECTOR('',#433,1.);
#358=VECTOR('',#436,1.);
#359=VECTOR('',#441,1.);
#360=VECTOR('',#442,1.);
#361=VECTOR('',#445,1.);
#362=VECTOR('',#446,1.);
#363=VECTOR('',#449,1.);
#364=VECTOR('',#450,1.);
#365=VECTOR('',#451,1.);
#366=VECTOR('',#452,1.);
#367=VECTOR('',#453,1.);
#368=VECTOR('',#454,1.);
#369=VECTOR('',#455,1.);
#370=VECTOR('',#456,1.);
#371=VECTOR('',#457,1.);
#372=VECTOR('',#460,1.);
#373=VECTOR('',#463,1.);
#374=VECTOR('',#466,1.);
#375=VECTOR('',#467,1.);
#376=VECTOR('',#468,1.);
#377=VECTOR('',#471,1.);
#378=VECTOR('',#472,1.);
#379=VECTOR('',#475,1.);
#380=VECTOR('',#476,1.);
#381=VECTOR('',#479,1.);
#382=VECTOR('',#480,1.);
#383=VECTOR('',#487,1.);
#384=AXIS2_PLACEMENT_3D('',#492,#404,#405);
#385=AXIS2_PLACEMENT_3D('',#517,#418,#419);
#386=AXIS2_PLACEMENT_3D('',#528,#426,#427);
#387=AXIS2_PLACEMENT_3D('',#534,#431,#432);
#388=AXIS2_PLACEMENT_3D('',#536,#434,#435);
#389=AXIS2_PLACEMENT_3D('',#538,#437,#438);
#390=AXIS2_PLACEMENT_3D('',#539,#439,#440);
#391=AXIS2_PLACEMENT_3D('',#543,#443,#444);
#392=AXIS2_PLACEMENT_3D('',#547,#447,#448);
#393=AXIS2_PLACEMENT_3D('',#565,#458,#459);
#394=AXIS2_PLACEMENT_3D('',#567,#461,#462);
#395=AXIS2_PLACEMENT_3D('',#569,#464,#465);
#396=AXIS2_PLACEMENT_3D('',#575,#469,#470);
#397=AXIS2_PLACEMENT_3D('',#579,#473,#474);
#398=AXIS2_PLACEMENT_3D('',#583,#477,#478);
#399=AXIS2_PLACEMENT_3D('',#586,#481,#482);
#400=AXIS2_PLACEMENT_3D('',#587,#483,#484);
#401=AXIS2_PLACEMENT_3D('',#588,#485,#486);
#402=AXIS2_PLACEMENT_3D('',#590,#488,#489);
#403=AXIS2_PLACEMENT_3D('',#591,#490,#491);
#404=DIRECTION('',(0.,0.,1.));
#405=DIRECTION('',(1.,0.,0.));
#406=DIRECTION('',(0.,-1.,0.));
#407=DIRECTION('',(1.,0.,0.));
#408=DIRECTION('',(0.,1.,0.));
#409=DIRECTION('',(1.,0.,0.));
#410=DIRECTION('',(0.,-1.,0.));
#411=DIRECTION('',(-1.,0.,0.));
#412=DIRECTION('',(0.,1.,0.));
#413=DIRECTION('',(1.,0.,0.));
#414=DIRECTION('',(0.,-1.,0.));
#415=DIRECTION('',(1.,0.,0.));
#416=DIRECTION('',(0.,1.,0.));
#417=DIRECTION('',(-1.,0.,0.));
#418=DIRECTION('',(0.,0.,1.));
#419=DIRECTION('',(1.,0.,0.));
#420=DIRECTION('',(0.,0.,-1.));
#421=DIRECTION('',(0.,-1.,0.));
#422=DIRECTION('',(0.,0.,1.));
#423=DIRECTION('',(0.,0.,-1.));
#424=DIRECTION('',(0.,1.,0.));
#425=DIRECTION('',(0.,0.,-1.));
#426=DIRECTION('',(-1.,0.,0.));
#427=DIRECTION('',(0.,0.,1.));
#428=DIRECTION('',(0.,0.,-1.));
#429=DIRECTION('',(0.,-1.,0.));
#430=DIRECTION('',(0.,0.,-1.));
#431=DIRECTION('',(1.,0.,0.));
#432=DIRECTION('',(0.,0.,-1.));
#433=DIRECTION('',(1.,0.,0.));
#434=DIRECTION('',(0.,1.,0.));
#435=DIRECTION('',(0.,0.,1.));
#436=DIRECTION('',(-1.,0.,0.));
#437=DIRECTION('',(0.,-1.,0.));
#438=DIRECTION('',(0.,0.,-1.));
#439=DIRECTION('',(0.,0.,1.));
#440=DIRECTION('',(1.,0.,0.));
#441=DIRECTION('',(0.,0.,1.));
#442=DIRECTION('',(-1.,0.,0.));
#443=DIRECTION('',(0.,-1.,0.));
#444=DIRECTION('',(0.,0.,-1.));
#445=DIRECTION('',(-1.,0.,0.));
#446=DIRECTION('',(0.,0.,-1.));
#447=DIRECTION('',(0.,1.,0.));
#448=DIRECTION('',(0.,0.,1.));
#449=DIRECTION('',(0.,-1.,0.));
#450=DIRECTION('',(-1.,0.,0.));
#451=DIRECTION('',(0.,1.,0.));
#452=DIRECTION('',(1.,0.,0.));
#453=DIRECTION('',(0.,-1.,0.));
#454=DIRECTION('',(0.,-1.,0.));
#455=DIRECTION('',(1.,0.,0.));
#456=DIRECTION('',(0.,1.,0.));
#457=DIRECTION('',(-1.,0.,0.));
#458=DIRECTION('',(0.,0.,1.));
#459=DIRECTION('',(1.,0.,0.));
#460=DIRECTION('',(0.,0.,1.));
#461=DIRECTION('',(1.,0.,0.));
#462=DIRECTION('',(0.,0.,-1.));
#463=DIRECTION('',(0.,0.,1.));
#464=DIRECTION('',(1.,0.,0.));
#465=DIRECTION('',(0.,0.,-1.));
#466=DIRECTION('',(0.,-1.,0.));
#467=DIRECTION('',(0.,0.,1.));
#468=DIRECTION('',(0.,0.,1.));
#469=DIRECTION('',(1.,0.,0.));
#470=DIRECTION('',(0.,0.,-1.));
#471=DIRECTION('',(1.,0.,0.));
#472=DIRECTION('',(0.,0.,1.));
#473=DIRECTION('',(0.,1.,0.));
#474=DIRECTION('',(0.,0.,1.));
#475=DIRECTION('',(0.,1.,0.));
#476=DIRECTION('',(0.,0.,1.));
#477=DIRECTION('',(-1.,0.,0.));
#478=DIRECTION('',(0.,0.,1.));
#479=DIRECTION('',(0.,0.,1.));
#480=DIRECTION('',(0.,0.,1.));
#481=DIRECTION('',(-1.,0.,0.));
#482=DIRECTION('',(0.,0.,1.));
#483=DIRECTION('',(0.,1.,0.));
#484=DIRECTION('',(0.,0.,1.));
#485=DIRECTION('',(0.,-1.,0.));
#486=DIRECTION('',(0.,0.,-1.));
#487=DIRECTION('',(-1.,0.,0.));
#488=DIRECTION('',(0.,-1.,0.));
#489=DIRECTION('',(0.,0.,-1.));
#490=DIRECTION('',(0.,0.,1.));
#491=DIRECTION('',(1.,0.,0.));
#492=CARTESIAN_POINT('',(0.,0.,0.));
#493=CARTESIAN_POINT('',(98.5,98.5,0.));
#494=CARTESIAN_POINT('',(98.5,70.,0.));
#495=CARTESIAN_POINT('',(98.5,61.5,0.));
#496=CARTESIAN_POINT('',(98.5,70.,0.));
#497=CARTESIAN_POINT('',(100.,70.,0.));
#498=CARTESIAN_POINT('',(100.,60.,0.));
#499=CARTESIAN_POINT('',(100.,60.,0.));
#500=CARTESIAN_POINT('',(90.,60.,0.));
#501=CARTESIAN_POINT('',(90.,60.,0.));
#502=CARTESIAN_POINT('',(90.,100.,0.));
#503=CARTESIAN_POINT('',(90.,100.,0.));
#504=CARTESIAN_POINT('',(100.,100.,0.));
#505=CARTESIAN_POINT('',(100.,100.,0.));
#506=CARTESIAN_POINT('',(100.,60.,0.));
#507=CARTESIAN_POINT('',(100.,90.,0.));
#508=CARTESIAN_POINT('',(98.5,90.,0.));
#509=CARTESIAN_POINT('',(98.5,90.,0.));
#510=CARTESIAN_POINT('',(98.5,98.5,0.));
#511=CARTESIAN_POINT('',(98.5,98.5,0.));
#512=CARTESIAN_POINT('',(91.5,98.5,0.));
#513=CARTESIAN_POINT('',(91.5,98.5,0.));
#514=CARTESIAN_POINT('',(91.5,61.5,0.));
#515=CARTESIAN_POINT('',(91.5,61.5,0.));
#516=CARTESIAN_POINT('',(98.5,61.5,0.));
#517=CARTESIAN_POINT('',(0.,0.,0.));
#518=CARTESIAN_POINT('',(100.,70.,2.));
#519=CARTESIAN_POINT('',(100.,70.,2.));
#520=CARTESIAN_POINT('',(100.,90.,2.));
#521=CARTESIAN_POINT('',(100.,90.,2.));
#522=CARTESIAN_POINT('',(100.,90.,0.));
#523=CARTESIAN_POINT('',(100.,100.,5.));
#524=CARTESIAN_POINT('',(100.,100.,5.));
#525=CARTESIAN_POINT('',(100.,60.,5.));
#526=CARTESIAN_POINT('',(100.,60.,5.));
#527=CARTESIAN_POINT('',(100.,60.,5.));
#528=CARTESIAN_POINT('',(100.,60.,5.));
#529=CARTESIAN_POINT('',(90.,60.,5.));
#530=CARTESIAN_POINT('',(90.,60.,5.));
#531=CARTESIAN_POINT('',(90.,100.,5.));
#532=CARTESIAN_POINT('',(90.,100.,5.));
#533=CARTESIAN_POINT('',(90.,100.,5.));
#534=CARTESIAN_POINT('',(90.,100.,5.));
#535=CARTESIAN_POINT('',(90.,60.,5.));
#536=CARTESIAN_POINT('',(90.,60.,5.));
#537=CARTESIAN_POINT('',(100.,100.,5.));
#538=CARTESIAN_POINT('',(100.,100.,5.));
#539=CARTESIAN_POINT('',(0.,0.,5.));
#540=CARTESIAN_POINT('',(98.5,70.,2.));
#541=CARTESIAN_POINT('',(98.5,70.,2.));
#542=CARTESIAN_POINT('',(98.5,70.,2.));
#543=CARTESIAN_POINT('',(98.5,70.,2.));
#544=CARTESIAN_POINT('',(98.5,90.,2.));
#545=CARTESIAN_POINT('',(98.5,90.,2.));
#546=CARTESIAN_POINT('',(98.5,90.,0.));
#547=CARTESIAN_POINT('',(98.5,90.,0.));
#548=CARTESIAN_POINT('',(98.5,98.5,2.));
#549=CARTESIAN_POINT('',(98.5,61.5,2.));
#550=CARTESIAN_POINT('',(98.5,61.5,2.));
#551=CARTESIAN_POINT('',(91.5,61.5,2.));
#552=CARTESIAN_POINT('',(91.5,61.5,2.));
#553=CARTESIAN_POINT('',(91.5,98.5,2.));
#554=CARTESIAN_POINT('',(91.5,98.5,2.));
#555=CARTESIAN_POINT('',(98.5,98.5,2.));
#556=CARTESIAN_POINT('',(98.5,98.5,2.));
#557=CARTESIAN_POINT('',(93.5,96.5,2.));
#558=CARTESIAN_POINT('',(93.5,96.5,2.));
#559=CARTESIAN_POINT('',(93.5,63.5,2.));
#560=CARTESIAN_POINT('',(93.5,63.5,2.));
#561=CARTESIAN_POINT('',(96.5,63.5,2.));
#562=CARTESIAN_POINT('',(96.5,63.5,2.));
#563=CARTESIAN_POINT('',(96.5,96.5,2.));
#564=CARTESIAN_POINT('',(96.5,96.5,2.));
#565=CARTESIAN_POINT('',(98.5,90.,2.));
#566=CARTESIAN_POINT('',(98.5,61.5,2.));
#567=CARTESIAN_POINT('',(98.5,98.5,2.));
#568=CARTESIAN_POINT('',(98.5,98.5,2.));
#569=CARTESIAN_POINT('',(98.5,98.5,2.));
#570=CARTESIAN_POINT('',(93.5,96.5,0.));
#571=CARTESIAN_POINT('',(93.5,96.5,0.));
#572=CARTESIAN_POINT('',(93.5,63.5,0.));
#573=CARTESIAN_POINT('',(93.5,63.5,2.));
#574=CARTESIAN_POINT('',(93.5,96.5,2.));
#575=CARTESIAN_POINT('',(93.5,96.5,2.));
#576=CARTESIAN_POINT('',(93.5,63.5,0.));
#577=CARTESIAN_POINT('',(96.5,63.5,0.));
#578=CARTESIAN_POINT('',(96.5,63.5,2.));
#579=CARTESIAN_POINT('',(93.5,63.5,2.));
#580=CARTESIAN_POINT('',(96.5,63.5,0.));
#581=CARTESIAN_POINT('',(96.5,96.5,0.));
#582=CARTESIAN_POINT('',(96.5,96.5,2.));
#583=CARTESIAN_POINT('',(96.5,63.5,2.));
#584=CARTESIAN_POINT('',(91.5,98.5,2.));
#585=CARTESIAN_POINT('',(91.5,61.5,2.));
#586=CARTESIAN_POINT('',(91.5,61.5,2.));
#587=CARTESIAN_POINT('',(91.5,98.5,2.));
#588=CARTESIAN_POINT('',(98.5,61.5,2.));
#589=CARTESIAN_POINT('',(96.5,96.5,0.));
#590=CARTESIAN_POINT('',(96.5,96.5,2.));
#591=CARTESIAN_POINT('',(0.,0.,0.));
#592=MECHANICAL_DESIGN_GEOMETRIC_PRESENTATION_REPRESENTATION('',(#24),#593);
#593=(
GEOMETRIC_REPRESENTATION_CONTEXT(3)
GLOBAL_UNCERTAINTY_ASSIGNED_CONTEXT((#594))
GLOBAL_UNIT_ASSIGNED_CONTEXT((#600,#596,#595))
REPRESENTATION_CONTEXT('component4','TOP_LEVEL_ASSEMBLY_PART')
);
#594=UNCERTAINTY_MEASURE_WITH_UNIT(LENGTH_MEASURE(2.E-5),#600,
'DISTANCE_ACCURACY_VALUE','Maximum Tolerance applied to model');
#595=(
NAMED_UNIT(*)
SI_UNIT($,.STERADIAN.)
SOLID_ANGLE_UNIT()
);
#596=(
CONVERSION_BASED_UNIT('DEGREE',#598)
NAMED_UNIT(#597)
PLANE_ANGLE_UNIT()
);
#597=DIMENSIONAL_EXPONENTS(0.,0.,0.,0.,0.,0.,0.);
#598=PLANE_ANGLE_MEASURE_WITH_UNIT(PLANE_ANGLE_MEASURE(0.0174532925),#599);
#599=(
NAMED_UNIT(*)
PLANE_ANGLE_UNIT()
SI_UNIT($,.RADIAN.)
);
#600=(
LENGTH_UNIT()
NAMED_UNIT(*)
SI_UNIT(.MILLI.,.METRE.)
);
ENDSEC;
END-ISO-10303-21;
