ISO-10303-21;
HEADER;
/* Generated by software containing ST-Developer
 * from STEP Tools, Inc. (www.steptools.com) 
 */
/* OPTION: using custom schema-name function */

FILE_DESCRIPTION(
/* description */ (''),
/* implementation_level */ '2;1');

FILE_NAME(
/* name */ 'connector.stp',
/* time_stamp */ '2026-07-19T12:53:36+02:00',
/* author */ (''),
/* organization */ (''),
/* preprocessor_version */ 'ST-DEVELOPER v18.102',
/* originating_system */ 'SIEMENS PLM Software NX2206.6002',
/* authorisation */ '');

FILE_SCHEMA (('AUTOMOTIVE_DESIGN { 1 0 10303 214 3 1 1 1 }'));
ENDSEC;

DATA;
#10=GEOMETRICALLY_BOUNDED_WIREFRAME_SHAPE_REPRESENTATION(
'connector-None',(#25),#679);
#11=SHAPE_REPRESENTATION_RELATIONSHIP('None',
'relationship between connector-None and connector-None',#24,#13);
#12=SHAPE_REPRESENTATION_RELATIONSHIP('None',
'relationship between connector-None and connector-None',#24,#10);
#13=ADVANCED_BREP_SHAPE_REPRESENTATION('connector-None',(#31),#679);
#14=SHAPE_DEFINITION_REPRESENTATION(#15,#24);
#15=PRODUCT_DEFINITION_SHAPE('','',#16);
#16=PRODUCT_DEFINITION(' ','',#18,#17);
#17=PRODUCT_DEFINITION_CONTEXT('part definition',#23,'design');
#18=PRODUCT_DEFINITION_FORMATION_WITH_SPECIFIED_SOURCE(' ',' ',#20,
 .NOT_KNOWN.);
#19=PRODUCT_RELATED_PRODUCT_CATEGORY('part','',(#20));
#20=PRODUCT('connector','connector',' ',(#21));
#21=PRODUCT_CONTEXT(' ',#23,'mechanical');
#22=APPLICATION_PROTOCOL_DEFINITION('international standard',
'automotive_design',2010,#23);
#23=APPLICATION_CONTEXT(
'core data for automotive mechanical design processes');
#24=SHAPE_REPRESENTATION('connector-None',(#404),#679);
#25=GEOMETRIC_CURVE_SET('None',(#572,#573,#574,#575));
#26=SURFACE_STYLE_USAGE(.BOTH.,#27);
#27=SURFACE_SIDE_STYLE('',(#28));
#28=SURFACE_STYLE_FILL_AREA(#29);
#29=FILL_AREA_STYLE('',(#30));
#30=FILL_AREA_STYLE_COLOUR('',#403);
#31=MANIFOLD_SOLID_BREP('',#32);
#32=CLOSED_SHELL('',(#62,#63,#64,#65,#66,#67,#68,#69,#70,#71,#72,#73,#74,
#75,#76,#77,#78,#79,#80,#81,#82,#83));
#33=FACE_BOUND('',#122,.T.);
#34=FACE_BOUND('',#123,.T.);
#35=FACE_BOUND('',#125,.T.);
#36=FACE_BOUND('',#126,.T.);
#37=FACE_BOUND('',#127,.T.);
#38=FACE_BOUND('',#128,.T.);
#39=FACE_BOUND('',#129,.T.);
#40=FACE_BOUND('',#130,.T.);
#41=FACE_BOUND('',#131,.T.);
#42=FACE_BOUND('',#132,.T.);
#43=FACE_BOUND('',#133,.T.);
#44=FACE_BOUND('',#134,.T.);
#45=FACE_BOUND('',#135,.T.);
#46=FACE_BOUND('',#136,.T.);
#47=FACE_BOUND('',#137,.T.);
#48=FACE_BOUND('',#138,.T.);
#49=FACE_BOUND('',#139,.T.);
#50=FACE_BOUND('',#140,.T.);
#51=FACE_BOUND('',#142,.T.);
#52=FACE_BOUND('',#143,.T.);
#53=PLANE('',#411);
#54=PLANE('',#415);
#55=PLANE('',#425);
#56=PLANE('',#429);
#57=PLANE('',#440);
#58=PLANE('',#442);
#59=PLANE('',#446);
#60=PLANE('',#449);
#61=PLANE('',#452);
#62=ADVANCED_FACE('',(#97),#84,.T.);
#63=ADVANCED_FACE('',(#98),#85,.F.);
#64=ADVANCED_FACE('',(#99),#53,.F.);
#65=ADVANCED_FACE('',(#100),#86,.T.);
#66=ADVANCED_FACE('',(#101),#54,.F.);
#67=ADVANCED_FACE('',(#102),#87,.F.);
#68=ADVANCED_FACE('',(#103),#88,.T.);
#69=ADVANCED_FACE('',(#104),#89,.F.);
#70=ADVANCED_FACE('',(#105),#55,.F.);
#71=ADVANCED_FACE('',(#106),#90,.T.);
#72=ADVANCED_FACE('',(#107),#56,.F.);
#73=ADVANCED_FACE('',(#33,#34),#91,.F.);
#74=ADVANCED_FACE('',(#108),#92,.F.);
#75=ADVANCED_FACE('',(#35,#36),#93,.F.);
#76=ADVANCED_FACE('',(#37,#38,#39,#40),#57,.T.);
#77=ADVANCED_FACE('',(#41,#42,#43,#44),#58,.F.);
#78=ADVANCED_FACE('',(#45,#46),#94,.T.);
#79=ADVANCED_FACE('',(#47,#48),#59,.T.);
#80=ADVANCED_FACE('',(#49,#50),#95,.F.);
#81=ADVANCED_FACE('',(#109),#60,.T.);
#82=ADVANCED_FACE('',(#51,#52),#96,.T.);
#83=ADVANCED_FACE('',(#110),#61,.T.);
#84=CYLINDRICAL_SURFACE('',#407,5.);
#85=CYLINDRICAL_SURFACE('',#410,2.);
#86=CYLINDRICAL_SURFACE('',#414,17.);
#87=CYLINDRICAL_SURFACE('',#418,2.);
#88=CYLINDRICAL_SURFACE('',#421,5.);
#89=CYLINDRICAL_SURFACE('',#424,2.);
#90=CYLINDRICAL_SURFACE('',#428,17.);
#91=CYLINDRICAL_SURFACE('',#432,2.);
#92=CYLINDRICAL_SURFACE('',#435,2.);
#93=CYLINDRICAL_SURFACE('',#438,2.);
#94=CYLINDRICAL_SURFACE('',#444,13.);
#95=CYLINDRICAL_SURFACE('',#448,10.);
#96=CYLINDRICAL_SURFACE('',#451,11.7);
#97=FACE_OUTER_BOUND('',#111,.T.);
#98=FACE_OUTER_BOUND('',#112,.T.);
#99=FACE_OUTER_BOUND('',#113,.T.);
#100=FACE_OUTER_BOUND('',#114,.T.);
#101=FACE_OUTER_BOUND('',#115,.T.);
#102=FACE_OUTER_BOUND('',#116,.T.);
#103=FACE_OUTER_BOUND('',#117,.T.);
#104=FACE_OUTER_BOUND('',#118,.T.);
#105=FACE_OUTER_BOUND('',#119,.T.);
#106=FACE_OUTER_BOUND('',#120,.T.);
#107=FACE_OUTER_BOUND('',#121,.T.);
#108=FACE_OUTER_BOUND('',#124,.T.);
#109=FACE_OUTER_BOUND('',#141,.T.);
#110=FACE_OUTER_BOUND('',#144,.T.);
#111=EDGE_LOOP('',(#185,#186,#187,#188));
#112=EDGE_LOOP('',(#189,#190,#191,#192));
#113=EDGE_LOOP('',(#193,#194,#195,#196));
#114=EDGE_LOOP('',(#197,#198,#199,#200));
#115=EDGE_LOOP('',(#201,#202,#203,#204));
#116=EDGE_LOOP('',(#205,#206,#207,#208));
#117=EDGE_LOOP('',(#209,#210,#211,#212));
#118=EDGE_LOOP('',(#213,#214,#215,#216));
#119=EDGE_LOOP('',(#217,#218,#219,#220));
#120=EDGE_LOOP('',(#221,#222,#223,#224));
#121=EDGE_LOOP('',(#225,#226,#227,#228));
#122=EDGE_LOOP('',(#229));
#123=EDGE_LOOP('',(#230));
#124=EDGE_LOOP('',(#231,#232,#233,#234));
#125=EDGE_LOOP('',(#235));
#126=EDGE_LOOP('',(#236));
#127=EDGE_LOOP('',(#237));
#128=EDGE_LOOP('',(#238,#239,#240,#241,#242,#243,#244,#245,#246,#247,#248,
#249));
#129=EDGE_LOOP('',(#250));
#130=EDGE_LOOP('',(#251));
#131=EDGE_LOOP('',(#252));
#132=EDGE_LOOP('',(#253,#254,#255,#256,#257,#258,#259,#260,#261,#262,#263,
#264));
#133=EDGE_LOOP('',(#265));
#134=EDGE_LOOP('',(#266));
#135=EDGE_LOOP('',(#267));
#136=EDGE_LOOP('',(#268));
#137=EDGE_LOOP('',(#269));
#138=EDGE_LOOP('',(#270));
#139=EDGE_LOOP('',(#271));
#140=EDGE_LOOP('',(#272));
#141=EDGE_LOOP('',(#273));
#142=EDGE_LOOP('',(#274));
#143=EDGE_LOOP('',(#275));
#144=EDGE_LOOP('',(#276));
#145=LINE('',#579,#165);
#146=LINE('',#583,#166);
#147=LINE('',#587,#167);
#148=LINE('',#591,#168);
#149=LINE('',#593,#169);
#150=LINE('',#595,#170);
#151=LINE('',#599,#171);
#152=LINE('',#603,#172);
#153=LINE('',#605,#173);
#154=LINE('',#607,#174);
#155=LINE('',#611,#175);
#156=LINE('',#617,#176);
#157=LINE('',#623,#177);
#158=LINE('',#627,#178);
#159=LINE('',#629,#179);
#160=LINE('',#631,#180);
#161=LINE('',#635,#181);
#162=LINE('',#639,#182);
#163=LINE('',#641,#183);
#164=LINE('',#643,#184);
#165=VECTOR('',#457,1.);
#166=VECTOR('',#460,1.);
#167=VECTOR('',#465,1.);
#168=VECTOR('',#470,1.);
#169=VECTOR('',#471,1.);
#170=VECTOR('',#472,1.);
#171=VECTOR('',#477,1.);
#172=VECTOR('',#482,1.);
#173=VECTOR('',#483,1.);
#174=VECTOR('',#484,1.);
#175=VECTOR('',#489,1.);
#176=VECTOR('',#496,1.);
#177=VECTOR('',#503,1.);
#178=VECTOR('',#508,1.);
#179=VECTOR('',#509,1.);
#180=VECTOR('',#510,1.);
#181=VECTOR('',#515,1.);
#182=VECTOR('',#520,1.);
#183=VECTOR('',#521,1.);
#184=VECTOR('',#522,1.);
#185=ORIENTED_EDGE('',*,*,#311,.T.);
#186=ORIENTED_EDGE('',*,*,#312,.F.);
#187=ORIENTED_EDGE('',*,*,#313,.F.);
#188=ORIENTED_EDGE('',*,*,#314,.T.);
#189=ORIENTED_EDGE('',*,*,#315,.T.);
#190=ORIENTED_EDGE('',*,*,#316,.F.);
#191=ORIENTED_EDGE('',*,*,#317,.F.);
#192=ORIENTED_EDGE('',*,*,#312,.T.);
#193=ORIENTED_EDGE('',*,*,#318,.T.);
#194=ORIENTED_EDGE('',*,*,#319,.F.);
#195=ORIENTED_EDGE('',*,*,#320,.F.);
#196=ORIENTED_EDGE('',*,*,#316,.T.);
#197=ORIENTED_EDGE('',*,*,#321,.T.);
#198=ORIENTED_EDGE('',*,*,#322,.F.);
#199=ORIENTED_EDGE('',*,*,#323,.F.);
#200=ORIENTED_EDGE('',*,*,#319,.T.);
#201=ORIENTED_EDGE('',*,*,#324,.T.);
#202=ORIENTED_EDGE('',*,*,#325,.F.);
#203=ORIENTED_EDGE('',*,*,#326,.F.);
#204=ORIENTED_EDGE('',*,*,#322,.T.);
#205=ORIENTED_EDGE('',*,*,#327,.T.);
#206=ORIENTED_EDGE('',*,*,#328,.F.);
#207=ORIENTED_EDGE('',*,*,#329,.F.);
#208=ORIENTED_EDGE('',*,*,#325,.T.);
#209=ORIENTED_EDGE('',*,*,#330,.T.);
#210=ORIENTED_EDGE('',*,*,#331,.F.);
#211=ORIENTED_EDGE('',*,*,#332,.F.);
#212=ORIENTED_EDGE('',*,*,#328,.T.);
#213=ORIENTED_EDGE('',*,*,#333,.T.);
#214=ORIENTED_EDGE('',*,*,#334,.F.);
#215=ORIENTED_EDGE('',*,*,#335,.F.);
#216=ORIENTED_EDGE('',*,*,#331,.T.);
#217=ORIENTED_EDGE('',*,*,#336,.T.);
#218=ORIENTED_EDGE('',*,*,#337,.F.);
#219=ORIENTED_EDGE('',*,*,#338,.F.);
#220=ORIENTED_EDGE('',*,*,#334,.T.);
#221=ORIENTED_EDGE('',*,*,#339,.T.);
#222=ORIENTED_EDGE('',*,*,#340,.F.);
#223=ORIENTED_EDGE('',*,*,#341,.F.);
#224=ORIENTED_EDGE('',*,*,#337,.T.);
#225=ORIENTED_EDGE('',*,*,#342,.T.);
#226=ORIENTED_EDGE('',*,*,#343,.F.);
#227=ORIENTED_EDGE('',*,*,#344,.F.);
#228=ORIENTED_EDGE('',*,*,#340,.T.);
#229=ORIENTED_EDGE('',*,*,#345,.T.);
#230=ORIENTED_EDGE('',*,*,#346,.F.);
#231=ORIENTED_EDGE('',*,*,#347,.T.);
#232=ORIENTED_EDGE('',*,*,#314,.F.);
#233=ORIENTED_EDGE('',*,*,#348,.F.);
#234=ORIENTED_EDGE('',*,*,#343,.T.);
#235=ORIENTED_EDGE('',*,*,#349,.T.);
#236=ORIENTED_EDGE('',*,*,#350,.F.);
#237=ORIENTED_EDGE('',*,*,#351,.F.);
#238=ORIENTED_EDGE('',*,*,#313,.T.);
#239=ORIENTED_EDGE('',*,*,#317,.T.);
#240=ORIENTED_EDGE('',*,*,#320,.T.);
#241=ORIENTED_EDGE('',*,*,#323,.T.);
#242=ORIENTED_EDGE('',*,*,#326,.T.);
#243=ORIENTED_EDGE('',*,*,#329,.T.);
#244=ORIENTED_EDGE('',*,*,#332,.T.);
#245=ORIENTED_EDGE('',*,*,#335,.T.);
#246=ORIENTED_EDGE('',*,*,#338,.T.);
#247=ORIENTED_EDGE('',*,*,#341,.T.);
#248=ORIENTED_EDGE('',*,*,#344,.T.);
#249=ORIENTED_EDGE('',*,*,#348,.T.);
#250=ORIENTED_EDGE('',*,*,#345,.F.);
#251=ORIENTED_EDGE('',*,*,#349,.F.);
#252=ORIENTED_EDGE('',*,*,#352,.F.);
#253=ORIENTED_EDGE('',*,*,#311,.F.);
#254=ORIENTED_EDGE('',*,*,#347,.F.);
#255=ORIENTED_EDGE('',*,*,#342,.F.);
#256=ORIENTED_EDGE('',*,*,#339,.F.);
#257=ORIENTED_EDGE('',*,*,#336,.F.);
#258=ORIENTED_EDGE('',*,*,#333,.F.);
#259=ORIENTED_EDGE('',*,*,#330,.F.);
#260=ORIENTED_EDGE('',*,*,#327,.F.);
#261=ORIENTED_EDGE('',*,*,#324,.F.);
#262=ORIENTED_EDGE('',*,*,#321,.F.);
#263=ORIENTED_EDGE('',*,*,#318,.F.);
#264=ORIENTED_EDGE('',*,*,#315,.F.);
#265=ORIENTED_EDGE('',*,*,#346,.T.);
#266=ORIENTED_EDGE('',*,*,#350,.T.);
#267=ORIENTED_EDGE('',*,*,#353,.F.);
#268=ORIENTED_EDGE('',*,*,#351,.T.);
#269=ORIENTED_EDGE('',*,*,#354,.F.);
#270=ORIENTED_EDGE('',*,*,#353,.T.);
#271=ORIENTED_EDGE('',*,*,#355,.T.);
#272=ORIENTED_EDGE('',*,*,#354,.T.);
#273=ORIENTED_EDGE('',*,*,#355,.F.);
#274=ORIENTED_EDGE('',*,*,#356,.F.);
#275=ORIENTED_EDGE('',*,*,#352,.T.);
#276=ORIENTED_EDGE('',*,*,#356,.T.);
#277=VERTEX_POINT('',#577);
#278=VERTEX_POINT('',#578);
#279=VERTEX_POINT('',#580);
#280=VERTEX_POINT('',#582);
#281=VERTEX_POINT('',#586);
#282=VERTEX_POINT('',#588);
#283=VERTEX_POINT('',#592);
#284=VERTEX_POINT('',#594);
#285=VERTEX_POINT('',#598);
#286=VERTEX_POINT('',#600);
#287=VERTEX_POINT('',#604);
#288=VERTEX_POINT('',#606);
#289=VERTEX_POINT('',#610);
#290=VERTEX_POINT('',#612);
#291=VERTEX_POINT('',#616);
#292=VERTEX_POINT('',#618);
#293=VERTEX_POINT('',#622);
#294=VERTEX_POINT('',#624);
#295=VERTEX_POINT('',#628);
#296=VERTEX_POINT('',#630);
#297=VERTEX_POINT('',#634);
#298=VERTEX_POINT('',#636);
#299=VERTEX_POINT('',#640);
#300=VERTEX_POINT('',#642);
#301=VERTEX_POINT('',#646);
#302=VERTEX_POINT('',#648);
#303=VERTEX_POINT('',#654);
#304=VERTEX_POINT('',#656);
#305=VERTEX_POINT('',#659);
#306=VERTEX_POINT('',#662);
#307=VERTEX_POINT('',#665);
#308=VERTEX_POINT('',#668);
#309=VERTEX_POINT('',#671);
#310=VERTEX_POINT('',#675);
#311=EDGE_CURVE('',#277,#278,#357,.T.);
#312=EDGE_CURVE('',#279,#278,#145,.T.);
#313=EDGE_CURVE('',#280,#279,#358,.T.);
#314=EDGE_CURVE('',#280,#277,#146,.T.);
#315=EDGE_CURVE('',#278,#281,#359,.T.);
#316=EDGE_CURVE('',#282,#281,#147,.T.);
#317=EDGE_CURVE('',#279,#282,#360,.T.);
#318=EDGE_CURVE('',#281,#283,#148,.T.);
#319=EDGE_CURVE('',#284,#283,#149,.T.);
#320=EDGE_CURVE('',#282,#284,#150,.T.);
#321=EDGE_CURVE('',#283,#285,#361,.T.);
#322=EDGE_CURVE('',#286,#285,#151,.T.);
#323=EDGE_CURVE('',#284,#286,#362,.T.);
#324=EDGE_CURVE('',#285,#287,#152,.T.);
#325=EDGE_CURVE('',#288,#287,#153,.T.);
#326=EDGE_CURVE('',#286,#288,#154,.T.);
#327=EDGE_CURVE('',#287,#289,#363,.T.);
#328=EDGE_CURVE('',#290,#289,#155,.T.);
#329=EDGE_CURVE('',#288,#290,#364,.T.);
#330=EDGE_CURVE('',#289,#291,#365,.T.);
#331=EDGE_CURVE('',#292,#291,#156,.T.);
#332=EDGE_CURVE('',#290,#292,#366,.T.);
#333=EDGE_CURVE('',#291,#293,#367,.T.);
#334=EDGE_CURVE('',#294,#293,#157,.T.);
#335=EDGE_CURVE('',#292,#294,#368,.T.);
#336=EDGE_CURVE('',#293,#295,#158,.T.);
#337=EDGE_CURVE('',#296,#295,#159,.T.);
#338=EDGE_CURVE('',#294,#296,#160,.T.);
#339=EDGE_CURVE('',#295,#297,#369,.T.);
#340=EDGE_CURVE('',#298,#297,#161,.T.);
#341=EDGE_CURVE('',#296,#298,#370,.T.);
#342=EDGE_CURVE('',#297,#299,#162,.T.);
#343=EDGE_CURVE('',#300,#299,#163,.T.);
#344=EDGE_CURVE('',#298,#300,#164,.T.);
#345=EDGE_CURVE('',#301,#301,#371,.T.);
#346=EDGE_CURVE('',#302,#302,#372,.T.);
#347=EDGE_CURVE('',#299,#277,#373,.T.);
#348=EDGE_CURVE('',#300,#280,#374,.T.);
#349=EDGE_CURVE('',#303,#303,#375,.T.);
#350=EDGE_CURVE('',#304,#304,#376,.T.);
#351=EDGE_CURVE('',#305,#305,#377,.T.);
#352=EDGE_CURVE('',#306,#306,#378,.T.);
#353=EDGE_CURVE('',#307,#307,#379,.T.);
#354=EDGE_CURVE('',#308,#308,#380,.T.);
#355=EDGE_CURVE('',#309,#309,#381,.T.);
#356=EDGE_CURVE('',#310,#310,#382,.T.);
#357=CIRCLE('',#405,5.);
#358=CIRCLE('',#406,5.);
#359=CIRCLE('',#408,2.);
#360=CIRCLE('',#409,2.);
#361=CIRCLE('',#412,17.);
#362=CIRCLE('',#413,17.);
#363=CIRCLE('',#416,2.);
#364=CIRCLE('',#417,2.);
#365=CIRCLE('',#419,5.);
#366=CIRCLE('',#420,5.);
#367=CIRCLE('',#422,2.);
#368=CIRCLE('',#423,2.);
#369=CIRCLE('',#426,17.);
#370=CIRCLE('',#427,17.);
#371=CIRCLE('',#430,2.);
#372=CIRCLE('',#431,2.);
#373=CIRCLE('',#433,2.);
#374=CIRCLE('',#434,2.);
#375=CIRCLE('',#436,2.);
#376=CIRCLE('',#437,2.);
#377=CIRCLE('',#439,13.);
#378=CIRCLE('',#441,11.7);
#379=CIRCLE('',#443,13.);
#380=CIRCLE('',#445,10.);
#381=CIRCLE('',#447,10.);
#382=CIRCLE('',#450,11.7);
#383=PRESENTATION_LAYER_ASSIGNMENT('1','Layer 1',(#572,#573,#574,#575,#31));
#384=STYLED_ITEM('',(#389),#572);
#385=STYLED_ITEM('',(#390),#573);
#386=STYLED_ITEM('',(#391),#574);
#387=STYLED_ITEM('',(#392),#575);
#388=STYLED_ITEM('',(#393),#31);
#389=PRESENTATION_STYLE_ASSIGNMENT((#394));
#390=PRESENTATION_STYLE_ASSIGNMENT((#395));
#391=PRESENTATION_STYLE_ASSIGNMENT((#396));
#392=PRESENTATION_STYLE_ASSIGNMENT((#397));
#393=PRESENTATION_STYLE_ASSIGNMENT((#26));
#394=POINT_STYLE('',#398,POSITIVE_LENGTH_MEASURE(3.),#402);
#395=POINT_STYLE('',#399,POSITIVE_LENGTH_MEASURE(3.),#402);
#396=POINT_STYLE('',#400,POSITIVE_LENGTH_MEASURE(3.),#402);
#397=POINT_STYLE('',#401,POSITIVE_LENGTH_MEASURE(3.),#402);
#398=PRE_DEFINED_POINT_MARKER_SYMBOL('plus');
#399=PRE_DEFINED_POINT_MARKER_SYMBOL('plus');
#400=PRE_DEFINED_POINT_MARKER_SYMBOL('plus');
#401=PRE_DEFINED_POINT_MARKER_SYMBOL('plus');
#402=COLOUR_RGB('Medium Royal',0.301960784313725,0.427450980392157,0.701960784313725);
#403=COLOUR_RGB('dark gray',0.2,0.2,0.2);
#404=AXIS2_PLACEMENT_3D('',#571,#453,#454);
#405=AXIS2_PLACEMENT_3D('',#576,#455,#456);
#406=AXIS2_PLACEMENT_3D('',#581,#458,#459);
#407=AXIS2_PLACEMENT_3D('',#584,#461,#462);
#408=AXIS2_PLACEMENT_3D('',#585,#463,#464);
#409=AXIS2_PLACEMENT_3D('',#589,#466,#467);
#410=AXIS2_PLACEMENT_3D('',#590,#468,#469);
#411=AXIS2_PLACEMENT_3D('',#596,#473,#474);
#412=AXIS2_PLACEMENT_3D('',#597,#475,#476);
#413=AXIS2_PLACEMENT_3D('',#601,#478,#479);
#414=AXIS2_PLACEMENT_3D('',#602,#480,#481);
#415=AXIS2_PLACEMENT_3D('',#608,#485,#486);
#416=AXIS2_PLACEMENT_3D('',#609,#487,#488);
#417=AXIS2_PLACEMENT_3D('',#613,#490,#491);
#418=AXIS2_PLACEMENT_3D('',#614,#492,#493);
#419=AXIS2_PLACEMENT_3D('',#615,#494,#495);
#420=AXIS2_PLACEMENT_3D('',#619,#497,#498);
#421=AXIS2_PLACEMENT_3D('',#620,#499,#500);
#422=AXIS2_PLACEMENT_3D('',#621,#501,#502);
#423=AXIS2_PLACEMENT_3D('',#625,#504,#505);
#424=AXIS2_PLACEMENT_3D('',#626,#506,#507);
#425=AXIS2_PLACEMENT_3D('',#632,#511,#512);
#426=AXIS2_PLACEMENT_3D('',#633,#513,#514);
#427=AXIS2_PLACEMENT_3D('',#637,#516,#517);
#428=AXIS2_PLACEMENT_3D('',#638,#518,#519);
#429=AXIS2_PLACEMENT_3D('',#644,#523,#524);
#430=AXIS2_PLACEMENT_3D('',#645,#525,#526);
#431=AXIS2_PLACEMENT_3D('',#647,#527,#528);
#432=AXIS2_PLACEMENT_3D('',#649,#529,#530);
#433=AXIS2_PLACEMENT_3D('',#650,#531,#532);
#434=AXIS2_PLACEMENT_3D('',#651,#533,#534);
#435=AXIS2_PLACEMENT_3D('',#652,#535,#536);
#436=AXIS2_PLACEMENT_3D('',#653,#537,#538);
#437=AXIS2_PLACEMENT_3D('',#655,#539,#540);
#438=AXIS2_PLACEMENT_3D('',#657,#541,#542);
#439=AXIS2_PLACEMENT_3D('',#658,#543,#544);
#440=AXIS2_PLACEMENT_3D('',#660,#545,#546);
#441=AXIS2_PLACEMENT_3D('',#661,#547,#548);
#442=AXIS2_PLACEMENT_3D('',#663,#549,#550);
#443=AXIS2_PLACEMENT_3D('',#664,#551,#552);
#444=AXIS2_PLACEMENT_3D('',#666,#553,#554);
#445=AXIS2_PLACEMENT_3D('',#667,#555,#556);
#446=AXIS2_PLACEMENT_3D('',#669,#557,#558);
#447=AXIS2_PLACEMENT_3D('',#670,#559,#560);
#448=AXIS2_PLACEMENT_3D('',#672,#561,#562);
#449=AXIS2_PLACEMENT_3D('',#673,#563,#564);
#450=AXIS2_PLACEMENT_3D('',#674,#565,#566);
#451=AXIS2_PLACEMENT_3D('',#676,#567,#568);
#452=AXIS2_PLACEMENT_3D('',#677,#569,#570);
#453=DIRECTION('',(0.,0.,1.));
#454=DIRECTION('',(1.,0.,0.));
#455=DIRECTION('',(0.,0.,1.));
#456=DIRECTION('',(1.,0.,0.));
#457=DIRECTION('',(0.,0.,-1.));
#458=DIRECTION('',(0.,0.,1.));
#459=DIRECTION('',(1.,0.,0.));
#460=DIRECTION('',(0.,0.,-1.));
#461=DIRECTION('',(0.,0.,-1.));
#462=DIRECTION('',(-1.,0.,0.));
#463=DIRECTION('',(0.,0.,-1.));
#464=DIRECTION('',(1.,0.,0.));
#465=DIRECTION('',(0.,0.,-1.));
#466=DIRECTION('',(0.,0.,-1.));
#467=DIRECTION('',(1.,0.,0.));
#468=DIRECTION('',(0.,0.,-1.));
#469=DIRECTION('',(-1.,0.,0.));
#470=DIRECTION('',(0.748795472456028,-0.662801131885993,0.));
#471=DIRECTION('',(0.,0.,-1.));
#472=DIRECTION('',(0.748795472456028,-0.662801131885993,0.));
#473=DIRECTION('',(0.662801131885993,0.748795472456028,0.));
#474=DIRECTION('',(-0.748795472456028,0.662801131885993,0.));
#475=DIRECTION('',(0.,0.,1.));
#476=DIRECTION('',(1.,0.,0.));
#477=DIRECTION('',(0.,0.,-1.));
#478=DIRECTION('',(0.,0.,1.));
#479=DIRECTION('',(1.,0.,0.));
#480=DIRECTION('',(0.,0.,-1.));
#481=DIRECTION('',(-1.,0.,0.));
#482=DIRECTION('',(0.748795472456029,0.662801131885992,0.));
#483=DIRECTION('',(0.,0.,-1.));
#484=DIRECTION('',(0.748795472456029,0.662801131885992,0.));
#485=DIRECTION('',(-0.662801131885992,0.748795472456029,0.));
#486=DIRECTION('',(-0.748795472456029,-0.662801131885992,0.));
#487=DIRECTION('',(0.,0.,-1.));
#488=DIRECTION('',(1.,0.,0.));
#489=DIRECTION('',(0.,0.,-1.));
#490=DIRECTION('',(0.,0.,-1.));
#491=DIRECTION('',(1.,0.,0.));
#492=DIRECTION('',(0.,0.,-1.));
#493=DIRECTION('',(-1.,0.,0.));
#494=DIRECTION('',(0.,0.,1.));
#495=DIRECTION('',(0.999999999999999,0.,0.));
#496=DIRECTION('',(0.,0.,-1.));
#497=DIRECTION('',(0.,0.,1.));
#498=DIRECTION('',(0.999999999999999,0.,0.));
#499=DIRECTION('',(0.,0.,-1.));
#500=DIRECTION('',(-0.999999999999999,0.,0.));
#501=DIRECTION('',(0.,0.,-1.));
#502=DIRECTION('',(1.,0.,0.));
#503=DIRECTION('',(0.,0.,-1.));
#504=DIRECTION('',(0.,0.,-1.));
#505=DIRECTION('',(1.,0.,0.));
#506=DIRECTION('',(0.,0.,-1.));
#507=DIRECTION('',(-1.,0.,0.));
#508=DIRECTION('',(-0.748795472456029,0.662801131885993,0.));
#509=DIRECTION('',(0.,0.,-1.));
#510=DIRECTION('',(-0.748795472456029,0.662801131885993,0.));
#511=DIRECTION('',(-0.662801131885993,-0.748795472456028,0.));
#512=DIRECTION('',(0.748795472456028,-0.662801131885993,0.));
#513=DIRECTION('',(0.,0.,1.));
#514=DIRECTION('',(1.,0.,0.));
#515=DIRECTION('',(0.,0.,-1.));
#516=DIRECTION('',(0.,0.,1.));
#517=DIRECTION('',(1.,0.,0.));
#518=DIRECTION('',(0.,0.,-1.));
#519=DIRECTION('',(-1.,0.,0.));
#520=DIRECTION('',(-0.748795472456028,-0.662801131885993,0.));
#521=DIRECTION('',(0.,0.,-1.));
#522=DIRECTION('',(-0.748795472456028,-0.662801131885993,0.));
#523=DIRECTION('',(0.662801131885993,-0.748795472456028,0.));
#524=DIRECTION('',(0.748795472456028,0.662801131885993,0.));
#525=DIRECTION('',(0.,0.,1.));
#526=DIRECTION('',(1.,0.,0.));
#527=DIRECTION('',(0.,0.,1.));
#528=DIRECTION('',(1.,0.,0.));
#529=DIRECTION('',(0.,0.,-1.));
#530=DIRECTION('',(-1.,0.,0.));
#531=DIRECTION('',(0.,0.,-1.));
#532=DIRECTION('',(1.,0.,0.));
#533=DIRECTION('',(0.,0.,-1.));
#534=DIRECTION('',(1.,0.,0.));
#535=DIRECTION('',(0.,0.,-1.));
#536=DIRECTION('',(-1.,0.,0.));
#537=DIRECTION('',(0.,0.,1.));
#538=DIRECTION('',(1.,0.,0.));
#539=DIRECTION('',(0.,0.,1.));
#540=DIRECTION('',(1.,0.,0.));
#541=DIRECTION('',(0.,0.,-1.));
#542=DIRECTION('',(-1.,0.,0.));
#543=DIRECTION('',(0.,0.,1.));
#544=DIRECTION('',(0.748795472456029,0.662801131885992,0.));
#545=DIRECTION('',(0.,0.,1.));
#546=DIRECTION('',(1.,0.,0.));
#547=DIRECTION('',(0.,0.,-1.));
#548=DIRECTION('',(-0.748795472456028,-0.662801131885994,0.));
#549=DIRECTION('',(0.,0.,1.));
#550=DIRECTION('',(1.,0.,0.));
#551=DIRECTION('',(0.,0.,1.));
#552=DIRECTION('',(0.748795472456029,0.662801131885992,0.));
#553=DIRECTION('',(0.,0.,-1.));
#554=DIRECTION('',(-1.,0.,0.));
#555=DIRECTION('',(0.,0.,1.));
#556=DIRECTION('',(1.,0.,0.));
#557=DIRECTION('',(0.,0.,1.));
#558=DIRECTION('',(1.,0.,0.));
#559=DIRECTION('',(0.,0.,-1.));
#560=DIRECTION('',(1.,0.,0.));
#561=DIRECTION('',(0.,0.,1.));
#562=DIRECTION('',(1.,0.,0.));
#563=DIRECTION('',(0.,0.,1.));
#564=DIRECTION('',(1.,0.,0.));
#565=DIRECTION('',(0.,0.,-1.));
#566=DIRECTION('',(-0.748795472456028,-0.662801131885994,0.));
#567=DIRECTION('',(0.,0.,1.));
#568=DIRECTION('',(1.,0.,0.));
#569=DIRECTION('',(0.,0.,-1.));
#570=DIRECTION('',(-1.,0.,0.));
#571=CARTESIAN_POINT('',(0.,0.,0.));
#572=CARTESIAN_POINT('Point12',(2.52660774903715E-15,22.,0.));
#573=CARTESIAN_POINT('Point13',(-9.80026929636177E-15,12.,0.));
#574=CARTESIAN_POINT('Point14',(40.,12.,0.));
#575=CARTESIAN_POINT('Point15',(40.,22.,0.));
#576=CARTESIAN_POINT('',(0.,17.,0.));
#577=CARTESIAN_POINT('',(-0.579502503693414,21.9663041437485,0.));
#578=CARTESIAN_POINT('',(-0.579502503693441,12.0336958562515,0.));
#579=CARTESIAN_POINT('',(-0.579502503693441,12.0336958562515,3.));
#580=CARTESIAN_POINT('',(-0.579502503693441,12.0336958562515,3.));
#581=CARTESIAN_POINT('',(0.,17.,3.));
#582=CARTESIAN_POINT('',(-0.579502503693414,21.9663041437485,3.));
#583=CARTESIAN_POINT('',(-0.579502503693414,21.9663041437485,3.));
#584=CARTESIAN_POINT('',(0.,17.,3.));
#585=CARTESIAN_POINT('',(-0.811303505170854,10.0471741987522,0.));
#586=CARTESIAN_POINT('',(0.514298758601132,11.5447651436642,0.));
#587=CARTESIAN_POINT('',(0.514298758601132,11.5447651436642,3.));
#588=CARTESIAN_POINT('',(0.514298758601132,11.5447651436642,3.));
#589=CARTESIAN_POINT('',(-0.811303505170854,10.0471741987522,3.));
#590=CARTESIAN_POINT('',(-0.811303505170854,10.0471741987522,3.));
#591=CARTESIAN_POINT('',(0.514298758601134,11.5447651436642,0.));
#592=CARTESIAN_POINT('',(8.73238075793812,4.27047696824752,0.));
#593=CARTESIAN_POINT('',(8.73238075793812,4.27047696824752,3.));
#594=CARTESIAN_POINT('',(8.73238075793812,4.27047696824752,3.));
#595=CARTESIAN_POINT('',(0.514298758601134,11.5447651436642,3.));
#596=CARTESIAN_POINT('',(0.514298758601134,11.5447651436642,3.));
#597=CARTESIAN_POINT('',(20.,17.,0.));
#598=CARTESIAN_POINT('',(31.2676192421123,4.27047696829212,0.));
#599=CARTESIAN_POINT('',(31.2676192421123,4.27047696829212,3.));
#600=CARTESIAN_POINT('',(31.2676192421123,4.27047696829212,3.));
#601=CARTESIAN_POINT('',(20.,17.,3.));
#602=CARTESIAN_POINT('',(20.,17.,3.));
#603=CARTESIAN_POINT('',(31.2676192420619,4.27047696824751,0.));
#604=CARTESIAN_POINT('',(39.4857012413989,11.5447651436642,0.));
#605=CARTESIAN_POINT('',(39.4857012413989,11.5447651436642,3.));
#606=CARTESIAN_POINT('',(39.4857012413989,11.5447651436642,3.));
#607=CARTESIAN_POINT('',(31.2676192420619,4.27047696824751,3.));
#608=CARTESIAN_POINT('',(31.2676192420619,4.27047696824751,3.));
#609=CARTESIAN_POINT('',(40.8113035051709,10.0471741987522,0.));
#610=CARTESIAN_POINT('',(40.5795025036935,12.0336958562516,0.));
#611=CARTESIAN_POINT('',(40.5795025036935,12.0336958562516,3.));
#612=CARTESIAN_POINT('',(40.5795025036935,12.0336958562516,3.));
#613=CARTESIAN_POINT('',(40.8113035051709,10.0471741987522,3.));
#614=CARTESIAN_POINT('',(40.8113035051709,10.0471741987522,3.));
#615=CARTESIAN_POINT('',(40.,17.,0.));
#616=CARTESIAN_POINT('',(40.5795025036935,21.9663041437484,0.));
#617=CARTESIAN_POINT('',(40.5795025036935,21.9663041437484,3.));
#618=CARTESIAN_POINT('',(40.5795025036935,21.9663041437484,3.));
#619=CARTESIAN_POINT('',(40.,17.,3.));
#620=CARTESIAN_POINT('',(40.,17.,3.));
#621=CARTESIAN_POINT('',(40.8113035051709,23.9528258012478,0.));
#622=CARTESIAN_POINT('',(39.4857012413989,22.4552348563358,0.));
#623=CARTESIAN_POINT('',(39.4857012413989,22.4552348563358,3.));
#624=CARTESIAN_POINT('',(39.4857012413989,22.4552348563358,3.));
#625=CARTESIAN_POINT('',(40.8113035051709,23.9528258012478,3.));
#626=CARTESIAN_POINT('',(40.8113035051709,23.9528258012478,3.));
#627=CARTESIAN_POINT('',(39.4857012413989,22.4552348563358,0.));
#628=CARTESIAN_POINT('',(31.2676192420619,29.7295230317525,0.));
#629=CARTESIAN_POINT('',(31.2676192420619,29.7295230317525,3.));
#630=CARTESIAN_POINT('',(31.2676192420619,29.7295230317525,3.));
#631=CARTESIAN_POINT('',(39.4857012413989,22.4552348563358,3.));
#632=CARTESIAN_POINT('',(39.4857012413989,22.4552348563358,3.));
#633=CARTESIAN_POINT('',(20.,17.,0.));
#634=CARTESIAN_POINT('',(8.73238075789955,29.7295230317184,0.));
#635=CARTESIAN_POINT('',(8.73238075789955,29.7295230317184,3.));
#636=CARTESIAN_POINT('',(8.73238075789955,29.7295230317184,3.));
#637=CARTESIAN_POINT('',(20.,17.,3.));
#638=CARTESIAN_POINT('',(20.,17.,3.));
#639=CARTESIAN_POINT('',(8.73238075793811,29.7295230317525,0.));
#640=CARTESIAN_POINT('',(0.514298758601135,22.4552348563358,0.));
#641=CARTESIAN_POINT('',(0.514298758601135,22.4552348563358,3.));
#642=CARTESIAN_POINT('',(0.514298758601135,22.4552348563358,3.));
#643=CARTESIAN_POINT('',(8.73238075793811,29.7295230317525,3.));
#644=CARTESIAN_POINT('',(8.73238075793811,29.7295230317525,3.));
#645=CARTESIAN_POINT('',(-6.93889390390723E-15,17.,3.));
#646=CARTESIAN_POINT('',(1.99999999999999,17.,3.));
#647=CARTESIAN_POINT('',(-6.93889390390723E-15,17.,0.));
#648=CARTESIAN_POINT('',(1.99999999999999,17.,0.));
#649=CARTESIAN_POINT('',(-6.93889390390723E-15,17.,3.));
#650=CARTESIAN_POINT('',(-0.811303505170852,23.9528258012478,0.));
#651=CARTESIAN_POINT('',(-0.811303505170852,23.9528258012478,3.));
#652=CARTESIAN_POINT('',(-0.811303505170852,23.9528258012478,3.));
#653=CARTESIAN_POINT('',(40.,17.,3.));
#654=CARTESIAN_POINT('',(42.,17.,3.));
#655=CARTESIAN_POINT('',(40.,17.,0.));
#656=CARTESIAN_POINT('',(42.,17.,0.));
#657=CARTESIAN_POINT('',(40.,17.,3.));
#658=CARTESIAN_POINT('',(20.,17.,3.));
#659=CARTESIAN_POINT('',(29.7343411419284,25.6164147145179,3.));
#660=CARTESIAN_POINT('',(0.,17.,3.));
#661=CARTESIAN_POINT('',(20.,17.,0.));
#662=CARTESIAN_POINT('',(11.2390929722645,9.24522675693388,0.));
#663=CARTESIAN_POINT('',(0.,17.,0.));
#664=CARTESIAN_POINT('',(20.,17.,23.));
#665=CARTESIAN_POINT('',(29.7343411419284,25.6164147145179,23.));
#666=CARTESIAN_POINT('',(20.,17.,23.));
#667=CARTESIAN_POINT('',(20.,17.,23.));
#668=CARTESIAN_POINT('',(30.,17.,23.));
#669=CARTESIAN_POINT('',(20.,17.,23.));
#670=CARTESIAN_POINT('',(20.,17.,8.));
#671=CARTESIAN_POINT('',(30.,17.,8.));
#672=CARTESIAN_POINT('',(20.,17.,8.));
#673=CARTESIAN_POINT('',(20.,17.,8.));
#674=CARTESIAN_POINT('',(20.,17.,-20.));
#675=CARTESIAN_POINT('',(11.2390929722645,9.24522675693388,-20.));
#676=CARTESIAN_POINT('',(20.,17.,-20.));
#677=CARTESIAN_POINT('',(20.,17.,-20.));
#678=MECHANICAL_DESIGN_GEOMETRIC_PRESENTATION_REPRESENTATION('',(#384,#385,
#386,#387,#388),#679);
#679=(
GEOMETRIC_REPRESENTATION_CONTEXT(3)
GLOBAL_UNCERTAINTY_ASSIGNED_CONTEXT((#680))
GLOBAL_UNIT_ASSIGNED_CONTEXT((#686,#682,#681))
REPRESENTATION_CONTEXT('connector','TOP_LEVEL_ASSEMBLY_PART')
);
#680=UNCERTAINTY_MEASURE_WITH_UNIT(LENGTH_MEASURE(2.E-5),#686,
'DISTANCE_ACCURACY_VALUE','Maximum Tolerance applied to model');
#681=(
NAMED_UNIT(*)
SI_UNIT($,.STERADIAN.)
SOLID_ANGLE_UNIT()
);
#682=(
CONVERSION_BASED_UNIT('DEGREE',#684)
NAMED_UNIT(#683)
PLANE_ANGLE_UNIT()
);
#683=DIMENSIONAL_EXPONENTS(0.,0.,0.,0.,0.,0.,0.);
#684=PLANE_ANGLE_MEASURE_WITH_UNIT(PLANE_ANGLE_MEASURE(0.0174532925),#685);
#685=(
NAMED_UNIT(*)
PLANE_ANGLE_UNIT()
SI_UNIT($,.RADIAN.)
);
#686=(
LENGTH_UNIT()
NAMED_UNIT(*)
SI_UNIT(.MILLI.,.METRE.)
);
ENDSEC;
END-ISO-10303-21;
