ISO-10303-21;
HEADER;
/* Generated by software containing ST-Developer
 * from STEP Tools, Inc. (www.steptools.com) 
 */
/* OPTION: using custom schema-name function */

FILE_DESCRIPTION(
/* description */ (''),
/* implementation_level */ '2;1');

FILE_NAME(
/* name */ 'housing_bottom.stp',
/* time_stamp */ '2026-07-19T12:50:51+02:00',
/* author */ (''),
/* organization */ (''),
/* preprocessor_version */ 'ST-DEVELOPER v18.102',
/* originating_system */ 'SIEMENS PLM Software NX2206.6002',
/* authorisation */ '');

FILE_SCHEMA (('AUTOMOTIVE_DESIGN { 1 0 10303 214 3 1 1 1 }'));
ENDSEC;

DATA;
#10=GEOMETRICALLY_BOUNDED_WIREFRAME_SHAPE_REPRESENTATION(
'housing_bottom-None',(#25),#1679);
#11=SHAPE_REPRESENTATION_RELATIONSHIP('None',
'relationship between housing_bottom-None and housing_bottom-None',#24,
#13);
#12=SHAPE_REPRESENTATION_RELATIONSHIP('None',
'relationship between housing_bottom-None and housing_bottom-None',#24,
#10);
#13=ADVANCED_BREP_SHAPE_REPRESENTATION('housing_bottom-None',(#31),#1679);
#14=SHAPE_DEFINITION_REPRESENTATION(#15,#24);
#15=PRODUCT_DEFINITION_SHAPE('','',#16);
#16=PRODUCT_DEFINITION(' ','',#18,#17);
#17=PRODUCT_DEFINITION_CONTEXT('part definition',#23,'design');
#18=PRODUCT_DEFINITION_FORMATION_WITH_SPECIFIED_SOURCE(' ',' ',#20,
 .NOT_KNOWN.);
#19=PRODUCT_RELATED_PRODUCT_CATEGORY('part','',(#20));
#20=PRODUCT('housing_bottom','housing_bottom',' ',(#21));
#21=PRODUCT_CONTEXT(' ',#23,'mechanical');
#22=APPLICATION_PROTOCOL_DEFINITION('international standard',
'automotive_design',2010,#23);
#23=APPLICATION_CONTEXT(
'core data for automotive mechanical design processes');
#24=SHAPE_REPRESENTATION('housing_bottom-None',(#980),#1679);
#25=GEOMETRIC_CURVE_SET('None',(#1418,#1419,#1420,#1421,#1422,#1423,#1424,
#1425));
#26=SURFACE_STYLE_USAGE(.BOTH.,#27);
#27=SURFACE_SIDE_STYLE('',(#28));
#28=SURFACE_STYLE_FILL_AREA(#29);
#29=FILL_AREA_STYLE('',(#30));
#30=FILL_AREA_STYLE_COLOUR('',#979);
#31=MANIFOLD_SOLID_BREP('',#32);
#32=CLOSED_SHELL('',(#101,#102,#103,#104,#105,#106,#107,#108,#109,#110,
#111,#112,#113,#114,#115,#116,#117,#118,#119,#120,#121,#122,#123,#124,#125,
#126,#127,#128,#129,#130,#131,#132,#133,#134,#135,#136,#137,#138,#139,#140,
#141,#142,#143,#144,#145,#146,#147,#148,#149,#150,#151,#152,#153,#154,#155,
#156,#157,#158,#159,#160,#161,#162,#163,#164));
#33=CONICAL_SURFACE('',#1046,0.,45.);
#34=CONICAL_SURFACE('',#1051,0.,45.);
#35=CONICAL_SURFACE('',#1056,0.,45.);
#36=CONICAL_SURFACE('',#1061,0.,45.);
#37=CONICAL_SURFACE('',#1066,0.,45.);
#38=CONICAL_SURFACE('',#1071,0.,45.);
#39=CONICAL_SURFACE('',#1076,0.,45.);
#40=CONICAL_SURFACE('',#1081,0.,45.);
#41=CONICAL_SURFACE('',#1088,0.,45.);
#42=CONICAL_SURFACE('',#1089,0.,45.);
#43=CONICAL_SURFACE('',#1093,0.,45.);
#44=CONICAL_SURFACE('',#1094,0.,45.);
#45=CONICAL_SURFACE('',#1098,0.,45.);
#46=CONICAL_SURFACE('',#1099,0.,45.);
#47=CONICAL_SURFACE('',#1103,0.,45.);
#48=CONICAL_SURFACE('',#1104,0.,45.);
#49=CONICAL_SURFACE('',#1108,0.,45.);
#50=CONICAL_SURFACE('',#1109,0.,45.);
#51=CONICAL_SURFACE('',#1113,0.,45.);
#52=CONICAL_SURFACE('',#1114,0.,45.);
#53=CYLINDRICAL_SURFACE('',#996,5.);
#54=CYLINDRICAL_SURFACE('',#1008,5.);
#55=CYLINDRICAL_SURFACE('',#1011,5.);
#56=CYLINDRICAL_SURFACE('',#1014,5.);
#57=CYLINDRICAL_SURFACE('',#1018,10.);
#58=CYLINDRICAL_SURFACE('',#1030,10.);
#59=CYLINDRICAL_SURFACE('',#1033,10.);
#60=CYLINDRICAL_SURFACE('',#1036,10.);
#61=CYLINDRICAL_SURFACE('',#1042,12.25);
#62=CYLINDRICAL_SURFACE('',#1043,12.25);
#63=CYLINDRICAL_SURFACE('',#1044,12.25);
#64=CYLINDRICAL_SURFACE('',#1049,2.);
#65=CYLINDRICAL_SURFACE('',#1054,2.);
#66=CYLINDRICAL_SURFACE('',#1059,2.);
#67=CYLINDRICAL_SURFACE('',#1064,2.);
#68=CYLINDRICAL_SURFACE('',#1069,2.);
#69=CYLINDRICAL_SURFACE('',#1074,2.);
#70=CYLINDRICAL_SURFACE('',#1079,2.);
#71=CYLINDRICAL_SURFACE('',#1084,2.);
#72=CYLINDRICAL_SURFACE('',#1087,2.);
#73=CYLINDRICAL_SURFACE('',#1092,2.);
#74=CYLINDRICAL_SURFACE('',#1097,2.);
#75=CYLINDRICAL_SURFACE('',#1102,2.);
#76=CYLINDRICAL_SURFACE('',#1107,2.);
#77=CYLINDRICAL_SURFACE('',#1112,2.);
#78=FACE_OUTER_BOUND('',#359,.T.);
#79=FACE_OUTER_BOUND('',#360,.T.);
#80=FACE_OUTER_BOUND('',#371,.T.);
#81=FACE_OUTER_BOUND('',#372,.T.);
#82=FACE_OUTER_BOUND('',#373,.T.);
#83=FACE_OUTER_BOUND('',#374,.T.);
#84=FACE_OUTER_BOUND('',#375,.T.);
#85=FACE_OUTER_BOUND('',#376,.T.);
#86=FACE_OUTER_BOUND('',#377,.T.);
#87=FACE_OUTER_BOUND('',#378,.T.);
#88=FACE_OUTER_BOUND('',#389,.T.);
#89=FACE_OUTER_BOUND('',#390,.T.);
#90=FACE_OUTER_BOUND('',#391,.T.);
#91=FACE_OUTER_BOUND('',#392,.T.);
#92=FACE_OUTER_BOUND('',#393,.T.);
#93=FACE_OUTER_BOUND('',#407,.T.);
#94=FACE_OUTER_BOUND('',#412,.T.);
#95=FACE_OUTER_BOUND('',#417,.T.);
#96=FACE_OUTER_BOUND('',#422,.T.);
#97=FACE_OUTER_BOUND('',#427,.T.);
#98=FACE_OUTER_BOUND('',#432,.T.);
#99=FACE_OUTER_BOUND('',#437,.T.);
#100=FACE_OUTER_BOUND('',#442,.T.);
#101=ADVANCED_FACE('',(#248,#249,#250,#251,#252,#253),#165,.T.);
#102=ADVANCED_FACE('',(#78),#166,.F.);
#103=ADVANCED_FACE('',(#79),#53,.T.);
#104=ADVANCED_FACE('',(#254,#255,#256,#257,#258,#259,#260,#261,#262,#263),
#167,.F.);
#105=ADVANCED_FACE('',(#80),#54,.T.);
#106=ADVANCED_FACE('',(#81),#168,.F.);
#107=ADVANCED_FACE('',(#82),#55,.T.);
#108=ADVANCED_FACE('',(#83),#169,.F.);
#109=ADVANCED_FACE('',(#84),#56,.T.);
#110=ADVANCED_FACE('',(#85),#170,.F.);
#111=ADVANCED_FACE('',(#86),#171,.F.);
#112=ADVANCED_FACE('',(#87),#57,.T.);
#113=ADVANCED_FACE('',(#264,#265,#266,#267,#268,#269,#270,#271,#272,#273),
#172,.F.);
#114=ADVANCED_FACE('',(#88),#58,.T.);
#115=ADVANCED_FACE('',(#89),#173,.F.);
#116=ADVANCED_FACE('',(#90),#59,.T.);
#117=ADVANCED_FACE('',(#91),#174,.F.);
#118=ADVANCED_FACE('',(#92),#60,.T.);
#119=ADVANCED_FACE('',(#274,#275,#276,#277,#278),#175,.F.);
#120=ADVANCED_FACE('',(#279,#280),#61,.F.);
#121=ADVANCED_FACE('',(#281,#282),#62,.F.);
#122=ADVANCED_FACE('',(#283,#284),#63,.F.);
#123=ADVANCED_FACE('',(#285,#286),#33,.F.);
#124=ADVANCED_FACE('',(#93),#176,.F.);
#125=ADVANCED_FACE('',(#287,#288),#64,.F.);
#126=ADVANCED_FACE('',(#289,#290),#34,.F.);
#127=ADVANCED_FACE('',(#94),#177,.F.);
#128=ADVANCED_FACE('',(#291,#292),#65,.F.);
#129=ADVANCED_FACE('',(#293,#294),#35,.F.);
#130=ADVANCED_FACE('',(#95),#178,.F.);
#131=ADVANCED_FACE('',(#295,#296),#66,.F.);
#132=ADVANCED_FACE('',(#297,#298),#36,.F.);
#133=ADVANCED_FACE('',(#96),#179,.F.);
#134=ADVANCED_FACE('',(#299,#300),#67,.F.);
#135=ADVANCED_FACE('',(#301,#302),#37,.F.);
#136=ADVANCED_FACE('',(#97),#180,.F.);
#137=ADVANCED_FACE('',(#303,#304),#68,.F.);
#138=ADVANCED_FACE('',(#305,#306),#38,.F.);
#139=ADVANCED_FACE('',(#98),#181,.F.);
#140=ADVANCED_FACE('',(#307,#308),#69,.F.);
#141=ADVANCED_FACE('',(#309,#310),#39,.F.);
#142=ADVANCED_FACE('',(#99),#182,.F.);
#143=ADVANCED_FACE('',(#311,#312),#70,.F.);
#144=ADVANCED_FACE('',(#313,#314),#40,.F.);
#145=ADVANCED_FACE('',(#100),#183,.F.);
#146=ADVANCED_FACE('',(#315,#316),#71,.F.);
#147=ADVANCED_FACE('',(#317,#318),#72,.F.);
#148=ADVANCED_FACE('',(#319,#320),#41,.F.);
#149=ADVANCED_FACE('',(#321,#322),#42,.F.);
#150=ADVANCED_FACE('',(#323,#324),#73,.F.);
#151=ADVANCED_FACE('',(#325,#326),#43,.F.);
#152=ADVANCED_FACE('',(#327,#328),#44,.F.);
#153=ADVANCED_FACE('',(#329,#330),#74,.F.);
#154=ADVANCED_FACE('',(#331,#332),#45,.F.);
#155=ADVANCED_FACE('',(#333,#334),#46,.F.);
#156=ADVANCED_FACE('',(#335,#336),#75,.F.);
#157=ADVANCED_FACE('',(#337,#338),#47,.F.);
#158=ADVANCED_FACE('',(#339,#340),#48,.F.);
#159=ADVANCED_FACE('',(#341,#342),#76,.F.);
#160=ADVANCED_FACE('',(#343,#344),#49,.F.);
#161=ADVANCED_FACE('',(#345,#346),#50,.F.);
#162=ADVANCED_FACE('',(#347,#348),#77,.F.);
#163=ADVANCED_FACE('',(#349,#350),#51,.F.);
#164=ADVANCED_FACE('',(#351,#352),#52,.F.);
#165=PLANE('',#993);
#166=PLANE('',#994);
#167=PLANE('',#1006);
#168=PLANE('',#1009);
#169=PLANE('',#1012);
#170=PLANE('',#1015);
#171=PLANE('',#1016);
#172=PLANE('',#1028);
#173=PLANE('',#1031);
#174=PLANE('',#1034);
#175=PLANE('',#1041);
#176=PLANE('',#1048);
#177=PLANE('',#1053);
#178=PLANE('',#1058);
#179=PLANE('',#1063);
#180=PLANE('',#1068);
#181=PLANE('',#1073);
#182=PLANE('',#1078);
#183=PLANE('',#1083);
#184=LINE('',#1434,#216);
#185=LINE('',#1439,#217);
#186=LINE('',#1443,#218);
#187=LINE('',#1447,#219);
#188=LINE('',#1450,#220);
#189=LINE('',#1455,#221);
#190=LINE('',#1459,#222);
#191=LINE('',#1463,#223);
#192=LINE('',#1467,#224);
#193=LINE('',#1470,#225);
#194=LINE('',#1471,#226);
#195=LINE('',#1475,#227);
#196=LINE('',#1495,#228);
#197=LINE('',#1497,#229);
#198=LINE('',#1501,#230);
#199=LINE('',#1503,#231);
#200=LINE('',#1505,#232);
#201=LINE('',#1509,#233);
#202=LINE('',#1511,#234);
#203=LINE('',#1513,#235);
#204=LINE('',#1518,#236);
#205=LINE('',#1520,#237);
#206=LINE('',#1522,#238);
#207=LINE('',#1524,#239);
#208=LINE('',#1546,#240);
#209=LINE('',#1548,#241);
#210=LINE('',#1550,#242);
#211=LINE('',#1554,#243);
#212=LINE('',#1556,#244);
#213=LINE('',#1558,#245);
#214=LINE('',#1562,#246);
#215=LINE('',#1564,#247);
#216=VECTOR('',#1125,1.);
#217=VECTOR('',#1128,1.);
#218=VECTOR('',#1131,1.);
#219=VECTOR('',#1134,1.);
#220=VECTOR('',#1137,1.);
#221=VECTOR('',#1140,1.);
#222=VECTOR('',#1143,1.);
#223=VECTOR('',#1146,1.);
#224=VECTOR('',#1151,1.);
#225=VECTOR('',#1152,1.);
#226=VECTOR('',#1153,1.);
#227=VECTOR('',#1158,1.);
#228=VECTOR('',#1179,1.);
#229=VECTOR('',#1180,1.);
#230=VECTOR('',#1185,1.);
#231=VECTOR('',#1188,1.);
#232=VECTOR('',#1189,1.);
#233=VECTOR('',#1194,1.);
#234=VECTOR('',#1197,1.);
#235=VECTOR('',#1198,1.);
#236=VECTOR('',#1207,1.);
#237=VECTOR('',#1208,1.);
#238=VECTOR('',#1209,1.);
#239=VECTOR('',#1212,1.);
#240=VECTOR('',#1235,1.);
#241=VECTOR('',#1236,1.);
#242=VECTOR('',#1239,1.);
#243=VECTOR('',#1244,1.);
#244=VECTOR('',#1245,1.);
#245=VECTOR('',#1248,1.);
#246=VECTOR('',#1253,1.);
#247=VECTOR('',#1254,1.);
#248=FACE_BOUND('',#353,.T.);
#249=FACE_BOUND('',#354,.T.);
#250=FACE_BOUND('',#355,.T.);
#251=FACE_BOUND('',#356,.T.);
#252=FACE_BOUND('',#357,.T.);
#253=FACE_BOUND('',#358,.T.);
#254=FACE_BOUND('',#361,.T.);
#255=FACE_BOUND('',#362,.T.);
#256=FACE_BOUND('',#363,.T.);
#257=FACE_BOUND('',#364,.T.);
#258=FACE_BOUND('',#365,.T.);
#259=FACE_BOUND('',#366,.T.);
#260=FACE_BOUND('',#367,.T.);
#261=FACE_BOUND('',#368,.T.);
#262=FACE_BOUND('',#369,.T.);
#263=FACE_BOUND('',#370,.T.);
#264=FACE_BOUND('',#379,.T.);
#265=FACE_BOUND('',#380,.T.);
#266=FACE_BOUND('',#381,.T.);
#267=FACE_BOUND('',#382,.T.);
#268=FACE_BOUND('',#383,.T.);
#269=FACE_BOUND('',#384,.T.);
#270=FACE_BOUND('',#385,.T.);
#271=FACE_BOUND('',#386,.T.);
#272=FACE_BOUND('',#387,.T.);
#273=FACE_BOUND('',#388,.T.);
#274=FACE_BOUND('',#394,.T.);
#275=FACE_BOUND('',#395,.T.);
#276=FACE_BOUND('',#396,.T.);
#277=FACE_BOUND('',#397,.T.);
#278=FACE_BOUND('',#398,.T.);
#279=FACE_BOUND('',#399,.T.);
#280=FACE_BOUND('',#400,.T.);
#281=FACE_BOUND('',#401,.T.);
#282=FACE_BOUND('',#402,.T.);
#283=FACE_BOUND('',#403,.T.);
#284=FACE_BOUND('',#404,.T.);
#285=FACE_BOUND('',#405,.T.);
#286=FACE_BOUND('',#406,.T.);
#287=FACE_BOUND('',#408,.T.);
#288=FACE_BOUND('',#409,.T.);
#289=FACE_BOUND('',#410,.T.);
#290=FACE_BOUND('',#411,.T.);
#291=FACE_BOUND('',#413,.T.);
#292=FACE_BOUND('',#414,.T.);
#293=FACE_BOUND('',#415,.T.);
#294=FACE_BOUND('',#416,.T.);
#295=FACE_BOUND('',#418,.T.);
#296=FACE_BOUND('',#419,.T.);
#297=FACE_BOUND('',#420,.T.);
#298=FACE_BOUND('',#421,.T.);
#299=FACE_BOUND('',#423,.T.);
#300=FACE_BOUND('',#424,.T.);
#301=FACE_BOUND('',#425,.T.);
#302=FACE_BOUND('',#426,.T.);
#303=FACE_BOUND('',#428,.T.);
#304=FACE_BOUND('',#429,.T.);
#305=FACE_BOUND('',#430,.T.);
#306=FACE_BOUND('',#431,.T.);
#307=FACE_BOUND('',#433,.T.);
#308=FACE_BOUND('',#434,.T.);
#309=FACE_BOUND('',#435,.T.);
#310=FACE_BOUND('',#436,.T.);
#311=FACE_BOUND('',#438,.T.);
#312=FACE_BOUND('',#439,.T.);
#313=FACE_BOUND('',#440,.T.);
#314=FACE_BOUND('',#441,.T.);
#315=FACE_BOUND('',#443,.T.);
#316=FACE_BOUND('',#444,.T.);
#317=FACE_BOUND('',#445,.T.);
#318=FACE_BOUND('',#446,.T.);
#319=FACE_BOUND('',#447,.T.);
#320=FACE_BOUND('',#448,.T.);
#321=FACE_BOUND('',#449,.T.);
#322=FACE_BOUND('',#450,.T.);
#323=FACE_BOUND('',#451,.T.);
#324=FACE_BOUND('',#452,.T.);
#325=FACE_BOUND('',#453,.T.);
#326=FACE_BOUND('',#454,.T.);
#327=FACE_BOUND('',#455,.T.);
#328=FACE_BOUND('',#456,.T.);
#329=FACE_BOUND('',#457,.T.);
#330=FACE_BOUND('',#458,.T.);
#331=FACE_BOUND('',#459,.T.);
#332=FACE_BOUND('',#460,.T.);
#333=FACE_BOUND('',#461,.T.);
#334=FACE_BOUND('',#462,.T.);
#335=FACE_BOUND('',#463,.T.);
#336=FACE_BOUND('',#464,.T.);
#337=FACE_BOUND('',#465,.T.);
#338=FACE_BOUND('',#466,.T.);
#339=FACE_BOUND('',#467,.T.);
#340=FACE_BOUND('',#468,.T.);
#341=FACE_BOUND('',#469,.T.);
#342=FACE_BOUND('',#470,.T.);
#343=FACE_BOUND('',#471,.T.);
#344=FACE_BOUND('',#472,.T.);
#345=FACE_BOUND('',#473,.T.);
#346=FACE_BOUND('',#474,.T.);
#347=FACE_BOUND('',#475,.T.);
#348=FACE_BOUND('',#476,.T.);
#349=FACE_BOUND('',#477,.T.);
#350=FACE_BOUND('',#478,.T.);
#351=FACE_BOUND('',#479,.T.);
#352=FACE_BOUND('',#480,.T.);
#353=EDGE_LOOP('',(#481));
#354=EDGE_LOOP('',(#482));
#355=EDGE_LOOP('',(#483));
#356=EDGE_LOOP('',(#484));
#357=EDGE_LOOP('',(#485,#486,#487,#488,#489,#490,#491,#492));
#358=EDGE_LOOP('',(#493,#494,#495,#496,#497,#498,#499,#500));
#359=EDGE_LOOP('',(#501,#502,#503,#504));
#360=EDGE_LOOP('',(#505,#506,#507,#508));
#361=EDGE_LOOP('',(#509));
#362=EDGE_LOOP('',(#510));
#363=EDGE_LOOP('',(#511));
#364=EDGE_LOOP('',(#512));
#365=EDGE_LOOP('',(#513));
#366=EDGE_LOOP('',(#514));
#367=EDGE_LOOP('',(#515));
#368=EDGE_LOOP('',(#516));
#369=EDGE_LOOP('',(#517));
#370=EDGE_LOOP('',(#518,#519,#520,#521));
#371=EDGE_LOOP('',(#522,#523,#524,#525));
#372=EDGE_LOOP('',(#526,#527,#528,#529));
#373=EDGE_LOOP('',(#530,#531,#532,#533));
#374=EDGE_LOOP('',(#534,#535,#536,#537));
#375=EDGE_LOOP('',(#538,#539,#540,#541));
#376=EDGE_LOOP('',(#542,#543,#544,#545,#546,#547,#548,#549));
#377=EDGE_LOOP('',(#550,#551,#552,#553));
#378=EDGE_LOOP('',(#554,#555,#556,#557));
#379=EDGE_LOOP('',(#558));
#380=EDGE_LOOP('',(#559));
#381=EDGE_LOOP('',(#560));
#382=EDGE_LOOP('',(#561));
#383=EDGE_LOOP('',(#562));
#384=EDGE_LOOP('',(#563));
#385=EDGE_LOOP('',(#564));
#386=EDGE_LOOP('',(#565));
#387=EDGE_LOOP('',(#566));
#388=EDGE_LOOP('',(#567,#568,#569,#570));
#389=EDGE_LOOP('',(#571,#572,#573,#574));
#390=EDGE_LOOP('',(#575,#576,#577,#578));
#391=EDGE_LOOP('',(#579,#580,#581,#582));
#392=EDGE_LOOP('',(#583,#584,#585,#586));
#393=EDGE_LOOP('',(#587,#588,#589,#590));
#394=EDGE_LOOP('',(#591));
#395=EDGE_LOOP('',(#592));
#396=EDGE_LOOP('',(#593));
#397=EDGE_LOOP('',(#594));
#398=EDGE_LOOP('',(#595,#596,#597,#598,#599,#600,#601,#602));
#399=EDGE_LOOP('',(#603));
#400=EDGE_LOOP('',(#604));
#401=EDGE_LOOP('',(#605));
#402=EDGE_LOOP('',(#606));
#403=EDGE_LOOP('',(#607));
#404=EDGE_LOOP('',(#608));
#405=EDGE_LOOP('',(#609));
#406=EDGE_LOOP('',(#610));
#407=EDGE_LOOP('',(#611));
#408=EDGE_LOOP('',(#612));
#409=EDGE_LOOP('',(#613));
#410=EDGE_LOOP('',(#614));
#411=EDGE_LOOP('',(#615));
#412=EDGE_LOOP('',(#616));
#413=EDGE_LOOP('',(#617));
#414=EDGE_LOOP('',(#618));
#415=EDGE_LOOP('',(#619));
#416=EDGE_LOOP('',(#620));
#417=EDGE_LOOP('',(#621));
#418=EDGE_LOOP('',(#622));
#419=EDGE_LOOP('',(#623));
#420=EDGE_LOOP('',(#624));
#421=EDGE_LOOP('',(#625));
#422=EDGE_LOOP('',(#626));
#423=EDGE_LOOP('',(#627));
#424=EDGE_LOOP('',(#628));
#425=EDGE_LOOP('',(#629));
#426=EDGE_LOOP('',(#630));
#427=EDGE_LOOP('',(#631));
#428=EDGE_LOOP('',(#632));
#429=EDGE_LOOP('',(#633));
#430=EDGE_LOOP('',(#634));
#431=EDGE_LOOP('',(#635));
#432=EDGE_LOOP('',(#636));
#433=EDGE_LOOP('',(#637));
#434=EDGE_LOOP('',(#638));
#435=EDGE_LOOP('',(#639));
#436=EDGE_LOOP('',(#640));
#437=EDGE_LOOP('',(#641));
#438=EDGE_LOOP('',(#642));
#439=EDGE_LOOP('',(#643));
#440=EDGE_LOOP('',(#644));
#441=EDGE_LOOP('',(#645));
#442=EDGE_LOOP('',(#646));
#443=EDGE_LOOP('',(#647));
#444=EDGE_LOOP('',(#648));
#445=EDGE_LOOP('',(#649));
#446=EDGE_LOOP('',(#650));
#447=EDGE_LOOP('',(#651));
#448=EDGE_LOOP('',(#652));
#449=EDGE_LOOP('',(#653));
#450=EDGE_LOOP('',(#654));
#451=EDGE_LOOP('',(#655));
#452=EDGE_LOOP('',(#656));
#453=EDGE_LOOP('',(#657));
#454=EDGE_LOOP('',(#658));
#455=EDGE_LOOP('',(#659));
#456=EDGE_LOOP('',(#660));
#457=EDGE_LOOP('',(#661));
#458=EDGE_LOOP('',(#662));
#459=EDGE_LOOP('',(#663));
#460=EDGE_LOOP('',(#664));
#461=EDGE_LOOP('',(#665));
#462=EDGE_LOOP('',(#666));
#463=EDGE_LOOP('',(#667));
#464=EDGE_LOOP('',(#668));
#465=EDGE_LOOP('',(#669));
#466=EDGE_LOOP('',(#670));
#467=EDGE_LOOP('',(#671));
#468=EDGE_LOOP('',(#672));
#469=EDGE_LOOP('',(#673));
#470=EDGE_LOOP('',(#674));
#471=EDGE_LOOP('',(#675));
#472=EDGE_LOOP('',(#676));
#473=EDGE_LOOP('',(#677));
#474=EDGE_LOOP('',(#678));
#475=EDGE_LOOP('',(#679));
#476=EDGE_LOOP('',(#680));
#477=EDGE_LOOP('',(#681));
#478=EDGE_LOOP('',(#682));
#479=EDGE_LOOP('',(#683));
#480=EDGE_LOOP('',(#684));
#481=ORIENTED_EDGE('',*,*,#771,.F.);
#482=ORIENTED_EDGE('',*,*,#772,.F.);
#483=ORIENTED_EDGE('',*,*,#773,.F.);
#484=ORIENTED_EDGE('',*,*,#774,.F.);
#485=ORIENTED_EDGE('',*,*,#775,.T.);
#486=ORIENTED_EDGE('',*,*,#776,.T.);
#487=ORIENTED_EDGE('',*,*,#777,.T.);
#488=ORIENTED_EDGE('',*,*,#778,.T.);
#489=ORIENTED_EDGE('',*,*,#779,.T.);
#490=ORIENTED_EDGE('',*,*,#780,.T.);
#491=ORIENTED_EDGE('',*,*,#781,.T.);
#492=ORIENTED_EDGE('',*,*,#782,.T.);
#493=ORIENTED_EDGE('',*,*,#783,.F.);
#494=ORIENTED_EDGE('',*,*,#784,.F.);
#495=ORIENTED_EDGE('',*,*,#785,.F.);
#496=ORIENTED_EDGE('',*,*,#786,.F.);
#497=ORIENTED_EDGE('',*,*,#787,.F.);
#498=ORIENTED_EDGE('',*,*,#788,.F.);
#499=ORIENTED_EDGE('',*,*,#789,.F.);
#500=ORIENTED_EDGE('',*,*,#790,.F.);
#501=ORIENTED_EDGE('',*,*,#791,.T.);
#502=ORIENTED_EDGE('',*,*,#792,.F.);
#503=ORIENTED_EDGE('',*,*,#775,.F.);
#504=ORIENTED_EDGE('',*,*,#793,.T.);
#505=ORIENTED_EDGE('',*,*,#794,.T.);
#506=ORIENTED_EDGE('',*,*,#795,.F.);
#507=ORIENTED_EDGE('',*,*,#776,.F.);
#508=ORIENTED_EDGE('',*,*,#792,.T.);
#509=ORIENTED_EDGE('',*,*,#796,.T.);
#510=ORIENTED_EDGE('',*,*,#797,.T.);
#511=ORIENTED_EDGE('',*,*,#798,.T.);
#512=ORIENTED_EDGE('',*,*,#799,.T.);
#513=ORIENTED_EDGE('',*,*,#800,.T.);
#514=ORIENTED_EDGE('',*,*,#801,.T.);
#515=ORIENTED_EDGE('',*,*,#802,.F.);
#516=ORIENTED_EDGE('',*,*,#803,.F.);
#517=ORIENTED_EDGE('',*,*,#804,.F.);
#518=ORIENTED_EDGE('',*,*,#805,.T.);
#519=ORIENTED_EDGE('',*,*,#806,.F.);
#520=ORIENTED_EDGE('',*,*,#777,.F.);
#521=ORIENTED_EDGE('',*,*,#795,.T.);
#522=ORIENTED_EDGE('',*,*,#807,.T.);
#523=ORIENTED_EDGE('',*,*,#808,.F.);
#524=ORIENTED_EDGE('',*,*,#778,.F.);
#525=ORIENTED_EDGE('',*,*,#806,.T.);
#526=ORIENTED_EDGE('',*,*,#809,.T.);
#527=ORIENTED_EDGE('',*,*,#810,.F.);
#528=ORIENTED_EDGE('',*,*,#779,.F.);
#529=ORIENTED_EDGE('',*,*,#808,.T.);
#530=ORIENTED_EDGE('',*,*,#811,.T.);
#531=ORIENTED_EDGE('',*,*,#812,.F.);
#532=ORIENTED_EDGE('',*,*,#780,.F.);
#533=ORIENTED_EDGE('',*,*,#810,.T.);
#534=ORIENTED_EDGE('',*,*,#813,.T.);
#535=ORIENTED_EDGE('',*,*,#814,.F.);
#536=ORIENTED_EDGE('',*,*,#781,.F.);
#537=ORIENTED_EDGE('',*,*,#812,.T.);
#538=ORIENTED_EDGE('',*,*,#815,.T.);
#539=ORIENTED_EDGE('',*,*,#793,.F.);
#540=ORIENTED_EDGE('',*,*,#782,.F.);
#541=ORIENTED_EDGE('',*,*,#814,.T.);
#542=ORIENTED_EDGE('',*,*,#791,.F.);
#543=ORIENTED_EDGE('',*,*,#815,.F.);
#544=ORIENTED_EDGE('',*,*,#813,.F.);
#545=ORIENTED_EDGE('',*,*,#811,.F.);
#546=ORIENTED_EDGE('',*,*,#809,.F.);
#547=ORIENTED_EDGE('',*,*,#807,.F.);
#548=ORIENTED_EDGE('',*,*,#805,.F.);
#549=ORIENTED_EDGE('',*,*,#794,.F.);
#550=ORIENTED_EDGE('',*,*,#783,.T.);
#551=ORIENTED_EDGE('',*,*,#816,.T.);
#552=ORIENTED_EDGE('',*,*,#817,.T.);
#553=ORIENTED_EDGE('',*,*,#818,.F.);
#554=ORIENTED_EDGE('',*,*,#790,.T.);
#555=ORIENTED_EDGE('',*,*,#819,.T.);
#556=ORIENTED_EDGE('',*,*,#820,.T.);
#557=ORIENTED_EDGE('',*,*,#816,.F.);
#558=ORIENTED_EDGE('',*,*,#821,.T.);
#559=ORIENTED_EDGE('',*,*,#822,.T.);
#560=ORIENTED_EDGE('',*,*,#823,.T.);
#561=ORIENTED_EDGE('',*,*,#824,.T.);
#562=ORIENTED_EDGE('',*,*,#825,.T.);
#563=ORIENTED_EDGE('',*,*,#826,.T.);
#564=ORIENTED_EDGE('',*,*,#827,.T.);
#565=ORIENTED_EDGE('',*,*,#828,.T.);
#566=ORIENTED_EDGE('',*,*,#829,.T.);
#567=ORIENTED_EDGE('',*,*,#789,.T.);
#568=ORIENTED_EDGE('',*,*,#830,.T.);
#569=ORIENTED_EDGE('',*,*,#831,.T.);
#570=ORIENTED_EDGE('',*,*,#819,.F.);
#571=ORIENTED_EDGE('',*,*,#788,.T.);
#572=ORIENTED_EDGE('',*,*,#832,.T.);
#573=ORIENTED_EDGE('',*,*,#833,.T.);
#574=ORIENTED_EDGE('',*,*,#830,.F.);
#575=ORIENTED_EDGE('',*,*,#787,.T.);
#576=ORIENTED_EDGE('',*,*,#834,.T.);
#577=ORIENTED_EDGE('',*,*,#835,.T.);
#578=ORIENTED_EDGE('',*,*,#832,.F.);
#579=ORIENTED_EDGE('',*,*,#786,.T.);
#580=ORIENTED_EDGE('',*,*,#836,.T.);
#581=ORIENTED_EDGE('',*,*,#837,.T.);
#582=ORIENTED_EDGE('',*,*,#834,.F.);
#583=ORIENTED_EDGE('',*,*,#785,.T.);
#584=ORIENTED_EDGE('',*,*,#838,.T.);
#585=ORIENTED_EDGE('',*,*,#839,.T.);
#586=ORIENTED_EDGE('',*,*,#836,.F.);
#587=ORIENTED_EDGE('',*,*,#784,.T.);
#588=ORIENTED_EDGE('',*,*,#818,.T.);
#589=ORIENTED_EDGE('',*,*,#840,.T.);
#590=ORIENTED_EDGE('',*,*,#838,.F.);
#591=ORIENTED_EDGE('',*,*,#841,.T.);
#592=ORIENTED_EDGE('',*,*,#842,.T.);
#593=ORIENTED_EDGE('',*,*,#843,.T.);
#594=ORIENTED_EDGE('',*,*,#844,.T.);
#595=ORIENTED_EDGE('',*,*,#817,.F.);
#596=ORIENTED_EDGE('',*,*,#820,.F.);
#597=ORIENTED_EDGE('',*,*,#831,.F.);
#598=ORIENTED_EDGE('',*,*,#833,.F.);
#599=ORIENTED_EDGE('',*,*,#835,.F.);
#600=ORIENTED_EDGE('',*,*,#837,.F.);
#601=ORIENTED_EDGE('',*,*,#839,.F.);
#602=ORIENTED_EDGE('',*,*,#840,.F.);
#603=ORIENTED_EDGE('',*,*,#829,.F.);
#604=ORIENTED_EDGE('',*,*,#804,.T.);
#605=ORIENTED_EDGE('',*,*,#828,.F.);
#606=ORIENTED_EDGE('',*,*,#803,.T.);
#607=ORIENTED_EDGE('',*,*,#827,.F.);
#608=ORIENTED_EDGE('',*,*,#802,.T.);
#609=ORIENTED_EDGE('',*,*,#774,.T.);
#610=ORIENTED_EDGE('',*,*,#845,.F.);
#611=ORIENTED_EDGE('',*,*,#846,.T.);
#612=ORIENTED_EDGE('',*,*,#845,.T.);
#613=ORIENTED_EDGE('',*,*,#846,.F.);
#614=ORIENTED_EDGE('',*,*,#773,.T.);
#615=ORIENTED_EDGE('',*,*,#847,.F.);
#616=ORIENTED_EDGE('',*,*,#848,.F.);
#617=ORIENTED_EDGE('',*,*,#847,.T.);
#618=ORIENTED_EDGE('',*,*,#848,.T.);
#619=ORIENTED_EDGE('',*,*,#772,.T.);
#620=ORIENTED_EDGE('',*,*,#849,.F.);
#621=ORIENTED_EDGE('',*,*,#850,.F.);
#622=ORIENTED_EDGE('',*,*,#849,.T.);
#623=ORIENTED_EDGE('',*,*,#850,.T.);
#624=ORIENTED_EDGE('',*,*,#771,.T.);
#625=ORIENTED_EDGE('',*,*,#851,.F.);
#626=ORIENTED_EDGE('',*,*,#852,.F.);
#627=ORIENTED_EDGE('',*,*,#851,.T.);
#628=ORIENTED_EDGE('',*,*,#852,.T.);
#629=ORIENTED_EDGE('',*,*,#844,.F.);
#630=ORIENTED_EDGE('',*,*,#853,.F.);
#631=ORIENTED_EDGE('',*,*,#854,.T.);
#632=ORIENTED_EDGE('',*,*,#853,.T.);
#633=ORIENTED_EDGE('',*,*,#854,.F.);
#634=ORIENTED_EDGE('',*,*,#843,.F.);
#635=ORIENTED_EDGE('',*,*,#855,.F.);
#636=ORIENTED_EDGE('',*,*,#856,.T.);
#637=ORIENTED_EDGE('',*,*,#855,.T.);
#638=ORIENTED_EDGE('',*,*,#856,.F.);
#639=ORIENTED_EDGE('',*,*,#842,.F.);
#640=ORIENTED_EDGE('',*,*,#857,.F.);
#641=ORIENTED_EDGE('',*,*,#858,.T.);
#642=ORIENTED_EDGE('',*,*,#857,.T.);
#643=ORIENTED_EDGE('',*,*,#858,.F.);
#644=ORIENTED_EDGE('',*,*,#841,.F.);
#645=ORIENTED_EDGE('',*,*,#859,.F.);
#646=ORIENTED_EDGE('',*,*,#860,.T.);
#647=ORIENTED_EDGE('',*,*,#859,.T.);
#648=ORIENTED_EDGE('',*,*,#860,.F.);
#649=ORIENTED_EDGE('',*,*,#861,.T.);
#650=ORIENTED_EDGE('',*,*,#862,.T.);
#651=ORIENTED_EDGE('',*,*,#801,.F.);
#652=ORIENTED_EDGE('',*,*,#862,.F.);
#653=ORIENTED_EDGE('',*,*,#826,.F.);
#654=ORIENTED_EDGE('',*,*,#861,.F.);
#655=ORIENTED_EDGE('',*,*,#863,.T.);
#656=ORIENTED_EDGE('',*,*,#864,.T.);
#657=ORIENTED_EDGE('',*,*,#800,.F.);
#658=ORIENTED_EDGE('',*,*,#864,.F.);
#659=ORIENTED_EDGE('',*,*,#825,.F.);
#660=ORIENTED_EDGE('',*,*,#863,.F.);
#661=ORIENTED_EDGE('',*,*,#865,.T.);
#662=ORIENTED_EDGE('',*,*,#866,.T.);
#663=ORIENTED_EDGE('',*,*,#799,.F.);
#664=ORIENTED_EDGE('',*,*,#866,.F.);
#665=ORIENTED_EDGE('',*,*,#824,.F.);
#666=ORIENTED_EDGE('',*,*,#865,.F.);
#667=ORIENTED_EDGE('',*,*,#867,.T.);
#668=ORIENTED_EDGE('',*,*,#868,.T.);
#669=ORIENTED_EDGE('',*,*,#868,.F.);
#670=ORIENTED_EDGE('',*,*,#798,.F.);
#671=ORIENTED_EDGE('',*,*,#823,.F.);
#672=ORIENTED_EDGE('',*,*,#867,.F.);
#673=ORIENTED_EDGE('',*,*,#869,.T.);
#674=ORIENTED_EDGE('',*,*,#870,.T.);
#675=ORIENTED_EDGE('',*,*,#797,.F.);
#676=ORIENTED_EDGE('',*,*,#870,.F.);
#677=ORIENTED_EDGE('',*,*,#822,.F.);
#678=ORIENTED_EDGE('',*,*,#869,.F.);
#679=ORIENTED_EDGE('',*,*,#871,.T.);
#680=ORIENTED_EDGE('',*,*,#872,.T.);
#681=ORIENTED_EDGE('',*,*,#796,.F.);
#682=ORIENTED_EDGE('',*,*,#872,.F.);
#683=ORIENTED_EDGE('',*,*,#821,.F.);
#684=ORIENTED_EDGE('',*,*,#871,.F.);
#685=VERTEX_POINT('',#1427);
#686=VERTEX_POINT('',#1429);
#687=VERTEX_POINT('',#1431);
#688=VERTEX_POINT('',#1433);
#689=VERTEX_POINT('',#1435);
#690=VERTEX_POINT('',#1436);
#691=VERTEX_POINT('',#1438);
#692=VERTEX_POINT('',#1440);
#693=VERTEX_POINT('',#1442);
#694=VERTEX_POINT('',#1444);
#695=VERTEX_POINT('',#1446);
#696=VERTEX_POINT('',#1448);
#697=VERTEX_POINT('',#1451);
#698=VERTEX_POINT('',#1452);
#699=VERTEX_POINT('',#1454);
#700=VERTEX_POINT('',#1456);
#701=VERTEX_POINT('',#1458);
#702=VERTEX_POINT('',#1460);
#703=VERTEX_POINT('',#1462);
#704=VERTEX_POINT('',#1464);
#705=VERTEX_POINT('',#1468);
#706=VERTEX_POINT('',#1469);
#707=VERTEX_POINT('',#1474);
#708=VERTEX_POINT('',#1478);
#709=VERTEX_POINT('',#1480);
#710=VERTEX_POINT('',#1482);
#711=VERTEX_POINT('',#1484);
#712=VERTEX_POINT('',#1486);
#713=VERTEX_POINT('',#1488);
#714=VERTEX_POINT('',#1490);
#715=VERTEX_POINT('',#1492);
#716=VERTEX_POINT('',#1494);
#717=VERTEX_POINT('',#1496);
#718=VERTEX_POINT('',#1500);
#719=VERTEX_POINT('',#1504);
#720=VERTEX_POINT('',#1508);
#721=VERTEX_POINT('',#1512);
#722=VERTEX_POINT('',#1519);
#723=VERTEX_POINT('',#1521);
#724=VERTEX_POINT('',#1525);
#725=VERTEX_POINT('',#1529);
#726=VERTEX_POINT('',#1531);
#727=VERTEX_POINT('',#1533);
#728=VERTEX_POINT('',#1535);
#729=VERTEX_POINT('',#1537);
#730=VERTEX_POINT('',#1539);
#731=VERTEX_POINT('',#1541);
#732=VERTEX_POINT('',#1543);
#733=VERTEX_POINT('',#1545);
#734=VERTEX_POINT('',#1547);
#735=VERTEX_POINT('',#1551);
#736=VERTEX_POINT('',#1555);
#737=VERTEX_POINT('',#1559);
#738=VERTEX_POINT('',#1563);
#739=VERTEX_POINT('',#1569);
#740=VERTEX_POINT('',#1571);
#741=VERTEX_POINT('',#1573);
#742=VERTEX_POINT('',#1575);
#743=VERTEX_POINT('',#1581);
#744=VERTEX_POINT('',#1584);
#745=VERTEX_POINT('',#1588);
#746=VERTEX_POINT('',#1591);
#747=VERTEX_POINT('',#1595);
#748=VERTEX_POINT('',#1598);
#749=VERTEX_POINT('',#1602);
#750=VERTEX_POINT('',#1605);
#751=VERTEX_POINT('',#1609);
#752=VERTEX_POINT('',#1612);
#753=VERTEX_POINT('',#1616);
#754=VERTEX_POINT('',#1619);
#755=VERTEX_POINT('',#1623);
#756=VERTEX_POINT('',#1626);
#757=VERTEX_POINT('',#1630);
#758=VERTEX_POINT('',#1633);
#759=VERTEX_POINT('',#1637);
#760=VERTEX_POINT('',#1639);
#761=VERTEX_POINT('',#1644);
#762=VERTEX_POINT('',#1646);
#763=VERTEX_POINT('',#1651);
#764=VERTEX_POINT('',#1653);
#765=VERTEX_POINT('',#1658);
#766=VERTEX_POINT('',#1660);
#767=VERTEX_POINT('',#1665);
#768=VERTEX_POINT('',#1667);
#769=VERTEX_POINT('',#1672);
#770=VERTEX_POINT('',#1674);
#771=EDGE_CURVE('',#685,#685,#873,.T.);
#772=EDGE_CURVE('',#686,#686,#874,.T.);
#773=EDGE_CURVE('',#687,#687,#875,.T.);
#774=EDGE_CURVE('',#688,#688,#876,.T.);
#775=EDGE_CURVE('',#689,#690,#184,.T.);
#776=EDGE_CURVE('',#690,#691,#877,.T.);
#777=EDGE_CURVE('',#691,#692,#185,.T.);
#778=EDGE_CURVE('',#692,#693,#878,.T.);
#779=EDGE_CURVE('',#693,#694,#186,.T.);
#780=EDGE_CURVE('',#694,#695,#879,.T.);
#781=EDGE_CURVE('',#695,#696,#187,.T.);
#782=EDGE_CURVE('',#696,#689,#880,.T.);
#783=EDGE_CURVE('',#697,#698,#188,.T.);
#784=EDGE_CURVE('',#699,#697,#881,.T.);
#785=EDGE_CURVE('',#700,#699,#189,.T.);
#786=EDGE_CURVE('',#701,#700,#882,.T.);
#787=EDGE_CURVE('',#702,#701,#190,.T.);
#788=EDGE_CURVE('',#703,#702,#883,.T.);
#789=EDGE_CURVE('',#704,#703,#191,.T.);
#790=EDGE_CURVE('',#698,#704,#884,.T.);
#791=EDGE_CURVE('',#705,#706,#192,.T.);
#792=EDGE_CURVE('',#690,#706,#193,.T.);
#793=EDGE_CURVE('',#689,#705,#194,.T.);
#794=EDGE_CURVE('',#706,#707,#885,.T.);
#795=EDGE_CURVE('',#691,#707,#195,.T.);
#796=EDGE_CURVE('',#708,#708,#886,.T.);
#797=EDGE_CURVE('',#709,#709,#887,.T.);
#798=EDGE_CURVE('',#710,#710,#888,.T.);
#799=EDGE_CURVE('',#711,#711,#889,.T.);
#800=EDGE_CURVE('',#712,#712,#890,.T.);
#801=EDGE_CURVE('',#713,#713,#891,.T.);
#802=EDGE_CURVE('',#714,#714,#892,.T.);
#803=EDGE_CURVE('',#715,#715,#893,.T.);
#804=EDGE_CURVE('',#716,#716,#894,.T.);
#805=EDGE_CURVE('',#707,#717,#196,.T.);
#806=EDGE_CURVE('',#692,#717,#197,.T.);
#807=EDGE_CURVE('',#717,#718,#895,.T.);
#808=EDGE_CURVE('',#693,#718,#198,.T.);
#809=EDGE_CURVE('',#718,#719,#199,.T.);
#810=EDGE_CURVE('',#694,#719,#200,.T.);
#811=EDGE_CURVE('',#719,#720,#896,.T.);
#812=EDGE_CURVE('',#695,#720,#201,.T.);
#813=EDGE_CURVE('',#720,#721,#202,.T.);
#814=EDGE_CURVE('',#696,#721,#203,.T.);
#815=EDGE_CURVE('',#721,#705,#897,.T.);
#816=EDGE_CURVE('',#698,#722,#204,.T.);
#817=EDGE_CURVE('',#722,#723,#205,.T.);
#818=EDGE_CURVE('',#697,#723,#206,.T.);
#819=EDGE_CURVE('',#704,#724,#207,.T.);
#820=EDGE_CURVE('',#724,#722,#898,.T.);
#821=EDGE_CURVE('',#725,#725,#899,.T.);
#822=EDGE_CURVE('',#726,#726,#900,.T.);
#823=EDGE_CURVE('',#727,#727,#901,.T.);
#824=EDGE_CURVE('',#728,#728,#902,.T.);
#825=EDGE_CURVE('',#729,#729,#903,.T.);
#826=EDGE_CURVE('',#730,#730,#904,.T.);
#827=EDGE_CURVE('',#731,#731,#905,.T.);
#828=EDGE_CURVE('',#732,#732,#906,.T.);
#829=EDGE_CURVE('',#733,#733,#907,.T.);
#830=EDGE_CURVE('',#703,#734,#208,.T.);
#831=EDGE_CURVE('',#734,#724,#209,.T.);
#832=EDGE_CURVE('',#702,#735,#210,.T.);
#833=EDGE_CURVE('',#735,#734,#908,.T.);
#834=EDGE_CURVE('',#701,#736,#211,.T.);
#835=EDGE_CURVE('',#736,#735,#212,.T.);
#836=EDGE_CURVE('',#700,#737,#213,.T.);
#837=EDGE_CURVE('',#737,#736,#909,.T.);
#838=EDGE_CURVE('',#699,#738,#214,.T.);
#839=EDGE_CURVE('',#738,#737,#215,.T.);
#840=EDGE_CURVE('',#723,#738,#910,.T.);
#841=EDGE_CURVE('',#739,#739,#911,.T.);
#842=EDGE_CURVE('',#740,#740,#912,.T.);
#843=EDGE_CURVE('',#741,#741,#913,.T.);
#844=EDGE_CURVE('',#742,#742,#914,.T.);
#845=EDGE_CURVE('',#743,#743,#915,.T.);
#846=EDGE_CURVE('',#744,#744,#916,.T.);
#847=EDGE_CURVE('',#745,#745,#917,.T.);
#848=EDGE_CURVE('',#746,#746,#918,.T.);
#849=EDGE_CURVE('',#747,#747,#919,.T.);
#850=EDGE_CURVE('',#748,#748,#920,.T.);
#851=EDGE_CURVE('',#749,#749,#921,.T.);
#852=EDGE_CURVE('',#750,#750,#922,.T.);
#853=EDGE_CURVE('',#751,#751,#923,.T.);
#854=EDGE_CURVE('',#752,#752,#924,.T.);
#855=EDGE_CURVE('',#753,#753,#925,.T.);
#856=EDGE_CURVE('',#754,#754,#926,.T.);
#857=EDGE_CURVE('',#755,#755,#927,.T.);
#858=EDGE_CURVE('',#756,#756,#928,.T.);
#859=EDGE_CURVE('',#757,#757,#929,.T.);
#860=EDGE_CURVE('',#758,#758,#930,.T.);
#861=EDGE_CURVE('',#759,#759,#931,.T.);
#862=EDGE_CURVE('',#760,#760,#932,.T.);
#863=EDGE_CURVE('',#761,#761,#933,.T.);
#864=EDGE_CURVE('',#762,#762,#934,.T.);
#865=EDGE_CURVE('',#763,#763,#935,.T.);
#866=EDGE_CURVE('',#764,#764,#936,.T.);
#867=EDGE_CURVE('',#765,#765,#937,.T.);
#868=EDGE_CURVE('',#766,#766,#938,.T.);
#869=EDGE_CURVE('',#767,#767,#939,.T.);
#870=EDGE_CURVE('',#768,#768,#940,.T.);
#871=EDGE_CURVE('',#769,#769,#941,.T.);
#872=EDGE_CURVE('',#770,#770,#942,.T.);
#873=CIRCLE('',#981,2.3);
#874=CIRCLE('',#982,2.3);
#875=CIRCLE('',#983,2.3);
#876=CIRCLE('',#984,2.3);
#877=CIRCLE('',#985,5.);
#878=CIRCLE('',#986,5.);
#879=CIRCLE('',#987,5.);
#880=CIRCLE('',#988,5.);
#881=CIRCLE('',#989,10.);
#882=CIRCLE('',#990,10.);
#883=CIRCLE('',#991,10.);
#884=CIRCLE('',#992,10.);
#885=CIRCLE('',#995,5.);
#886=CIRCLE('',#997,2.3);
#887=CIRCLE('',#998,2.3);
#888=CIRCLE('',#999,2.3);
#889=CIRCLE('',#1000,2.3);
#890=CIRCLE('',#1001,2.3);
#891=CIRCLE('',#1002,2.3);
#892=CIRCLE('',#1003,12.25);
#893=CIRCLE('',#1004,12.25);
#894=CIRCLE('',#1005,12.25);
#895=CIRCLE('',#1007,5.);
#896=CIRCLE('',#1010,5.);
#897=CIRCLE('',#1013,5.);
#898=CIRCLE('',#1017,10.);
#899=CIRCLE('',#1019,2.3);
#900=CIRCLE('',#1020,2.3);
#901=CIRCLE('',#1021,2.3);
#902=CIRCLE('',#1022,2.3);
#903=CIRCLE('',#1023,2.3);
#904=CIRCLE('',#1024,2.3);
#905=CIRCLE('',#1025,12.25);
#906=CIRCLE('',#1026,12.25);
#907=CIRCLE('',#1027,12.25);
#908=CIRCLE('',#1029,10.);
#909=CIRCLE('',#1032,10.);
#910=CIRCLE('',#1035,10.);
#911=CIRCLE('',#1037,2.3);
#912=CIRCLE('',#1038,2.3);
#913=CIRCLE('',#1039,2.3);
#914=CIRCLE('',#1040,2.3);
#915=CIRCLE('',#1045,2.);
#916=CIRCLE('',#1047,2.);
#917=CIRCLE('',#1050,2.);
#918=CIRCLE('',#1052,2.);
#919=CIRCLE('',#1055,2.);
#920=CIRCLE('',#1057,2.);
#921=CIRCLE('',#1060,2.);
#922=CIRCLE('',#1062,2.);
#923=CIRCLE('',#1065,2.);
#924=CIRCLE('',#1067,2.);
#925=CIRCLE('',#1070,2.);
#926=CIRCLE('',#1072,2.);
#927=CIRCLE('',#1075,2.);
#928=CIRCLE('',#1077,2.);
#929=CIRCLE('',#1080,2.);
#930=CIRCLE('',#1082,2.);
#931=CIRCLE('',#1085,2.);
#932=CIRCLE('',#1086,2.);
#933=CIRCLE('',#1090,2.);
#934=CIRCLE('',#1091,2.);
#935=CIRCLE('',#1095,2.);
#936=CIRCLE('',#1096,2.);
#937=CIRCLE('',#1100,2.);
#938=CIRCLE('',#1101,2.);
#939=CIRCLE('',#1105,2.);
#940=CIRCLE('',#1106,2.);
#941=CIRCLE('',#1110,2.);
#942=CIRCLE('',#1111,2.);
#943=PRESENTATION_LAYER_ASSIGNMENT('1','Layer 1',(#1418,#1419,#1420,#1421,
#1422,#1423,#1424,#1425,#31));
#944=STYLED_ITEM('',(#953),#1418);
#945=STYLED_ITEM('',(#954),#1419);
#946=STYLED_ITEM('',(#955),#1420);
#947=STYLED_ITEM('',(#956),#1421);
#948=STYLED_ITEM('',(#957),#1422);
#949=STYLED_ITEM('',(#958),#1423);
#950=STYLED_ITEM('',(#959),#1424);
#951=STYLED_ITEM('',(#960),#1425);
#952=STYLED_ITEM('',(#961),#31);
#953=PRESENTATION_STYLE_ASSIGNMENT((#962));
#954=PRESENTATION_STYLE_ASSIGNMENT((#963));
#955=PRESENTATION_STYLE_ASSIGNMENT((#964));
#956=PRESENTATION_STYLE_ASSIGNMENT((#965));
#957=PRESENTATION_STYLE_ASSIGNMENT((#966));
#958=PRESENTATION_STYLE_ASSIGNMENT((#967));
#959=PRESENTATION_STYLE_ASSIGNMENT((#968));
#960=PRESENTATION_STYLE_ASSIGNMENT((#969));
#961=PRESENTATION_STYLE_ASSIGNMENT((#26));
#962=POINT_STYLE('',#970,POSITIVE_LENGTH_MEASURE(3.),#978);
#963=POINT_STYLE('',#971,POSITIVE_LENGTH_MEASURE(3.),#978);
#964=POINT_STYLE('',#972,POSITIVE_LENGTH_MEASURE(3.),#978);
#965=POINT_STYLE('',#973,POSITIVE_LENGTH_MEASURE(3.),#978);
#966=POINT_STYLE('',#974,POSITIVE_LENGTH_MEASURE(3.),#978);
#967=POINT_STYLE('',#975,POSITIVE_LENGTH_MEASURE(3.),#978);
#968=POINT_STYLE('',#976,POSITIVE_LENGTH_MEASURE(3.),#978);
#969=POINT_STYLE('',#977,POSITIVE_LENGTH_MEASURE(3.),#978);
#970=PRE_DEFINED_POINT_MARKER_SYMBOL('plus');
#971=PRE_DEFINED_POINT_MARKER_SYMBOL('plus');
#972=PRE_DEFINED_POINT_MARKER_SYMBOL('plus');
#973=PRE_DEFINED_POINT_MARKER_SYMBOL('plus');
#974=PRE_DEFINED_POINT_MARKER_SYMBOL('plus');
#975=PRE_DEFINED_POINT_MARKER_SYMBOL('plus');
#976=PRE_DEFINED_POINT_MARKER_SYMBOL('plus');
#977=PRE_DEFINED_POINT_MARKER_SYMBOL('plus');
#978=COLOUR_RGB('Medium Royal',0.301960784313725,0.427450980392157,0.701960784313725);
#979=COLOUR_RGB('silver gray',0.6,0.6,0.6);
#980=AXIS2_PLACEMENT_3D('',#1417,#1115,#1116);
#981=AXIS2_PLACEMENT_3D('',#1426,#1117,#1118);
#982=AXIS2_PLACEMENT_3D('',#1428,#1119,#1120);
#983=AXIS2_PLACEMENT_3D('',#1430,#1121,#1122);
#984=AXIS2_PLACEMENT_3D('',#1432,#1123,#1124);
#985=AXIS2_PLACEMENT_3D('',#1437,#1126,#1127);
#986=AXIS2_PLACEMENT_3D('',#1441,#1129,#1130);
#987=AXIS2_PLACEMENT_3D('',#1445,#1132,#1133);
#988=AXIS2_PLACEMENT_3D('',#1449,#1135,#1136);
#989=AXIS2_PLACEMENT_3D('',#1453,#1138,#1139);
#990=AXIS2_PLACEMENT_3D('',#1457,#1141,#1142);
#991=AXIS2_PLACEMENT_3D('',#1461,#1144,#1145);
#992=AXIS2_PLACEMENT_3D('',#1465,#1147,#1148);
#993=AXIS2_PLACEMENT_3D('',#1466,#1149,#1150);
#994=AXIS2_PLACEMENT_3D('',#1472,#1154,#1155);
#995=AXIS2_PLACEMENT_3D('',#1473,#1156,#1157);
#996=AXIS2_PLACEMENT_3D('',#1476,#1159,#1160);
#997=AXIS2_PLACEMENT_3D('',#1477,#1161,#1162);
#998=AXIS2_PLACEMENT_3D('',#1479,#1163,#1164);
#999=AXIS2_PLACEMENT_3D('',#1481,#1165,#1166);
#1000=AXIS2_PLACEMENT_3D('',#1483,#1167,#1168);
#1001=AXIS2_PLACEMENT_3D('',#1485,#1169,#1170);
#1002=AXIS2_PLACEMENT_3D('',#1487,#1171,#1172);
#1003=AXIS2_PLACEMENT_3D('',#1489,#1173,#1174);
#1004=AXIS2_PLACEMENT_3D('',#1491,#1175,#1176);
#1005=AXIS2_PLACEMENT_3D('',#1493,#1177,#1178);
#1006=AXIS2_PLACEMENT_3D('',#1498,#1181,#1182);
#1007=AXIS2_PLACEMENT_3D('',#1499,#1183,#1184);
#1008=AXIS2_PLACEMENT_3D('',#1502,#1186,#1187);
#1009=AXIS2_PLACEMENT_3D('',#1506,#1190,#1191);
#1010=AXIS2_PLACEMENT_3D('',#1507,#1192,#1193);
#1011=AXIS2_PLACEMENT_3D('',#1510,#1195,#1196);
#1012=AXIS2_PLACEMENT_3D('',#1514,#1199,#1200);
#1013=AXIS2_PLACEMENT_3D('',#1515,#1201,#1202);
#1014=AXIS2_PLACEMENT_3D('',#1516,#1203,#1204);
#1015=AXIS2_PLACEMENT_3D('',#1517,#1205,#1206);
#1016=AXIS2_PLACEMENT_3D('',#1523,#1210,#1211);
#1017=AXIS2_PLACEMENT_3D('',#1526,#1213,#1214);
#1018=AXIS2_PLACEMENT_3D('',#1527,#1215,#1216);
#1019=AXIS2_PLACEMENT_3D('',#1528,#1217,#1218);
#1020=AXIS2_PLACEMENT_3D('',#1530,#1219,#1220);
#1021=AXIS2_PLACEMENT_3D('',#1532,#1221,#1222);
#1022=AXIS2_PLACEMENT_3D('',#1534,#1223,#1224);
#1023=AXIS2_PLACEMENT_3D('',#1536,#1225,#1226);
#1024=AXIS2_PLACEMENT_3D('',#1538,#1227,#1228);
#1025=AXIS2_PLACEMENT_3D('',#1540,#1229,#1230);
#1026=AXIS2_PLACEMENT_3D('',#1542,#1231,#1232);
#1027=AXIS2_PLACEMENT_3D('',#1544,#1233,#1234);
#1028=AXIS2_PLACEMENT_3D('',#1549,#1237,#1238);
#1029=AXIS2_PLACEMENT_3D('',#1552,#1240,#1241);
#1030=AXIS2_PLACEMENT_3D('',#1553,#1242,#1243);
#1031=AXIS2_PLACEMENT_3D('',#1557,#1246,#1247);
#1032=AXIS2_PLACEMENT_3D('',#1560,#1249,#1250);
#1033=AXIS2_PLACEMENT_3D('',#1561,#1251,#1252);
#1034=AXIS2_PLACEMENT_3D('',#1565,#1255,#1256);
#1035=AXIS2_PLACEMENT_3D('',#1566,#1257,#1258);
#1036=AXIS2_PLACEMENT_3D('',#1567,#1259,#1260);
#1037=AXIS2_PLACEMENT_3D('',#1568,#1261,#1262);
#1038=AXIS2_PLACEMENT_3D('',#1570,#1263,#1264);
#1039=AXIS2_PLACEMENT_3D('',#1572,#1265,#1266);
#1040=AXIS2_PLACEMENT_3D('',#1574,#1267,#1268);
#1041=AXIS2_PLACEMENT_3D('',#1576,#1269,#1270);
#1042=AXIS2_PLACEMENT_3D('',#1577,#1271,#1272);
#1043=AXIS2_PLACEMENT_3D('',#1578,#1273,#1274);
#1044=AXIS2_PLACEMENT_3D('',#1579,#1275,#1276);
#1045=AXIS2_PLACEMENT_3D('',#1580,#1277,#1278);
#1046=AXIS2_PLACEMENT_3D('',#1582,#1279,#1280);
#1047=AXIS2_PLACEMENT_3D('',#1583,#1281,#1282);
#1048=AXIS2_PLACEMENT_3D('',#1585,#1283,#1284);
#1049=AXIS2_PLACEMENT_3D('',#1586,#1285,#1286);
#1050=AXIS2_PLACEMENT_3D('',#1587,#1287,#1288);
#1051=AXIS2_PLACEMENT_3D('',#1589,#1289,#1290);
#1052=AXIS2_PLACEMENT_3D('',#1590,#1291,#1292);
#1053=AXIS2_PLACEMENT_3D('',#1592,#1293,#1294);
#1054=AXIS2_PLACEMENT_3D('',#1593,#1295,#1296);
#1055=AXIS2_PLACEMENT_3D('',#1594,#1297,#1298);
#1056=AXIS2_PLACEMENT_3D('',#1596,#1299,#1300);
#1057=AXIS2_PLACEMENT_3D('',#1597,#1301,#1302);
#1058=AXIS2_PLACEMENT_3D('',#1599,#1303,#1304);
#1059=AXIS2_PLACEMENT_3D('',#1600,#1305,#1306);
#1060=AXIS2_PLACEMENT_3D('',#1601,#1307,#1308);
#1061=AXIS2_PLACEMENT_3D('',#1603,#1309,#1310);
#1062=AXIS2_PLACEMENT_3D('',#1604,#1311,#1312);
#1063=AXIS2_PLACEMENT_3D('',#1606,#1313,#1314);
#1064=AXIS2_PLACEMENT_3D('',#1607,#1315,#1316);
#1065=AXIS2_PLACEMENT_3D('',#1608,#1317,#1318);
#1066=AXIS2_PLACEMENT_3D('',#1610,#1319,#1320);
#1067=AXIS2_PLACEMENT_3D('',#1611,#1321,#1322);
#1068=AXIS2_PLACEMENT_3D('',#1613,#1323,#1324);
#1069=AXIS2_PLACEMENT_3D('',#1614,#1325,#1326);
#1070=AXIS2_PLACEMENT_3D('',#1615,#1327,#1328);
#1071=AXIS2_PLACEMENT_3D('',#1617,#1329,#1330);
#1072=AXIS2_PLACEMENT_3D('',#1618,#1331,#1332);
#1073=AXIS2_PLACEMENT_3D('',#1620,#1333,#1334);
#1074=AXIS2_PLACEMENT_3D('',#1621,#1335,#1336);
#1075=AXIS2_PLACEMENT_3D('',#1622,#1337,#1338);
#1076=AXIS2_PLACEMENT_3D('',#1624,#1339,#1340);
#1077=AXIS2_PLACEMENT_3D('',#1625,#1341,#1342);
#1078=AXIS2_PLACEMENT_3D('',#1627,#1343,#1344);
#1079=AXIS2_PLACEMENT_3D('',#1628,#1345,#1346);
#1080=AXIS2_PLACEMENT_3D('',#1629,#1347,#1348);
#1081=AXIS2_PLACEMENT_3D('',#1631,#1349,#1350);
#1082=AXIS2_PLACEMENT_3D('',#1632,#1351,#1352);
#1083=AXIS2_PLACEMENT_3D('',#1634,#1353,#1354);
#1084=AXIS2_PLACEMENT_3D('',#1635,#1355,#1356);
#1085=AXIS2_PLACEMENT_3D('',#1636,#1357,#1358);
#1086=AXIS2_PLACEMENT_3D('',#1638,#1359,#1360);
#1087=AXIS2_PLACEMENT_3D('',#1640,#1361,#1362);
#1088=AXIS2_PLACEMENT_3D('',#1641,#1363,#1364);
#1089=AXIS2_PLACEMENT_3D('',#1642,#1365,#1366);
#1090=AXIS2_PLACEMENT_3D('',#1643,#1367,#1368);
#1091=AXIS2_PLACEMENT_3D('',#1645,#1369,#1370);
#1092=AXIS2_PLACEMENT_3D('',#1647,#1371,#1372);
#1093=AXIS2_PLACEMENT_3D('',#1648,#1373,#1374);
#1094=AXIS2_PLACEMENT_3D('',#1649,#1375,#1376);
#1095=AXIS2_PLACEMENT_3D('',#1650,#1377,#1378);
#1096=AXIS2_PLACEMENT_3D('',#1652,#1379,#1380);
#1097=AXIS2_PLACEMENT_3D('',#1654,#1381,#1382);
#1098=AXIS2_PLACEMENT_3D('',#1655,#1383,#1384);
#1099=AXIS2_PLACEMENT_3D('',#1656,#1385,#1386);
#1100=AXIS2_PLACEMENT_3D('',#1657,#1387,#1388);
#1101=AXIS2_PLACEMENT_3D('',#1659,#1389,#1390);
#1102=AXIS2_PLACEMENT_3D('',#1661,#1391,#1392);
#1103=AXIS2_PLACEMENT_3D('',#1662,#1393,#1394);
#1104=AXIS2_PLACEMENT_3D('',#1663,#1395,#1396);
#1105=AXIS2_PLACEMENT_3D('',#1664,#1397,#1398);
#1106=AXIS2_PLACEMENT_3D('',#1666,#1399,#1400);
#1107=AXIS2_PLACEMENT_3D('',#1668,#1401,#1402);
#1108=AXIS2_PLACEMENT_3D('',#1669,#1403,#1404);
#1109=AXIS2_PLACEMENT_3D('',#1670,#1405,#1406);
#1110=AXIS2_PLACEMENT_3D('',#1671,#1407,#1408);
#1111=AXIS2_PLACEMENT_3D('',#1673,#1409,#1410);
#1112=AXIS2_PLACEMENT_3D('',#1675,#1411,#1412);
#1113=AXIS2_PLACEMENT_3D('',#1676,#1413,#1414);
#1114=AXIS2_PLACEMENT_3D('',#1677,#1415,#1416);
#1115=DIRECTION('',(0.,0.,1.));
#1116=DIRECTION('',(1.,0.,0.));
#1117=DIRECTION('',(0.,0.,1.));
#1118=DIRECTION('',(0.999999999999998,0.,0.));
#1119=DIRECTION('',(0.,0.,1.));
#1120=DIRECTION('',(0.999999999999998,0.,0.));
#1121=DIRECTION('',(0.,0.,1.));
#1122=DIRECTION('',(1.,0.,0.));
#1123=DIRECTION('',(0.,0.,1.));
#1124=DIRECTION('',(1.,0.,0.));
#1125=DIRECTION('',(0.,-1.,0.));
#1126=DIRECTION('',(0.,0.,1.));
#1127=DIRECTION('',(1.,0.,0.));
#1128=DIRECTION('',(1.,0.,0.));
#1129=DIRECTION('',(0.,0.,1.));
#1130=DIRECTION('',(1.,0.,0.));
#1131=DIRECTION('',(0.,1.,0.));
#1132=DIRECTION('',(0.,0.,1.));
#1133=DIRECTION('',(1.,0.,0.));
#1134=DIRECTION('',(-1.,0.,0.));
#1135=DIRECTION('',(0.,0.,1.));
#1136=DIRECTION('',(1.,0.,0.));
#1137=DIRECTION('',(0.,-1.,0.));
#1138=DIRECTION('',(0.,0.,-1.));
#1139=DIRECTION('',(1.,0.,0.));
#1140=DIRECTION('',(-1.,0.,0.));
#1141=DIRECTION('',(0.,0.,-1.));
#1142=DIRECTION('',(1.,0.,0.));
#1143=DIRECTION('',(0.,1.,0.));
#1144=DIRECTION('',(0.,0.,-1.));
#1145=DIRECTION('',(1.,8.67361737988404E-17,0.));
#1146=DIRECTION('',(1.,0.,0.));
#1147=DIRECTION('',(0.,0.,-1.));
#1148=DIRECTION('',(1.,8.67361737988404E-17,0.));
#1149=DIRECTION('',(0.,0.,1.));
#1150=DIRECTION('',(1.,0.,0.));
#1151=DIRECTION('',(0.,-1.,0.));
#1152=DIRECTION('',(0.,0.,-1.));
#1153=DIRECTION('',(0.,0.,-1.));
#1154=DIRECTION('',(1.,0.,0.));
#1155=DIRECTION('',(0.,0.,-1.));
#1156=DIRECTION('',(0.,0.,1.));
#1157=DIRECTION('',(1.,0.,0.));
#1158=DIRECTION('',(0.,0.,-1.));
#1159=DIRECTION('',(0.,0.,-1.));
#1160=DIRECTION('',(-1.,0.,0.));
#1161=DIRECTION('',(0.,1.,0.));
#1162=DIRECTION('',(0.,0.,1.));
#1163=DIRECTION('',(0.,1.,0.));
#1164=DIRECTION('',(0.,0.,1.));
#1165=DIRECTION('',(0.,1.,0.));
#1166=DIRECTION('',(0.,0.,1.));
#1167=DIRECTION('',(0.,1.,0.));
#1168=DIRECTION('',(0.,0.,1.));
#1169=DIRECTION('',(0.,1.,0.));
#1170=DIRECTION('',(0.,0.,1.));
#1171=DIRECTION('',(0.,1.,0.));
#1172=DIRECTION('',(0.,0.,1.));
#1173=DIRECTION('',(0.,-1.,0.));
#1174=DIRECTION('',(1.,0.,0.));
#1175=DIRECTION('',(0.,-1.,0.));
#1176=DIRECTION('',(1.,0.,0.));
#1177=DIRECTION('',(0.,-1.,0.));
#1178=DIRECTION('',(1.,0.,0.));
#1179=DIRECTION('',(1.,0.,0.));
#1180=DIRECTION('',(0.,0.,-1.));
#1181=DIRECTION('',(0.,1.,0.));
#1182=DIRECTION('',(0.,0.,1.));
#1183=DIRECTION('',(0.,0.,1.));
#1184=DIRECTION('',(1.,0.,0.));
#1185=DIRECTION('',(0.,0.,-1.));
#1186=DIRECTION('',(0.,0.,-1.));
#1187=DIRECTION('',(-1.,0.,0.));
#1188=DIRECTION('',(0.,1.,0.));
#1189=DIRECTION('',(0.,0.,-1.));
#1190=DIRECTION('',(-1.,0.,0.));
#1191=DIRECTION('',(0.,0.,1.));
#1192=DIRECTION('',(0.,0.,1.));
#1193=DIRECTION('',(1.,0.,0.));
#1194=DIRECTION('',(0.,0.,-1.));
#1195=DIRECTION('',(0.,0.,-1.));
#1196=DIRECTION('',(-1.,0.,0.));
#1197=DIRECTION('',(-1.,0.,0.));
#1198=DIRECTION('',(0.,0.,-1.));
#1199=DIRECTION('',(0.,-1.,0.));
#1200=DIRECTION('',(0.,0.,-1.));
#1201=DIRECTION('',(0.,0.,1.));
#1202=DIRECTION('',(1.,0.,0.));
#1203=DIRECTION('',(0.,0.,-1.));
#1204=DIRECTION('',(-1.,0.,0.));
#1205=DIRECTION('',(0.,0.,1.));
#1206=DIRECTION('',(1.,0.,0.));
#1207=DIRECTION('',(0.,0.,-1.));
#1208=DIRECTION('',(0.,1.,0.));
#1209=DIRECTION('',(0.,0.,-1.));
#1210=DIRECTION('',(-1.,0.,0.));
#1211=DIRECTION('',(0.,0.,1.));
#1212=DIRECTION('',(0.,0.,-1.));
#1213=DIRECTION('',(0.,0.,1.));
#1214=DIRECTION('',(1.,8.67361737988404E-17,0.));
#1215=DIRECTION('',(0.,0.,1.));
#1216=DIRECTION('',(1.,0.,0.));
#1217=DIRECTION('',(0.,-1.,0.));
#1218=DIRECTION('',(0.,0.,-1.));
#1219=DIRECTION('',(0.,-1.,0.));
#1220=DIRECTION('',(0.,0.,-1.));
#1221=DIRECTION('',(0.,-1.,0.));
#1222=DIRECTION('',(0.,0.,-1.));
#1223=DIRECTION('',(0.,-1.,0.));
#1224=DIRECTION('',(0.,0.,-1.));
#1225=DIRECTION('',(0.,-1.,0.));
#1226=DIRECTION('',(0.,0.,-1.));
#1227=DIRECTION('',(0.,-1.,0.));
#1228=DIRECTION('',(0.,0.,-1.));
#1229=DIRECTION('',(0.,-1.,0.));
#1230=DIRECTION('',(1.,0.,0.));
#1231=DIRECTION('',(0.,-1.,0.));
#1232=DIRECTION('',(1.,0.,0.));
#1233=DIRECTION('',(0.,-1.,0.));
#1234=DIRECTION('',(1.,0.,0.));
#1235=DIRECTION('',(0.,0.,-1.));
#1236=DIRECTION('',(-1.,0.,0.));
#1237=DIRECTION('',(0.,-1.,0.));
#1238=DIRECTION('',(0.,0.,-1.));
#1239=DIRECTION('',(0.,0.,-1.));
#1240=DIRECTION('',(0.,0.,1.));
#1241=DIRECTION('',(1.,8.67361737988404E-17,0.));
#1242=DIRECTION('',(0.,0.,1.));
#1243=DIRECTION('',(1.,0.,0.));
#1244=DIRECTION('',(0.,0.,-1.));
#1245=DIRECTION('',(0.,-1.,0.));
#1246=DIRECTION('',(1.,0.,0.));
#1247=DIRECTION('',(0.,0.,-1.));
#1248=DIRECTION('',(0.,0.,-1.));
#1249=DIRECTION('',(0.,0.,1.));
#1250=DIRECTION('',(1.,0.,0.));
#1251=DIRECTION('',(0.,0.,1.));
#1252=DIRECTION('',(1.,0.,0.));
#1253=DIRECTION('',(0.,0.,-1.));
#1254=DIRECTION('',(1.,0.,0.));
#1255=DIRECTION('',(0.,1.,0.));
#1256=DIRECTION('',(0.,0.,1.));
#1257=DIRECTION('',(0.,0.,1.));
#1258=DIRECTION('',(1.,0.,0.));
#1259=DIRECTION('',(0.,0.,1.));
#1260=DIRECTION('',(1.,0.,0.));
#1261=DIRECTION('',(0.,0.,-1.));
#1262=DIRECTION('',(-0.999999999999999,0.,0.));
#1263=DIRECTION('',(0.,0.,-1.));
#1264=DIRECTION('',(-0.999999999999999,0.,0.));
#1265=DIRECTION('',(0.,0.,-1.));
#1266=DIRECTION('',(-1.,0.,0.));
#1267=DIRECTION('',(0.,0.,-1.));
#1268=DIRECTION('',(-1.,0.,0.));
#1269=DIRECTION('',(0.,0.,-1.));
#1270=DIRECTION('',(-1.,0.,0.));
#1271=DIRECTION('',(0.,-1.,0.));
#1272=DIRECTION('',(0.,0.,-1.));
#1273=DIRECTION('',(0.,-1.,0.));
#1274=DIRECTION('',(0.,0.,-1.));
#1275=DIRECTION('',(0.,-1.,0.));
#1276=DIRECTION('',(0.,0.,-1.));
#1277=DIRECTION('',(0.,0.,1.));
#1278=DIRECTION('',(1.,0.,0.));
#1279=DIRECTION('',(0.,0.,1.));
#1280=DIRECTION('',(1.,0.,-3.46944695195362E-17));
#1281=DIRECTION('',(0.,0.,1.));
#1282=DIRECTION('',(-1.,0.,0.));
#1283=DIRECTION('',(0.,0.,-1.));
#1284=DIRECTION('',(-1.,0.,0.));
#1285=DIRECTION('',(0.,0.,-1.));
#1286=DIRECTION('',(-1.,0.,0.));
#1287=DIRECTION('',(0.,0.,1.));
#1288=DIRECTION('',(1.,0.,0.));
#1289=DIRECTION('',(0.,0.,1.));
#1290=DIRECTION('',(1.,0.,-3.46944695195362E-17));
#1291=DIRECTION('',(0.,0.,-1.));
#1292=DIRECTION('',(-1.,0.,0.));
#1293=DIRECTION('',(0.,0.,-1.));
#1294=DIRECTION('',(-1.,0.,0.));
#1295=DIRECTION('',(0.,0.,-1.));
#1296=DIRECTION('',(-1.,0.,0.));
#1297=DIRECTION('',(0.,0.,1.));
#1298=DIRECTION('',(1.,0.,0.));
#1299=DIRECTION('',(0.,0.,1.));
#1300=DIRECTION('',(1.,0.,-3.46944695195362E-17));
#1301=DIRECTION('',(0.,0.,-1.));
#1302=DIRECTION('',(-1.,0.,0.));
#1303=DIRECTION('',(0.,0.,-1.));
#1304=DIRECTION('',(-1.,0.,0.));
#1305=DIRECTION('',(0.,0.,-1.));
#1306=DIRECTION('',(-1.,0.,0.));
#1307=DIRECTION('',(0.,0.,1.));
#1308=DIRECTION('',(1.,0.,0.));
#1309=DIRECTION('',(0.,0.,1.));
#1310=DIRECTION('',(1.,0.,-3.46944695195362E-17));
#1311=DIRECTION('',(0.,0.,-1.));
#1312=DIRECTION('',(-1.,0.,0.));
#1313=DIRECTION('',(0.,0.,-1.));
#1314=DIRECTION('',(-1.,0.,0.));
#1315=DIRECTION('',(0.,0.,-1.));
#1316=DIRECTION('',(-1.,0.,0.));
#1317=DIRECTION('',(0.,0.,1.));
#1318=DIRECTION('',(1.,0.,0.));
#1319=DIRECTION('',(0.,0.,1.));
#1320=DIRECTION('',(1.,0.,-7.11236625150492E-17));
#1321=DIRECTION('',(0.,0.,1.));
#1322=DIRECTION('',(-1.,0.,0.));
#1323=DIRECTION('',(0.,0.,-1.));
#1324=DIRECTION('',(-1.,0.,0.));
#1325=DIRECTION('',(0.,0.,-1.));
#1326=DIRECTION('',(-1.,0.,0.));
#1327=DIRECTION('',(0.,0.,1.));
#1328=DIRECTION('',(1.,0.,0.));
#1329=DIRECTION('',(0.,0.,1.));
#1330=DIRECTION('',(1.,0.,-7.11236625150492E-17));
#1331=DIRECTION('',(0.,0.,1.));
#1332=DIRECTION('',(-1.,0.,0.));
#1333=DIRECTION('',(0.,0.,-1.));
#1334=DIRECTION('',(-1.,0.,0.));
#1335=DIRECTION('',(0.,0.,-1.));
#1336=DIRECTION('',(-1.,0.,0.));
#1337=DIRECTION('',(0.,0.,1.));
#1338=DIRECTION('',(1.,0.,0.));
#1339=DIRECTION('',(0.,0.,1.));
#1340=DIRECTION('',(1.,0.,-7.11236625150492E-17));
#1341=DIRECTION('',(0.,0.,1.));
#1342=DIRECTION('',(-1.,0.,0.));
#1343=DIRECTION('',(0.,0.,-1.));
#1344=DIRECTION('',(-1.,0.,0.));
#1345=DIRECTION('',(0.,0.,-1.));
#1346=DIRECTION('',(-1.,0.,0.));
#1347=DIRECTION('',(0.,0.,1.));
#1348=DIRECTION('',(1.,0.,0.));
#1349=DIRECTION('',(0.,0.,1.));
#1350=DIRECTION('',(1.,0.,-7.11236625150492E-17));
#1351=DIRECTION('',(0.,0.,1.));
#1352=DIRECTION('',(-1.,0.,0.));
#1353=DIRECTION('',(0.,0.,-1.));
#1354=DIRECTION('',(-1.,0.,0.));
#1355=DIRECTION('',(0.,0.,-1.));
#1356=DIRECTION('',(-1.,0.,0.));
#1357=DIRECTION('',(0.,1.,0.));
#1358=DIRECTION('',(0.,0.,1.));
#1359=DIRECTION('',(0.,-1.,0.));
#1360=DIRECTION('',(0.,0.,-1.));
#1361=DIRECTION('',(0.,1.,0.));
#1362=DIRECTION('',(0.,0.,1.));
#1363=DIRECTION('',(0.,-1.,0.));
#1364=DIRECTION('',(-1.,-3.38271077815478E-17,0.));
#1365=DIRECTION('',(0.,1.,0.));
#1366=DIRECTION('',(1.,-7.2858385991026E-17,0.));
#1367=DIRECTION('',(0.,1.,0.));
#1368=DIRECTION('',(0.,0.,1.));
#1369=DIRECTION('',(0.,-1.,0.));
#1370=DIRECTION('',(0.,0.,-1.));
#1371=DIRECTION('',(0.,1.,0.));
#1372=DIRECTION('',(0.,0.,1.));
#1373=DIRECTION('',(0.,-1.,0.));
#1374=DIRECTION('',(-1.,-3.38271077815478E-17,0.));
#1375=DIRECTION('',(0.,1.,0.));
#1376=DIRECTION('',(1.,-7.2858385991026E-17,0.));
#1377=DIRECTION('',(0.,1.,0.));
#1378=DIRECTION('',(0.,0.,1.));
#1379=DIRECTION('',(0.,-1.,0.));
#1380=DIRECTION('',(0.,0.,-1.));
#1381=DIRECTION('',(0.,1.,0.));
#1382=DIRECTION('',(0.,0.,1.));
#1383=DIRECTION('',(0.,-1.,0.));
#1384=DIRECTION('',(-1.,-3.38271077815478E-17,0.));
#1385=DIRECTION('',(0.,1.,0.));
#1386=DIRECTION('',(1.,-7.2858385991026E-17,0.));
#1387=DIRECTION('',(0.,1.,0.));
#1388=DIRECTION('',(0.,0.,1.));
#1389=DIRECTION('',(0.,-1.,0.));
#1390=DIRECTION('',(0.,0.,-1.));
#1391=DIRECTION('',(0.,1.,0.));
#1392=DIRECTION('',(0.,0.,1.));
#1393=DIRECTION('',(0.,-1.,0.));
#1394=DIRECTION('',(-1.,-3.38271077815478E-17,0.));
#1395=DIRECTION('',(0.,1.,0.));
#1396=DIRECTION('',(1.,-7.2858385991026E-17,0.));
#1397=DIRECTION('',(0.,1.,0.));
#1398=DIRECTION('',(0.,0.,1.));
#1399=DIRECTION('',(0.,-1.,0.));
#1400=DIRECTION('',(0.,0.,-1.));
#1401=DIRECTION('',(0.,1.,0.));
#1402=DIRECTION('',(0.,0.,1.));
#1403=DIRECTION('',(0.,-1.,0.));
#1404=DIRECTION('',(-1.,-3.38271077815478E-17,0.));
#1405=DIRECTION('',(0.,1.,0.));
#1406=DIRECTION('',(1.,-7.2858385991026E-17,0.));
#1407=DIRECTION('',(0.,1.,0.));
#1408=DIRECTION('',(0.,0.,1.));
#1409=DIRECTION('',(0.,-1.,0.));
#1410=DIRECTION('',(0.,0.,-1.));
#1411=DIRECTION('',(0.,1.,0.));
#1412=DIRECTION('',(0.,0.,1.));
#1413=DIRECTION('',(0.,-1.,0.));
#1414=DIRECTION('',(-1.,-3.38271077815478E-17,0.));
#1415=DIRECTION('',(0.,1.,0.));
#1416=DIRECTION('',(1.,-7.2858385991026E-17,0.));
#1417=CARTESIAN_POINT('',(0.,0.,0.));
#1418=CARTESIAN_POINT('Point25',(5.,5.,45.));
#1419=CARTESIAN_POINT('Point26',(195.,5.,45.));
#1420=CARTESIAN_POINT('Point27',(195.,145.,45.));
#1421=CARTESIAN_POINT('Point28',(5.,145.,45.));
#1422=CARTESIAN_POINT('Point33',(15.,135.,7.));
#1423=CARTESIAN_POINT('Point34',(15.,15.,7.));
#1424=CARTESIAN_POINT('Point35',(185.,15.,7.));
#1425=CARTESIAN_POINT('Point36',(185.,135.,7.));
#1426=CARTESIAN_POINT('',(192.499999999965,142.5,45.));
#1427=CARTESIAN_POINT('',(194.799999999966,142.5,45.));
#1428=CARTESIAN_POINT('',(192.499999999965,7.5,45.));
#1429=CARTESIAN_POINT('',(194.799999999966,7.5,45.));
#1430=CARTESIAN_POINT('',(7.49999999996551,142.5,45.));
#1431=CARTESIAN_POINT('',(9.79999999996551,142.5,45.));
#1432=CARTESIAN_POINT('',(7.49999999996551,7.5,45.));
#1433=CARTESIAN_POINT('',(9.79999999996551,7.5,45.));
#1434=CARTESIAN_POINT('',(0.,145.,45.));
#1435=CARTESIAN_POINT('',(0.,145.,45.));
#1436=CARTESIAN_POINT('',(0.,5.,45.));
#1437=CARTESIAN_POINT('',(5.,5.,45.));
#1438=CARTESIAN_POINT('',(4.99999999999999,0.,45.));
#1439=CARTESIAN_POINT('',(5.,0.,45.));
#1440=CARTESIAN_POINT('',(195.,0.,45.));
#1441=CARTESIAN_POINT('',(195.,5.,45.));
#1442=CARTESIAN_POINT('',(200.,5.,45.));
#1443=CARTESIAN_POINT('',(200.,5.,45.));
#1444=CARTESIAN_POINT('',(200.,145.,45.));
#1445=CARTESIAN_POINT('',(195.,145.,45.));
#1446=CARTESIAN_POINT('',(195.,150.,45.));
#1447=CARTESIAN_POINT('',(195.,150.,45.));
#1448=CARTESIAN_POINT('',(4.99999999999998,150.,45.));
#1449=CARTESIAN_POINT('',(5.,145.,45.));
#1450=CARTESIAN_POINT('',(5.,135.,45.));
#1451=CARTESIAN_POINT('',(5.,135.,45.));
#1452=CARTESIAN_POINT('',(5.,15.,45.));
#1453=CARTESIAN_POINT('',(4.99999999999999,145.,45.));
#1454=CARTESIAN_POINT('',(15.,145.,45.));
#1455=CARTESIAN_POINT('',(185.,145.,45.));
#1456=CARTESIAN_POINT('',(185.,145.,45.));
#1457=CARTESIAN_POINT('',(195.,145.,45.));
#1458=CARTESIAN_POINT('',(195.,135.,45.));
#1459=CARTESIAN_POINT('',(195.,15.,45.));
#1460=CARTESIAN_POINT('',(195.,15.,45.));
#1461=CARTESIAN_POINT('',(195.,4.99999999999999,45.));
#1462=CARTESIAN_POINT('',(185.,5.,45.));
#1463=CARTESIAN_POINT('',(15.,5.,45.));
#1464=CARTESIAN_POINT('',(15.,5.,45.));
#1465=CARTESIAN_POINT('',(5.,5.,45.));
#1466=CARTESIAN_POINT('',(5.,5.,45.));
#1467=CARTESIAN_POINT('',(0.,145.,0.));
#1468=CARTESIAN_POINT('',(0.,145.,0.));
#1469=CARTESIAN_POINT('',(0.,5.,0.));
#1470=CARTESIAN_POINT('',(0.,5.,45.));
#1471=CARTESIAN_POINT('',(0.,145.,45.));
#1472=CARTESIAN_POINT('',(0.,145.,45.));
#1473=CARTESIAN_POINT('',(5.,5.,0.));
#1474=CARTESIAN_POINT('',(4.99999999999999,0.,0.));
#1475=CARTESIAN_POINT('',(4.99999999999999,0.,45.));
#1476=CARTESIAN_POINT('',(5.,5.,45.));
#1477=CARTESIAN_POINT('',(180.,8.67361737988404E-16,22.5));
#1478=CARTESIAN_POINT('',(180.,8.67361737988404E-16,24.8));
#1479=CARTESIAN_POINT('',(140.,8.67361737988404E-16,22.5));
#1480=CARTESIAN_POINT('',(140.,8.67361737988404E-16,24.8));
#1481=CARTESIAN_POINT('',(120.,8.67361737988404E-16,22.5));
#1482=CARTESIAN_POINT('',(120.,8.67361737988404E-16,24.8));
#1483=CARTESIAN_POINT('',(80.,8.67361737988404E-16,22.5));
#1484=CARTESIAN_POINT('',(80.,8.67361737988404E-16,24.8));
#1485=CARTESIAN_POINT('',(60.,8.67361737988404E-16,22.5));
#1486=CARTESIAN_POINT('',(60.,8.67361737988404E-16,24.8));
#1487=CARTESIAN_POINT('',(20.,8.67361737988404E-16,22.5));
#1488=CARTESIAN_POINT('',(20.,8.67361737988404E-16,24.8));
#1489=CARTESIAN_POINT('',(160.,0.,22.5));
#1490=CARTESIAN_POINT('',(172.25,0.,22.5));
#1491=CARTESIAN_POINT('',(40.,0.,22.5));
#1492=CARTESIAN_POINT('',(52.25,0.,22.5));
#1493=CARTESIAN_POINT('',(100.,0.,22.5));
#1494=CARTESIAN_POINT('',(112.25,0.,22.5));
#1495=CARTESIAN_POINT('',(5.,0.,0.));
#1496=CARTESIAN_POINT('',(195.,0.,0.));
#1497=CARTESIAN_POINT('',(195.,0.,45.));
#1498=CARTESIAN_POINT('',(5.,0.,45.));
#1499=CARTESIAN_POINT('',(195.,5.,0.));
#1500=CARTESIAN_POINT('',(200.,5.,0.));
#1501=CARTESIAN_POINT('',(200.,5.,45.));
#1502=CARTESIAN_POINT('',(195.,5.,45.));
#1503=CARTESIAN_POINT('',(200.,5.,0.));
#1504=CARTESIAN_POINT('',(200.,145.,0.));
#1505=CARTESIAN_POINT('',(200.,145.,45.));
#1506=CARTESIAN_POINT('',(200.,5.,45.));
#1507=CARTESIAN_POINT('',(195.,145.,0.));
#1508=CARTESIAN_POINT('',(195.,150.,0.));
#1509=CARTESIAN_POINT('',(195.,150.,45.));
#1510=CARTESIAN_POINT('',(195.,145.,45.));
#1511=CARTESIAN_POINT('',(195.,150.,0.));
#1512=CARTESIAN_POINT('',(4.99999999999998,150.,0.));
#1513=CARTESIAN_POINT('',(4.99999999999998,150.,45.));
#1514=CARTESIAN_POINT('',(195.,150.,45.));
#1515=CARTESIAN_POINT('',(5.,145.,0.));
#1516=CARTESIAN_POINT('',(5.,145.,45.));
#1517=CARTESIAN_POINT('',(5.,5.,0.));
#1518=CARTESIAN_POINT('',(5.,15.,7.));
#1519=CARTESIAN_POINT('',(5.,15.,7.));
#1520=CARTESIAN_POINT('',(5.,135.,7.));
#1521=CARTESIAN_POINT('',(5.,135.,7.));
#1522=CARTESIAN_POINT('',(5.,135.,7.));
#1523=CARTESIAN_POINT('',(5.,135.,7.));
#1524=CARTESIAN_POINT('',(15.,5.,7.));
#1525=CARTESIAN_POINT('',(15.,5.,7.));
#1526=CARTESIAN_POINT('',(5.,5.,7.));
#1527=CARTESIAN_POINT('',(5.,5.,7.));
#1528=CARTESIAN_POINT('',(180.,5.,22.5));
#1529=CARTESIAN_POINT('',(180.,5.,20.2));
#1530=CARTESIAN_POINT('',(140.,5.,22.5));
#1531=CARTESIAN_POINT('',(140.,5.,20.2));
#1532=CARTESIAN_POINT('',(120.,5.,22.5));
#1533=CARTESIAN_POINT('',(120.,5.,20.2));
#1534=CARTESIAN_POINT('',(80.,5.,22.5));
#1535=CARTESIAN_POINT('',(80.,5.,20.2));
#1536=CARTESIAN_POINT('',(60.,5.,22.5));
#1537=CARTESIAN_POINT('',(60.,5.,20.2));
#1538=CARTESIAN_POINT('',(20.,5.,22.5));
#1539=CARTESIAN_POINT('',(20.,5.,20.2));
#1540=CARTESIAN_POINT('',(160.,5.,22.5));
#1541=CARTESIAN_POINT('',(172.25,5.,22.5));
#1542=CARTESIAN_POINT('',(40.,5.,22.5));
#1543=CARTESIAN_POINT('',(52.25,5.,22.5));
#1544=CARTESIAN_POINT('',(100.,5.,22.5));
#1545=CARTESIAN_POINT('',(112.25,5.,22.5));
#1546=CARTESIAN_POINT('',(185.,5.,7.));
#1547=CARTESIAN_POINT('',(185.,5.,7.));
#1548=CARTESIAN_POINT('',(15.,5.,7.));
#1549=CARTESIAN_POINT('',(15.,5.,7.));
#1550=CARTESIAN_POINT('',(195.,15.,7.));
#1551=CARTESIAN_POINT('',(195.,15.,7.));
#1552=CARTESIAN_POINT('',(195.,4.99999999999999,7.));
#1553=CARTESIAN_POINT('',(195.,4.99999999999999,7.));
#1554=CARTESIAN_POINT('',(195.,135.,7.));
#1555=CARTESIAN_POINT('',(195.,135.,7.));
#1556=CARTESIAN_POINT('',(195.,15.,7.));
#1557=CARTESIAN_POINT('',(195.,15.,7.));
#1558=CARTESIAN_POINT('',(185.,145.,7.));
#1559=CARTESIAN_POINT('',(185.,145.,7.));
#1560=CARTESIAN_POINT('',(195.,145.,7.));
#1561=CARTESIAN_POINT('',(195.,145.,7.));
#1562=CARTESIAN_POINT('',(15.,145.,7.));
#1563=CARTESIAN_POINT('',(15.,145.,7.));
#1564=CARTESIAN_POINT('',(185.,145.,7.));
#1565=CARTESIAN_POINT('',(185.,145.,7.));
#1566=CARTESIAN_POINT('',(4.99999999999999,145.,7.));
#1567=CARTESIAN_POINT('',(4.99999999999999,145.,7.));
#1568=CARTESIAN_POINT('',(178.,128.,7.));
#1569=CARTESIAN_POINT('',(175.7,128.,7.));
#1570=CARTESIAN_POINT('',(178.,22.,7.));
#1571=CARTESIAN_POINT('',(175.7,22.,7.));
#1572=CARTESIAN_POINT('',(22.,128.,7.));
#1573=CARTESIAN_POINT('',(19.7,128.,7.));
#1574=CARTESIAN_POINT('',(22.,22.,7.));
#1575=CARTESIAN_POINT('',(19.7,22.,7.));
#1576=CARTESIAN_POINT('',(5.,5.,7.));
#1577=CARTESIAN_POINT('',(100.,5.,22.5));
#1578=CARTESIAN_POINT('',(40.,5.,22.5));
#1579=CARTESIAN_POINT('',(160.,5.,22.5));
#1580=CARTESIAN_POINT('',(7.49999999996551,7.5,44.7));
#1581=CARTESIAN_POINT('',(9.49999999996551,7.5,44.7));
#1582=CARTESIAN_POINT('',(7.49999999996551,7.5,42.7));
#1583=CARTESIAN_POINT('',(7.49999999996551,7.5,39.));
#1584=CARTESIAN_POINT('',(5.49999999996551,7.5,39.));
#1585=CARTESIAN_POINT('',(7.49999999996551,7.5,39.));
#1586=CARTESIAN_POINT('',(7.49999999996551,7.5,45.));
#1587=CARTESIAN_POINT('',(7.49999999996551,142.5,44.7));
#1588=CARTESIAN_POINT('',(9.49999999996551,142.5,44.7));
#1589=CARTESIAN_POINT('',(7.49999999996551,142.5,42.7));
#1590=CARTESIAN_POINT('',(7.49999999996551,142.5,39.));
#1591=CARTESIAN_POINT('',(5.49999999996551,142.5,39.));
#1592=CARTESIAN_POINT('',(7.49999999996551,142.5,39.));
#1593=CARTESIAN_POINT('',(7.49999999996551,142.5,45.));
#1594=CARTESIAN_POINT('',(192.499999999965,7.5,44.7));
#1595=CARTESIAN_POINT('',(194.499999999965,7.5,44.7));
#1596=CARTESIAN_POINT('',(192.499999999965,7.5,42.7));
#1597=CARTESIAN_POINT('',(192.499999999965,7.5,39.));
#1598=CARTESIAN_POINT('',(190.499999999965,7.5,39.));
#1599=CARTESIAN_POINT('',(192.499999999965,7.5,39.));
#1600=CARTESIAN_POINT('',(192.499999999965,7.5,45.));
#1601=CARTESIAN_POINT('',(192.499999999965,142.5,44.7));
#1602=CARTESIAN_POINT('',(194.499999999965,142.5,44.7));
#1603=CARTESIAN_POINT('',(192.499999999965,142.5,42.7));
#1604=CARTESIAN_POINT('',(192.499999999965,142.5,39.));
#1605=CARTESIAN_POINT('',(190.499999999965,142.5,39.));
#1606=CARTESIAN_POINT('',(192.499999999965,142.5,39.));
#1607=CARTESIAN_POINT('',(192.499999999965,142.5,45.));
#1608=CARTESIAN_POINT('',(22.,22.,6.7));
#1609=CARTESIAN_POINT('',(24.,22.,6.7));
#1610=CARTESIAN_POINT('',(22.,22.,4.7));
#1611=CARTESIAN_POINT('',(22.,22.,2.));
#1612=CARTESIAN_POINT('',(20.,22.,2.));
#1613=CARTESIAN_POINT('',(22.,22.,2.));
#1614=CARTESIAN_POINT('',(22.,22.,7.));
#1615=CARTESIAN_POINT('',(22.,128.,6.7));
#1616=CARTESIAN_POINT('',(24.,128.,6.7));
#1617=CARTESIAN_POINT('',(22.,128.,4.7));
#1618=CARTESIAN_POINT('',(22.,128.,2.));
#1619=CARTESIAN_POINT('',(20.,128.,2.));
#1620=CARTESIAN_POINT('',(22.,128.,2.));
#1621=CARTESIAN_POINT('',(22.,128.,7.));
#1622=CARTESIAN_POINT('',(178.,22.,6.7));
#1623=CARTESIAN_POINT('',(180.,22.,6.7));
#1624=CARTESIAN_POINT('',(178.,22.,4.7));
#1625=CARTESIAN_POINT('',(178.,22.,2.));
#1626=CARTESIAN_POINT('',(176.,22.,2.));
#1627=CARTESIAN_POINT('',(178.,22.,2.));
#1628=CARTESIAN_POINT('',(178.,22.,7.));
#1629=CARTESIAN_POINT('',(178.,128.,6.7));
#1630=CARTESIAN_POINT('',(180.,128.,6.7));
#1631=CARTESIAN_POINT('',(178.,128.,4.7));
#1632=CARTESIAN_POINT('',(178.,128.,2.));
#1633=CARTESIAN_POINT('',(176.,128.,2.));
#1634=CARTESIAN_POINT('',(178.,128.,2.));
#1635=CARTESIAN_POINT('',(178.,128.,7.));
#1636=CARTESIAN_POINT('',(20.,4.7,22.5));
#1637=CARTESIAN_POINT('',(20.,4.7,24.5));
#1638=CARTESIAN_POINT('',(20.,0.3,22.5));
#1639=CARTESIAN_POINT('',(20.,0.3,20.5));
#1640=CARTESIAN_POINT('',(20.,0.,22.5));
#1641=CARTESIAN_POINT('',(20.,2.3,22.5));
#1642=CARTESIAN_POINT('',(20.,2.7,22.5));
#1643=CARTESIAN_POINT('',(60.,4.7,22.5));
#1644=CARTESIAN_POINT('',(60.,4.7,24.5));
#1645=CARTESIAN_POINT('',(60.,0.3,22.5));
#1646=CARTESIAN_POINT('',(60.,0.3,20.5));
#1647=CARTESIAN_POINT('',(60.,0.,22.5));
#1648=CARTESIAN_POINT('',(60.,2.3,22.5));
#1649=CARTESIAN_POINT('',(60.,2.7,22.5));
#1650=CARTESIAN_POINT('',(80.,4.7,22.5));
#1651=CARTESIAN_POINT('',(80.,4.7,24.5));
#1652=CARTESIAN_POINT('',(80.,0.3,22.5));
#1653=CARTESIAN_POINT('',(80.,0.3,20.5));
#1654=CARTESIAN_POINT('',(80.,0.,22.5));
#1655=CARTESIAN_POINT('',(80.,2.3,22.5));
#1656=CARTESIAN_POINT('',(80.,2.7,22.5));
#1657=CARTESIAN_POINT('',(120.,4.7,22.5));
#1658=CARTESIAN_POINT('',(120.,4.7,24.5));
#1659=CARTESIAN_POINT('',(120.,0.3,22.5));
#1660=CARTESIAN_POINT('',(120.,0.3,20.5));
#1661=CARTESIAN_POINT('',(120.,0.,22.5));
#1662=CARTESIAN_POINT('',(120.,2.3,22.5));
#1663=CARTESIAN_POINT('',(120.,2.7,22.5));
#1664=CARTESIAN_POINT('',(140.,4.7,22.5));
#1665=CARTESIAN_POINT('',(140.,4.7,24.5));
#1666=CARTESIAN_POINT('',(140.,0.3,22.5));
#1667=CARTESIAN_POINT('',(140.,0.3,20.5));
#1668=CARTESIAN_POINT('',(140.,0.,22.5));
#1669=CARTESIAN_POINT('',(140.,2.3,22.5));
#1670=CARTESIAN_POINT('',(140.,2.7,22.5));
#1671=CARTESIAN_POINT('',(180.,4.7,22.5));
#1672=CARTESIAN_POINT('',(180.,4.7,24.5));
#1673=CARTESIAN_POINT('',(180.,0.3,22.5));
#1674=CARTESIAN_POINT('',(180.,0.3,20.5));
#1675=CARTESIAN_POINT('',(180.,0.,22.5));
#1676=CARTESIAN_POINT('',(180.,2.3,22.5));
#1677=CARTESIAN_POINT('',(180.,2.7,22.5));
#1678=MECHANICAL_DESIGN_GEOMETRIC_PRESENTATION_REPRESENTATION('',(#944,
#945,#946,#947,#948,#949,#950,#951,#952),#1679);
#1679=(
GEOMETRIC_REPRESENTATION_CONTEXT(3)
GLOBAL_UNCERTAINTY_ASSIGNED_CONTEXT((#1680))
GLOBAL_UNIT_ASSIGNED_CONTEXT((#1686,#1682,#1681))
REPRESENTATION_CONTEXT('housing_bottom','TOP_LEVEL_ASSEMBLY_PART')
);
#1680=UNCERTAINTY_MEASURE_WITH_UNIT(LENGTH_MEASURE(2.E-5),#1686,
'DISTANCE_ACCURACY_VALUE','Maximum Tolerance applied to model');
#1681=(
NAMED_UNIT(*)
SI_UNIT($,.STERADIAN.)
SOLID_ANGLE_UNIT()
);
#1682=(
CONVERSION_BASED_UNIT('DEGREE',#1684)
NAMED_UNIT(#1683)
PLANE_ANGLE_UNIT()
);
#1683=DIMENSIONAL_EXPONENTS(0.,0.,0.,0.,0.,0.,0.);
#1684=PLANE_ANGLE_MEASURE_WITH_UNIT(PLANE_ANGLE_MEASURE(0.0174532925),#1685);
#1685=(
NAMED_UNIT(*)
PLANE_ANGLE_UNIT()
SI_UNIT($,.RADIAN.)
);
#1686=(
LENGTH_UNIT()
NAMED_UNIT(*)
SI_UNIT(.MILLI.,.METRE.)
);
ENDSEC;
END-ISO-10303-21;
