ISO-10303-21;
HEADER;
/* Generated by software containing ST-Developer
 * from STEP Tools, Inc. (www.steptools.com) 
 */
/* OPTION: using custom schema-name function */

FILE_DESCRIPTION(
/* description */ (''),
/* implementation_level */ '2;1');

FILE_NAME(
/* name */ 'housing_upper.stp',
/* time_stamp */ '2026-07-19T12:51:09+02:00',
/* author */ (''),
/* organization */ (''),
/* preprocessor_version */ 'ST-DEVELOPER v18.102',
/* originating_system */ 'SIEMENS PLM Software NX2206.6002',
/* authorisation */ '');

FILE_SCHEMA (('AUTOMOTIVE_DESIGN { 1 0 10303 214 3 1 1 1 }'));
ENDSEC;

DATA;
#10=GEOMETRICALLY_BOUNDED_WIREFRAME_SHAPE_REPRESENTATION(
'housing_upper-None',(#25),#1226);
#11=SHAPE_REPRESENTATION_RELATIONSHIP('None',
'relationship between housing_upper-None and housing_upper-None',#24,#13);
#12=SHAPE_REPRESENTATION_RELATIONSHIP('None',
'relationship between housing_upper-None and housing_upper-None',#24,#10);
#13=ADVANCED_BREP_SHAPE_REPRESENTATION('housing_upper-None',(#31),#1226);
#14=SHAPE_DEFINITION_REPRESENTATION(#15,#24);
#15=PRODUCT_DEFINITION_SHAPE('','',#16);
#16=PRODUCT_DEFINITION(' ','',#18,#17);
#17=PRODUCT_DEFINITION_CONTEXT('part definition',#23,'design');
#18=PRODUCT_DEFINITION_FORMATION_WITH_SPECIFIED_SOURCE(' ',' ',#20,
 .NOT_KNOWN.);
#19=PRODUCT_RELATED_PRODUCT_CATEGORY('part','',(#20));
#20=PRODUCT('housing_upper','housing_upper',' ',(#21));
#21=PRODUCT_CONTEXT(' ',#23,'mechanical');
#22=APPLICATION_PROTOCOL_DEFINITION('international standard',
'automotive_design',2010,#23);
#23=APPLICATION_CONTEXT(
'core data for automotive mechanical design processes');
#24=SHAPE_REPRESENTATION('housing_upper-None',(#734),#1226);
#25=GEOMETRIC_CURVE_SET('None',(#1026,#1027,#1028,#1029,#1030,#1031,#1032));
#26=SURFACE_STYLE_USAGE(.BOTH.,#27);
#27=SURFACE_SIDE_STYLE('',(#28));
#28=SURFACE_STYLE_FILL_AREA(#29);
#29=FILL_AREA_STYLE('',(#30));
#30=FILL_AREA_STYLE_COLOUR('',#733);
#31=MANIFOLD_SOLID_BREP('',#32);
#32=CLOSED_SHELL('',(#78,#79,#80,#81,#82,#83,#84,#85,#86,#87,#88,#89,#90,
#91,#92,#93,#94,#95,#96,#97,#98,#99,#100,#101,#102,#103,#104,#105,#106,
#107,#108,#109,#110,#111,#112,#113,#114,#115,#116,#117));
#33=CYLINDRICAL_SURFACE('',#750,5.);
#34=CYLINDRICAL_SURFACE('',#753,5.);
#35=CYLINDRICAL_SURFACE('',#756,5.);
#36=CYLINDRICAL_SURFACE('',#759,5.);
#37=CYLINDRICAL_SURFACE('',#766,3.15);
#38=CYLINDRICAL_SURFACE('',#770,3.15);
#39=CYLINDRICAL_SURFACE('',#774,3.15);
#40=CYLINDRICAL_SURFACE('',#778,3.15);
#41=CYLINDRICAL_SURFACE('',#781,2.1);
#42=CYLINDRICAL_SURFACE('',#782,2.1);
#43=CYLINDRICAL_SURFACE('',#783,2.1);
#44=CYLINDRICAL_SURFACE('',#784,2.1);
#45=CYLINDRICAL_SURFACE('',#788,12.5);
#46=CYLINDRICAL_SURFACE('',#792,12.5);
#47=CYLINDRICAL_SURFACE('',#796,12.5);
#48=CYLINDRICAL_SURFACE('',#800,10.5);
#49=CYLINDRICAL_SURFACE('',#803,10.5);
#50=CYLINDRICAL_SURFACE('',#806,10.5);
#51=CYLINDRICAL_SURFACE('',#809,10.5);
#52=CYLINDRICAL_SURFACE('',#812,12.5);
#53=FACE_OUTER_BOUND('',#277,.T.);
#54=FACE_OUTER_BOUND('',#278,.T.);
#55=FACE_OUTER_BOUND('',#279,.T.);
#56=FACE_OUTER_BOUND('',#280,.T.);
#57=FACE_OUTER_BOUND('',#281,.T.);
#58=FACE_OUTER_BOUND('',#282,.T.);
#59=FACE_OUTER_BOUND('',#283,.T.);
#60=FACE_OUTER_BOUND('',#284,.T.);
#61=FACE_OUTER_BOUND('',#314,.T.);
#62=FACE_OUTER_BOUND('',#315,.T.);
#63=FACE_OUTER_BOUND('',#316,.T.);
#64=FACE_OUTER_BOUND('',#317,.T.);
#65=FACE_OUTER_BOUND('',#318,.T.);
#66=FACE_OUTER_BOUND('',#319,.T.);
#67=FACE_OUTER_BOUND('',#320,.T.);
#68=FACE_OUTER_BOUND('',#321,.T.);
#69=FACE_OUTER_BOUND('',#322,.T.);
#70=FACE_OUTER_BOUND('',#323,.T.);
#71=FACE_OUTER_BOUND('',#324,.T.);
#72=FACE_OUTER_BOUND('',#325,.T.);
#73=FACE_OUTER_BOUND('',#326,.T.);
#74=FACE_OUTER_BOUND('',#327,.T.);
#75=FACE_OUTER_BOUND('',#328,.T.);
#76=FACE_OUTER_BOUND('',#329,.T.);
#77=FACE_OUTER_BOUND('',#332,.T.);
#78=ADVANCED_FACE('',(#234,#235,#236,#237,#238,#239),#118,.T.);
#79=ADVANCED_FACE('',(#53),#119,.F.);
#80=ADVANCED_FACE('',(#54),#33,.T.);
#81=ADVANCED_FACE('',(#55),#120,.F.);
#82=ADVANCED_FACE('',(#56),#34,.T.);
#83=ADVANCED_FACE('',(#57),#121,.F.);
#84=ADVANCED_FACE('',(#58),#35,.T.);
#85=ADVANCED_FACE('',(#59),#122,.F.);
#86=ADVANCED_FACE('',(#60),#36,.T.);
#87=ADVANCED_FACE('',(#240,#241,#242,#243,#244),#123,.F.);
#88=ADVANCED_FACE('',(#245,#246),#37,.F.);
#89=ADVANCED_FACE('',(#247,#248),#124,.T.);
#90=ADVANCED_FACE('',(#249,#250),#38,.F.);
#91=ADVANCED_FACE('',(#251,#252),#125,.T.);
#92=ADVANCED_FACE('',(#253,#254),#39,.F.);
#93=ADVANCED_FACE('',(#255,#256),#126,.T.);
#94=ADVANCED_FACE('',(#257,#258),#40,.F.);
#95=ADVANCED_FACE('',(#259,#260),#127,.T.);
#96=ADVANCED_FACE('',(#261,#262),#41,.F.);
#97=ADVANCED_FACE('',(#263,#264),#42,.F.);
#98=ADVANCED_FACE('',(#265,#266),#43,.F.);
#99=ADVANCED_FACE('',(#267,#268),#44,.F.);
#100=ADVANCED_FACE('',(#61),#128,.F.);
#101=ADVANCED_FACE('',(#62),#45,.T.);
#102=ADVANCED_FACE('',(#63),#129,.F.);
#103=ADVANCED_FACE('',(#64),#46,.T.);
#104=ADVANCED_FACE('',(#65),#130,.F.);
#105=ADVANCED_FACE('',(#66),#47,.T.);
#106=ADVANCED_FACE('',(#67),#131,.F.);
#107=ADVANCED_FACE('',(#68),#132,.F.);
#108=ADVANCED_FACE('',(#69),#48,.F.);
#109=ADVANCED_FACE('',(#70),#133,.F.);
#110=ADVANCED_FACE('',(#71),#49,.F.);
#111=ADVANCED_FACE('',(#72),#134,.F.);
#112=ADVANCED_FACE('',(#73),#50,.F.);
#113=ADVANCED_FACE('',(#74),#135,.F.);
#114=ADVANCED_FACE('',(#75),#51,.F.);
#115=ADVANCED_FACE('',(#76),#52,.T.);
#116=ADVANCED_FACE('',(#269,#270),#136,.F.);
#117=ADVANCED_FACE('',(#77),#137,.F.);
#118=PLANE('',#747);
#119=PLANE('',#748);
#120=PLANE('',#751);
#121=PLANE('',#754);
#122=PLANE('',#757);
#123=PLANE('',#764);
#124=PLANE('',#768);
#125=PLANE('',#772);
#126=PLANE('',#776);
#127=PLANE('',#780);
#128=PLANE('',#785);
#129=PLANE('',#789);
#130=PLANE('',#793);
#131=PLANE('',#797);
#132=PLANE('',#798);
#133=PLANE('',#801);
#134=PLANE('',#804);
#135=PLANE('',#807);
#136=PLANE('',#813);
#137=PLANE('',#814);
#138=LINE('',#1041,#186);
#139=LINE('',#1046,#187);
#140=LINE('',#1050,#188);
#141=LINE('',#1054,#189);
#142=LINE('',#1057,#190);
#143=LINE('',#1062,#191);
#144=LINE('',#1066,#192);
#145=LINE('',#1070,#193);
#146=LINE('',#1074,#194);
#147=LINE('',#1077,#195);
#148=LINE('',#1078,#196);
#149=LINE('',#1082,#197);
#150=LINE('',#1084,#198);
#151=LINE('',#1086,#199);
#152=LINE('',#1090,#200);
#153=LINE('',#1092,#201);
#154=LINE('',#1094,#202);
#155=LINE('',#1098,#203);
#156=LINE('',#1100,#204);
#157=LINE('',#1102,#205);
#158=LINE('',#1143,#206);
#159=LINE('',#1146,#207);
#160=LINE('',#1148,#208);
#161=LINE('',#1150,#209);
#162=LINE('',#1154,#210);
#163=LINE('',#1158,#211);
#164=LINE('',#1160,#212);
#165=LINE('',#1162,#213);
#166=LINE('',#1166,#214);
#167=LINE('',#1170,#215);
#168=LINE('',#1172,#216);
#169=LINE('',#1174,#217);
#170=LINE('',#1178,#218);
#171=LINE('',#1182,#219);
#172=LINE('',#1184,#220);
#173=LINE('',#1186,#221);
#174=LINE('',#1188,#222);
#175=LINE('',#1190,#223);
#176=LINE('',#1192,#224);
#177=LINE('',#1194,#225);
#178=LINE('',#1198,#226);
#179=LINE('',#1200,#227);
#180=LINE('',#1202,#228);
#181=LINE('',#1206,#229);
#182=LINE('',#1208,#230);
#183=LINE('',#1210,#231);
#184=LINE('',#1214,#232);
#185=LINE('',#1216,#233);
#186=VECTOR('',#825,1.);
#187=VECTOR('',#828,1.);
#188=VECTOR('',#831,1.);
#189=VECTOR('',#834,1.);
#190=VECTOR('',#837,1.);
#191=VECTOR('',#840,1.);
#192=VECTOR('',#843,1.);
#193=VECTOR('',#846,1.);
#194=VECTOR('',#851,1.);
#195=VECTOR('',#852,1.);
#196=VECTOR('',#853,1.);
#197=VECTOR('',#858,1.);
#198=VECTOR('',#861,1.);
#199=VECTOR('',#862,1.);
#200=VECTOR('',#867,1.);
#201=VECTOR('',#870,1.);
#202=VECTOR('',#871,1.);
#203=VECTOR('',#876,1.);
#204=VECTOR('',#879,1.);
#205=VECTOR('',#880,1.);
#206=VECTOR('',#937,1.);
#207=VECTOR('',#938,1.);
#208=VECTOR('',#939,1.);
#209=VECTOR('',#940,1.);
#210=VECTOR('',#945,1.);
#211=VECTOR('',#950,1.);
#212=VECTOR('',#951,1.);
#213=VECTOR('',#952,1.);
#214=VECTOR('',#957,1.);
#215=VECTOR('',#962,1.);
#216=VECTOR('',#963,1.);
#217=VECTOR('',#964,1.);
#218=VECTOR('',#969,1.);
#219=VECTOR('',#974,1.);
#220=VECTOR('',#975,1.);
#221=VECTOR('',#976,1.);
#222=VECTOR('',#979,1.);
#223=VECTOR('',#980,1.);
#224=VECTOR('',#981,1.);
#225=VECTOR('',#984,1.);
#226=VECTOR('',#989,1.);
#227=VECTOR('',#990,1.);
#228=VECTOR('',#993,1.);
#229=VECTOR('',#998,1.);
#230=VECTOR('',#999,1.);
#231=VECTOR('',#1002,1.);
#232=VECTOR('',#1007,1.);
#233=VECTOR('',#1008,1.);
#234=FACE_BOUND('',#271,.T.);
#235=FACE_BOUND('',#272,.T.);
#236=FACE_BOUND('',#273,.T.);
#237=FACE_BOUND('',#274,.T.);
#238=FACE_BOUND('',#275,.T.);
#239=FACE_BOUND('',#276,.T.);
#240=FACE_BOUND('',#285,.T.);
#241=FACE_BOUND('',#286,.T.);
#242=FACE_BOUND('',#287,.T.);
#243=FACE_BOUND('',#288,.T.);
#244=FACE_BOUND('',#289,.T.);
#245=FACE_BOUND('',#290,.T.);
#246=FACE_BOUND('',#291,.T.);
#247=FACE_BOUND('',#292,.T.);
#248=FACE_BOUND('',#293,.T.);
#249=FACE_BOUND('',#294,.T.);
#250=FACE_BOUND('',#295,.T.);
#251=FACE_BOUND('',#296,.T.);
#252=FACE_BOUND('',#297,.T.);
#253=FACE_BOUND('',#298,.T.);
#254=FACE_BOUND('',#299,.T.);
#255=FACE_BOUND('',#300,.T.);
#256=FACE_BOUND('',#301,.T.);
#257=FACE_BOUND('',#302,.T.);
#258=FACE_BOUND('',#303,.T.);
#259=FACE_BOUND('',#304,.T.);
#260=FACE_BOUND('',#305,.T.);
#261=FACE_BOUND('',#306,.T.);
#262=FACE_BOUND('',#307,.T.);
#263=FACE_BOUND('',#308,.T.);
#264=FACE_BOUND('',#309,.T.);
#265=FACE_BOUND('',#310,.T.);
#266=FACE_BOUND('',#311,.T.);
#267=FACE_BOUND('',#312,.T.);
#268=FACE_BOUND('',#313,.T.);
#269=FACE_BOUND('',#330,.T.);
#270=FACE_BOUND('',#331,.T.);
#271=EDGE_LOOP('',(#333));
#272=EDGE_LOOP('',(#334));
#273=EDGE_LOOP('',(#335));
#274=EDGE_LOOP('',(#336));
#275=EDGE_LOOP('',(#337,#338,#339,#340,#341,#342,#343,#344));
#276=EDGE_LOOP('',(#345,#346,#347,#348,#349,#350,#351,#352));
#277=EDGE_LOOP('',(#353,#354,#355,#356));
#278=EDGE_LOOP('',(#357,#358,#359,#360));
#279=EDGE_LOOP('',(#361,#362,#363,#364));
#280=EDGE_LOOP('',(#365,#366,#367,#368));
#281=EDGE_LOOP('',(#369,#370,#371,#372));
#282=EDGE_LOOP('',(#373,#374,#375,#376));
#283=EDGE_LOOP('',(#377,#378,#379,#380));
#284=EDGE_LOOP('',(#381,#382,#383,#384));
#285=EDGE_LOOP('',(#385));
#286=EDGE_LOOP('',(#386));
#287=EDGE_LOOP('',(#387));
#288=EDGE_LOOP('',(#388));
#289=EDGE_LOOP('',(#389,#390,#391,#392,#393,#394,#395,#396));
#290=EDGE_LOOP('',(#397));
#291=EDGE_LOOP('',(#398));
#292=EDGE_LOOP('',(#399));
#293=EDGE_LOOP('',(#400));
#294=EDGE_LOOP('',(#401));
#295=EDGE_LOOP('',(#402));
#296=EDGE_LOOP('',(#403));
#297=EDGE_LOOP('',(#404));
#298=EDGE_LOOP('',(#405));
#299=EDGE_LOOP('',(#406));
#300=EDGE_LOOP('',(#407));
#301=EDGE_LOOP('',(#408));
#302=EDGE_LOOP('',(#409));
#303=EDGE_LOOP('',(#410));
#304=EDGE_LOOP('',(#411));
#305=EDGE_LOOP('',(#412));
#306=EDGE_LOOP('',(#413));
#307=EDGE_LOOP('',(#414));
#308=EDGE_LOOP('',(#415));
#309=EDGE_LOOP('',(#416));
#310=EDGE_LOOP('',(#417));
#311=EDGE_LOOP('',(#418));
#312=EDGE_LOOP('',(#419));
#313=EDGE_LOOP('',(#420));
#314=EDGE_LOOP('',(#421,#422,#423,#424));
#315=EDGE_LOOP('',(#425,#426,#427,#428));
#316=EDGE_LOOP('',(#429,#430,#431,#432));
#317=EDGE_LOOP('',(#433,#434,#435,#436));
#318=EDGE_LOOP('',(#437,#438,#439,#440));
#319=EDGE_LOOP('',(#441,#442,#443,#444));
#320=EDGE_LOOP('',(#445,#446,#447,#448));
#321=EDGE_LOOP('',(#449,#450,#451,#452));
#322=EDGE_LOOP('',(#453,#454,#455,#456));
#323=EDGE_LOOP('',(#457,#458,#459,#460));
#324=EDGE_LOOP('',(#461,#462,#463,#464));
#325=EDGE_LOOP('',(#465,#466,#467,#468));
#326=EDGE_LOOP('',(#469,#470,#471,#472));
#327=EDGE_LOOP('',(#473,#474,#475,#476));
#328=EDGE_LOOP('',(#477,#478,#479,#480));
#329=EDGE_LOOP('',(#481,#482,#483,#484));
#330=EDGE_LOOP('',(#485,#486,#487,#488,#489,#490,#491,#492));
#331=EDGE_LOOP('',(#493,#494,#495,#496,#497,#498,#499,#500));
#332=EDGE_LOOP('',(#501,#502,#503,#504,#505,#506,#507,#508));
#333=ORIENTED_EDGE('',*,*,#573,.T.);
#334=ORIENTED_EDGE('',*,*,#574,.T.);
#335=ORIENTED_EDGE('',*,*,#575,.T.);
#336=ORIENTED_EDGE('',*,*,#576,.T.);
#337=ORIENTED_EDGE('',*,*,#577,.T.);
#338=ORIENTED_EDGE('',*,*,#578,.T.);
#339=ORIENTED_EDGE('',*,*,#579,.T.);
#340=ORIENTED_EDGE('',*,*,#580,.T.);
#341=ORIENTED_EDGE('',*,*,#581,.T.);
#342=ORIENTED_EDGE('',*,*,#582,.T.);
#343=ORIENTED_EDGE('',*,*,#583,.T.);
#344=ORIENTED_EDGE('',*,*,#584,.T.);
#345=ORIENTED_EDGE('',*,*,#585,.T.);
#346=ORIENTED_EDGE('',*,*,#586,.T.);
#347=ORIENTED_EDGE('',*,*,#587,.T.);
#348=ORIENTED_EDGE('',*,*,#588,.T.);
#349=ORIENTED_EDGE('',*,*,#589,.T.);
#350=ORIENTED_EDGE('',*,*,#590,.T.);
#351=ORIENTED_EDGE('',*,*,#591,.T.);
#352=ORIENTED_EDGE('',*,*,#592,.T.);
#353=ORIENTED_EDGE('',*,*,#593,.T.);
#354=ORIENTED_EDGE('',*,*,#594,.F.);
#355=ORIENTED_EDGE('',*,*,#577,.F.);
#356=ORIENTED_EDGE('',*,*,#595,.T.);
#357=ORIENTED_EDGE('',*,*,#596,.T.);
#358=ORIENTED_EDGE('',*,*,#597,.F.);
#359=ORIENTED_EDGE('',*,*,#578,.F.);
#360=ORIENTED_EDGE('',*,*,#594,.T.);
#361=ORIENTED_EDGE('',*,*,#598,.T.);
#362=ORIENTED_EDGE('',*,*,#599,.F.);
#363=ORIENTED_EDGE('',*,*,#579,.F.);
#364=ORIENTED_EDGE('',*,*,#597,.T.);
#365=ORIENTED_EDGE('',*,*,#600,.T.);
#366=ORIENTED_EDGE('',*,*,#601,.F.);
#367=ORIENTED_EDGE('',*,*,#580,.F.);
#368=ORIENTED_EDGE('',*,*,#599,.T.);
#369=ORIENTED_EDGE('',*,*,#602,.T.);
#370=ORIENTED_EDGE('',*,*,#603,.F.);
#371=ORIENTED_EDGE('',*,*,#581,.F.);
#372=ORIENTED_EDGE('',*,*,#601,.T.);
#373=ORIENTED_EDGE('',*,*,#604,.T.);
#374=ORIENTED_EDGE('',*,*,#605,.F.);
#375=ORIENTED_EDGE('',*,*,#582,.F.);
#376=ORIENTED_EDGE('',*,*,#603,.T.);
#377=ORIENTED_EDGE('',*,*,#606,.T.);
#378=ORIENTED_EDGE('',*,*,#607,.F.);
#379=ORIENTED_EDGE('',*,*,#583,.F.);
#380=ORIENTED_EDGE('',*,*,#605,.T.);
#381=ORIENTED_EDGE('',*,*,#608,.T.);
#382=ORIENTED_EDGE('',*,*,#595,.F.);
#383=ORIENTED_EDGE('',*,*,#584,.F.);
#384=ORIENTED_EDGE('',*,*,#607,.T.);
#385=ORIENTED_EDGE('',*,*,#609,.F.);
#386=ORIENTED_EDGE('',*,*,#610,.F.);
#387=ORIENTED_EDGE('',*,*,#611,.F.);
#388=ORIENTED_EDGE('',*,*,#612,.F.);
#389=ORIENTED_EDGE('',*,*,#593,.F.);
#390=ORIENTED_EDGE('',*,*,#608,.F.);
#391=ORIENTED_EDGE('',*,*,#606,.F.);
#392=ORIENTED_EDGE('',*,*,#604,.F.);
#393=ORIENTED_EDGE('',*,*,#602,.F.);
#394=ORIENTED_EDGE('',*,*,#600,.F.);
#395=ORIENTED_EDGE('',*,*,#598,.F.);
#396=ORIENTED_EDGE('',*,*,#596,.F.);
#397=ORIENTED_EDGE('',*,*,#613,.T.);
#398=ORIENTED_EDGE('',*,*,#612,.T.);
#399=ORIENTED_EDGE('',*,*,#614,.F.);
#400=ORIENTED_EDGE('',*,*,#613,.F.);
#401=ORIENTED_EDGE('',*,*,#615,.T.);
#402=ORIENTED_EDGE('',*,*,#611,.T.);
#403=ORIENTED_EDGE('',*,*,#616,.F.);
#404=ORIENTED_EDGE('',*,*,#615,.F.);
#405=ORIENTED_EDGE('',*,*,#617,.T.);
#406=ORIENTED_EDGE('',*,*,#610,.T.);
#407=ORIENTED_EDGE('',*,*,#618,.F.);
#408=ORIENTED_EDGE('',*,*,#617,.F.);
#409=ORIENTED_EDGE('',*,*,#619,.T.);
#410=ORIENTED_EDGE('',*,*,#609,.T.);
#411=ORIENTED_EDGE('',*,*,#620,.F.);
#412=ORIENTED_EDGE('',*,*,#619,.F.);
#413=ORIENTED_EDGE('',*,*,#620,.T.);
#414=ORIENTED_EDGE('',*,*,#573,.F.);
#415=ORIENTED_EDGE('',*,*,#618,.T.);
#416=ORIENTED_EDGE('',*,*,#574,.F.);
#417=ORIENTED_EDGE('',*,*,#616,.T.);
#418=ORIENTED_EDGE('',*,*,#575,.F.);
#419=ORIENTED_EDGE('',*,*,#614,.T.);
#420=ORIENTED_EDGE('',*,*,#576,.F.);
#421=ORIENTED_EDGE('',*,*,#621,.T.);
#422=ORIENTED_EDGE('',*,*,#622,.F.);
#423=ORIENTED_EDGE('',*,*,#623,.F.);
#424=ORIENTED_EDGE('',*,*,#624,.T.);
#425=ORIENTED_EDGE('',*,*,#625,.T.);
#426=ORIENTED_EDGE('',*,*,#626,.F.);
#427=ORIENTED_EDGE('',*,*,#627,.F.);
#428=ORIENTED_EDGE('',*,*,#622,.T.);
#429=ORIENTED_EDGE('',*,*,#628,.T.);
#430=ORIENTED_EDGE('',*,*,#629,.F.);
#431=ORIENTED_EDGE('',*,*,#630,.F.);
#432=ORIENTED_EDGE('',*,*,#626,.T.);
#433=ORIENTED_EDGE('',*,*,#631,.T.);
#434=ORIENTED_EDGE('',*,*,#632,.F.);
#435=ORIENTED_EDGE('',*,*,#633,.F.);
#436=ORIENTED_EDGE('',*,*,#629,.T.);
#437=ORIENTED_EDGE('',*,*,#634,.T.);
#438=ORIENTED_EDGE('',*,*,#635,.F.);
#439=ORIENTED_EDGE('',*,*,#636,.F.);
#440=ORIENTED_EDGE('',*,*,#632,.T.);
#441=ORIENTED_EDGE('',*,*,#637,.T.);
#442=ORIENTED_EDGE('',*,*,#638,.F.);
#443=ORIENTED_EDGE('',*,*,#639,.F.);
#444=ORIENTED_EDGE('',*,*,#635,.T.);
#445=ORIENTED_EDGE('',*,*,#640,.T.);
#446=ORIENTED_EDGE('',*,*,#641,.F.);
#447=ORIENTED_EDGE('',*,*,#642,.F.);
#448=ORIENTED_EDGE('',*,*,#638,.T.);
#449=ORIENTED_EDGE('',*,*,#585,.F.);
#450=ORIENTED_EDGE('',*,*,#643,.F.);
#451=ORIENTED_EDGE('',*,*,#644,.F.);
#452=ORIENTED_EDGE('',*,*,#645,.T.);
#453=ORIENTED_EDGE('',*,*,#592,.F.);
#454=ORIENTED_EDGE('',*,*,#646,.F.);
#455=ORIENTED_EDGE('',*,*,#647,.F.);
#456=ORIENTED_EDGE('',*,*,#643,.T.);
#457=ORIENTED_EDGE('',*,*,#591,.F.);
#458=ORIENTED_EDGE('',*,*,#648,.F.);
#459=ORIENTED_EDGE('',*,*,#649,.F.);
#460=ORIENTED_EDGE('',*,*,#646,.T.);
#461=ORIENTED_EDGE('',*,*,#590,.F.);
#462=ORIENTED_EDGE('',*,*,#650,.F.);
#463=ORIENTED_EDGE('',*,*,#651,.F.);
#464=ORIENTED_EDGE('',*,*,#648,.T.);
#465=ORIENTED_EDGE('',*,*,#589,.F.);
#466=ORIENTED_EDGE('',*,*,#652,.F.);
#467=ORIENTED_EDGE('',*,*,#653,.F.);
#468=ORIENTED_EDGE('',*,*,#650,.T.);
#469=ORIENTED_EDGE('',*,*,#588,.F.);
#470=ORIENTED_EDGE('',*,*,#654,.F.);
#471=ORIENTED_EDGE('',*,*,#655,.F.);
#472=ORIENTED_EDGE('',*,*,#652,.T.);
#473=ORIENTED_EDGE('',*,*,#587,.F.);
#474=ORIENTED_EDGE('',*,*,#656,.F.);
#475=ORIENTED_EDGE('',*,*,#657,.F.);
#476=ORIENTED_EDGE('',*,*,#654,.T.);
#477=ORIENTED_EDGE('',*,*,#586,.F.);
#478=ORIENTED_EDGE('',*,*,#645,.F.);
#479=ORIENTED_EDGE('',*,*,#658,.F.);
#480=ORIENTED_EDGE('',*,*,#656,.T.);
#481=ORIENTED_EDGE('',*,*,#659,.T.);
#482=ORIENTED_EDGE('',*,*,#624,.F.);
#483=ORIENTED_EDGE('',*,*,#660,.F.);
#484=ORIENTED_EDGE('',*,*,#641,.T.);
#485=ORIENTED_EDGE('',*,*,#644,.T.);
#486=ORIENTED_EDGE('',*,*,#647,.T.);
#487=ORIENTED_EDGE('',*,*,#649,.T.);
#488=ORIENTED_EDGE('',*,*,#651,.T.);
#489=ORIENTED_EDGE('',*,*,#653,.T.);
#490=ORIENTED_EDGE('',*,*,#655,.T.);
#491=ORIENTED_EDGE('',*,*,#657,.T.);
#492=ORIENTED_EDGE('',*,*,#658,.T.);
#493=ORIENTED_EDGE('',*,*,#623,.T.);
#494=ORIENTED_EDGE('',*,*,#627,.T.);
#495=ORIENTED_EDGE('',*,*,#630,.T.);
#496=ORIENTED_EDGE('',*,*,#633,.T.);
#497=ORIENTED_EDGE('',*,*,#636,.T.);
#498=ORIENTED_EDGE('',*,*,#639,.T.);
#499=ORIENTED_EDGE('',*,*,#642,.T.);
#500=ORIENTED_EDGE('',*,*,#660,.T.);
#501=ORIENTED_EDGE('',*,*,#621,.F.);
#502=ORIENTED_EDGE('',*,*,#659,.F.);
#503=ORIENTED_EDGE('',*,*,#640,.F.);
#504=ORIENTED_EDGE('',*,*,#637,.F.);
#505=ORIENTED_EDGE('',*,*,#634,.F.);
#506=ORIENTED_EDGE('',*,*,#631,.F.);
#507=ORIENTED_EDGE('',*,*,#628,.F.);
#508=ORIENTED_EDGE('',*,*,#625,.F.);
#509=VERTEX_POINT('',#1034);
#510=VERTEX_POINT('',#1036);
#511=VERTEX_POINT('',#1038);
#512=VERTEX_POINT('',#1040);
#513=VERTEX_POINT('',#1042);
#514=VERTEX_POINT('',#1043);
#515=VERTEX_POINT('',#1045);
#516=VERTEX_POINT('',#1047);
#517=VERTEX_POINT('',#1049);
#518=VERTEX_POINT('',#1051);
#519=VERTEX_POINT('',#1053);
#520=VERTEX_POINT('',#1055);
#521=VERTEX_POINT('',#1058);
#522=VERTEX_POINT('',#1059);
#523=VERTEX_POINT('',#1061);
#524=VERTEX_POINT('',#1063);
#525=VERTEX_POINT('',#1065);
#526=VERTEX_POINT('',#1067);
#527=VERTEX_POINT('',#1069);
#528=VERTEX_POINT('',#1071);
#529=VERTEX_POINT('',#1075);
#530=VERTEX_POINT('',#1076);
#531=VERTEX_POINT('',#1081);
#532=VERTEX_POINT('',#1085);
#533=VERTEX_POINT('',#1089);
#534=VERTEX_POINT('',#1093);
#535=VERTEX_POINT('',#1097);
#536=VERTEX_POINT('',#1101);
#537=VERTEX_POINT('',#1107);
#538=VERTEX_POINT('',#1109);
#539=VERTEX_POINT('',#1111);
#540=VERTEX_POINT('',#1113);
#541=VERTEX_POINT('',#1116);
#542=VERTEX_POINT('',#1119);
#543=VERTEX_POINT('',#1122);
#544=VERTEX_POINT('',#1125);
#545=VERTEX_POINT('',#1128);
#546=VERTEX_POINT('',#1131);
#547=VERTEX_POINT('',#1134);
#548=VERTEX_POINT('',#1137);
#549=VERTEX_POINT('',#1144);
#550=VERTEX_POINT('',#1145);
#551=VERTEX_POINT('',#1147);
#552=VERTEX_POINT('',#1149);
#553=VERTEX_POINT('',#1153);
#554=VERTEX_POINT('',#1155);
#555=VERTEX_POINT('',#1159);
#556=VERTEX_POINT('',#1161);
#557=VERTEX_POINT('',#1165);
#558=VERTEX_POINT('',#1167);
#559=VERTEX_POINT('',#1171);
#560=VERTEX_POINT('',#1173);
#561=VERTEX_POINT('',#1177);
#562=VERTEX_POINT('',#1179);
#563=VERTEX_POINT('',#1183);
#564=VERTEX_POINT('',#1185);
#565=VERTEX_POINT('',#1189);
#566=VERTEX_POINT('',#1191);
#567=VERTEX_POINT('',#1195);
#568=VERTEX_POINT('',#1199);
#569=VERTEX_POINT('',#1203);
#570=VERTEX_POINT('',#1207);
#571=VERTEX_POINT('',#1211);
#572=VERTEX_POINT('',#1215);
#573=EDGE_CURVE('',#509,#509,#661,.T.);
#574=EDGE_CURVE('',#510,#510,#662,.T.);
#575=EDGE_CURVE('',#511,#511,#663,.T.);
#576=EDGE_CURVE('',#512,#512,#664,.T.);
#577=EDGE_CURVE('',#513,#514,#138,.T.);
#578=EDGE_CURVE('',#514,#515,#665,.T.);
#579=EDGE_CURVE('',#515,#516,#139,.T.);
#580=EDGE_CURVE('',#516,#517,#666,.T.);
#581=EDGE_CURVE('',#517,#518,#140,.T.);
#582=EDGE_CURVE('',#518,#519,#667,.T.);
#583=EDGE_CURVE('',#519,#520,#141,.T.);
#584=EDGE_CURVE('',#520,#513,#668,.T.);
#585=EDGE_CURVE('',#521,#522,#142,.T.);
#586=EDGE_CURVE('',#522,#523,#669,.T.);
#587=EDGE_CURVE('',#523,#524,#143,.T.);
#588=EDGE_CURVE('',#524,#525,#670,.T.);
#589=EDGE_CURVE('',#525,#526,#144,.T.);
#590=EDGE_CURVE('',#526,#527,#671,.T.);
#591=EDGE_CURVE('',#527,#528,#145,.T.);
#592=EDGE_CURVE('',#528,#521,#672,.T.);
#593=EDGE_CURVE('',#529,#530,#146,.T.);
#594=EDGE_CURVE('',#514,#530,#147,.T.);
#595=EDGE_CURVE('',#513,#529,#148,.T.);
#596=EDGE_CURVE('',#530,#531,#673,.T.);
#597=EDGE_CURVE('',#515,#531,#149,.T.);
#598=EDGE_CURVE('',#531,#532,#150,.T.);
#599=EDGE_CURVE('',#516,#532,#151,.T.);
#600=EDGE_CURVE('',#532,#533,#674,.T.);
#601=EDGE_CURVE('',#517,#533,#152,.T.);
#602=EDGE_CURVE('',#533,#534,#153,.T.);
#603=EDGE_CURVE('',#518,#534,#154,.T.);
#604=EDGE_CURVE('',#534,#535,#675,.T.);
#605=EDGE_CURVE('',#519,#535,#155,.T.);
#606=EDGE_CURVE('',#535,#536,#156,.T.);
#607=EDGE_CURVE('',#520,#536,#157,.T.);
#608=EDGE_CURVE('',#536,#529,#676,.T.);
#609=EDGE_CURVE('',#537,#537,#677,.T.);
#610=EDGE_CURVE('',#538,#538,#678,.T.);
#611=EDGE_CURVE('',#539,#539,#679,.T.);
#612=EDGE_CURVE('',#540,#540,#680,.T.);
#613=EDGE_CURVE('',#541,#541,#681,.T.);
#614=EDGE_CURVE('',#542,#542,#682,.T.);
#615=EDGE_CURVE('',#543,#543,#683,.T.);
#616=EDGE_CURVE('',#544,#544,#684,.T.);
#617=EDGE_CURVE('',#545,#545,#685,.T.);
#618=EDGE_CURVE('',#546,#546,#686,.T.);
#619=EDGE_CURVE('',#547,#547,#687,.T.);
#620=EDGE_CURVE('',#548,#548,#688,.T.);
#621=EDGE_CURVE('',#549,#550,#158,.T.);
#622=EDGE_CURVE('',#551,#550,#159,.T.);
#623=EDGE_CURVE('',#552,#551,#160,.T.);
#624=EDGE_CURVE('',#552,#549,#161,.T.);
#625=EDGE_CURVE('',#550,#553,#689,.T.);
#626=EDGE_CURVE('',#554,#553,#162,.T.);
#627=EDGE_CURVE('',#551,#554,#690,.T.);
#628=EDGE_CURVE('',#553,#555,#163,.T.);
#629=EDGE_CURVE('',#556,#555,#164,.T.);
#630=EDGE_CURVE('',#554,#556,#165,.T.);
#631=EDGE_CURVE('',#555,#557,#691,.T.);
#632=EDGE_CURVE('',#558,#557,#166,.T.);
#633=EDGE_CURVE('',#556,#558,#692,.T.);
#634=EDGE_CURVE('',#557,#559,#167,.T.);
#635=EDGE_CURVE('',#560,#559,#168,.T.);
#636=EDGE_CURVE('',#558,#560,#169,.T.);
#637=EDGE_CURVE('',#559,#561,#693,.T.);
#638=EDGE_CURVE('',#562,#561,#170,.T.);
#639=EDGE_CURVE('',#560,#562,#694,.T.);
#640=EDGE_CURVE('',#561,#563,#171,.T.);
#641=EDGE_CURVE('',#564,#563,#172,.T.);
#642=EDGE_CURVE('',#562,#564,#173,.T.);
#643=EDGE_CURVE('',#565,#521,#174,.T.);
#644=EDGE_CURVE('',#566,#565,#175,.T.);
#645=EDGE_CURVE('',#566,#522,#176,.T.);
#646=EDGE_CURVE('',#567,#528,#177,.T.);
#647=EDGE_CURVE('',#565,#567,#695,.T.);
#648=EDGE_CURVE('',#568,#527,#178,.T.);
#649=EDGE_CURVE('',#567,#568,#179,.T.);
#650=EDGE_CURVE('',#569,#526,#180,.T.);
#651=EDGE_CURVE('',#568,#569,#696,.T.);
#652=EDGE_CURVE('',#570,#525,#181,.T.);
#653=EDGE_CURVE('',#569,#570,#182,.T.);
#654=EDGE_CURVE('',#571,#524,#183,.T.);
#655=EDGE_CURVE('',#570,#571,#697,.T.);
#656=EDGE_CURVE('',#572,#523,#184,.T.);
#657=EDGE_CURVE('',#571,#572,#185,.T.);
#658=EDGE_CURVE('',#572,#566,#698,.T.);
#659=EDGE_CURVE('',#563,#549,#699,.T.);
#660=EDGE_CURVE('',#564,#552,#700,.T.);
#661=CIRCLE('',#735,2.1);
#662=CIRCLE('',#736,2.1);
#663=CIRCLE('',#737,2.1);
#664=CIRCLE('',#738,2.1);
#665=CIRCLE('',#739,5.);
#666=CIRCLE('',#740,5.);
#667=CIRCLE('',#741,5.);
#668=CIRCLE('',#742,5.);
#669=CIRCLE('',#743,10.5);
#670=CIRCLE('',#744,10.5);
#671=CIRCLE('',#745,10.5);
#672=CIRCLE('',#746,10.5);
#673=CIRCLE('',#749,5.);
#674=CIRCLE('',#752,5.);
#675=CIRCLE('',#755,5.);
#676=CIRCLE('',#758,5.);
#677=CIRCLE('',#760,3.15);
#678=CIRCLE('',#761,3.15);
#679=CIRCLE('',#762,3.15);
#680=CIRCLE('',#763,3.15);
#681=CIRCLE('',#765,3.15);
#682=CIRCLE('',#767,2.1);
#683=CIRCLE('',#769,3.15);
#684=CIRCLE('',#771,2.1);
#685=CIRCLE('',#773,3.15);
#686=CIRCLE('',#775,2.1);
#687=CIRCLE('',#777,3.15);
#688=CIRCLE('',#779,2.1);
#689=CIRCLE('',#786,12.5);
#690=CIRCLE('',#787,12.5);
#691=CIRCLE('',#790,12.5);
#692=CIRCLE('',#791,12.5);
#693=CIRCLE('',#794,12.5);
#694=CIRCLE('',#795,12.5);
#695=CIRCLE('',#799,10.5);
#696=CIRCLE('',#802,10.5);
#697=CIRCLE('',#805,10.5);
#698=CIRCLE('',#808,10.5);
#699=CIRCLE('',#810,12.5);
#700=CIRCLE('',#811,12.5);
#701=PRESENTATION_LAYER_ASSIGNMENT('1','Layer 1',(#1026,#1027,#1028,#1029,
#1030,#1031,#1032,#31));
#702=STYLED_ITEM('',(#710),#1026);
#703=STYLED_ITEM('',(#711),#1027);
#704=STYLED_ITEM('',(#712),#1028);
#705=STYLED_ITEM('',(#713),#1029);
#706=STYLED_ITEM('',(#714),#1030);
#707=STYLED_ITEM('',(#715),#1031);
#708=STYLED_ITEM('',(#716),#1032);
#709=STYLED_ITEM('',(#717),#31);
#710=PRESENTATION_STYLE_ASSIGNMENT((#718));
#711=PRESENTATION_STYLE_ASSIGNMENT((#719));
#712=PRESENTATION_STYLE_ASSIGNMENT((#720));
#713=PRESENTATION_STYLE_ASSIGNMENT((#721));
#714=PRESENTATION_STYLE_ASSIGNMENT((#722));
#715=PRESENTATION_STYLE_ASSIGNMENT((#723));
#716=PRESENTATION_STYLE_ASSIGNMENT((#724));
#717=PRESENTATION_STYLE_ASSIGNMENT((#26));
#718=POINT_STYLE('',#725,POSITIVE_LENGTH_MEASURE(3.),#732);
#719=POINT_STYLE('',#726,POSITIVE_LENGTH_MEASURE(3.),#732);
#720=POINT_STYLE('',#727,POSITIVE_LENGTH_MEASURE(3.),#732);
#721=POINT_STYLE('',#728,POSITIVE_LENGTH_MEASURE(3.),#732);
#722=POINT_STYLE('',#729,POSITIVE_LENGTH_MEASURE(3.),#732);
#723=POINT_STYLE('',#730,POSITIVE_LENGTH_MEASURE(3.),#732);
#724=POINT_STYLE('',#731,POSITIVE_LENGTH_MEASURE(3.),#732);
#725=PRE_DEFINED_POINT_MARKER_SYMBOL('plus');
#726=PRE_DEFINED_POINT_MARKER_SYMBOL('plus');
#727=PRE_DEFINED_POINT_MARKER_SYMBOL('plus');
#728=PRE_DEFINED_POINT_MARKER_SYMBOL('plus');
#729=PRE_DEFINED_POINT_MARKER_SYMBOL('plus');
#730=PRE_DEFINED_POINT_MARKER_SYMBOL('plus');
#731=PRE_DEFINED_POINT_MARKER_SYMBOL('plus');
#732=COLOUR_RGB('Medium Royal',0.301960784313725,0.427450980392157,0.701960784313725);
#733=COLOUR_RGB('silver gray',0.6,0.6,0.6);
#734=AXIS2_PLACEMENT_3D('',#1025,#815,#816);
#735=AXIS2_PLACEMENT_3D('',#1033,#817,#818);
#736=AXIS2_PLACEMENT_3D('',#1035,#819,#820);
#737=AXIS2_PLACEMENT_3D('',#1037,#821,#822);
#738=AXIS2_PLACEMENT_3D('',#1039,#823,#824);
#739=AXIS2_PLACEMENT_3D('',#1044,#826,#827);
#740=AXIS2_PLACEMENT_3D('',#1048,#829,#830);
#741=AXIS2_PLACEMENT_3D('',#1052,#832,#833);
#742=AXIS2_PLACEMENT_3D('',#1056,#835,#836);
#743=AXIS2_PLACEMENT_3D('',#1060,#838,#839);
#744=AXIS2_PLACEMENT_3D('',#1064,#841,#842);
#745=AXIS2_PLACEMENT_3D('',#1068,#844,#845);
#746=AXIS2_PLACEMENT_3D('',#1072,#847,#848);
#747=AXIS2_PLACEMENT_3D('',#1073,#849,#850);
#748=AXIS2_PLACEMENT_3D('',#1079,#854,#855);
#749=AXIS2_PLACEMENT_3D('',#1080,#856,#857);
#750=AXIS2_PLACEMENT_3D('',#1083,#859,#860);
#751=AXIS2_PLACEMENT_3D('',#1087,#863,#864);
#752=AXIS2_PLACEMENT_3D('',#1088,#865,#866);
#753=AXIS2_PLACEMENT_3D('',#1091,#868,#869);
#754=AXIS2_PLACEMENT_3D('',#1095,#872,#873);
#755=AXIS2_PLACEMENT_3D('',#1096,#874,#875);
#756=AXIS2_PLACEMENT_3D('',#1099,#877,#878);
#757=AXIS2_PLACEMENT_3D('',#1103,#881,#882);
#758=AXIS2_PLACEMENT_3D('',#1104,#883,#884);
#759=AXIS2_PLACEMENT_3D('',#1105,#885,#886);
#760=AXIS2_PLACEMENT_3D('',#1106,#887,#888);
#761=AXIS2_PLACEMENT_3D('',#1108,#889,#890);
#762=AXIS2_PLACEMENT_3D('',#1110,#891,#892);
#763=AXIS2_PLACEMENT_3D('',#1112,#893,#894);
#764=AXIS2_PLACEMENT_3D('',#1114,#895,#896);
#765=AXIS2_PLACEMENT_3D('',#1115,#897,#898);
#766=AXIS2_PLACEMENT_3D('',#1117,#899,#900);
#767=AXIS2_PLACEMENT_3D('',#1118,#901,#902);
#768=AXIS2_PLACEMENT_3D('',#1120,#903,#904);
#769=AXIS2_PLACEMENT_3D('',#1121,#905,#906);
#770=AXIS2_PLACEMENT_3D('',#1123,#907,#908);
#771=AXIS2_PLACEMENT_3D('',#1124,#909,#910);
#772=AXIS2_PLACEMENT_3D('',#1126,#911,#912);
#773=AXIS2_PLACEMENT_3D('',#1127,#913,#914);
#774=AXIS2_PLACEMENT_3D('',#1129,#915,#916);
#775=AXIS2_PLACEMENT_3D('',#1130,#917,#918);
#776=AXIS2_PLACEMENT_3D('',#1132,#919,#920);
#777=AXIS2_PLACEMENT_3D('',#1133,#921,#922);
#778=AXIS2_PLACEMENT_3D('',#1135,#923,#924);
#779=AXIS2_PLACEMENT_3D('',#1136,#925,#926);
#780=AXIS2_PLACEMENT_3D('',#1138,#927,#928);
#781=AXIS2_PLACEMENT_3D('',#1139,#929,#930);
#782=AXIS2_PLACEMENT_3D('',#1140,#931,#932);
#783=AXIS2_PLACEMENT_3D('',#1141,#933,#934);
#784=AXIS2_PLACEMENT_3D('',#1142,#935,#936);
#785=AXIS2_PLACEMENT_3D('',#1151,#941,#942);
#786=AXIS2_PLACEMENT_3D('',#1152,#943,#944);
#787=AXIS2_PLACEMENT_3D('',#1156,#946,#947);
#788=AXIS2_PLACEMENT_3D('',#1157,#948,#949);
#789=AXIS2_PLACEMENT_3D('',#1163,#953,#954);
#790=AXIS2_PLACEMENT_3D('',#1164,#955,#956);
#791=AXIS2_PLACEMENT_3D('',#1168,#958,#959);
#792=AXIS2_PLACEMENT_3D('',#1169,#960,#961);
#793=AXIS2_PLACEMENT_3D('',#1175,#965,#966);
#794=AXIS2_PLACEMENT_3D('',#1176,#967,#968);
#795=AXIS2_PLACEMENT_3D('',#1180,#970,#971);
#796=AXIS2_PLACEMENT_3D('',#1181,#972,#973);
#797=AXIS2_PLACEMENT_3D('',#1187,#977,#978);
#798=AXIS2_PLACEMENT_3D('',#1193,#982,#983);
#799=AXIS2_PLACEMENT_3D('',#1196,#985,#986);
#800=AXIS2_PLACEMENT_3D('',#1197,#987,#988);
#801=AXIS2_PLACEMENT_3D('',#1201,#991,#992);
#802=AXIS2_PLACEMENT_3D('',#1204,#994,#995);
#803=AXIS2_PLACEMENT_3D('',#1205,#996,#997);
#804=AXIS2_PLACEMENT_3D('',#1209,#1000,#1001);
#805=AXIS2_PLACEMENT_3D('',#1212,#1003,#1004);
#806=AXIS2_PLACEMENT_3D('',#1213,#1005,#1006);
#807=AXIS2_PLACEMENT_3D('',#1217,#1009,#1010);
#808=AXIS2_PLACEMENT_3D('',#1218,#1011,#1012);
#809=AXIS2_PLACEMENT_3D('',#1219,#1013,#1014);
#810=AXIS2_PLACEMENT_3D('',#1220,#1015,#1016);
#811=AXIS2_PLACEMENT_3D('',#1221,#1017,#1018);
#812=AXIS2_PLACEMENT_3D('',#1222,#1019,#1020);
#813=AXIS2_PLACEMENT_3D('',#1223,#1021,#1022);
#814=AXIS2_PLACEMENT_3D('',#1224,#1023,#1024);
#815=DIRECTION('',(0.,0.,1.));
#816=DIRECTION('',(1.,0.,0.));
#817=DIRECTION('',(0.,0.,-1.));
#818=DIRECTION('',(0.999999999999995,0.,0.));
#819=DIRECTION('',(0.,0.,-1.));
#820=DIRECTION('',(1.,0.,0.));
#821=DIRECTION('',(0.,0.,-1.));
#822=DIRECTION('',(1.,0.,0.));
#823=DIRECTION('',(0.,0.,-1.));
#824=DIRECTION('',(0.999999999999995,0.,0.));
#825=DIRECTION('',(0.,-1.,0.));
#826=DIRECTION('',(0.,0.,1.));
#827=DIRECTION('',(1.,0.,0.));
#828=DIRECTION('',(1.,0.,0.));
#829=DIRECTION('',(0.,0.,1.));
#830=DIRECTION('',(1.,0.,0.));
#831=DIRECTION('',(0.,1.,0.));
#832=DIRECTION('',(0.,0.,1.));
#833=DIRECTION('',(1.,0.,0.));
#834=DIRECTION('',(-1.,0.,0.));
#835=DIRECTION('',(0.,0.,1.));
#836=DIRECTION('',(1.,0.,0.));
#837=DIRECTION('',(0.,1.,0.));
#838=DIRECTION('',(0.,0.,1.));
#839=DIRECTION('',(1.,0.,0.));
#840=DIRECTION('',(1.,0.,0.));
#841=DIRECTION('',(0.,0.,1.));
#842=DIRECTION('',(1.,0.,0.));
#843=DIRECTION('',(0.,-1.,0.));
#844=DIRECTION('',(0.,0.,1.));
#845=DIRECTION('',(1.,0.,0.));
#846=DIRECTION('',(-1.,0.,0.));
#847=DIRECTION('',(0.,0.,1.));
#848=DIRECTION('',(1.,0.,0.));
#849=DIRECTION('',(0.,0.,1.));
#850=DIRECTION('',(1.,0.,0.));
#851=DIRECTION('',(0.,-1.,0.));
#852=DIRECTION('',(0.,0.,-1.));
#853=DIRECTION('',(0.,0.,-1.));
#854=DIRECTION('',(1.,0.,0.));
#855=DIRECTION('',(0.,0.,-1.));
#856=DIRECTION('',(0.,0.,1.));
#857=DIRECTION('',(1.,0.,0.));
#858=DIRECTION('',(0.,0.,-1.));
#859=DIRECTION('',(0.,0.,-1.));
#860=DIRECTION('',(-1.,0.,0.));
#861=DIRECTION('',(1.,0.,0.));
#862=DIRECTION('',(0.,0.,-1.));
#863=DIRECTION('',(0.,1.,0.));
#864=DIRECTION('',(0.,0.,1.));
#865=DIRECTION('',(0.,0.,1.));
#866=DIRECTION('',(1.,0.,0.));
#867=DIRECTION('',(0.,0.,-1.));
#868=DIRECTION('',(0.,0.,-1.));
#869=DIRECTION('',(-1.,0.,0.));
#870=DIRECTION('',(0.,1.,0.));
#871=DIRECTION('',(0.,0.,-1.));
#872=DIRECTION('',(-1.,0.,0.));
#873=DIRECTION('',(0.,0.,1.));
#874=DIRECTION('',(0.,0.,1.));
#875=DIRECTION('',(1.,0.,0.));
#876=DIRECTION('',(0.,0.,-1.));
#877=DIRECTION('',(0.,0.,-1.));
#878=DIRECTION('',(-1.,0.,0.));
#879=DIRECTION('',(-1.,0.,0.));
#880=DIRECTION('',(0.,0.,-1.));
#881=DIRECTION('',(0.,-1.,0.));
#882=DIRECTION('',(0.,0.,-1.));
#883=DIRECTION('',(0.,0.,1.));
#884=DIRECTION('',(1.,0.,0.));
#885=DIRECTION('',(0.,0.,-1.));
#886=DIRECTION('',(-1.,0.,0.));
#887=DIRECTION('',(0.,0.,-1.));
#888=DIRECTION('',(0.999999999999996,0.,0.));
#889=DIRECTION('',(0.,0.,-1.));
#890=DIRECTION('',(1.,0.,0.));
#891=DIRECTION('',(0.,0.,-1.));
#892=DIRECTION('',(1.,0.,0.));
#893=DIRECTION('',(0.,0.,-1.));
#894=DIRECTION('',(1.,0.,0.));
#895=DIRECTION('',(0.,0.,1.));
#896=DIRECTION('',(1.,0.,0.));
#897=DIRECTION('',(0.,0.,1.));
#898=DIRECTION('',(1.,0.,0.));
#899=DIRECTION('',(0.,0.,-1.));
#900=DIRECTION('',(-1.,0.,0.));
#901=DIRECTION('',(0.,0.,-1.));
#902=DIRECTION('',(-0.999999999999995,0.,0.));
#903=DIRECTION('',(0.,0.,-1.));
#904=DIRECTION('',(-1.,0.,0.));
#905=DIRECTION('',(0.,0.,1.));
#906=DIRECTION('',(1.,0.,0.));
#907=DIRECTION('',(0.,0.,-1.));
#908=DIRECTION('',(-1.,0.,0.));
#909=DIRECTION('',(0.,0.,-1.));
#910=DIRECTION('',(-1.,0.,0.));
#911=DIRECTION('',(0.,0.,-1.));
#912=DIRECTION('',(-1.,0.,0.));
#913=DIRECTION('',(0.,0.,1.));
#914=DIRECTION('',(1.,0.,0.));
#915=DIRECTION('',(0.,0.,-1.));
#916=DIRECTION('',(-1.,0.,0.));
#917=DIRECTION('',(0.,0.,-1.));
#918=DIRECTION('',(-1.,0.,0.));
#919=DIRECTION('',(0.,0.,-1.));
#920=DIRECTION('',(-1.,0.,0.));
#921=DIRECTION('',(0.,0.,1.));
#922=DIRECTION('',(0.999999999999996,0.,0.));
#923=DIRECTION('',(0.,0.,-1.));
#924=DIRECTION('',(-0.999999999999996,0.,0.));
#925=DIRECTION('',(0.,0.,-1.));
#926=DIRECTION('',(-0.999999999999995,0.,0.));
#927=DIRECTION('',(0.,0.,-1.));
#928=DIRECTION('',(-1.,0.,0.));
#929=DIRECTION('',(0.,0.,-1.));
#930=DIRECTION('',(-0.999999999999995,0.,0.));
#931=DIRECTION('',(0.,0.,-1.));
#932=DIRECTION('',(-1.,0.,0.));
#933=DIRECTION('',(0.,0.,-1.));
#934=DIRECTION('',(-1.,0.,0.));
#935=DIRECTION('',(0.,0.,-1.));
#936=DIRECTION('',(-0.999999999999995,0.,0.));
#937=DIRECTION('',(0.,1.,0.));
#938=DIRECTION('',(0.,0.,-1.));
#939=DIRECTION('',(0.,1.,0.));
#940=DIRECTION('',(0.,0.,-1.));
#941=DIRECTION('',(-1.,0.,0.));
#942=DIRECTION('',(0.,0.,1.));
#943=DIRECTION('',(0.,0.,1.));
#944=DIRECTION('',(-1.,0.,0.));
#945=DIRECTION('',(0.,0.,-1.));
#946=DIRECTION('',(0.,0.,1.));
#947=DIRECTION('',(-1.,0.,0.));
#948=DIRECTION('',(0.,0.,-1.));
#949=DIRECTION('',(-1.,0.,0.));
#950=DIRECTION('',(1.,0.,0.));
#951=DIRECTION('',(0.,0.,-1.));
#952=DIRECTION('',(1.,0.,0.));
#953=DIRECTION('',(0.,1.,0.));
#954=DIRECTION('',(0.,0.,1.));
#955=DIRECTION('',(0.,0.,1.));
#956=DIRECTION('',(-1.,0.,0.));
#957=DIRECTION('',(0.,0.,-1.));
#958=DIRECTION('',(0.,0.,1.));
#959=DIRECTION('',(-1.,0.,0.));
#960=DIRECTION('',(0.,0.,-1.));
#961=DIRECTION('',(-1.,0.,0.));
#962=DIRECTION('',(0.,-1.,0.));
#963=DIRECTION('',(0.,0.,-1.));
#964=DIRECTION('',(0.,-1.,0.));
#965=DIRECTION('',(1.,0.,0.));
#966=DIRECTION('',(0.,0.,-1.));
#967=DIRECTION('',(0.,0.,1.));
#968=DIRECTION('',(-1.,1.38777878078145E-16,0.));
#969=DIRECTION('',(0.,0.,-1.));
#970=DIRECTION('',(0.,0.,1.));
#971=DIRECTION('',(-1.,1.38777878078145E-16,0.));
#972=DIRECTION('',(0.,0.,-1.));
#973=DIRECTION('',(-1.,0.,0.));
#974=DIRECTION('',(-1.,0.,0.));
#975=DIRECTION('',(0.,0.,-1.));
#976=DIRECTION('',(-1.,0.,0.));
#977=DIRECTION('',(0.,-1.,0.));
#978=DIRECTION('',(0.,0.,-1.));
#979=DIRECTION('',(0.,0.,-1.));
#980=DIRECTION('',(0.,-1.,0.));
#981=DIRECTION('',(0.,0.,-1.));
#982=DIRECTION('',(1.,0.,0.));
#983=DIRECTION('',(0.,0.,-1.));
#984=DIRECTION('',(0.,0.,-1.));
#985=DIRECTION('',(0.,0.,-1.));
#986=DIRECTION('',(-1.,0.,0.));
#987=DIRECTION('',(0.,0.,-1.));
#988=DIRECTION('',(-1.,0.,0.));
#989=DIRECTION('',(0.,0.,-1.));
#990=DIRECTION('',(1.,0.,0.));
#991=DIRECTION('',(0.,1.,0.));
#992=DIRECTION('',(0.,0.,1.));
#993=DIRECTION('',(0.,0.,-1.));
#994=DIRECTION('',(0.,0.,-1.));
#995=DIRECTION('',(-1.,0.,0.));
#996=DIRECTION('',(0.,0.,-1.));
#997=DIRECTION('',(-1.,0.,0.));
#998=DIRECTION('',(0.,0.,-1.));
#999=DIRECTION('',(0.,1.,0.));
#1000=DIRECTION('',(-1.,0.,0.));
#1001=DIRECTION('',(0.,0.,1.));
#1002=DIRECTION('',(0.,0.,-1.));
#1003=DIRECTION('',(0.,0.,-1.));
#1004=DIRECTION('',(-1.,0.,0.));
#1005=DIRECTION('',(0.,0.,-1.));
#1006=DIRECTION('',(-1.,0.,0.));
#1007=DIRECTION('',(0.,0.,-1.));
#1008=DIRECTION('',(-1.,0.,0.));
#1009=DIRECTION('',(0.,-1.,0.));
#1010=DIRECTION('',(0.,0.,-1.));
#1011=DIRECTION('',(0.,0.,-1.));
#1012=DIRECTION('',(-1.,0.,0.));
#1013=DIRECTION('',(0.,0.,-1.));
#1014=DIRECTION('',(-1.,0.,0.));
#1015=DIRECTION('',(0.,0.,1.));
#1016=DIRECTION('',(-1.,1.38777878078144E-16,0.));
#1017=DIRECTION('',(0.,0.,1.));
#1018=DIRECTION('',(-1.,1.38777878078144E-16,0.));
#1019=DIRECTION('',(0.,0.,-1.));
#1020=DIRECTION('',(-1.,0.,0.));
#1021=DIRECTION('',(0.,0.,-1.));
#1022=DIRECTION('',(-1.,0.,0.));
#1023=DIRECTION('',(0.,0.,-1.));
#1024=DIRECTION('',(-1.,0.,0.));
#1025=CARTESIAN_POINT('',(0.,0.,0.));
#1026=CARTESIAN_POINT('Point7',(0.,150.,0.));
#1027=CARTESIAN_POINT('Point9',(0.,0.,0.));
#1028=CARTESIAN_POINT('Point10',(200.,0.,0.));
#1029=CARTESIAN_POINT('Point25',(5.,5.,15.));
#1030=CARTESIAN_POINT('Point26',(195.,5.,15.));
#1031=CARTESIAN_POINT('Point27',(195.,145.,15.));
#1032=CARTESIAN_POINT('Point28',(5.,145.,15.));
#1033=CARTESIAN_POINT('',(192.499999999966,142.5,15.));
#1034=CARTESIAN_POINT('',(194.599999999966,142.5,15.));
#1035=CARTESIAN_POINT('',(7.49999999996551,142.5,15.));
#1036=CARTESIAN_POINT('',(9.59999999996551,142.5,15.));
#1037=CARTESIAN_POINT('',(7.49999999996551,7.5,15.));
#1038=CARTESIAN_POINT('',(9.59999999996551,7.5,15.));
#1039=CARTESIAN_POINT('',(192.499999999965,7.5,15.));
#1040=CARTESIAN_POINT('',(194.599999999965,7.5,15.));
#1041=CARTESIAN_POINT('',(0.,145.,15.));
#1042=CARTESIAN_POINT('',(0.,145.,15.));
#1043=CARTESIAN_POINT('',(0.,5.,15.));
#1044=CARTESIAN_POINT('',(5.,5.,15.));
#1045=CARTESIAN_POINT('',(4.99999999999999,0.,15.));
#1046=CARTESIAN_POINT('',(5.,0.,15.));
#1047=CARTESIAN_POINT('',(195.,0.,15.));
#1048=CARTESIAN_POINT('',(195.,5.,15.));
#1049=CARTESIAN_POINT('',(200.,5.,15.));
#1050=CARTESIAN_POINT('',(200.,5.,15.));
#1051=CARTESIAN_POINT('',(200.,145.,15.));
#1052=CARTESIAN_POINT('',(195.,145.,15.));
#1053=CARTESIAN_POINT('',(195.,150.,15.));
#1054=CARTESIAN_POINT('',(195.,150.,15.));
#1055=CARTESIAN_POINT('',(4.99999999999998,150.,15.));
#1056=CARTESIAN_POINT('',(5.,145.,15.));
#1057=CARTESIAN_POINT('',(5.5,15.4880884817015,15.));
#1058=CARTESIAN_POINT('',(5.5,15.4880884817015,15.));
#1059=CARTESIAN_POINT('',(5.5,134.511911518298,15.));
#1060=CARTESIAN_POINT('',(4.99999999999999,145.,15.));
#1061=CARTESIAN_POINT('',(15.4880884817015,144.5,15.));
#1062=CARTESIAN_POINT('',(15.4880884817015,144.5,15.));
#1063=CARTESIAN_POINT('',(184.511911518298,144.5,15.));
#1064=CARTESIAN_POINT('',(195.,145.,15.));
#1065=CARTESIAN_POINT('',(194.5,134.511911518298,15.));
#1066=CARTESIAN_POINT('',(194.5,134.511911518298,15.));
#1067=CARTESIAN_POINT('',(194.5,15.4880884817015,15.));
#1068=CARTESIAN_POINT('',(195.,4.99999999999999,15.));
#1069=CARTESIAN_POINT('',(184.511911518298,5.5,15.));
#1070=CARTESIAN_POINT('',(184.511911518298,5.5,15.));
#1071=CARTESIAN_POINT('',(15.4880884817015,5.5,15.));
#1072=CARTESIAN_POINT('',(4.99999999999999,5.,15.));
#1073=CARTESIAN_POINT('',(5.,5.,15.));
#1074=CARTESIAN_POINT('',(0.,145.,0.));
#1075=CARTESIAN_POINT('',(0.,145.,0.));
#1076=CARTESIAN_POINT('',(0.,5.,0.));
#1077=CARTESIAN_POINT('',(0.,5.,15.));
#1078=CARTESIAN_POINT('',(0.,145.,15.));
#1079=CARTESIAN_POINT('',(0.,145.,15.));
#1080=CARTESIAN_POINT('',(5.,5.,0.));
#1081=CARTESIAN_POINT('',(4.99999999999999,0.,0.));
#1082=CARTESIAN_POINT('',(4.99999999999999,0.,15.));
#1083=CARTESIAN_POINT('',(5.,5.,15.));
#1084=CARTESIAN_POINT('',(5.,0.,0.));
#1085=CARTESIAN_POINT('',(195.,0.,0.));
#1086=CARTESIAN_POINT('',(195.,0.,15.));
#1087=CARTESIAN_POINT('',(5.,0.,15.));
#1088=CARTESIAN_POINT('',(195.,5.,0.));
#1089=CARTESIAN_POINT('',(200.,5.,0.));
#1090=CARTESIAN_POINT('',(200.,5.,15.));
#1091=CARTESIAN_POINT('',(195.,5.,15.));
#1092=CARTESIAN_POINT('',(200.,5.,0.));
#1093=CARTESIAN_POINT('',(200.,145.,0.));
#1094=CARTESIAN_POINT('',(200.,145.,15.));
#1095=CARTESIAN_POINT('',(200.,5.,15.));
#1096=CARTESIAN_POINT('',(195.,145.,0.));
#1097=CARTESIAN_POINT('',(195.,150.,0.));
#1098=CARTESIAN_POINT('',(195.,150.,15.));
#1099=CARTESIAN_POINT('',(195.,145.,15.));
#1100=CARTESIAN_POINT('',(195.,150.,0.));
#1101=CARTESIAN_POINT('',(4.99999999999998,150.,0.));
#1102=CARTESIAN_POINT('',(4.99999999999998,150.,15.));
#1103=CARTESIAN_POINT('',(195.,150.,15.));
#1104=CARTESIAN_POINT('',(5.,145.,0.));
#1105=CARTESIAN_POINT('',(5.,145.,15.));
#1106=CARTESIAN_POINT('',(192.499999999966,142.5,0.));
#1107=CARTESIAN_POINT('',(195.649999999966,142.5,0.));
#1108=CARTESIAN_POINT('',(7.49999999996551,142.5,0.));
#1109=CARTESIAN_POINT('',(10.6499999999655,142.5,0.));
#1110=CARTESIAN_POINT('',(7.49999999996551,7.5,0.));
#1111=CARTESIAN_POINT('',(10.6499999999655,7.5,0.));
#1112=CARTESIAN_POINT('',(192.499999999965,7.5,0.));
#1113=CARTESIAN_POINT('',(195.649999999966,7.5,0.));
#1114=CARTESIAN_POINT('',(5.,5.,0.));
#1115=CARTESIAN_POINT('',(192.499999999965,7.5,3.5));
#1116=CARTESIAN_POINT('',(195.649999999966,7.5,3.5));
#1117=CARTESIAN_POINT('',(192.499999999965,7.5,3.5));
#1118=CARTESIAN_POINT('',(192.499999999965,7.5,3.5));
#1119=CARTESIAN_POINT('',(190.399999999966,7.5,3.5));
#1120=CARTESIAN_POINT('',(192.499999999965,7.5,3.5));
#1121=CARTESIAN_POINT('',(7.49999999996551,7.5,3.5));
#1122=CARTESIAN_POINT('',(10.6499999999655,7.5,3.5));
#1123=CARTESIAN_POINT('',(7.49999999996551,7.5,3.5));
#1124=CARTESIAN_POINT('',(7.49999999996551,7.5,3.5));
#1125=CARTESIAN_POINT('',(5.39999999996551,7.5,3.5));
#1126=CARTESIAN_POINT('',(7.49999999996551,7.5,3.5));
#1127=CARTESIAN_POINT('',(7.49999999996551,142.5,3.5));
#1128=CARTESIAN_POINT('',(10.6499999999655,142.5,3.5));
#1129=CARTESIAN_POINT('',(7.49999999996551,142.5,3.5));
#1130=CARTESIAN_POINT('',(7.49999999996551,142.5,3.5));
#1131=CARTESIAN_POINT('',(5.39999999996551,142.5,3.5));
#1132=CARTESIAN_POINT('',(7.49999999996551,142.5,3.5));
#1133=CARTESIAN_POINT('',(192.499999999966,142.5,3.5));
#1134=CARTESIAN_POINT('',(195.649999999966,142.5,3.5));
#1135=CARTESIAN_POINT('',(192.499999999966,142.5,3.5));
#1136=CARTESIAN_POINT('',(192.499999999966,142.5,3.5));
#1137=CARTESIAN_POINT('',(190.399999999966,142.5,3.5));
#1138=CARTESIAN_POINT('',(192.499999999966,142.5,3.5));
#1139=CARTESIAN_POINT('',(192.499999999966,142.5,15.));
#1140=CARTESIAN_POINT('',(7.49999999996551,142.5,15.));
#1141=CARTESIAN_POINT('',(7.49999999996551,7.5,15.));
#1142=CARTESIAN_POINT('',(192.499999999965,7.5,15.));
#1143=CARTESIAN_POINT('',(7.5,17.2474487139159,5.));
#1144=CARTESIAN_POINT('',(7.5,17.2474487139159,5.));
#1145=CARTESIAN_POINT('',(7.5,132.752551286084,5.));
#1146=CARTESIAN_POINT('',(7.5,132.752551286084,20.));
#1147=CARTESIAN_POINT('',(7.5,132.752551286084,20.));
#1148=CARTESIAN_POINT('',(7.5,17.2474487139159,20.));
#1149=CARTESIAN_POINT('',(7.5,17.2474487139159,20.));
#1150=CARTESIAN_POINT('',(7.5,17.2474487139159,20.));
#1151=CARTESIAN_POINT('',(7.5,17.2474487139159,20.));
#1152=CARTESIAN_POINT('',(5.,145.,5.));
#1153=CARTESIAN_POINT('',(17.2474487139159,142.5,5.));
#1154=CARTESIAN_POINT('',(17.2474487139159,142.5,20.));
#1155=CARTESIAN_POINT('',(17.2474487139159,142.5,20.));
#1156=CARTESIAN_POINT('',(5.,145.,20.));
#1157=CARTESIAN_POINT('',(5.,145.,20.));
#1158=CARTESIAN_POINT('',(17.2474487139159,142.5,5.));
#1159=CARTESIAN_POINT('',(182.752551286084,142.5,5.));
#1160=CARTESIAN_POINT('',(182.752551286084,142.5,20.));
#1161=CARTESIAN_POINT('',(182.752551286084,142.5,20.));
#1162=CARTESIAN_POINT('',(17.2474487139159,142.5,20.));
#1163=CARTESIAN_POINT('',(17.2474487139159,142.5,20.));
#1164=CARTESIAN_POINT('',(195.,145.,5.));
#1165=CARTESIAN_POINT('',(192.5,132.752551286084,5.));
#1166=CARTESIAN_POINT('',(192.5,132.752551286084,20.));
#1167=CARTESIAN_POINT('',(192.5,132.752551286084,20.));
#1168=CARTESIAN_POINT('',(195.,145.,20.));
#1169=CARTESIAN_POINT('',(195.,145.,20.));
#1170=CARTESIAN_POINT('',(192.5,132.752551286084,5.));
#1171=CARTESIAN_POINT('',(192.5,17.2474487139159,5.));
#1172=CARTESIAN_POINT('',(192.5,17.2474487139159,20.));
#1173=CARTESIAN_POINT('',(192.5,17.2474487139159,20.));
#1174=CARTESIAN_POINT('',(192.5,132.752551286084,20.));
#1175=CARTESIAN_POINT('',(192.5,132.752551286084,20.));
#1176=CARTESIAN_POINT('',(195.,5.,5.));
#1177=CARTESIAN_POINT('',(182.752551286084,7.5,5.));
#1178=CARTESIAN_POINT('',(182.752551286084,7.50000000000001,20.));
#1179=CARTESIAN_POINT('',(182.752551286084,7.50000000000001,20.));
#1180=CARTESIAN_POINT('',(195.,5.,20.));
#1181=CARTESIAN_POINT('',(195.,5.,20.));
#1182=CARTESIAN_POINT('',(182.752551286084,7.5,5.));
#1183=CARTESIAN_POINT('',(17.2474487139159,7.5,5.));
#1184=CARTESIAN_POINT('',(17.2474487139159,7.5,20.));
#1185=CARTESIAN_POINT('',(17.2474487139159,7.5,20.));
#1186=CARTESIAN_POINT('',(182.752551286084,7.5,20.));
#1187=CARTESIAN_POINT('',(182.752551286084,7.5,20.));
#1188=CARTESIAN_POINT('',(5.5,15.4880884817015,20.));
#1189=CARTESIAN_POINT('',(5.5,15.4880884817015,20.));
#1190=CARTESIAN_POINT('',(5.5,134.511911518298,20.));
#1191=CARTESIAN_POINT('',(5.5,134.511911518298,20.));
#1192=CARTESIAN_POINT('',(5.5,134.511911518298,20.));
#1193=CARTESIAN_POINT('',(5.5,134.511911518298,20.));
#1194=CARTESIAN_POINT('',(15.4880884817015,5.5,20.));
#1195=CARTESIAN_POINT('',(15.4880884817015,5.5,20.));
#1196=CARTESIAN_POINT('',(5.,5.,20.));
#1197=CARTESIAN_POINT('',(5.,5.,20.));
#1198=CARTESIAN_POINT('',(184.511911518298,5.5,20.));
#1199=CARTESIAN_POINT('',(184.511911518298,5.5,20.));
#1200=CARTESIAN_POINT('',(15.4880884817015,5.5,20.));
#1201=CARTESIAN_POINT('',(15.4880884817015,5.5,20.));
#1202=CARTESIAN_POINT('',(194.5,15.4880884817015,20.));
#1203=CARTESIAN_POINT('',(194.5,15.4880884817015,20.));
#1204=CARTESIAN_POINT('',(195.,5.,20.));
#1205=CARTESIAN_POINT('',(195.,5.,20.));
#1206=CARTESIAN_POINT('',(194.5,134.511911518298,20.));
#1207=CARTESIAN_POINT('',(194.5,134.511911518298,20.));
#1208=CARTESIAN_POINT('',(194.5,15.4880884817015,20.));
#1209=CARTESIAN_POINT('',(194.5,15.4880884817015,20.));
#1210=CARTESIAN_POINT('',(184.511911518298,144.5,20.));
#1211=CARTESIAN_POINT('',(184.511911518298,144.5,20.));
#1212=CARTESIAN_POINT('',(195.,145.,20.));
#1213=CARTESIAN_POINT('',(195.,145.,20.));
#1214=CARTESIAN_POINT('',(15.4880884817015,144.5,20.));
#1215=CARTESIAN_POINT('',(15.4880884817015,144.5,20.));
#1216=CARTESIAN_POINT('',(184.511911518298,144.5,20.));
#1217=CARTESIAN_POINT('',(184.511911518298,144.5,20.));
#1218=CARTESIAN_POINT('',(5.,145.,20.));
#1219=CARTESIAN_POINT('',(5.,145.,20.));
#1220=CARTESIAN_POINT('',(5.,5.,5.));
#1221=CARTESIAN_POINT('',(5.,5.,20.));
#1222=CARTESIAN_POINT('',(5.,5.,20.));
#1223=CARTESIAN_POINT('',(5.,5.,20.));
#1224=CARTESIAN_POINT('',(5.,5.,5.));
#1225=MECHANICAL_DESIGN_GEOMETRIC_PRESENTATION_REPRESENTATION('',(#702,
#703,#704,#705,#706,#707,#708,#709),#1226);
#1226=(
GEOMETRIC_REPRESENTATION_CONTEXT(3)
GLOBAL_UNCERTAINTY_ASSIGNED_CONTEXT((#1227))
GLOBAL_UNIT_ASSIGNED_CONTEXT((#1233,#1229,#1228))
REPRESENTATION_CONTEXT('housing_upper','TOP_LEVEL_ASSEMBLY_PART')
);
#1227=UNCERTAINTY_MEASURE_WITH_UNIT(LENGTH_MEASURE(2.E-5),#1233,
'DISTANCE_ACCURACY_VALUE','Maximum Tolerance applied to model');
#1228=(
NAMED_UNIT(*)
SI_UNIT($,.STERADIAN.)
SOLID_ANGLE_UNIT()
);
#1229=(
CONVERSION_BASED_UNIT('DEGREE',#1231)
NAMED_UNIT(#1230)
PLANE_ANGLE_UNIT()
);
#1230=DIMENSIONAL_EXPONENTS(0.,0.,0.,0.,0.,0.,0.);
#1231=PLANE_ANGLE_MEASURE_WITH_UNIT(PLANE_ANGLE_MEASURE(0.0174532925),#1232);
#1232=(
NAMED_UNIT(*)
PLANE_ANGLE_UNIT()
SI_UNIT($,.RADIAN.)
);
#1233=(
LENGTH_UNIT()
NAMED_UNIT(*)
SI_UNIT(.MILLI.,.METRE.)
);
ENDSEC;
END-ISO-10303-21;
