ISO-10303-21;
HEADER;
/* Generated by software containing ST-Developer
 * from STEP Tools, Inc. (www.steptools.com) 
 */
/* OPTION: using custom schema-name function */

FILE_DESCRIPTION(
/* description */ (''),
/* implementation_level */ '2;1');

FILE_NAME(
/* name */ 'pcb.stp',
/* time_stamp */ '2026-07-19T12:54:17+02:00',
/* author */ (''),
/* organization */ (''),
/* preprocessor_version */ 'ST-DEVELOPER v18.102',
/* originating_system */ 'SIEMENS PLM Software NX2206.6002',
/* authorisation */ '');

FILE_SCHEMA (('AUTOMOTIVE_DESIGN { 1 0 10303 214 3 1 1 1 }'));
ENDSEC;

DATA;
#10=SHAPE_REPRESENTATION_RELATIONSHIP('None',
'relationship between pcb-None and pcb-None',#22,#11);
#11=ADVANCED_BREP_SHAPE_REPRESENTATION('pcb-None',(#32),#2167);
#12=SHAPE_DEFINITION_REPRESENTATION(#13,#22);
#13=PRODUCT_DEFINITION_SHAPE('','',#14);
#14=PRODUCT_DEFINITION(' ','',#16,#15);
#15=PRODUCT_DEFINITION_CONTEXT('part definition',#21,'design');
#16=PRODUCT_DEFINITION_FORMATION_WITH_SPECIFIED_SOURCE(' ',' ',#18,
 .NOT_KNOWN.);
#17=PRODUCT_RELATED_PRODUCT_CATEGORY('part','',(#18));
#18=PRODUCT('pcb','pcb',' ',(#19));
#19=PRODUCT_CONTEXT(' ',#21,'mechanical');
#20=APPLICATION_PROTOCOL_DEFINITION('international standard',
'automotive_design',2010,#21);
#21=APPLICATION_CONTEXT(
'core data for automotive mechanical design processes');
#22=SHAPE_REPRESENTATION('pcb-None',(#1362),#2167);
#23=PRESENTATION_LAYER_ASSIGNMENT('1','Layer 1',(#32));
#24=STYLED_ITEM('',(#25),#32);
#25=PRESENTATION_STYLE_ASSIGNMENT((#26));
#26=SURFACE_STYLE_USAGE(.BOTH.,#27);
#27=SURFACE_SIDE_STYLE('',(#28));
#28=SURFACE_STYLE_FILL_AREA(#29);
#29=FILL_AREA_STYLE('',(#30));
#30=FILL_AREA_STYLE_COLOUR('',#31);
#31=COLOUR_RGB('strong moss',0.,0.345098039215686,0.156862745098039);
#32=MANIFOLD_SOLID_BREP('',#33);
#33=CLOSED_SHELL('',(#104,#105,#106,#107,#108,#109,#110,#111,#112,#113,
#114,#115,#116,#117,#118,#119,#120,#121,#122,#123,#124,#125,#126,#127,#128,
#129,#130,#131,#132,#133,#134,#135,#136,#137,#138,#139,#140,#141,#142,#143,
#144,#145,#146,#147,#148,#149,#150,#151,#152,#153,#154,#155,#156,#157,#158,
#159,#160,#161,#162,#163,#164,#165,#166,#167,#168,#169,#170,#171,#172,#173,
#174,#175,#176,#177));
#34=CYLINDRICAL_SURFACE('',#1374,5.);
#35=CYLINDRICAL_SURFACE('',#1377,5.);
#36=CYLINDRICAL_SURFACE('',#1380,5.);
#37=CYLINDRICAL_SURFACE('',#1383,2.1);
#38=CYLINDRICAL_SURFACE('',#1385,2.1);
#39=CYLINDRICAL_SURFACE('',#1387,2.1);
#40=CYLINDRICAL_SURFACE('',#1389,5.);
#41=CYLINDRICAL_SURFACE('',#1391,2.1);
#42=FACE_OUTER_BOUND('',#307,.T.);
#43=FACE_OUTER_BOUND('',#308,.T.);
#44=FACE_OUTER_BOUND('',#309,.T.);
#45=FACE_OUTER_BOUND('',#310,.T.);
#46=FACE_OUTER_BOUND('',#311,.T.);
#47=FACE_OUTER_BOUND('',#312,.T.);
#48=FACE_OUTER_BOUND('',#313,.T.);
#49=FACE_OUTER_BOUND('',#320,.T.);
#50=FACE_OUTER_BOUND('',#328,.T.);
#51=FACE_OUTER_BOUND('',#329,.T.);
#52=FACE_OUTER_BOUND('',#330,.T.);
#53=FACE_OUTER_BOUND('',#331,.T.);
#54=FACE_OUTER_BOUND('',#332,.T.);
#55=FACE_OUTER_BOUND('',#333,.T.);
#56=FACE_OUTER_BOUND('',#334,.T.);
#57=FACE_OUTER_BOUND('',#335,.T.);
#58=FACE_OUTER_BOUND('',#338,.T.);
#59=FACE_OUTER_BOUND('',#339,.T.);
#60=FACE_OUTER_BOUND('',#340,.T.);
#61=FACE_OUTER_BOUND('',#341,.T.);
#62=FACE_OUTER_BOUND('',#342,.T.);
#63=FACE_OUTER_BOUND('',#343,.T.);
#64=FACE_OUTER_BOUND('',#344,.T.);
#65=FACE_OUTER_BOUND('',#345,.T.);
#66=FACE_OUTER_BOUND('',#346,.T.);
#67=FACE_OUTER_BOUND('',#349,.T.);
#68=FACE_OUTER_BOUND('',#350,.T.);
#69=FACE_OUTER_BOUND('',#351,.T.);
#70=FACE_OUTER_BOUND('',#352,.T.);
#71=FACE_OUTER_BOUND('',#353,.T.);
#72=FACE_OUTER_BOUND('',#354,.T.);
#73=FACE_OUTER_BOUND('',#355,.T.);
#74=FACE_OUTER_BOUND('',#356,.T.);
#75=FACE_OUTER_BOUND('',#357,.T.);
#76=FACE_OUTER_BOUND('',#360,.T.);
#77=FACE_OUTER_BOUND('',#361,.T.);
#78=FACE_OUTER_BOUND('',#362,.T.);
#79=FACE_OUTER_BOUND('',#363,.T.);
#80=FACE_OUTER_BOUND('',#364,.T.);
#81=FACE_OUTER_BOUND('',#365,.T.);
#82=FACE_OUTER_BOUND('',#366,.T.);
#83=FACE_OUTER_BOUND('',#367,.T.);
#84=FACE_OUTER_BOUND('',#368,.T.);
#85=FACE_OUTER_BOUND('',#371,.T.);
#86=FACE_OUTER_BOUND('',#372,.T.);
#87=FACE_OUTER_BOUND('',#373,.T.);
#88=FACE_OUTER_BOUND('',#374,.T.);
#89=FACE_OUTER_BOUND('',#375,.T.);
#90=FACE_OUTER_BOUND('',#376,.T.);
#91=FACE_OUTER_BOUND('',#377,.T.);
#92=FACE_OUTER_BOUND('',#378,.T.);
#93=FACE_OUTER_BOUND('',#379,.T.);
#94=FACE_OUTER_BOUND('',#382,.T.);
#95=FACE_OUTER_BOUND('',#383,.T.);
#96=FACE_OUTER_BOUND('',#384,.T.);
#97=FACE_OUTER_BOUND('',#385,.T.);
#98=FACE_OUTER_BOUND('',#386,.T.);
#99=FACE_OUTER_BOUND('',#387,.T.);
#100=FACE_OUTER_BOUND('',#388,.T.);
#101=FACE_OUTER_BOUND('',#389,.T.);
#102=FACE_OUTER_BOUND('',#390,.T.);
#103=FACE_OUTER_BOUND('',#393,.T.);
#104=ADVANCED_FACE('',(#260,#261,#262,#263,#264,#265,#266,#267,#268,#269,
#270),#178,.T.);
#105=ADVANCED_FACE('',(#42),#179,.F.);
#106=ADVANCED_FACE('',(#43),#34,.T.);
#107=ADVANCED_FACE('',(#44),#180,.F.);
#108=ADVANCED_FACE('',(#45),#35,.T.);
#109=ADVANCED_FACE('',(#46),#181,.F.);
#110=ADVANCED_FACE('',(#47),#36,.T.);
#111=ADVANCED_FACE('',(#48),#182,.F.);
#112=ADVANCED_FACE('',(#271,#272),#37,.F.);
#113=ADVANCED_FACE('',(#273,#274),#38,.F.);
#114=ADVANCED_FACE('',(#275,#276),#39,.F.);
#115=ADVANCED_FACE('',(#49),#40,.T.);
#116=ADVANCED_FACE('',(#277,#278),#41,.F.);
#117=ADVANCED_FACE('',(#279,#280,#281,#282,#283),#183,.F.);
#118=ADVANCED_FACE('',(#50),#184,.F.);
#119=ADVANCED_FACE('',(#51),#185,.F.);
#120=ADVANCED_FACE('',(#52),#186,.F.);
#121=ADVANCED_FACE('',(#53),#187,.F.);
#122=ADVANCED_FACE('',(#54),#188,.F.);
#123=ADVANCED_FACE('',(#55),#189,.F.);
#124=ADVANCED_FACE('',(#56),#190,.F.);
#125=ADVANCED_FACE('',(#57),#191,.F.);
#126=ADVANCED_FACE('',(#284,#285),#192,.T.);
#127=ADVANCED_FACE('',(#58),#193,.T.);
#128=ADVANCED_FACE('',(#59),#194,.F.);
#129=ADVANCED_FACE('',(#60),#195,.F.);
#130=ADVANCED_FACE('',(#61),#196,.F.);
#131=ADVANCED_FACE('',(#62),#197,.F.);
#132=ADVANCED_FACE('',(#63),#198,.F.);
#133=ADVANCED_FACE('',(#64),#199,.F.);
#134=ADVANCED_FACE('',(#65),#200,.F.);
#135=ADVANCED_FACE('',(#66),#201,.F.);
#136=ADVANCED_FACE('',(#286,#287),#202,.T.);
#137=ADVANCED_FACE('',(#67),#203,.T.);
#138=ADVANCED_FACE('',(#68),#204,.F.);
#139=ADVANCED_FACE('',(#69),#205,.F.);
#140=ADVANCED_FACE('',(#70),#206,.F.);
#141=ADVANCED_FACE('',(#71),#207,.F.);
#142=ADVANCED_FACE('',(#72),#208,.F.);
#143=ADVANCED_FACE('',(#73),#209,.F.);
#144=ADVANCED_FACE('',(#74),#210,.F.);
#145=ADVANCED_FACE('',(#75),#211,.F.);
#146=ADVANCED_FACE('',(#288,#289),#212,.T.);
#147=ADVANCED_FACE('',(#76),#213,.T.);
#148=ADVANCED_FACE('',(#77),#214,.F.);
#149=ADVANCED_FACE('',(#78),#215,.F.);
#150=ADVANCED_FACE('',(#79),#216,.F.);
#151=ADVANCED_FACE('',(#80),#217,.F.);
#152=ADVANCED_FACE('',(#81),#218,.F.);
#153=ADVANCED_FACE('',(#82),#219,.F.);
#154=ADVANCED_FACE('',(#83),#220,.F.);
#155=ADVANCED_FACE('',(#84),#221,.F.);
#156=ADVANCED_FACE('',(#290,#291),#222,.T.);
#157=ADVANCED_FACE('',(#85),#223,.T.);
#158=ADVANCED_FACE('',(#86),#224,.F.);
#159=ADVANCED_FACE('',(#87),#225,.F.);
#160=ADVANCED_FACE('',(#88),#226,.F.);
#161=ADVANCED_FACE('',(#89),#227,.F.);
#162=ADVANCED_FACE('',(#90),#228,.F.);
#163=ADVANCED_FACE('',(#91),#229,.F.);
#164=ADVANCED_FACE('',(#92),#230,.F.);
#165=ADVANCED_FACE('',(#93),#231,.F.);
#166=ADVANCED_FACE('',(#292,#293),#232,.T.);
#167=ADVANCED_FACE('',(#94),#233,.T.);
#168=ADVANCED_FACE('',(#95),#234,.F.);
#169=ADVANCED_FACE('',(#96),#235,.F.);
#170=ADVANCED_FACE('',(#97),#236,.F.);
#171=ADVANCED_FACE('',(#98),#237,.F.);
#172=ADVANCED_FACE('',(#99),#238,.F.);
#173=ADVANCED_FACE('',(#100),#239,.F.);
#174=ADVANCED_FACE('',(#101),#240,.F.);
#175=ADVANCED_FACE('',(#102),#241,.F.);
#176=ADVANCED_FACE('',(#294,#295),#242,.T.);
#177=ADVANCED_FACE('',(#103),#243,.T.);
#178=PLANE('',#1371);
#179=PLANE('',#1372);
#180=PLANE('',#1375);
#181=PLANE('',#1378);
#182=PLANE('',#1381);
#183=PLANE('',#1392);
#184=PLANE('',#1393);
#185=PLANE('',#1394);
#186=PLANE('',#1395);
#187=PLANE('',#1396);
#188=PLANE('',#1397);
#189=PLANE('',#1398);
#190=PLANE('',#1399);
#191=PLANE('',#1400);
#192=PLANE('',#1401);
#193=PLANE('',#1402);
#194=PLANE('',#1403);
#195=PLANE('',#1404);
#196=PLANE('',#1405);
#197=PLANE('',#1406);
#198=PLANE('',#1407);
#199=PLANE('',#1408);
#200=PLANE('',#1409);
#201=PLANE('',#1410);
#202=PLANE('',#1411);
#203=PLANE('',#1412);
#204=PLANE('',#1413);
#205=PLANE('',#1414);
#206=PLANE('',#1415);
#207=PLANE('',#1416);
#208=PLANE('',#1417);
#209=PLANE('',#1418);
#210=PLANE('',#1419);
#211=PLANE('',#1420);
#212=PLANE('',#1421);
#213=PLANE('',#1422);
#214=PLANE('',#1423);
#215=PLANE('',#1424);
#216=PLANE('',#1425);
#217=PLANE('',#1426);
#218=PLANE('',#1427);
#219=PLANE('',#1428);
#220=PLANE('',#1429);
#221=PLANE('',#1430);
#222=PLANE('',#1431);
#223=PLANE('',#1432);
#224=PLANE('',#1433);
#225=PLANE('',#1434);
#226=PLANE('',#1435);
#227=PLANE('',#1436);
#228=PLANE('',#1437);
#229=PLANE('',#1438);
#230=PLANE('',#1439);
#231=PLANE('',#1440);
#232=PLANE('',#1441);
#233=PLANE('',#1442);
#234=PLANE('',#1443);
#235=PLANE('',#1444);
#236=PLANE('',#1445);
#237=PLANE('',#1446);
#238=PLANE('',#1447);
#239=PLANE('',#1448);
#240=PLANE('',#1449);
#241=PLANE('',#1450);
#242=PLANE('',#1451);
#243=PLANE('',#1452);
#244=CIRCLE('',#1363,2.1);
#245=CIRCLE('',#1364,2.1);
#246=CIRCLE('',#1365,2.1);
#247=CIRCLE('',#1366,2.1);
#248=CIRCLE('',#1367,5.);
#249=CIRCLE('',#1368,5.);
#250=CIRCLE('',#1369,5.);
#251=CIRCLE('',#1370,5.);
#252=CIRCLE('',#1373,5.);
#253=CIRCLE('',#1376,5.);
#254=CIRCLE('',#1379,5.);
#255=CIRCLE('',#1382,2.1);
#256=CIRCLE('',#1384,2.1);
#257=CIRCLE('',#1386,2.1);
#258=CIRCLE('',#1388,5.);
#259=CIRCLE('',#1390,2.1);
#260=FACE_BOUND('',#296,.T.);
#261=FACE_BOUND('',#297,.T.);
#262=FACE_BOUND('',#298,.T.);
#263=FACE_BOUND('',#299,.T.);
#264=FACE_BOUND('',#300,.T.);
#265=FACE_BOUND('',#301,.T.);
#266=FACE_BOUND('',#302,.T.);
#267=FACE_BOUND('',#303,.T.);
#268=FACE_BOUND('',#304,.T.);
#269=FACE_BOUND('',#305,.T.);
#270=FACE_BOUND('',#306,.T.);
#271=FACE_BOUND('',#314,.T.);
#272=FACE_BOUND('',#315,.T.);
#273=FACE_BOUND('',#316,.T.);
#274=FACE_BOUND('',#317,.T.);
#275=FACE_BOUND('',#318,.T.);
#276=FACE_BOUND('',#319,.T.);
#277=FACE_BOUND('',#321,.T.);
#278=FACE_BOUND('',#322,.T.);
#279=FACE_BOUND('',#323,.T.);
#280=FACE_BOUND('',#324,.T.);
#281=FACE_BOUND('',#325,.T.);
#282=FACE_BOUND('',#326,.T.);
#283=FACE_BOUND('',#327,.T.);
#284=FACE_BOUND('',#336,.T.);
#285=FACE_BOUND('',#337,.T.);
#286=FACE_BOUND('',#347,.T.);
#287=FACE_BOUND('',#348,.T.);
#288=FACE_BOUND('',#358,.T.);
#289=FACE_BOUND('',#359,.T.);
#290=FACE_BOUND('',#369,.T.);
#291=FACE_BOUND('',#370,.T.);
#292=FACE_BOUND('',#380,.T.);
#293=FACE_BOUND('',#381,.T.);
#294=FACE_BOUND('',#391,.T.);
#295=FACE_BOUND('',#392,.T.);
#296=EDGE_LOOP('',(#394,#395,#396,#397));
#297=EDGE_LOOP('',(#398,#399,#400,#401));
#298=EDGE_LOOP('',(#402));
#299=EDGE_LOOP('',(#403));
#300=EDGE_LOOP('',(#404));
#301=EDGE_LOOP('',(#405));
#302=EDGE_LOOP('',(#406,#407,#408,#409,#410,#411,#412,#413));
#303=EDGE_LOOP('',(#414,#415,#416,#417));
#304=EDGE_LOOP('',(#418,#419,#420,#421));
#305=EDGE_LOOP('',(#422,#423,#424,#425));
#306=EDGE_LOOP('',(#426,#427,#428,#429));
#307=EDGE_LOOP('',(#430,#431,#432,#433));
#308=EDGE_LOOP('',(#434,#435,#436,#437));
#309=EDGE_LOOP('',(#438,#439,#440,#441));
#310=EDGE_LOOP('',(#442,#443,#444,#445));
#311=EDGE_LOOP('',(#446,#447,#448,#449));
#312=EDGE_LOOP('',(#450,#451,#452,#453));
#313=EDGE_LOOP('',(#454,#455,#456,#457));
#314=EDGE_LOOP('',(#458));
#315=EDGE_LOOP('',(#459));
#316=EDGE_LOOP('',(#460));
#317=EDGE_LOOP('',(#461));
#318=EDGE_LOOP('',(#462));
#319=EDGE_LOOP('',(#463));
#320=EDGE_LOOP('',(#464,#465,#466,#467));
#321=EDGE_LOOP('',(#468));
#322=EDGE_LOOP('',(#469));
#323=EDGE_LOOP('',(#470,#471,#472,#473,#474,#475,#476,#477));
#324=EDGE_LOOP('',(#478));
#325=EDGE_LOOP('',(#479));
#326=EDGE_LOOP('',(#480));
#327=EDGE_LOOP('',(#481));
#328=EDGE_LOOP('',(#482,#483,#484,#485));
#329=EDGE_LOOP('',(#486,#487,#488,#489));
#330=EDGE_LOOP('',(#490,#491,#492,#493));
#331=EDGE_LOOP('',(#494,#495,#496,#497));
#332=EDGE_LOOP('',(#498,#499,#500,#501));
#333=EDGE_LOOP('',(#502,#503,#504,#505));
#334=EDGE_LOOP('',(#506,#507,#508,#509));
#335=EDGE_LOOP('',(#510,#511,#512,#513));
#336=EDGE_LOOP('',(#514,#515,#516,#517));
#337=EDGE_LOOP('',(#518,#519,#520,#521));
#338=EDGE_LOOP('',(#522,#523,#524,#525));
#339=EDGE_LOOP('',(#526,#527,#528,#529));
#340=EDGE_LOOP('',(#530,#531,#532,#533));
#341=EDGE_LOOP('',(#534,#535,#536,#537));
#342=EDGE_LOOP('',(#538,#539,#540,#541));
#343=EDGE_LOOP('',(#542,#543,#544,#545));
#344=EDGE_LOOP('',(#546,#547,#548,#549));
#345=EDGE_LOOP('',(#550,#551,#552,#553));
#346=EDGE_LOOP('',(#554,#555,#556,#557));
#347=EDGE_LOOP('',(#558,#559,#560,#561));
#348=EDGE_LOOP('',(#562,#563,#564,#565));
#349=EDGE_LOOP('',(#566,#567,#568,#569));
#350=EDGE_LOOP('',(#570,#571,#572,#573));
#351=EDGE_LOOP('',(#574,#575,#576,#577));
#352=EDGE_LOOP('',(#578,#579,#580,#581));
#353=EDGE_LOOP('',(#582,#583,#584,#585));
#354=EDGE_LOOP('',(#586,#587,#588,#589));
#355=EDGE_LOOP('',(#590,#591,#592,#593));
#356=EDGE_LOOP('',(#594,#595,#596,#597));
#357=EDGE_LOOP('',(#598,#599,#600,#601));
#358=EDGE_LOOP('',(#602,#603,#604,#605));
#359=EDGE_LOOP('',(#606,#607,#608,#609));
#360=EDGE_LOOP('',(#610,#611,#612,#613));
#361=EDGE_LOOP('',(#614,#615,#616,#617));
#362=EDGE_LOOP('',(#618,#619,#620,#621));
#363=EDGE_LOOP('',(#622,#623,#624,#625));
#364=EDGE_LOOP('',(#626,#627,#628,#629));
#365=EDGE_LOOP('',(#630,#631,#632,#633));
#366=EDGE_LOOP('',(#634,#635,#636,#637));
#367=EDGE_LOOP('',(#638,#639,#640,#641));
#368=EDGE_LOOP('',(#642,#643,#644,#645));
#369=EDGE_LOOP('',(#646,#647,#648,#649));
#370=EDGE_LOOP('',(#650,#651,#652,#653));
#371=EDGE_LOOP('',(#654,#655,#656,#657));
#372=EDGE_LOOP('',(#658,#659,#660,#661));
#373=EDGE_LOOP('',(#662,#663,#664,#665));
#374=EDGE_LOOP('',(#666,#667,#668,#669));
#375=EDGE_LOOP('',(#670,#671,#672,#673));
#376=EDGE_LOOP('',(#674,#675,#676,#677));
#377=EDGE_LOOP('',(#678,#679,#680,#681));
#378=EDGE_LOOP('',(#682,#683,#684,#685));
#379=EDGE_LOOP('',(#686,#687,#688,#689));
#380=EDGE_LOOP('',(#690,#691,#692,#693));
#381=EDGE_LOOP('',(#694,#695,#696,#697));
#382=EDGE_LOOP('',(#698,#699,#700,#701));
#383=EDGE_LOOP('',(#702,#703,#704,#705));
#384=EDGE_LOOP('',(#706,#707,#708,#709));
#385=EDGE_LOOP('',(#710,#711,#712,#713));
#386=EDGE_LOOP('',(#714,#715,#716,#717));
#387=EDGE_LOOP('',(#718,#719,#720,#721));
#388=EDGE_LOOP('',(#722,#723,#724,#725));
#389=EDGE_LOOP('',(#726,#727,#728,#729));
#390=EDGE_LOOP('',(#730,#731,#732,#733));
#391=EDGE_LOOP('',(#734,#735,#736,#737));
#392=EDGE_LOOP('',(#738,#739,#740,#741));
#393=EDGE_LOOP('',(#742,#743,#744,#745));
#394=ORIENTED_EDGE('',*,*,#866,.F.);
#395=ORIENTED_EDGE('',*,*,#867,.F.);
#396=ORIENTED_EDGE('',*,*,#868,.F.);
#397=ORIENTED_EDGE('',*,*,#869,.F.);
#398=ORIENTED_EDGE('',*,*,#870,.F.);
#399=ORIENTED_EDGE('',*,*,#871,.F.);
#400=ORIENTED_EDGE('',*,*,#872,.F.);
#401=ORIENTED_EDGE('',*,*,#873,.F.);
#402=ORIENTED_EDGE('',*,*,#874,.F.);
#403=ORIENTED_EDGE('',*,*,#875,.F.);
#404=ORIENTED_EDGE('',*,*,#876,.F.);
#405=ORIENTED_EDGE('',*,*,#877,.F.);
#406=ORIENTED_EDGE('',*,*,#878,.T.);
#407=ORIENTED_EDGE('',*,*,#879,.T.);
#408=ORIENTED_EDGE('',*,*,#880,.T.);
#409=ORIENTED_EDGE('',*,*,#881,.T.);
#410=ORIENTED_EDGE('',*,*,#882,.T.);
#411=ORIENTED_EDGE('',*,*,#883,.T.);
#412=ORIENTED_EDGE('',*,*,#884,.T.);
#413=ORIENTED_EDGE('',*,*,#885,.T.);
#414=ORIENTED_EDGE('',*,*,#886,.F.);
#415=ORIENTED_EDGE('',*,*,#887,.F.);
#416=ORIENTED_EDGE('',*,*,#888,.F.);
#417=ORIENTED_EDGE('',*,*,#889,.F.);
#418=ORIENTED_EDGE('',*,*,#890,.F.);
#419=ORIENTED_EDGE('',*,*,#891,.F.);
#420=ORIENTED_EDGE('',*,*,#892,.F.);
#421=ORIENTED_EDGE('',*,*,#893,.F.);
#422=ORIENTED_EDGE('',*,*,#894,.F.);
#423=ORIENTED_EDGE('',*,*,#895,.F.);
#424=ORIENTED_EDGE('',*,*,#896,.F.);
#425=ORIENTED_EDGE('',*,*,#897,.F.);
#426=ORIENTED_EDGE('',*,*,#898,.F.);
#427=ORIENTED_EDGE('',*,*,#899,.F.);
#428=ORIENTED_EDGE('',*,*,#900,.F.);
#429=ORIENTED_EDGE('',*,*,#901,.F.);
#430=ORIENTED_EDGE('',*,*,#902,.T.);
#431=ORIENTED_EDGE('',*,*,#903,.F.);
#432=ORIENTED_EDGE('',*,*,#878,.F.);
#433=ORIENTED_EDGE('',*,*,#904,.T.);
#434=ORIENTED_EDGE('',*,*,#905,.T.);
#435=ORIENTED_EDGE('',*,*,#906,.F.);
#436=ORIENTED_EDGE('',*,*,#879,.F.);
#437=ORIENTED_EDGE('',*,*,#903,.T.);
#438=ORIENTED_EDGE('',*,*,#907,.T.);
#439=ORIENTED_EDGE('',*,*,#908,.F.);
#440=ORIENTED_EDGE('',*,*,#880,.F.);
#441=ORIENTED_EDGE('',*,*,#906,.T.);
#442=ORIENTED_EDGE('',*,*,#909,.T.);
#443=ORIENTED_EDGE('',*,*,#910,.F.);
#444=ORIENTED_EDGE('',*,*,#881,.F.);
#445=ORIENTED_EDGE('',*,*,#908,.T.);
#446=ORIENTED_EDGE('',*,*,#911,.T.);
#447=ORIENTED_EDGE('',*,*,#912,.F.);
#448=ORIENTED_EDGE('',*,*,#882,.F.);
#449=ORIENTED_EDGE('',*,*,#910,.T.);
#450=ORIENTED_EDGE('',*,*,#913,.T.);
#451=ORIENTED_EDGE('',*,*,#914,.F.);
#452=ORIENTED_EDGE('',*,*,#883,.F.);
#453=ORIENTED_EDGE('',*,*,#912,.T.);
#454=ORIENTED_EDGE('',*,*,#915,.T.);
#455=ORIENTED_EDGE('',*,*,#916,.F.);
#456=ORIENTED_EDGE('',*,*,#884,.F.);
#457=ORIENTED_EDGE('',*,*,#914,.T.);
#458=ORIENTED_EDGE('',*,*,#875,.T.);
#459=ORIENTED_EDGE('',*,*,#917,.F.);
#460=ORIENTED_EDGE('',*,*,#876,.T.);
#461=ORIENTED_EDGE('',*,*,#918,.F.);
#462=ORIENTED_EDGE('',*,*,#877,.T.);
#463=ORIENTED_EDGE('',*,*,#919,.F.);
#464=ORIENTED_EDGE('',*,*,#920,.T.);
#465=ORIENTED_EDGE('',*,*,#904,.F.);
#466=ORIENTED_EDGE('',*,*,#885,.F.);
#467=ORIENTED_EDGE('',*,*,#916,.T.);
#468=ORIENTED_EDGE('',*,*,#874,.T.);
#469=ORIENTED_EDGE('',*,*,#921,.F.);
#470=ORIENTED_EDGE('',*,*,#902,.F.);
#471=ORIENTED_EDGE('',*,*,#920,.F.);
#472=ORIENTED_EDGE('',*,*,#915,.F.);
#473=ORIENTED_EDGE('',*,*,#913,.F.);
#474=ORIENTED_EDGE('',*,*,#911,.F.);
#475=ORIENTED_EDGE('',*,*,#909,.F.);
#476=ORIENTED_EDGE('',*,*,#907,.F.);
#477=ORIENTED_EDGE('',*,*,#905,.F.);
#478=ORIENTED_EDGE('',*,*,#919,.T.);
#479=ORIENTED_EDGE('',*,*,#918,.T.);
#480=ORIENTED_EDGE('',*,*,#917,.T.);
#481=ORIENTED_EDGE('',*,*,#921,.T.);
#482=ORIENTED_EDGE('',*,*,#922,.T.);
#483=ORIENTED_EDGE('',*,*,#923,.F.);
#484=ORIENTED_EDGE('',*,*,#924,.F.);
#485=ORIENTED_EDGE('',*,*,#925,.T.);
#486=ORIENTED_EDGE('',*,*,#926,.T.);
#487=ORIENTED_EDGE('',*,*,#927,.F.);
#488=ORIENTED_EDGE('',*,*,#928,.F.);
#489=ORIENTED_EDGE('',*,*,#923,.T.);
#490=ORIENTED_EDGE('',*,*,#929,.T.);
#491=ORIENTED_EDGE('',*,*,#930,.F.);
#492=ORIENTED_EDGE('',*,*,#931,.F.);
#493=ORIENTED_EDGE('',*,*,#927,.T.);
#494=ORIENTED_EDGE('',*,*,#886,.T.);
#495=ORIENTED_EDGE('',*,*,#932,.F.);
#496=ORIENTED_EDGE('',*,*,#933,.F.);
#497=ORIENTED_EDGE('',*,*,#934,.T.);
#498=ORIENTED_EDGE('',*,*,#889,.T.);
#499=ORIENTED_EDGE('',*,*,#935,.F.);
#500=ORIENTED_EDGE('',*,*,#936,.F.);
#501=ORIENTED_EDGE('',*,*,#932,.T.);
#502=ORIENTED_EDGE('',*,*,#888,.T.);
#503=ORIENTED_EDGE('',*,*,#937,.F.);
#504=ORIENTED_EDGE('',*,*,#938,.F.);
#505=ORIENTED_EDGE('',*,*,#935,.T.);
#506=ORIENTED_EDGE('',*,*,#887,.T.);
#507=ORIENTED_EDGE('',*,*,#934,.F.);
#508=ORIENTED_EDGE('',*,*,#939,.F.);
#509=ORIENTED_EDGE('',*,*,#937,.T.);
#510=ORIENTED_EDGE('',*,*,#940,.T.);
#511=ORIENTED_EDGE('',*,*,#925,.F.);
#512=ORIENTED_EDGE('',*,*,#941,.F.);
#513=ORIENTED_EDGE('',*,*,#930,.T.);
#514=ORIENTED_EDGE('',*,*,#933,.T.);
#515=ORIENTED_EDGE('',*,*,#936,.T.);
#516=ORIENTED_EDGE('',*,*,#938,.T.);
#517=ORIENTED_EDGE('',*,*,#939,.T.);
#518=ORIENTED_EDGE('',*,*,#924,.T.);
#519=ORIENTED_EDGE('',*,*,#928,.T.);
#520=ORIENTED_EDGE('',*,*,#931,.T.);
#521=ORIENTED_EDGE('',*,*,#941,.T.);
#522=ORIENTED_EDGE('',*,*,#922,.F.);
#523=ORIENTED_EDGE('',*,*,#940,.F.);
#524=ORIENTED_EDGE('',*,*,#929,.F.);
#525=ORIENTED_EDGE('',*,*,#926,.F.);
#526=ORIENTED_EDGE('',*,*,#942,.T.);
#527=ORIENTED_EDGE('',*,*,#943,.F.);
#528=ORIENTED_EDGE('',*,*,#944,.F.);
#529=ORIENTED_EDGE('',*,*,#945,.T.);
#530=ORIENTED_EDGE('',*,*,#946,.T.);
#531=ORIENTED_EDGE('',*,*,#947,.F.);
#532=ORIENTED_EDGE('',*,*,#948,.F.);
#533=ORIENTED_EDGE('',*,*,#943,.T.);
#534=ORIENTED_EDGE('',*,*,#949,.T.);
#535=ORIENTED_EDGE('',*,*,#950,.F.);
#536=ORIENTED_EDGE('',*,*,#951,.F.);
#537=ORIENTED_EDGE('',*,*,#947,.T.);
#538=ORIENTED_EDGE('',*,*,#891,.T.);
#539=ORIENTED_EDGE('',*,*,#952,.F.);
#540=ORIENTED_EDGE('',*,*,#953,.F.);
#541=ORIENTED_EDGE('',*,*,#954,.T.);
#542=ORIENTED_EDGE('',*,*,#890,.T.);
#543=ORIENTED_EDGE('',*,*,#955,.F.);
#544=ORIENTED_EDGE('',*,*,#956,.F.);
#545=ORIENTED_EDGE('',*,*,#952,.T.);
#546=ORIENTED_EDGE('',*,*,#893,.T.);
#547=ORIENTED_EDGE('',*,*,#957,.F.);
#548=ORIENTED_EDGE('',*,*,#958,.F.);
#549=ORIENTED_EDGE('',*,*,#955,.T.);
#550=ORIENTED_EDGE('',*,*,#892,.T.);
#551=ORIENTED_EDGE('',*,*,#954,.F.);
#552=ORIENTED_EDGE('',*,*,#959,.F.);
#553=ORIENTED_EDGE('',*,*,#957,.T.);
#554=ORIENTED_EDGE('',*,*,#960,.T.);
#555=ORIENTED_EDGE('',*,*,#945,.F.);
#556=ORIENTED_EDGE('',*,*,#961,.F.);
#557=ORIENTED_EDGE('',*,*,#950,.T.);
#558=ORIENTED_EDGE('',*,*,#953,.T.);
#559=ORIENTED_EDGE('',*,*,#956,.T.);
#560=ORIENTED_EDGE('',*,*,#958,.T.);
#561=ORIENTED_EDGE('',*,*,#959,.T.);
#562=ORIENTED_EDGE('',*,*,#944,.T.);
#563=ORIENTED_EDGE('',*,*,#948,.T.);
#564=ORIENTED_EDGE('',*,*,#951,.T.);
#565=ORIENTED_EDGE('',*,*,#961,.T.);
#566=ORIENTED_EDGE('',*,*,#946,.F.);
#567=ORIENTED_EDGE('',*,*,#942,.F.);
#568=ORIENTED_EDGE('',*,*,#960,.F.);
#569=ORIENTED_EDGE('',*,*,#949,.F.);
#570=ORIENTED_EDGE('',*,*,#962,.T.);
#571=ORIENTED_EDGE('',*,*,#963,.F.);
#572=ORIENTED_EDGE('',*,*,#964,.F.);
#573=ORIENTED_EDGE('',*,*,#965,.T.);
#574=ORIENTED_EDGE('',*,*,#966,.T.);
#575=ORIENTED_EDGE('',*,*,#967,.F.);
#576=ORIENTED_EDGE('',*,*,#968,.F.);
#577=ORIENTED_EDGE('',*,*,#963,.T.);
#578=ORIENTED_EDGE('',*,*,#969,.T.);
#579=ORIENTED_EDGE('',*,*,#970,.F.);
#580=ORIENTED_EDGE('',*,*,#971,.F.);
#581=ORIENTED_EDGE('',*,*,#967,.T.);
#582=ORIENTED_EDGE('',*,*,#871,.T.);
#583=ORIENTED_EDGE('',*,*,#972,.F.);
#584=ORIENTED_EDGE('',*,*,#973,.F.);
#585=ORIENTED_EDGE('',*,*,#974,.T.);
#586=ORIENTED_EDGE('',*,*,#870,.T.);
#587=ORIENTED_EDGE('',*,*,#975,.F.);
#588=ORIENTED_EDGE('',*,*,#976,.F.);
#589=ORIENTED_EDGE('',*,*,#972,.T.);
#590=ORIENTED_EDGE('',*,*,#873,.T.);
#591=ORIENTED_EDGE('',*,*,#977,.F.);
#592=ORIENTED_EDGE('',*,*,#978,.F.);
#593=ORIENTED_EDGE('',*,*,#975,.T.);
#594=ORIENTED_EDGE('',*,*,#872,.T.);
#595=ORIENTED_EDGE('',*,*,#974,.F.);
#596=ORIENTED_EDGE('',*,*,#979,.F.);
#597=ORIENTED_EDGE('',*,*,#977,.T.);
#598=ORIENTED_EDGE('',*,*,#980,.T.);
#599=ORIENTED_EDGE('',*,*,#965,.F.);
#600=ORIENTED_EDGE('',*,*,#981,.F.);
#601=ORIENTED_EDGE('',*,*,#970,.T.);
#602=ORIENTED_EDGE('',*,*,#973,.T.);
#603=ORIENTED_EDGE('',*,*,#976,.T.);
#604=ORIENTED_EDGE('',*,*,#978,.T.);
#605=ORIENTED_EDGE('',*,*,#979,.T.);
#606=ORIENTED_EDGE('',*,*,#964,.T.);
#607=ORIENTED_EDGE('',*,*,#968,.T.);
#608=ORIENTED_EDGE('',*,*,#971,.T.);
#609=ORIENTED_EDGE('',*,*,#981,.T.);
#610=ORIENTED_EDGE('',*,*,#966,.F.);
#611=ORIENTED_EDGE('',*,*,#962,.F.);
#612=ORIENTED_EDGE('',*,*,#980,.F.);
#613=ORIENTED_EDGE('',*,*,#969,.F.);
#614=ORIENTED_EDGE('',*,*,#982,.T.);
#615=ORIENTED_EDGE('',*,*,#983,.F.);
#616=ORIENTED_EDGE('',*,*,#984,.F.);
#617=ORIENTED_EDGE('',*,*,#985,.T.);
#618=ORIENTED_EDGE('',*,*,#986,.T.);
#619=ORIENTED_EDGE('',*,*,#987,.F.);
#620=ORIENTED_EDGE('',*,*,#988,.F.);
#621=ORIENTED_EDGE('',*,*,#983,.T.);
#622=ORIENTED_EDGE('',*,*,#989,.T.);
#623=ORIENTED_EDGE('',*,*,#990,.F.);
#624=ORIENTED_EDGE('',*,*,#991,.F.);
#625=ORIENTED_EDGE('',*,*,#987,.T.);
#626=ORIENTED_EDGE('',*,*,#895,.T.);
#627=ORIENTED_EDGE('',*,*,#992,.F.);
#628=ORIENTED_EDGE('',*,*,#993,.F.);
#629=ORIENTED_EDGE('',*,*,#994,.T.);
#630=ORIENTED_EDGE('',*,*,#894,.T.);
#631=ORIENTED_EDGE('',*,*,#995,.F.);
#632=ORIENTED_EDGE('',*,*,#996,.F.);
#633=ORIENTED_EDGE('',*,*,#992,.T.);
#634=ORIENTED_EDGE('',*,*,#897,.T.);
#635=ORIENTED_EDGE('',*,*,#997,.F.);
#636=ORIENTED_EDGE('',*,*,#998,.F.);
#637=ORIENTED_EDGE('',*,*,#995,.T.);
#638=ORIENTED_EDGE('',*,*,#896,.T.);
#639=ORIENTED_EDGE('',*,*,#994,.F.);
#640=ORIENTED_EDGE('',*,*,#999,.F.);
#641=ORIENTED_EDGE('',*,*,#997,.T.);
#642=ORIENTED_EDGE('',*,*,#1000,.T.);
#643=ORIENTED_EDGE('',*,*,#985,.F.);
#644=ORIENTED_EDGE('',*,*,#1001,.F.);
#645=ORIENTED_EDGE('',*,*,#990,.T.);
#646=ORIENTED_EDGE('',*,*,#993,.T.);
#647=ORIENTED_EDGE('',*,*,#996,.T.);
#648=ORIENTED_EDGE('',*,*,#998,.T.);
#649=ORIENTED_EDGE('',*,*,#999,.T.);
#650=ORIENTED_EDGE('',*,*,#984,.T.);
#651=ORIENTED_EDGE('',*,*,#988,.T.);
#652=ORIENTED_EDGE('',*,*,#991,.T.);
#653=ORIENTED_EDGE('',*,*,#1001,.T.);
#654=ORIENTED_EDGE('',*,*,#986,.F.);
#655=ORIENTED_EDGE('',*,*,#982,.F.);
#656=ORIENTED_EDGE('',*,*,#1000,.F.);
#657=ORIENTED_EDGE('',*,*,#989,.F.);
#658=ORIENTED_EDGE('',*,*,#1002,.T.);
#659=ORIENTED_EDGE('',*,*,#1003,.F.);
#660=ORIENTED_EDGE('',*,*,#1004,.F.);
#661=ORIENTED_EDGE('',*,*,#1005,.T.);
#662=ORIENTED_EDGE('',*,*,#1006,.T.);
#663=ORIENTED_EDGE('',*,*,#1007,.F.);
#664=ORIENTED_EDGE('',*,*,#1008,.F.);
#665=ORIENTED_EDGE('',*,*,#1003,.T.);
#666=ORIENTED_EDGE('',*,*,#1009,.T.);
#667=ORIENTED_EDGE('',*,*,#1010,.F.);
#668=ORIENTED_EDGE('',*,*,#1011,.F.);
#669=ORIENTED_EDGE('',*,*,#1007,.T.);
#670=ORIENTED_EDGE('',*,*,#867,.T.);
#671=ORIENTED_EDGE('',*,*,#1012,.F.);
#672=ORIENTED_EDGE('',*,*,#1013,.F.);
#673=ORIENTED_EDGE('',*,*,#1014,.T.);
#674=ORIENTED_EDGE('',*,*,#866,.T.);
#675=ORIENTED_EDGE('',*,*,#1015,.F.);
#676=ORIENTED_EDGE('',*,*,#1016,.F.);
#677=ORIENTED_EDGE('',*,*,#1012,.T.);
#678=ORIENTED_EDGE('',*,*,#869,.T.);
#679=ORIENTED_EDGE('',*,*,#1017,.F.);
#680=ORIENTED_EDGE('',*,*,#1018,.F.);
#681=ORIENTED_EDGE('',*,*,#1015,.T.);
#682=ORIENTED_EDGE('',*,*,#868,.T.);
#683=ORIENTED_EDGE('',*,*,#1014,.F.);
#684=ORIENTED_EDGE('',*,*,#1019,.F.);
#685=ORIENTED_EDGE('',*,*,#1017,.T.);
#686=ORIENTED_EDGE('',*,*,#1020,.T.);
#687=ORIENTED_EDGE('',*,*,#1005,.F.);
#688=ORIENTED_EDGE('',*,*,#1021,.F.);
#689=ORIENTED_EDGE('',*,*,#1010,.T.);
#690=ORIENTED_EDGE('',*,*,#1013,.T.);
#691=ORIENTED_EDGE('',*,*,#1016,.T.);
#692=ORIENTED_EDGE('',*,*,#1018,.T.);
#693=ORIENTED_EDGE('',*,*,#1019,.T.);
#694=ORIENTED_EDGE('',*,*,#1004,.T.);
#695=ORIENTED_EDGE('',*,*,#1008,.T.);
#696=ORIENTED_EDGE('',*,*,#1011,.T.);
#697=ORIENTED_EDGE('',*,*,#1021,.T.);
#698=ORIENTED_EDGE('',*,*,#1006,.F.);
#699=ORIENTED_EDGE('',*,*,#1002,.F.);
#700=ORIENTED_EDGE('',*,*,#1020,.F.);
#701=ORIENTED_EDGE('',*,*,#1009,.F.);
#702=ORIENTED_EDGE('',*,*,#1022,.T.);
#703=ORIENTED_EDGE('',*,*,#1023,.F.);
#704=ORIENTED_EDGE('',*,*,#1024,.F.);
#705=ORIENTED_EDGE('',*,*,#1025,.T.);
#706=ORIENTED_EDGE('',*,*,#1026,.T.);
#707=ORIENTED_EDGE('',*,*,#1027,.F.);
#708=ORIENTED_EDGE('',*,*,#1028,.F.);
#709=ORIENTED_EDGE('',*,*,#1023,.T.);
#710=ORIENTED_EDGE('',*,*,#1029,.T.);
#711=ORIENTED_EDGE('',*,*,#1030,.F.);
#712=ORIENTED_EDGE('',*,*,#1031,.F.);
#713=ORIENTED_EDGE('',*,*,#1027,.T.);
#714=ORIENTED_EDGE('',*,*,#899,.T.);
#715=ORIENTED_EDGE('',*,*,#1032,.F.);
#716=ORIENTED_EDGE('',*,*,#1033,.F.);
#717=ORIENTED_EDGE('',*,*,#1034,.T.);
#718=ORIENTED_EDGE('',*,*,#898,.T.);
#719=ORIENTED_EDGE('',*,*,#1035,.F.);
#720=ORIENTED_EDGE('',*,*,#1036,.F.);
#721=ORIENTED_EDGE('',*,*,#1032,.T.);
#722=ORIENTED_EDGE('',*,*,#901,.T.);
#723=ORIENTED_EDGE('',*,*,#1037,.F.);
#724=ORIENTED_EDGE('',*,*,#1038,.F.);
#725=ORIENTED_EDGE('',*,*,#1035,.T.);
#726=ORIENTED_EDGE('',*,*,#900,.T.);
#727=ORIENTED_EDGE('',*,*,#1034,.F.);
#728=ORIENTED_EDGE('',*,*,#1039,.F.);
#729=ORIENTED_EDGE('',*,*,#1037,.T.);
#730=ORIENTED_EDGE('',*,*,#1040,.T.);
#731=ORIENTED_EDGE('',*,*,#1025,.F.);
#732=ORIENTED_EDGE('',*,*,#1041,.F.);
#733=ORIENTED_EDGE('',*,*,#1030,.T.);
#734=ORIENTED_EDGE('',*,*,#1033,.T.);
#735=ORIENTED_EDGE('',*,*,#1036,.T.);
#736=ORIENTED_EDGE('',*,*,#1038,.T.);
#737=ORIENTED_EDGE('',*,*,#1039,.T.);
#738=ORIENTED_EDGE('',*,*,#1024,.T.);
#739=ORIENTED_EDGE('',*,*,#1028,.T.);
#740=ORIENTED_EDGE('',*,*,#1031,.T.);
#741=ORIENTED_EDGE('',*,*,#1041,.T.);
#742=ORIENTED_EDGE('',*,*,#1026,.F.);
#743=ORIENTED_EDGE('',*,*,#1022,.F.);
#744=ORIENTED_EDGE('',*,*,#1040,.F.);
#745=ORIENTED_EDGE('',*,*,#1029,.F.);
#746=VERTEX_POINT('',#1797);
#747=VERTEX_POINT('',#1798);
#748=VERTEX_POINT('',#1800);
#749=VERTEX_POINT('',#1802);
#750=VERTEX_POINT('',#1805);
#751=VERTEX_POINT('',#1806);
#752=VERTEX_POINT('',#1808);
#753=VERTEX_POINT('',#1810);
#754=VERTEX_POINT('',#1813);
#755=VERTEX_POINT('',#1815);
#756=VERTEX_POINT('',#1817);
#757=VERTEX_POINT('',#1819);
#758=VERTEX_POINT('',#1821);
#759=VERTEX_POINT('',#1822);
#760=VERTEX_POINT('',#1824);
#761=VERTEX_POINT('',#1826);
#762=VERTEX_POINT('',#1828);
#763=VERTEX_POINT('',#1830);
#764=VERTEX_POINT('',#1832);
#765=VERTEX_POINT('',#1834);
#766=VERTEX_POINT('',#1837);
#767=VERTEX_POINT('',#1838);
#768=VERTEX_POINT('',#1840);
#769=VERTEX_POINT('',#1842);
#770=VERTEX_POINT('',#1845);
#771=VERTEX_POINT('',#1846);
#772=VERTEX_POINT('',#1848);
#773=VERTEX_POINT('',#1850);
#774=VERTEX_POINT('',#1853);
#775=VERTEX_POINT('',#1854);
#776=VERTEX_POINT('',#1856);
#777=VERTEX_POINT('',#1858);
#778=VERTEX_POINT('',#1861);
#779=VERTEX_POINT('',#1862);
#780=VERTEX_POINT('',#1864);
#781=VERTEX_POINT('',#1866);
#782=VERTEX_POINT('',#1870);
#783=VERTEX_POINT('',#1871);
#784=VERTEX_POINT('',#1876);
#785=VERTEX_POINT('',#1880);
#786=VERTEX_POINT('',#1884);
#787=VERTEX_POINT('',#1888);
#788=VERTEX_POINT('',#1892);
#789=VERTEX_POINT('',#1896);
#790=VERTEX_POINT('',#1900);
#791=VERTEX_POINT('',#1903);
#792=VERTEX_POINT('',#1906);
#793=VERTEX_POINT('',#1911);
#794=VERTEX_POINT('',#1915);
#795=VERTEX_POINT('',#1916);
#796=VERTEX_POINT('',#1918);
#797=VERTEX_POINT('',#1920);
#798=VERTEX_POINT('',#1924);
#799=VERTEX_POINT('',#1926);
#800=VERTEX_POINT('',#1930);
#801=VERTEX_POINT('',#1932);
#802=VERTEX_POINT('',#1936);
#803=VERTEX_POINT('',#1938);
#804=VERTEX_POINT('',#1942);
#805=VERTEX_POINT('',#1946);
#806=VERTEX_POINT('',#1957);
#807=VERTEX_POINT('',#1958);
#808=VERTEX_POINT('',#1960);
#809=VERTEX_POINT('',#1962);
#810=VERTEX_POINT('',#1966);
#811=VERTEX_POINT('',#1968);
#812=VERTEX_POINT('',#1972);
#813=VERTEX_POINT('',#1974);
#814=VERTEX_POINT('',#1978);
#815=VERTEX_POINT('',#1980);
#816=VERTEX_POINT('',#1984);
#817=VERTEX_POINT('',#1988);
#818=VERTEX_POINT('',#1999);
#819=VERTEX_POINT('',#2000);
#820=VERTEX_POINT('',#2002);
#821=VERTEX_POINT('',#2004);
#822=VERTEX_POINT('',#2008);
#823=VERTEX_POINT('',#2010);
#824=VERTEX_POINT('',#2014);
#825=VERTEX_POINT('',#2016);
#826=VERTEX_POINT('',#2020);
#827=VERTEX_POINT('',#2022);
#828=VERTEX_POINT('',#2026);
#829=VERTEX_POINT('',#2030);
#830=VERTEX_POINT('',#2041);
#831=VERTEX_POINT('',#2042);
#832=VERTEX_POINT('',#2044);
#833=VERTEX_POINT('',#2046);
#834=VERTEX_POINT('',#2050);
#835=VERTEX_POINT('',#2052);
#836=VERTEX_POINT('',#2056);
#837=VERTEX_POINT('',#2058);
#838=VERTEX_POINT('',#2062);
#839=VERTEX_POINT('',#2064);
#840=VERTEX_POINT('',#2068);
#841=VERTEX_POINT('',#2072);
#842=VERTEX_POINT('',#2083);
#843=VERTEX_POINT('',#2084);
#844=VERTEX_POINT('',#2086);
#845=VERTEX_POINT('',#2088);
#846=VERTEX_POINT('',#2092);
#847=VERTEX_POINT('',#2094);
#848=VERTEX_POINT('',#2098);
#849=VERTEX_POINT('',#2100);
#850=VERTEX_POINT('',#2104);
#851=VERTEX_POINT('',#2106);
#852=VERTEX_POINT('',#2110);
#853=VERTEX_POINT('',#2114);
#854=VERTEX_POINT('',#2125);
#855=VERTEX_POINT('',#2126);
#856=VERTEX_POINT('',#2128);
#857=VERTEX_POINT('',#2130);
#858=VERTEX_POINT('',#2134);
#859=VERTEX_POINT('',#2136);
#860=VERTEX_POINT('',#2140);
#861=VERTEX_POINT('',#2142);
#862=VERTEX_POINT('',#2146);
#863=VERTEX_POINT('',#2148);
#864=VERTEX_POINT('',#2152);
#865=VERTEX_POINT('',#2156);
#866=EDGE_CURVE('',#746,#747,#1042,.T.);
#867=EDGE_CURVE('',#748,#746,#1043,.T.);
#868=EDGE_CURVE('',#749,#748,#1044,.T.);
#869=EDGE_CURVE('',#747,#749,#1045,.T.);
#870=EDGE_CURVE('',#750,#751,#1046,.T.);
#871=EDGE_CURVE('',#752,#750,#1047,.T.);
#872=EDGE_CURVE('',#753,#752,#1048,.T.);
#873=EDGE_CURVE('',#751,#753,#1049,.T.);
#874=EDGE_CURVE('',#754,#754,#244,.T.);
#875=EDGE_CURVE('',#755,#755,#245,.T.);
#876=EDGE_CURVE('',#756,#756,#246,.T.);
#877=EDGE_CURVE('',#757,#757,#247,.T.);
#878=EDGE_CURVE('',#758,#759,#1050,.T.);
#879=EDGE_CURVE('',#759,#760,#248,.T.);
#880=EDGE_CURVE('',#760,#761,#1051,.T.);
#881=EDGE_CURVE('',#761,#762,#249,.T.);
#882=EDGE_CURVE('',#762,#763,#1052,.T.);
#883=EDGE_CURVE('',#763,#764,#250,.T.);
#884=EDGE_CURVE('',#764,#765,#1053,.T.);
#885=EDGE_CURVE('',#765,#758,#251,.T.);
#886=EDGE_CURVE('',#766,#767,#1054,.T.);
#887=EDGE_CURVE('',#768,#766,#1055,.T.);
#888=EDGE_CURVE('',#769,#768,#1056,.T.);
#889=EDGE_CURVE('',#767,#769,#1057,.T.);
#890=EDGE_CURVE('',#770,#771,#1058,.T.);
#891=EDGE_CURVE('',#772,#770,#1059,.T.);
#892=EDGE_CURVE('',#773,#772,#1060,.T.);
#893=EDGE_CURVE('',#771,#773,#1061,.T.);
#894=EDGE_CURVE('',#774,#775,#1062,.T.);
#895=EDGE_CURVE('',#776,#774,#1063,.T.);
#896=EDGE_CURVE('',#777,#776,#1064,.T.);
#897=EDGE_CURVE('',#775,#777,#1065,.T.);
#898=EDGE_CURVE('',#778,#779,#1066,.T.);
#899=EDGE_CURVE('',#780,#778,#1067,.T.);
#900=EDGE_CURVE('',#781,#780,#1068,.T.);
#901=EDGE_CURVE('',#779,#781,#1069,.T.);
#902=EDGE_CURVE('',#782,#783,#1070,.T.);
#903=EDGE_CURVE('',#759,#783,#1071,.T.);
#904=EDGE_CURVE('',#758,#782,#1072,.T.);
#905=EDGE_CURVE('',#783,#784,#252,.T.);
#906=EDGE_CURVE('',#760,#784,#1073,.T.);
#907=EDGE_CURVE('',#784,#785,#1074,.T.);
#908=EDGE_CURVE('',#761,#785,#1075,.T.);
#909=EDGE_CURVE('',#785,#786,#253,.T.);
#910=EDGE_CURVE('',#762,#786,#1076,.T.);
#911=EDGE_CURVE('',#786,#787,#1077,.T.);
#912=EDGE_CURVE('',#763,#787,#1078,.T.);
#913=EDGE_CURVE('',#787,#788,#254,.T.);
#914=EDGE_CURVE('',#764,#788,#1079,.T.);
#915=EDGE_CURVE('',#788,#789,#1080,.T.);
#916=EDGE_CURVE('',#765,#789,#1081,.T.);
#917=EDGE_CURVE('',#790,#790,#255,.T.);
#918=EDGE_CURVE('',#791,#791,#256,.T.);
#919=EDGE_CURVE('',#792,#792,#257,.T.);
#920=EDGE_CURVE('',#789,#782,#258,.T.);
#921=EDGE_CURVE('',#793,#793,#259,.T.);
#922=EDGE_CURVE('',#794,#795,#1082,.T.);
#923=EDGE_CURVE('',#796,#795,#1083,.T.);
#924=EDGE_CURVE('',#797,#796,#1084,.T.);
#925=EDGE_CURVE('',#797,#794,#1085,.T.);
#926=EDGE_CURVE('',#795,#798,#1086,.T.);
#927=EDGE_CURVE('',#799,#798,#1087,.T.);
#928=EDGE_CURVE('',#796,#799,#1088,.T.);
#929=EDGE_CURVE('',#798,#800,#1089,.T.);
#930=EDGE_CURVE('',#801,#800,#1090,.T.);
#931=EDGE_CURVE('',#799,#801,#1091,.T.);
#932=EDGE_CURVE('',#802,#767,#1092,.T.);
#933=EDGE_CURVE('',#803,#802,#1093,.T.);
#934=EDGE_CURVE('',#803,#766,#1094,.T.);
#935=EDGE_CURVE('',#804,#769,#1095,.T.);
#936=EDGE_CURVE('',#802,#804,#1096,.T.);
#937=EDGE_CURVE('',#805,#768,#1097,.T.);
#938=EDGE_CURVE('',#804,#805,#1098,.T.);
#939=EDGE_CURVE('',#805,#803,#1099,.T.);
#940=EDGE_CURVE('',#800,#794,#1100,.T.);
#941=EDGE_CURVE('',#801,#797,#1101,.T.);
#942=EDGE_CURVE('',#806,#807,#1102,.T.);
#943=EDGE_CURVE('',#808,#807,#1103,.T.);
#944=EDGE_CURVE('',#809,#808,#1104,.T.);
#945=EDGE_CURVE('',#809,#806,#1105,.T.);
#946=EDGE_CURVE('',#807,#810,#1106,.T.);
#947=EDGE_CURVE('',#811,#810,#1107,.T.);
#948=EDGE_CURVE('',#808,#811,#1108,.T.);
#949=EDGE_CURVE('',#810,#812,#1109,.T.);
#950=EDGE_CURVE('',#813,#812,#1110,.T.);
#951=EDGE_CURVE('',#811,#813,#1111,.T.);
#952=EDGE_CURVE('',#814,#770,#1112,.T.);
#953=EDGE_CURVE('',#815,#814,#1113,.T.);
#954=EDGE_CURVE('',#815,#772,#1114,.T.);
#955=EDGE_CURVE('',#816,#771,#1115,.T.);
#956=EDGE_CURVE('',#814,#816,#1116,.T.);
#957=EDGE_CURVE('',#817,#773,#1117,.T.);
#958=EDGE_CURVE('',#816,#817,#1118,.T.);
#959=EDGE_CURVE('',#817,#815,#1119,.T.);
#960=EDGE_CURVE('',#812,#806,#1120,.T.);
#961=EDGE_CURVE('',#813,#809,#1121,.T.);
#962=EDGE_CURVE('',#818,#819,#1122,.T.);
#963=EDGE_CURVE('',#820,#819,#1123,.T.);
#964=EDGE_CURVE('',#821,#820,#1124,.T.);
#965=EDGE_CURVE('',#821,#818,#1125,.T.);
#966=EDGE_CURVE('',#819,#822,#1126,.T.);
#967=EDGE_CURVE('',#823,#822,#1127,.T.);
#968=EDGE_CURVE('',#820,#823,#1128,.T.);
#969=EDGE_CURVE('',#822,#824,#1129,.T.);
#970=EDGE_CURVE('',#825,#824,#1130,.T.);
#971=EDGE_CURVE('',#823,#825,#1131,.T.);
#972=EDGE_CURVE('',#826,#750,#1132,.T.);
#973=EDGE_CURVE('',#827,#826,#1133,.T.);
#974=EDGE_CURVE('',#827,#752,#1134,.T.);
#975=EDGE_CURVE('',#828,#751,#1135,.T.);
#976=EDGE_CURVE('',#826,#828,#1136,.T.);
#977=EDGE_CURVE('',#829,#753,#1137,.T.);
#978=EDGE_CURVE('',#828,#829,#1138,.T.);
#979=EDGE_CURVE('',#829,#827,#1139,.T.);
#980=EDGE_CURVE('',#824,#818,#1140,.T.);
#981=EDGE_CURVE('',#825,#821,#1141,.T.);
#982=EDGE_CURVE('',#830,#831,#1142,.T.);
#983=EDGE_CURVE('',#832,#831,#1143,.T.);
#984=EDGE_CURVE('',#833,#832,#1144,.T.);
#985=EDGE_CURVE('',#833,#830,#1145,.T.);
#986=EDGE_CURVE('',#831,#834,#1146,.T.);
#987=EDGE_CURVE('',#835,#834,#1147,.T.);
#988=EDGE_CURVE('',#832,#835,#1148,.T.);
#989=EDGE_CURVE('',#834,#836,#1149,.T.);
#990=EDGE_CURVE('',#837,#836,#1150,.T.);
#991=EDGE_CURVE('',#835,#837,#1151,.T.);
#992=EDGE_CURVE('',#838,#774,#1152,.T.);
#993=EDGE_CURVE('',#839,#838,#1153,.T.);
#994=EDGE_CURVE('',#839,#776,#1154,.T.);
#995=EDGE_CURVE('',#840,#775,#1155,.T.);
#996=EDGE_CURVE('',#838,#840,#1156,.T.);
#997=EDGE_CURVE('',#841,#777,#1157,.T.);
#998=EDGE_CURVE('',#840,#841,#1158,.T.);
#999=EDGE_CURVE('',#841,#839,#1159,.T.);
#1000=EDGE_CURVE('',#836,#830,#1160,.T.);
#1001=EDGE_CURVE('',#837,#833,#1161,.T.);
#1002=EDGE_CURVE('',#842,#843,#1162,.T.);
#1003=EDGE_CURVE('',#844,#843,#1163,.T.);
#1004=EDGE_CURVE('',#845,#844,#1164,.T.);
#1005=EDGE_CURVE('',#845,#842,#1165,.T.);
#1006=EDGE_CURVE('',#843,#846,#1166,.T.);
#1007=EDGE_CURVE('',#847,#846,#1167,.T.);
#1008=EDGE_CURVE('',#844,#847,#1168,.T.);
#1009=EDGE_CURVE('',#846,#848,#1169,.T.);
#1010=EDGE_CURVE('',#849,#848,#1170,.T.);
#1011=EDGE_CURVE('',#847,#849,#1171,.T.);
#1012=EDGE_CURVE('',#850,#746,#1172,.T.);
#1013=EDGE_CURVE('',#851,#850,#1173,.T.);
#1014=EDGE_CURVE('',#851,#748,#1174,.T.);
#1015=EDGE_CURVE('',#852,#747,#1175,.T.);
#1016=EDGE_CURVE('',#850,#852,#1176,.T.);
#1017=EDGE_CURVE('',#853,#749,#1177,.T.);
#1018=EDGE_CURVE('',#852,#853,#1178,.T.);
#1019=EDGE_CURVE('',#853,#851,#1179,.T.);
#1020=EDGE_CURVE('',#848,#842,#1180,.T.);
#1021=EDGE_CURVE('',#849,#845,#1181,.T.);
#1022=EDGE_CURVE('',#854,#855,#1182,.T.);
#1023=EDGE_CURVE('',#856,#855,#1183,.T.);
#1024=EDGE_CURVE('',#857,#856,#1184,.T.);
#1025=EDGE_CURVE('',#857,#854,#1185,.T.);
#1026=EDGE_CURVE('',#855,#858,#1186,.T.);
#1027=EDGE_CURVE('',#859,#858,#1187,.T.);
#1028=EDGE_CURVE('',#856,#859,#1188,.T.);
#1029=EDGE_CURVE('',#858,#860,#1189,.T.);
#1030=EDGE_CURVE('',#861,#860,#1190,.T.);
#1031=EDGE_CURVE('',#859,#861,#1191,.T.);
#1032=EDGE_CURVE('',#862,#778,#1192,.T.);
#1033=EDGE_CURVE('',#863,#862,#1193,.T.);
#1034=EDGE_CURVE('',#863,#780,#1194,.T.);
#1035=EDGE_CURVE('',#864,#779,#1195,.T.);
#1036=EDGE_CURVE('',#862,#864,#1196,.T.);
#1037=EDGE_CURVE('',#865,#781,#1197,.T.);
#1038=EDGE_CURVE('',#864,#865,#1198,.T.);
#1039=EDGE_CURVE('',#865,#863,#1199,.T.);
#1040=EDGE_CURVE('',#860,#854,#1200,.T.);
#1041=EDGE_CURVE('',#861,#857,#1201,.T.);
#1042=LINE('',#1796,#1202);
#1043=LINE('',#1799,#1203);
#1044=LINE('',#1801,#1204);
#1045=LINE('',#1803,#1205);
#1046=LINE('',#1804,#1206);
#1047=LINE('',#1807,#1207);
#1048=LINE('',#1809,#1208);
#1049=LINE('',#1811,#1209);
#1050=LINE('',#1820,#1210);
#1051=LINE('',#1825,#1211);
#1052=LINE('',#1829,#1212);
#1053=LINE('',#1833,#1213);
#1054=LINE('',#1836,#1214);
#1055=LINE('',#1839,#1215);
#1056=LINE('',#1841,#1216);
#1057=LINE('',#1843,#1217);
#1058=LINE('',#1844,#1218);
#1059=LINE('',#1847,#1219);
#1060=LINE('',#1849,#1220);
#1061=LINE('',#1851,#1221);
#1062=LINE('',#1852,#1222);
#1063=LINE('',#1855,#1223);
#1064=LINE('',#1857,#1224);
#1065=LINE('',#1859,#1225);
#1066=LINE('',#1860,#1226);
#1067=LINE('',#1863,#1227);
#1068=LINE('',#1865,#1228);
#1069=LINE('',#1867,#1229);
#1070=LINE('',#1869,#1230);
#1071=LINE('',#1872,#1231);
#1072=LINE('',#1873,#1232);
#1073=LINE('',#1877,#1233);
#1074=LINE('',#1879,#1234);
#1075=LINE('',#1881,#1235);
#1076=LINE('',#1885,#1236);
#1077=LINE('',#1887,#1237);
#1078=LINE('',#1889,#1238);
#1079=LINE('',#1893,#1239);
#1080=LINE('',#1895,#1240);
#1081=LINE('',#1897,#1241);
#1082=LINE('',#1914,#1242);
#1083=LINE('',#1917,#1243);
#1084=LINE('',#1919,#1244);
#1085=LINE('',#1921,#1245);
#1086=LINE('',#1923,#1246);
#1087=LINE('',#1925,#1247);
#1088=LINE('',#1927,#1248);
#1089=LINE('',#1929,#1249);
#1090=LINE('',#1931,#1250);
#1091=LINE('',#1933,#1251);
#1092=LINE('',#1935,#1252);
#1093=LINE('',#1937,#1253);
#1094=LINE('',#1939,#1254);
#1095=LINE('',#1941,#1255);
#1096=LINE('',#1943,#1256);
#1097=LINE('',#1945,#1257);
#1098=LINE('',#1947,#1258);
#1099=LINE('',#1949,#1259);
#1100=LINE('',#1951,#1260);
#1101=LINE('',#1952,#1261);
#1102=LINE('',#1956,#1262);
#1103=LINE('',#1959,#1263);
#1104=LINE('',#1961,#1264);
#1105=LINE('',#1963,#1265);
#1106=LINE('',#1965,#1266);
#1107=LINE('',#1967,#1267);
#1108=LINE('',#1969,#1268);
#1109=LINE('',#1971,#1269);
#1110=LINE('',#1973,#1270);
#1111=LINE('',#1975,#1271);
#1112=LINE('',#1977,#1272);
#1113=LINE('',#1979,#1273);
#1114=LINE('',#1981,#1274);
#1115=LINE('',#1983,#1275);
#1116=LINE('',#1985,#1276);
#1117=LINE('',#1987,#1277);
#1118=LINE('',#1989,#1278);
#1119=LINE('',#1991,#1279);
#1120=LINE('',#1993,#1280);
#1121=LINE('',#1994,#1281);
#1122=LINE('',#1998,#1282);
#1123=LINE('',#2001,#1283);
#1124=LINE('',#2003,#1284);
#1125=LINE('',#2005,#1285);
#1126=LINE('',#2007,#1286);
#1127=LINE('',#2009,#1287);
#1128=LINE('',#2011,#1288);
#1129=LINE('',#2013,#1289);
#1130=LINE('',#2015,#1290);
#1131=LINE('',#2017,#1291);
#1132=LINE('',#2019,#1292);
#1133=LINE('',#2021,#1293);
#1134=LINE('',#2023,#1294);
#1135=LINE('',#2025,#1295);
#1136=LINE('',#2027,#1296);
#1137=LINE('',#2029,#1297);
#1138=LINE('',#2031,#1298);
#1139=LINE('',#2033,#1299);
#1140=LINE('',#2035,#1300);
#1141=LINE('',#2036,#1301);
#1142=LINE('',#2040,#1302);
#1143=LINE('',#2043,#1303);
#1144=LINE('',#2045,#1304);
#1145=LINE('',#2047,#1305);
#1146=LINE('',#2049,#1306);
#1147=LINE('',#2051,#1307);
#1148=LINE('',#2053,#1308);
#1149=LINE('',#2055,#1309);
#1150=LINE('',#2057,#1310);
#1151=LINE('',#2059,#1311);
#1152=LINE('',#2061,#1312);
#1153=LINE('',#2063,#1313);
#1154=LINE('',#2065,#1314);
#1155=LINE('',#2067,#1315);
#1156=LINE('',#2069,#1316);
#1157=LINE('',#2071,#1317);
#1158=LINE('',#2073,#1318);
#1159=LINE('',#2075,#1319);
#1160=LINE('',#2077,#1320);
#1161=LINE('',#2078,#1321);
#1162=LINE('',#2082,#1322);
#1163=LINE('',#2085,#1323);
#1164=LINE('',#2087,#1324);
#1165=LINE('',#2089,#1325);
#1166=LINE('',#2091,#1326);
#1167=LINE('',#2093,#1327);
#1168=LINE('',#2095,#1328);
#1169=LINE('',#2097,#1329);
#1170=LINE('',#2099,#1330);
#1171=LINE('',#2101,#1331);
#1172=LINE('',#2103,#1332);
#1173=LINE('',#2105,#1333);
#1174=LINE('',#2107,#1334);
#1175=LINE('',#2109,#1335);
#1176=LINE('',#2111,#1336);
#1177=LINE('',#2113,#1337);
#1178=LINE('',#2115,#1338);
#1179=LINE('',#2117,#1339);
#1180=LINE('',#2119,#1340);
#1181=LINE('',#2120,#1341);
#1182=LINE('',#2124,#1342);
#1183=LINE('',#2127,#1343);
#1184=LINE('',#2129,#1344);
#1185=LINE('',#2131,#1345);
#1186=LINE('',#2133,#1346);
#1187=LINE('',#2135,#1347);
#1188=LINE('',#2137,#1348);
#1189=LINE('',#2139,#1349);
#1190=LINE('',#2141,#1350);
#1191=LINE('',#2143,#1351);
#1192=LINE('',#2145,#1352);
#1193=LINE('',#2147,#1353);
#1194=LINE('',#2149,#1354);
#1195=LINE('',#2151,#1355);
#1196=LINE('',#2153,#1356);
#1197=LINE('',#2155,#1357);
#1198=LINE('',#2157,#1358);
#1199=LINE('',#2159,#1359);
#1200=LINE('',#2161,#1360);
#1201=LINE('',#2162,#1361);
#1202=VECTOR('',#1455,1.);
#1203=VECTOR('',#1456,1.);
#1204=VECTOR('',#1457,1.);
#1205=VECTOR('',#1458,1.);
#1206=VECTOR('',#1459,1.);
#1207=VECTOR('',#1460,1.);
#1208=VECTOR('',#1461,1.);
#1209=VECTOR('',#1462,1.);
#1210=VECTOR('',#1471,1.);
#1211=VECTOR('',#1474,1.);
#1212=VECTOR('',#1477,1.);
#1213=VECTOR('',#1480,1.);
#1214=VECTOR('',#1483,1.);
#1215=VECTOR('',#1484,1.);
#1216=VECTOR('',#1485,1.);
#1217=VECTOR('',#1486,1.);
#1218=VECTOR('',#1487,1.);
#1219=VECTOR('',#1488,1.);
#1220=VECTOR('',#1489,1.);
#1221=VECTOR('',#1490,1.);
#1222=VECTOR('',#1491,1.);
#1223=VECTOR('',#1492,1.);
#1224=VECTOR('',#1493,1.);
#1225=VECTOR('',#1494,1.);
#1226=VECTOR('',#1495,1.);
#1227=VECTOR('',#1496,1.);
#1228=VECTOR('',#1497,1.);
#1229=VECTOR('',#1498,1.);
#1230=VECTOR('',#1501,1.);
#1231=VECTOR('',#1502,1.);
#1232=VECTOR('',#1503,1.);
#1233=VECTOR('',#1508,1.);
#1234=VECTOR('',#1511,1.);
#1235=VECTOR('',#1512,1.);
#1236=VECTOR('',#1517,1.);
#1237=VECTOR('',#1520,1.);
#1238=VECTOR('',#1521,1.);
#1239=VECTOR('',#1526,1.);
#1240=VECTOR('',#1529,1.);
#1241=VECTOR('',#1530,1.);
#1242=VECTOR('',#1555,1.);
#1243=VECTOR('',#1556,1.);
#1244=VECTOR('',#1557,1.);
#1245=VECTOR('',#1558,1.);
#1246=VECTOR('',#1561,1.);
#1247=VECTOR('',#1562,1.);
#1248=VECTOR('',#1563,1.);
#1249=VECTOR('',#1566,1.);
#1250=VECTOR('',#1567,1.);
#1251=VECTOR('',#1568,1.);
#1252=VECTOR('',#1571,1.);
#1253=VECTOR('',#1572,1.);
#1254=VECTOR('',#1573,1.);
#1255=VECTOR('',#1576,1.);
#1256=VECTOR('',#1577,1.);
#1257=VECTOR('',#1580,1.);
#1258=VECTOR('',#1581,1.);
#1259=VECTOR('',#1584,1.);
#1260=VECTOR('',#1587,1.);
#1261=VECTOR('',#1588,1.);
#1262=VECTOR('',#1595,1.);
#1263=VECTOR('',#1596,1.);
#1264=VECTOR('',#1597,1.);
#1265=VECTOR('',#1598,1.);
#1266=VECTOR('',#1601,1.);
#1267=VECTOR('',#1602,1.);
#1268=VECTOR('',#1603,1.);
#1269=VECTOR('',#1606,1.);
#1270=VECTOR('',#1607,1.);
#1271=VECTOR('',#1608,1.);
#1272=VECTOR('',#1611,1.);
#1273=VECTOR('',#1612,1.);
#1274=VECTOR('',#1613,1.);
#1275=VECTOR('',#1616,1.);
#1276=VECTOR('',#1617,1.);
#1277=VECTOR('',#1620,1.);
#1278=VECTOR('',#1621,1.);
#1279=VECTOR('',#1624,1.);
#1280=VECTOR('',#1627,1.);
#1281=VECTOR('',#1628,1.);
#1282=VECTOR('',#1635,1.);
#1283=VECTOR('',#1636,1.);
#1284=VECTOR('',#1637,1.);
#1285=VECTOR('',#1638,1.);
#1286=VECTOR('',#1641,1.);
#1287=VECTOR('',#1642,1.);
#1288=VECTOR('',#1643,1.);
#1289=VECTOR('',#1646,1.);
#1290=VECTOR('',#1647,1.);
#1291=VECTOR('',#1648,1.);
#1292=VECTOR('',#1651,1.);
#1293=VECTOR('',#1652,1.);
#1294=VECTOR('',#1653,1.);
#1295=VECTOR('',#1656,1.);
#1296=VECTOR('',#1657,1.);
#1297=VECTOR('',#1660,1.);
#1298=VECTOR('',#1661,1.);
#1299=VECTOR('',#1664,1.);
#1300=VECTOR('',#1667,1.);
#1301=VECTOR('',#1668,1.);
#1302=VECTOR('',#1675,1.);
#1303=VECTOR('',#1676,1.);
#1304=VECTOR('',#1677,1.);
#1305=VECTOR('',#1678,1.);
#1306=VECTOR('',#1681,1.);
#1307=VECTOR('',#1682,1.);
#1308=VECTOR('',#1683,1.);
#1309=VECTOR('',#1686,1.);
#1310=VECTOR('',#1687,1.);
#1311=VECTOR('',#1688,1.);
#1312=VECTOR('',#1691,1.);
#1313=VECTOR('',#1692,1.);
#1314=VECTOR('',#1693,1.);
#1315=VECTOR('',#1696,1.);
#1316=VECTOR('',#1697,1.);
#1317=VECTOR('',#1700,1.);
#1318=VECTOR('',#1701,1.);
#1319=VECTOR('',#1704,1.);
#1320=VECTOR('',#1707,1.);
#1321=VECTOR('',#1708,1.);
#1322=VECTOR('',#1715,1.);
#1323=VECTOR('',#1716,1.);
#1324=VECTOR('',#1717,1.);
#1325=VECTOR('',#1718,1.);
#1326=VECTOR('',#1721,1.);
#1327=VECTOR('',#1722,1.);
#1328=VECTOR('',#1723,1.);
#1329=VECTOR('',#1726,1.);
#1330=VECTOR('',#1727,1.);
#1331=VECTOR('',#1728,1.);
#1332=VECTOR('',#1731,1.);
#1333=VECTOR('',#1732,1.);
#1334=VECTOR('',#1733,1.);
#1335=VECTOR('',#1736,1.);
#1336=VECTOR('',#1737,1.);
#1337=VECTOR('',#1740,1.);
#1338=VECTOR('',#1741,1.);
#1339=VECTOR('',#1744,1.);
#1340=VECTOR('',#1747,1.);
#1341=VECTOR('',#1748,1.);
#1342=VECTOR('',#1755,1.);
#1343=VECTOR('',#1756,1.);
#1344=VECTOR('',#1757,1.);
#1345=VECTOR('',#1758,1.);
#1346=VECTOR('',#1761,1.);
#1347=VECTOR('',#1762,1.);
#1348=VECTOR('',#1763,1.);
#1349=VECTOR('',#1766,1.);
#1350=VECTOR('',#1767,1.);
#1351=VECTOR('',#1768,1.);
#1352=VECTOR('',#1771,1.);
#1353=VECTOR('',#1772,1.);
#1354=VECTOR('',#1773,1.);
#1355=VECTOR('',#1776,1.);
#1356=VECTOR('',#1777,1.);
#1357=VECTOR('',#1780,1.);
#1358=VECTOR('',#1781,1.);
#1359=VECTOR('',#1784,1.);
#1360=VECTOR('',#1787,1.);
#1361=VECTOR('',#1788,1.);
#1362=AXIS2_PLACEMENT_3D('',#1795,#1453,#1454);
#1363=AXIS2_PLACEMENT_3D('',#1812,#1463,#1464);
#1364=AXIS2_PLACEMENT_3D('',#1814,#1465,#1466);
#1365=AXIS2_PLACEMENT_3D('',#1816,#1467,#1468);
#1366=AXIS2_PLACEMENT_3D('',#1818,#1469,#1470);
#1367=AXIS2_PLACEMENT_3D('',#1823,#1472,#1473);
#1368=AXIS2_PLACEMENT_3D('',#1827,#1475,#1476);
#1369=AXIS2_PLACEMENT_3D('',#1831,#1478,#1479);
#1370=AXIS2_PLACEMENT_3D('',#1835,#1481,#1482);
#1371=AXIS2_PLACEMENT_3D('',#1868,#1499,#1500);
#1372=AXIS2_PLACEMENT_3D('',#1874,#1504,#1505);
#1373=AXIS2_PLACEMENT_3D('',#1875,#1506,#1507);
#1374=AXIS2_PLACEMENT_3D('',#1878,#1509,#1510);
#1375=AXIS2_PLACEMENT_3D('',#1882,#1513,#1514);
#1376=AXIS2_PLACEMENT_3D('',#1883,#1515,#1516);
#1377=AXIS2_PLACEMENT_3D('',#1886,#1518,#1519);
#1378=AXIS2_PLACEMENT_3D('',#1890,#1522,#1523);
#1379=AXIS2_PLACEMENT_3D('',#1891,#1524,#1525);
#1380=AXIS2_PLACEMENT_3D('',#1894,#1527,#1528);
#1381=AXIS2_PLACEMENT_3D('',#1898,#1531,#1532);
#1382=AXIS2_PLACEMENT_3D('',#1899,#1533,#1534);
#1383=AXIS2_PLACEMENT_3D('',#1901,#1535,#1536);
#1384=AXIS2_PLACEMENT_3D('',#1902,#1537,#1538);
#1385=AXIS2_PLACEMENT_3D('',#1904,#1539,#1540);
#1386=AXIS2_PLACEMENT_3D('',#1905,#1541,#1542);
#1387=AXIS2_PLACEMENT_3D('',#1907,#1543,#1544);
#1388=AXIS2_PLACEMENT_3D('',#1908,#1545,#1546);
#1389=AXIS2_PLACEMENT_3D('',#1909,#1547,#1548);
#1390=AXIS2_PLACEMENT_3D('',#1910,#1549,#1550);
#1391=AXIS2_PLACEMENT_3D('',#1912,#1551,#1552);
#1392=AXIS2_PLACEMENT_3D('',#1913,#1553,#1554);
#1393=AXIS2_PLACEMENT_3D('',#1922,#1559,#1560);
#1394=AXIS2_PLACEMENT_3D('',#1928,#1564,#1565);
#1395=AXIS2_PLACEMENT_3D('',#1934,#1569,#1570);
#1396=AXIS2_PLACEMENT_3D('',#1940,#1574,#1575);
#1397=AXIS2_PLACEMENT_3D('',#1944,#1578,#1579);
#1398=AXIS2_PLACEMENT_3D('',#1948,#1582,#1583);
#1399=AXIS2_PLACEMENT_3D('',#1950,#1585,#1586);
#1400=AXIS2_PLACEMENT_3D('',#1953,#1589,#1590);
#1401=AXIS2_PLACEMENT_3D('',#1954,#1591,#1592);
#1402=AXIS2_PLACEMENT_3D('',#1955,#1593,#1594);
#1403=AXIS2_PLACEMENT_3D('',#1964,#1599,#1600);
#1404=AXIS2_PLACEMENT_3D('',#1970,#1604,#1605);
#1405=AXIS2_PLACEMENT_3D('',#1976,#1609,#1610);
#1406=AXIS2_PLACEMENT_3D('',#1982,#1614,#1615);
#1407=AXIS2_PLACEMENT_3D('',#1986,#1618,#1619);
#1408=AXIS2_PLACEMENT_3D('',#1990,#1622,#1623);
#1409=AXIS2_PLACEMENT_3D('',#1992,#1625,#1626);
#1410=AXIS2_PLACEMENT_3D('',#1995,#1629,#1630);
#1411=AXIS2_PLACEMENT_3D('',#1996,#1631,#1632);
#1412=AXIS2_PLACEMENT_3D('',#1997,#1633,#1634);
#1413=AXIS2_PLACEMENT_3D('',#2006,#1639,#1640);
#1414=AXIS2_PLACEMENT_3D('',#2012,#1644,#1645);
#1415=AXIS2_PLACEMENT_3D('',#2018,#1649,#1650);
#1416=AXIS2_PLACEMENT_3D('',#2024,#1654,#1655);
#1417=AXIS2_PLACEMENT_3D('',#2028,#1658,#1659);
#1418=AXIS2_PLACEMENT_3D('',#2032,#1662,#1663);
#1419=AXIS2_PLACEMENT_3D('',#2034,#1665,#1666);
#1420=AXIS2_PLACEMENT_3D('',#2037,#1669,#1670);
#1421=AXIS2_PLACEMENT_3D('',#2038,#1671,#1672);
#1422=AXIS2_PLACEMENT_3D('',#2039,#1673,#1674);
#1423=AXIS2_PLACEMENT_3D('',#2048,#1679,#1680);
#1424=AXIS2_PLACEMENT_3D('',#2054,#1684,#1685);
#1425=AXIS2_PLACEMENT_3D('',#2060,#1689,#1690);
#1426=AXIS2_PLACEMENT_3D('',#2066,#1694,#1695);
#1427=AXIS2_PLACEMENT_3D('',#2070,#1698,#1699);
#1428=AXIS2_PLACEMENT_3D('',#2074,#1702,#1703);
#1429=AXIS2_PLACEMENT_3D('',#2076,#1705,#1706);
#1430=AXIS2_PLACEMENT_3D('',#2079,#1709,#1710);
#1431=AXIS2_PLACEMENT_3D('',#2080,#1711,#1712);
#1432=AXIS2_PLACEMENT_3D('',#2081,#1713,#1714);
#1433=AXIS2_PLACEMENT_3D('',#2090,#1719,#1720);
#1434=AXIS2_PLACEMENT_3D('',#2096,#1724,#1725);
#1435=AXIS2_PLACEMENT_3D('',#2102,#1729,#1730);
#1436=AXIS2_PLACEMENT_3D('',#2108,#1734,#1735);
#1437=AXIS2_PLACEMENT_3D('',#2112,#1738,#1739);
#1438=AXIS2_PLACEMENT_3D('',#2116,#1742,#1743);
#1439=AXIS2_PLACEMENT_3D('',#2118,#1745,#1746);
#1440=AXIS2_PLACEMENT_3D('',#2121,#1749,#1750);
#1441=AXIS2_PLACEMENT_3D('',#2122,#1751,#1752);
#1442=AXIS2_PLACEMENT_3D('',#2123,#1753,#1754);
#1443=AXIS2_PLACEMENT_3D('',#2132,#1759,#1760);
#1444=AXIS2_PLACEMENT_3D('',#2138,#1764,#1765);
#1445=AXIS2_PLACEMENT_3D('',#2144,#1769,#1770);
#1446=AXIS2_PLACEMENT_3D('',#2150,#1774,#1775);
#1447=AXIS2_PLACEMENT_3D('',#2154,#1778,#1779);
#1448=AXIS2_PLACEMENT_3D('',#2158,#1782,#1783);
#1449=AXIS2_PLACEMENT_3D('',#2160,#1785,#1786);
#1450=AXIS2_PLACEMENT_3D('',#2163,#1789,#1790);
#1451=AXIS2_PLACEMENT_3D('',#2164,#1791,#1792);
#1452=AXIS2_PLACEMENT_3D('',#2165,#1793,#1794);
#1453=DIRECTION('',(0.,0.,1.));
#1454=DIRECTION('',(1.,0.,0.));
#1455=DIRECTION('',(1.,0.,0.));
#1456=DIRECTION('',(9.63735264431559E-17,-1.,0.));
#1457=DIRECTION('',(-1.,0.,0.));
#1458=DIRECTION('',(0.,1.,0.));
#1459=DIRECTION('',(1.,0.,0.));
#1460=DIRECTION('',(0.,-1.,0.));
#1461=DIRECTION('',(-1.,0.,0.));
#1462=DIRECTION('',(0.,1.,0.));
#1463=DIRECTION('',(0.,0.,1.));
#1464=DIRECTION('',(0.999999999999995,0.,0.));
#1465=DIRECTION('',(0.,0.,1.));
#1466=DIRECTION('',(0.999999999999995,0.,0.));
#1467=DIRECTION('',(0.,0.,1.));
#1468=DIRECTION('',(1.,0.,0.));
#1469=DIRECTION('',(0.,0.,1.));
#1470=DIRECTION('',(1.,0.,0.));
#1471=DIRECTION('',(0.,-1.,0.));
#1472=DIRECTION('',(0.,0.,1.));
#1473=DIRECTION('',(1.,0.,0.));
#1474=DIRECTION('',(1.,0.,0.));
#1475=DIRECTION('',(0.,0.,1.));
#1476=DIRECTION('',(1.,0.,0.));
#1477=DIRECTION('',(0.,1.,0.));
#1478=DIRECTION('',(0.,0.,1.));
#1479=DIRECTION('',(1.,0.,0.));
#1480=DIRECTION('',(-1.,0.,0.));
#1481=DIRECTION('',(0.,0.,1.));
#1482=DIRECTION('',(1.,0.,0.));
#1483=DIRECTION('',(0.,-1.,0.));
#1484=DIRECTION('',(-1.,0.,0.));
#1485=DIRECTION('',(0.,1.,0.));
#1486=DIRECTION('',(1.,0.,0.));
#1487=DIRECTION('',(1.,0.,0.));
#1488=DIRECTION('',(0.,-1.,0.));
#1489=DIRECTION('',(-1.,0.,0.));
#1490=DIRECTION('',(0.,1.,0.));
#1491=DIRECTION('',(1.,0.,0.));
#1492=DIRECTION('',(0.,-1.,0.));
#1493=DIRECTION('',(-1.,0.,0.));
#1494=DIRECTION('',(0.,1.,0.));
#1495=DIRECTION('',(1.,0.,0.));
#1496=DIRECTION('',(0.,-1.,0.));
#1497=DIRECTION('',(-1.,0.,0.));
#1498=DIRECTION('',(0.,1.,0.));
#1499=DIRECTION('',(0.,0.,1.));
#1500=DIRECTION('',(1.,0.,0.));
#1501=DIRECTION('',(0.,-1.,0.));
#1502=DIRECTION('',(0.,0.,-1.));
#1503=DIRECTION('',(0.,0.,-1.));
#1504=DIRECTION('',(1.,0.,0.));
#1505=DIRECTION('',(0.,0.,-1.));
#1506=DIRECTION('',(0.,0.,1.));
#1507=DIRECTION('',(1.,0.,0.));
#1508=DIRECTION('',(0.,0.,-1.));
#1509=DIRECTION('',(0.,0.,-1.));
#1510=DIRECTION('',(-1.,0.,0.));
#1511=DIRECTION('',(1.,0.,0.));
#1512=DIRECTION('',(0.,0.,-1.));
#1513=DIRECTION('',(0.,1.,0.));
#1514=DIRECTION('',(0.,0.,1.));
#1515=DIRECTION('',(0.,0.,1.));
#1516=DIRECTION('',(1.,0.,0.));
#1517=DIRECTION('',(0.,0.,-1.));
#1518=DIRECTION('',(0.,0.,-1.));
#1519=DIRECTION('',(-1.,0.,0.));
#1520=DIRECTION('',(0.,1.,0.));
#1521=DIRECTION('',(0.,0.,-1.));
#1522=DIRECTION('',(-1.,0.,0.));
#1523=DIRECTION('',(0.,0.,1.));
#1524=DIRECTION('',(0.,0.,1.));
#1525=DIRECTION('',(1.,0.,0.));
#1526=DIRECTION('',(0.,0.,-1.));
#1527=DIRECTION('',(0.,0.,-1.));
#1528=DIRECTION('',(-1.,0.,0.));
#1529=DIRECTION('',(-1.,0.,0.));
#1530=DIRECTION('',(0.,0.,-1.));
#1531=DIRECTION('',(0.,-1.,0.));
#1532=DIRECTION('',(0.,0.,-1.));
#1533=DIRECTION('',(0.,0.,1.));
#1534=DIRECTION('',(0.999999999999995,0.,0.));
#1535=DIRECTION('',(0.,0.,-1.));
#1536=DIRECTION('',(-0.999999999999995,0.,0.));
#1537=DIRECTION('',(0.,0.,1.));
#1538=DIRECTION('',(1.,0.,0.));
#1539=DIRECTION('',(0.,0.,-1.));
#1540=DIRECTION('',(-1.,0.,0.));
#1541=DIRECTION('',(0.,0.,1.));
#1542=DIRECTION('',(1.,0.,0.));
#1543=DIRECTION('',(0.,0.,-1.));
#1544=DIRECTION('',(-1.,0.,0.));
#1545=DIRECTION('',(0.,0.,1.));
#1546=DIRECTION('',(1.,0.,0.));
#1547=DIRECTION('',(0.,0.,-1.));
#1548=DIRECTION('',(-1.,0.,0.));
#1549=DIRECTION('',(0.,0.,1.));
#1550=DIRECTION('',(0.999999999999995,0.,0.));
#1551=DIRECTION('',(0.,0.,-1.));
#1552=DIRECTION('',(-0.999999999999995,0.,0.));
#1553=DIRECTION('',(0.,0.,1.));
#1554=DIRECTION('',(1.,0.,0.));
#1555=DIRECTION('',(0.,1.,0.));
#1556=DIRECTION('',(0.,0.,-1.));
#1557=DIRECTION('',(0.,1.,0.));
#1558=DIRECTION('',(0.,0.,-1.));
#1559=DIRECTION('',(-1.,0.,0.));
#1560=DIRECTION('',(0.,0.,1.));
#1561=DIRECTION('',(1.,0.,0.));
#1562=DIRECTION('',(0.,0.,-1.));
#1563=DIRECTION('',(1.,0.,0.));
#1564=DIRECTION('',(0.,1.,0.));
#1565=DIRECTION('',(0.,0.,1.));
#1566=DIRECTION('',(0.,-1.,0.));
#1567=DIRECTION('',(0.,0.,-1.));
#1568=DIRECTION('',(0.,-1.,0.));
#1569=DIRECTION('',(1.,0.,0.));
#1570=DIRECTION('',(0.,0.,-1.));
#1571=DIRECTION('',(0.,0.,-1.));
#1572=DIRECTION('',(0.,-1.,0.));
#1573=DIRECTION('',(0.,0.,-1.));
#1574=DIRECTION('',(1.,0.,0.));
#1575=DIRECTION('',(0.,0.,-1.));
#1576=DIRECTION('',(0.,0.,-1.));
#1577=DIRECTION('',(1.,0.,0.));
#1578=DIRECTION('',(0.,1.,0.));
#1579=DIRECTION('',(0.,0.,1.));
#1580=DIRECTION('',(0.,0.,-1.));
#1581=DIRECTION('',(0.,1.,0.));
#1582=DIRECTION('',(-1.,0.,0.));
#1583=DIRECTION('',(0.,0.,1.));
#1584=DIRECTION('',(-1.,0.,0.));
#1585=DIRECTION('',(0.,-1.,0.));
#1586=DIRECTION('',(0.,0.,-1.));
#1587=DIRECTION('',(-1.,0.,0.));
#1588=DIRECTION('',(-1.,0.,0.));
#1589=DIRECTION('',(0.,-1.,0.));
#1590=DIRECTION('',(0.,0.,-1.));
#1591=DIRECTION('',(0.,0.,1.));
#1592=DIRECTION('',(1.,0.,0.));
#1593=DIRECTION('',(0.,0.,1.));
#1594=DIRECTION('',(1.,0.,0.));
#1595=DIRECTION('',(0.,1.,0.));
#1596=DIRECTION('',(0.,0.,-1.));
#1597=DIRECTION('',(0.,1.,0.));
#1598=DIRECTION('',(0.,0.,-1.));
#1599=DIRECTION('',(-1.,0.,0.));
#1600=DIRECTION('',(0.,0.,1.));
#1601=DIRECTION('',(1.,0.,0.));
#1602=DIRECTION('',(0.,0.,-1.));
#1603=DIRECTION('',(1.,0.,0.));
#1604=DIRECTION('',(0.,1.,0.));
#1605=DIRECTION('',(0.,0.,1.));
#1606=DIRECTION('',(0.,-1.,0.));
#1607=DIRECTION('',(0.,0.,-1.));
#1608=DIRECTION('',(0.,-1.,0.));
#1609=DIRECTION('',(1.,0.,0.));
#1610=DIRECTION('',(0.,0.,-1.));
#1611=DIRECTION('',(0.,0.,-1.));
#1612=DIRECTION('',(0.,-1.,0.));
#1613=DIRECTION('',(0.,0.,-1.));
#1614=DIRECTION('',(1.,0.,0.));
#1615=DIRECTION('',(0.,0.,-1.));
#1616=DIRECTION('',(0.,0.,-1.));
#1617=DIRECTION('',(1.,0.,0.));
#1618=DIRECTION('',(0.,1.,0.));
#1619=DIRECTION('',(0.,0.,1.));
#1620=DIRECTION('',(0.,0.,-1.));
#1621=DIRECTION('',(0.,1.,0.));
#1622=DIRECTION('',(-1.,0.,0.));
#1623=DIRECTION('',(0.,0.,1.));
#1624=DIRECTION('',(-1.,0.,0.));
#1625=DIRECTION('',(0.,-1.,0.));
#1626=DIRECTION('',(0.,0.,-1.));
#1627=DIRECTION('',(-1.,0.,0.));
#1628=DIRECTION('',(-1.,0.,0.));
#1629=DIRECTION('',(0.,-1.,0.));
#1630=DIRECTION('',(0.,0.,-1.));
#1631=DIRECTION('',(0.,0.,1.));
#1632=DIRECTION('',(1.,0.,0.));
#1633=DIRECTION('',(0.,0.,1.));
#1634=DIRECTION('',(1.,0.,0.));
#1635=DIRECTION('',(0.,1.,0.));
#1636=DIRECTION('',(0.,0.,-1.));
#1637=DIRECTION('',(0.,1.,0.));
#1638=DIRECTION('',(0.,0.,-1.));
#1639=DIRECTION('',(-1.,0.,0.));
#1640=DIRECTION('',(0.,0.,1.));
#1641=DIRECTION('',(1.,0.,0.));
#1642=DIRECTION('',(0.,0.,-1.));
#1643=DIRECTION('',(1.,0.,0.));
#1644=DIRECTION('',(0.,1.,0.));
#1645=DIRECTION('',(0.,0.,1.));
#1646=DIRECTION('',(0.,-1.,0.));
#1647=DIRECTION('',(0.,0.,-1.));
#1648=DIRECTION('',(0.,-1.,0.));
#1649=DIRECTION('',(1.,0.,0.));
#1650=DIRECTION('',(0.,0.,-1.));
#1651=DIRECTION('',(0.,0.,-1.));
#1652=DIRECTION('',(0.,-1.,0.));
#1653=DIRECTION('',(0.,0.,-1.));
#1654=DIRECTION('',(1.,0.,0.));
#1655=DIRECTION('',(0.,0.,-1.));
#1656=DIRECTION('',(0.,0.,-1.));
#1657=DIRECTION('',(1.,0.,0.));
#1658=DIRECTION('',(0.,1.,0.));
#1659=DIRECTION('',(0.,0.,1.));
#1660=DIRECTION('',(0.,0.,-1.));
#1661=DIRECTION('',(0.,1.,0.));
#1662=DIRECTION('',(-1.,0.,0.));
#1663=DIRECTION('',(0.,0.,1.));
#1664=DIRECTION('',(-1.,0.,0.));
#1665=DIRECTION('',(0.,-1.,0.));
#1666=DIRECTION('',(0.,0.,-1.));
#1667=DIRECTION('',(-1.,0.,0.));
#1668=DIRECTION('',(-1.,0.,0.));
#1669=DIRECTION('',(0.,-1.,0.));
#1670=DIRECTION('',(0.,0.,-1.));
#1671=DIRECTION('',(0.,0.,1.));
#1672=DIRECTION('',(1.,0.,0.));
#1673=DIRECTION('',(0.,0.,1.));
#1674=DIRECTION('',(1.,0.,0.));
#1675=DIRECTION('',(0.,1.,0.));
#1676=DIRECTION('',(0.,0.,-1.));
#1677=DIRECTION('',(0.,1.,0.));
#1678=DIRECTION('',(0.,0.,-1.));
#1679=DIRECTION('',(-1.,0.,0.));
#1680=DIRECTION('',(0.,0.,1.));
#1681=DIRECTION('',(1.,0.,0.));
#1682=DIRECTION('',(0.,0.,-1.));
#1683=DIRECTION('',(1.,0.,0.));
#1684=DIRECTION('',(0.,1.,0.));
#1685=DIRECTION('',(0.,0.,1.));
#1686=DIRECTION('',(0.,-1.,0.));
#1687=DIRECTION('',(0.,0.,-1.));
#1688=DIRECTION('',(0.,-1.,0.));
#1689=DIRECTION('',(1.,0.,0.));
#1690=DIRECTION('',(0.,0.,-1.));
#1691=DIRECTION('',(0.,0.,-1.));
#1692=DIRECTION('',(0.,-1.,0.));
#1693=DIRECTION('',(0.,0.,-1.));
#1694=DIRECTION('',(1.,0.,0.));
#1695=DIRECTION('',(0.,0.,-1.));
#1696=DIRECTION('',(0.,0.,-1.));
#1697=DIRECTION('',(1.,0.,0.));
#1698=DIRECTION('',(0.,1.,0.));
#1699=DIRECTION('',(0.,0.,1.));
#1700=DIRECTION('',(0.,0.,-1.));
#1701=DIRECTION('',(0.,1.,0.));
#1702=DIRECTION('',(-1.,0.,0.));
#1703=DIRECTION('',(0.,0.,1.));
#1704=DIRECTION('',(-1.,0.,0.));
#1705=DIRECTION('',(0.,-1.,0.));
#1706=DIRECTION('',(0.,0.,-1.));
#1707=DIRECTION('',(-1.,0.,0.));
#1708=DIRECTION('',(-1.,0.,0.));
#1709=DIRECTION('',(0.,-1.,0.));
#1710=DIRECTION('',(0.,0.,-1.));
#1711=DIRECTION('',(0.,0.,1.));
#1712=DIRECTION('',(1.,0.,0.));
#1713=DIRECTION('',(0.,0.,1.));
#1714=DIRECTION('',(1.,0.,0.));
#1715=DIRECTION('',(1.020425574104E-16,1.,0.));
#1716=DIRECTION('',(0.,0.,-1.));
#1717=DIRECTION('',(1.020425574104E-16,1.,0.));
#1718=DIRECTION('',(0.,0.,-1.));
#1719=DIRECTION('',(-1.,1.020425574104E-16,0.));
#1720=DIRECTION('',(-1.00613961606655E-16,-1.,0.));
#1721=DIRECTION('',(1.,0.,0.));
#1722=DIRECTION('',(0.,0.,-1.));
#1723=DIRECTION('',(1.,0.,0.));
#1724=DIRECTION('',(0.,1.,0.));
#1725=DIRECTION('',(0.,0.,1.));
#1726=DIRECTION('',(0.,-1.,0.));
#1727=DIRECTION('',(0.,0.,-1.));
#1728=DIRECTION('',(0.,-1.,0.));
#1729=DIRECTION('',(1.,0.,0.));
#1730=DIRECTION('',(0.,0.,-1.));
#1731=DIRECTION('',(0.,0.,-1.));
#1732=DIRECTION('',(9.63735264431559E-17,-1.,0.));
#1733=DIRECTION('',(0.,0.,-1.));
#1734=DIRECTION('',(1.,9.63735264431559E-17,0.));
#1735=DIRECTION('',(-9.71445146547012E-17,1.,0.));
#1736=DIRECTION('',(0.,0.,-1.));
#1737=DIRECTION('',(1.,0.,0.));
#1738=DIRECTION('',(0.,1.,0.));
#1739=DIRECTION('',(0.,0.,1.));
#1740=DIRECTION('',(0.,0.,-1.));
#1741=DIRECTION('',(0.,1.,0.));
#1742=DIRECTION('',(-1.,0.,0.));
#1743=DIRECTION('',(0.,0.,1.));
#1744=DIRECTION('',(-1.,0.,0.));
#1745=DIRECTION('',(0.,-1.,0.));
#1746=DIRECTION('',(0.,0.,-1.));
#1747=DIRECTION('',(-1.,0.,0.));
#1748=DIRECTION('',(-1.,0.,0.));
#1749=DIRECTION('',(0.,-1.,0.));
#1750=DIRECTION('',(0.,0.,-1.));
#1751=DIRECTION('',(0.,0.,1.));
#1752=DIRECTION('',(1.,0.,0.));
#1753=DIRECTION('',(0.,0.,1.));
#1754=DIRECTION('',(1.,0.,0.));
#1755=DIRECTION('',(0.,1.,0.));
#1756=DIRECTION('',(0.,0.,-1.));
#1757=DIRECTION('',(0.,1.,0.));
#1758=DIRECTION('',(0.,0.,-1.));
#1759=DIRECTION('',(-1.,0.,0.));
#1760=DIRECTION('',(0.,0.,1.));
#1761=DIRECTION('',(1.,0.,0.));
#1762=DIRECTION('',(0.,0.,-1.));
#1763=DIRECTION('',(1.,0.,0.));
#1764=DIRECTION('',(0.,1.,0.));
#1765=DIRECTION('',(0.,0.,1.));
#1766=DIRECTION('',(0.,-1.,0.));
#1767=DIRECTION('',(0.,0.,-1.));
#1768=DIRECTION('',(0.,-1.,0.));
#1769=DIRECTION('',(1.,0.,0.));
#1770=DIRECTION('',(0.,0.,-1.));
#1771=DIRECTION('',(0.,0.,-1.));
#1772=DIRECTION('',(0.,-1.,0.));
#1773=DIRECTION('',(0.,0.,-1.));
#1774=DIRECTION('',(1.,0.,0.));
#1775=DIRECTION('',(0.,0.,-1.));
#1776=DIRECTION('',(0.,0.,-1.));
#1777=DIRECTION('',(1.,0.,0.));
#1778=DIRECTION('',(0.,1.,0.));
#1779=DIRECTION('',(0.,0.,1.));
#1780=DIRECTION('',(0.,0.,-1.));
#1781=DIRECTION('',(0.,1.,0.));
#1782=DIRECTION('',(-1.,0.,0.));
#1783=DIRECTION('',(0.,0.,1.));
#1784=DIRECTION('',(-1.,0.,0.));
#1785=DIRECTION('',(0.,-1.,0.));
#1786=DIRECTION('',(0.,0.,-1.));
#1787=DIRECTION('',(-1.,0.,0.));
#1788=DIRECTION('',(-1.,0.,0.));
#1789=DIRECTION('',(0.,-1.,0.));
#1790=DIRECTION('',(0.,0.,-1.));
#1791=DIRECTION('',(0.,0.,1.));
#1792=DIRECTION('',(1.,0.,0.));
#1793=DIRECTION('',(0.,0.,1.));
#1794=DIRECTION('',(1.,0.,0.));
#1795=CARTESIAN_POINT('',(0.,0.,0.));
#1796=CARTESIAN_POINT('',(19.,79.,2.));
#1797=CARTESIAN_POINT('',(19.,79.,2.));
#1798=CARTESIAN_POINT('',(85.,79.,2.));
#1799=CARTESIAN_POINT('',(19.,115.,2.));
#1800=CARTESIAN_POINT('',(19.,115.,2.));
#1801=CARTESIAN_POINT('',(85.,115.,2.));
#1802=CARTESIAN_POINT('',(85.,115.,2.));
#1803=CARTESIAN_POINT('',(85.,79.,2.));
#1804=CARTESIAN_POINT('',(99.,79.,2.));
#1805=CARTESIAN_POINT('',(99.,79.,2.));
#1806=CARTESIAN_POINT('',(105.,79.,2.));
#1807=CARTESIAN_POINT('',(99.,115.,2.));
#1808=CARTESIAN_POINT('',(99.,115.,2.));
#1809=CARTESIAN_POINT('',(105.,115.,2.));
#1810=CARTESIAN_POINT('',(105.,115.,2.));
#1811=CARTESIAN_POINT('',(105.,79.,2.));
#1812=CARTESIAN_POINT('',(163.,123.,2.));
#1813=CARTESIAN_POINT('',(165.1,123.,2.));
#1814=CARTESIAN_POINT('',(163.,17.,2.));
#1815=CARTESIAN_POINT('',(165.1,17.,2.));
#1816=CARTESIAN_POINT('',(7.,123.,2.));
#1817=CARTESIAN_POINT('',(9.1,123.,2.));
#1818=CARTESIAN_POINT('',(7.,17.,2.));
#1819=CARTESIAN_POINT('',(9.1,17.,2.));
#1820=CARTESIAN_POINT('',(0.,125.,2.));
#1821=CARTESIAN_POINT('',(0.,125.,2.));
#1822=CARTESIAN_POINT('',(0.,15.,2.));
#1823=CARTESIAN_POINT('',(5.,15.,2.));
#1824=CARTESIAN_POINT('',(4.99999999999999,10.,2.));
#1825=CARTESIAN_POINT('',(5.,10.,2.));
#1826=CARTESIAN_POINT('',(165.,10.,2.));
#1827=CARTESIAN_POINT('',(165.,15.,2.));
#1828=CARTESIAN_POINT('',(170.,15.,2.));
#1829=CARTESIAN_POINT('',(170.,15.,2.));
#1830=CARTESIAN_POINT('',(170.,125.,2.));
#1831=CARTESIAN_POINT('',(165.,125.,2.));
#1832=CARTESIAN_POINT('',(165.,130.,2.));
#1833=CARTESIAN_POINT('',(165.,130.,2.));
#1834=CARTESIAN_POINT('',(4.99999999999998,130.,2.));
#1835=CARTESIAN_POINT('',(5.,125.,2.));
#1836=CARTESIAN_POINT('',(149.,115.,2.));
#1837=CARTESIAN_POINT('',(149.,115.,2.));
#1838=CARTESIAN_POINT('',(149.,79.,2.));
#1839=CARTESIAN_POINT('',(155.,115.,2.));
#1840=CARTESIAN_POINT('',(155.,115.,2.));
#1841=CARTESIAN_POINT('',(155.,79.,2.));
#1842=CARTESIAN_POINT('',(155.,79.,2.));
#1843=CARTESIAN_POINT('',(149.,79.,2.));
#1844=CARTESIAN_POINT('',(124.,79.,2.));
#1845=CARTESIAN_POINT('',(124.,79.,2.));
#1846=CARTESIAN_POINT('',(130.,79.,2.));
#1847=CARTESIAN_POINT('',(124.,115.,2.));
#1848=CARTESIAN_POINT('',(124.,115.,2.));
#1849=CARTESIAN_POINT('',(130.,115.,2.));
#1850=CARTESIAN_POINT('',(130.,115.,2.));
#1851=CARTESIAN_POINT('',(130.,79.,2.));
#1852=CARTESIAN_POINT('',(99.,29.,2.));
#1853=CARTESIAN_POINT('',(99.,29.,2.));
#1854=CARTESIAN_POINT('',(155.,29.,2.));
#1855=CARTESIAN_POINT('',(99.,65.,2.));
#1856=CARTESIAN_POINT('',(99.,65.,2.));
#1857=CARTESIAN_POINT('',(155.,65.,2.));
#1858=CARTESIAN_POINT('',(155.,65.,2.));
#1859=CARTESIAN_POINT('',(155.,29.,2.));
#1860=CARTESIAN_POINT('',(19.,29.,2.));
#1861=CARTESIAN_POINT('',(19.,29.,2.));
#1862=CARTESIAN_POINT('',(65.,29.,2.));
#1863=CARTESIAN_POINT('',(19.,55.,2.));
#1864=CARTESIAN_POINT('',(19.,55.,2.));
#1865=CARTESIAN_POINT('',(65.,55.,2.));
#1866=CARTESIAN_POINT('',(65.,55.,2.));
#1867=CARTESIAN_POINT('',(65.,29.,2.));
#1868=CARTESIAN_POINT('',(5.,15.,2.));
#1869=CARTESIAN_POINT('',(0.,125.,0.));
#1870=CARTESIAN_POINT('',(0.,125.,0.));
#1871=CARTESIAN_POINT('',(0.,15.,0.));
#1872=CARTESIAN_POINT('',(0.,15.,2.));
#1873=CARTESIAN_POINT('',(0.,125.,2.));
#1874=CARTESIAN_POINT('',(0.,125.,2.));
#1875=CARTESIAN_POINT('',(5.,15.,0.));
#1876=CARTESIAN_POINT('',(4.99999999999999,10.,0.));
#1877=CARTESIAN_POINT('',(4.99999999999999,10.,2.));
#1878=CARTESIAN_POINT('',(5.,15.,2.));
#1879=CARTESIAN_POINT('',(5.,10.,0.));
#1880=CARTESIAN_POINT('',(165.,10.,0.));
#1881=CARTESIAN_POINT('',(165.,10.,2.));
#1882=CARTESIAN_POINT('',(5.,10.,2.));
#1883=CARTESIAN_POINT('',(165.,15.,0.));
#1884=CARTESIAN_POINT('',(170.,15.,0.));
#1885=CARTESIAN_POINT('',(170.,15.,2.));
#1886=CARTESIAN_POINT('',(165.,15.,2.));
#1887=CARTESIAN_POINT('',(170.,15.,0.));
#1888=CARTESIAN_POINT('',(170.,125.,0.));
#1889=CARTESIAN_POINT('',(170.,125.,2.));
#1890=CARTESIAN_POINT('',(170.,15.,2.));
#1891=CARTESIAN_POINT('',(165.,125.,0.));
#1892=CARTESIAN_POINT('',(165.,130.,0.));
#1893=CARTESIAN_POINT('',(165.,130.,2.));
#1894=CARTESIAN_POINT('',(165.,125.,2.));
#1895=CARTESIAN_POINT('',(165.,130.,0.));
#1896=CARTESIAN_POINT('',(4.99999999999998,130.,0.));
#1897=CARTESIAN_POINT('',(4.99999999999998,130.,2.));
#1898=CARTESIAN_POINT('',(165.,130.,2.));
#1899=CARTESIAN_POINT('',(163.,17.,0.));
#1900=CARTESIAN_POINT('',(165.1,17.,0.));
#1901=CARTESIAN_POINT('',(163.,17.,2.));
#1902=CARTESIAN_POINT('',(7.,123.,0.));
#1903=CARTESIAN_POINT('',(9.1,123.,0.));
#1904=CARTESIAN_POINT('',(7.,123.,2.));
#1905=CARTESIAN_POINT('',(7.,17.,0.));
#1906=CARTESIAN_POINT('',(9.1,17.,0.));
#1907=CARTESIAN_POINT('',(7.,17.,2.));
#1908=CARTESIAN_POINT('',(5.,125.,0.));
#1909=CARTESIAN_POINT('',(5.,125.,2.));
#1910=CARTESIAN_POINT('',(163.,123.,0.));
#1911=CARTESIAN_POINT('',(165.1,123.,0.));
#1912=CARTESIAN_POINT('',(163.,123.,2.));
#1913=CARTESIAN_POINT('',(5.,15.,0.));
#1914=CARTESIAN_POINT('',(150.,80.,2.));
#1915=CARTESIAN_POINT('',(150.,80.,2.));
#1916=CARTESIAN_POINT('',(150.,114.,2.));
#1917=CARTESIAN_POINT('',(150.,114.,4.));
#1918=CARTESIAN_POINT('',(150.,114.,4.));
#1919=CARTESIAN_POINT('',(150.,80.,4.));
#1920=CARTESIAN_POINT('',(150.,80.,4.));
#1921=CARTESIAN_POINT('',(150.,80.,4.));
#1922=CARTESIAN_POINT('',(150.,80.,4.));
#1923=CARTESIAN_POINT('',(150.,114.,2.));
#1924=CARTESIAN_POINT('',(154.,114.,2.));
#1925=CARTESIAN_POINT('',(154.,114.,4.));
#1926=CARTESIAN_POINT('',(154.,114.,4.));
#1927=CARTESIAN_POINT('',(150.,114.,4.));
#1928=CARTESIAN_POINT('',(150.,114.,4.));
#1929=CARTESIAN_POINT('',(154.,114.,2.));
#1930=CARTESIAN_POINT('',(154.,80.,2.));
#1931=CARTESIAN_POINT('',(154.,80.,4.));
#1932=CARTESIAN_POINT('',(154.,80.,4.));
#1933=CARTESIAN_POINT('',(154.,114.,4.));
#1934=CARTESIAN_POINT('',(154.,114.,4.));
#1935=CARTESIAN_POINT('',(149.,79.,4.));
#1936=CARTESIAN_POINT('',(149.,79.,4.));
#1937=CARTESIAN_POINT('',(149.,115.,4.));
#1938=CARTESIAN_POINT('',(149.,115.,4.));
#1939=CARTESIAN_POINT('',(149.,115.,4.));
#1940=CARTESIAN_POINT('',(149.,115.,4.));
#1941=CARTESIAN_POINT('',(155.,79.,4.));
#1942=CARTESIAN_POINT('',(155.,79.,4.));
#1943=CARTESIAN_POINT('',(149.,79.,4.));
#1944=CARTESIAN_POINT('',(149.,79.,4.));
#1945=CARTESIAN_POINT('',(155.,115.,4.));
#1946=CARTESIAN_POINT('',(155.,115.,4.));
#1947=CARTESIAN_POINT('',(155.,79.,4.));
#1948=CARTESIAN_POINT('',(155.,79.,4.));
#1949=CARTESIAN_POINT('',(155.,115.,4.));
#1950=CARTESIAN_POINT('',(155.,115.,4.));
#1951=CARTESIAN_POINT('',(154.,80.,2.));
#1952=CARTESIAN_POINT('',(154.,80.,4.));
#1953=CARTESIAN_POINT('',(154.,80.,4.));
#1954=CARTESIAN_POINT('',(0.,0.,4.));
#1955=CARTESIAN_POINT('',(5.,15.,2.));
#1956=CARTESIAN_POINT('',(125.,80.,2.));
#1957=CARTESIAN_POINT('',(125.,80.,2.));
#1958=CARTESIAN_POINT('',(125.,114.,2.));
#1959=CARTESIAN_POINT('',(125.,114.,4.));
#1960=CARTESIAN_POINT('',(125.,114.,4.));
#1961=CARTESIAN_POINT('',(125.,80.,4.));
#1962=CARTESIAN_POINT('',(125.,80.,4.));
#1963=CARTESIAN_POINT('',(125.,80.,4.));
#1964=CARTESIAN_POINT('',(125.,80.,4.));
#1965=CARTESIAN_POINT('',(125.,114.,2.));
#1966=CARTESIAN_POINT('',(129.,114.,2.));
#1967=CARTESIAN_POINT('',(129.,114.,4.));
#1968=CARTESIAN_POINT('',(129.,114.,4.));
#1969=CARTESIAN_POINT('',(125.,114.,4.));
#1970=CARTESIAN_POINT('',(125.,114.,4.));
#1971=CARTESIAN_POINT('',(129.,114.,2.));
#1972=CARTESIAN_POINT('',(129.,80.,2.));
#1973=CARTESIAN_POINT('',(129.,80.,4.));
#1974=CARTESIAN_POINT('',(129.,80.,4.));
#1975=CARTESIAN_POINT('',(129.,114.,4.));
#1976=CARTESIAN_POINT('',(129.,114.,4.));
#1977=CARTESIAN_POINT('',(124.,79.,4.));
#1978=CARTESIAN_POINT('',(124.,79.,4.));
#1979=CARTESIAN_POINT('',(124.,115.,4.));
#1980=CARTESIAN_POINT('',(124.,115.,4.));
#1981=CARTESIAN_POINT('',(124.,115.,4.));
#1982=CARTESIAN_POINT('',(124.,115.,4.));
#1983=CARTESIAN_POINT('',(130.,79.,4.));
#1984=CARTESIAN_POINT('',(130.,79.,4.));
#1985=CARTESIAN_POINT('',(124.,79.,4.));
#1986=CARTESIAN_POINT('',(124.,79.,4.));
#1987=CARTESIAN_POINT('',(130.,115.,4.));
#1988=CARTESIAN_POINT('',(130.,115.,4.));
#1989=CARTESIAN_POINT('',(130.,79.,4.));
#1990=CARTESIAN_POINT('',(130.,79.,4.));
#1991=CARTESIAN_POINT('',(130.,115.,4.));
#1992=CARTESIAN_POINT('',(130.,115.,4.));
#1993=CARTESIAN_POINT('',(129.,80.,2.));
#1994=CARTESIAN_POINT('',(129.,80.,4.));
#1995=CARTESIAN_POINT('',(129.,80.,4.));
#1996=CARTESIAN_POINT('',(0.,0.,4.));
#1997=CARTESIAN_POINT('',(5.,15.,2.));
#1998=CARTESIAN_POINT('',(100.,80.,2.));
#1999=CARTESIAN_POINT('',(100.,80.,2.));
#2000=CARTESIAN_POINT('',(100.,114.,2.));
#2001=CARTESIAN_POINT('',(100.,114.,4.));
#2002=CARTESIAN_POINT('',(100.,114.,4.));
#2003=CARTESIAN_POINT('',(100.,80.,4.));
#2004=CARTESIAN_POINT('',(100.,80.,4.));
#2005=CARTESIAN_POINT('',(100.,80.,4.));
#2006=CARTESIAN_POINT('',(100.,80.,4.));
#2007=CARTESIAN_POINT('',(100.,114.,2.));
#2008=CARTESIAN_POINT('',(104.,114.,2.));
#2009=CARTESIAN_POINT('',(104.,114.,4.));
#2010=CARTESIAN_POINT('',(104.,114.,4.));
#2011=CARTESIAN_POINT('',(100.,114.,4.));
#2012=CARTESIAN_POINT('',(100.,114.,4.));
#2013=CARTESIAN_POINT('',(104.,114.,2.));
#2014=CARTESIAN_POINT('',(104.,80.,2.));
#2015=CARTESIAN_POINT('',(104.,80.,4.));
#2016=CARTESIAN_POINT('',(104.,80.,4.));
#2017=CARTESIAN_POINT('',(104.,114.,4.));
#2018=CARTESIAN_POINT('',(104.,114.,4.));
#2019=CARTESIAN_POINT('',(99.,79.,4.));
#2020=CARTESIAN_POINT('',(99.,79.,4.));
#2021=CARTESIAN_POINT('',(99.,115.,4.));
#2022=CARTESIAN_POINT('',(99.,115.,4.));
#2023=CARTESIAN_POINT('',(99.,115.,4.));
#2024=CARTESIAN_POINT('',(99.,115.,4.));
#2025=CARTESIAN_POINT('',(105.,79.,4.));
#2026=CARTESIAN_POINT('',(105.,79.,4.));
#2027=CARTESIAN_POINT('',(99.,79.,4.));
#2028=CARTESIAN_POINT('',(99.,79.,4.));
#2029=CARTESIAN_POINT('',(105.,115.,4.));
#2030=CARTESIAN_POINT('',(105.,115.,4.));
#2031=CARTESIAN_POINT('',(105.,79.,4.));
#2032=CARTESIAN_POINT('',(105.,79.,4.));
#2033=CARTESIAN_POINT('',(105.,115.,4.));
#2034=CARTESIAN_POINT('',(105.,115.,4.));
#2035=CARTESIAN_POINT('',(104.,80.,2.));
#2036=CARTESIAN_POINT('',(104.,80.,4.));
#2037=CARTESIAN_POINT('',(104.,80.,4.));
#2038=CARTESIAN_POINT('',(0.,0.,4.));
#2039=CARTESIAN_POINT('',(5.,15.,2.));
#2040=CARTESIAN_POINT('',(100.,30.,2.));
#2041=CARTESIAN_POINT('',(100.,30.,2.));
#2042=CARTESIAN_POINT('',(100.,64.,2.));
#2043=CARTESIAN_POINT('',(100.,64.,4.));
#2044=CARTESIAN_POINT('',(100.,64.,4.));
#2045=CARTESIAN_POINT('',(100.,30.,4.));
#2046=CARTESIAN_POINT('',(100.,30.,4.));
#2047=CARTESIAN_POINT('',(100.,30.,4.));
#2048=CARTESIAN_POINT('',(100.,30.,4.));
#2049=CARTESIAN_POINT('',(100.,64.,2.));
#2050=CARTESIAN_POINT('',(154.,64.,2.));
#2051=CARTESIAN_POINT('',(154.,64.,4.));
#2052=CARTESIAN_POINT('',(154.,64.,4.));
#2053=CARTESIAN_POINT('',(100.,64.,4.));
#2054=CARTESIAN_POINT('',(100.,64.,4.));
#2055=CARTESIAN_POINT('',(154.,64.,2.));
#2056=CARTESIAN_POINT('',(154.,30.,2.));
#2057=CARTESIAN_POINT('',(154.,30.,4.));
#2058=CARTESIAN_POINT('',(154.,30.,4.));
#2059=CARTESIAN_POINT('',(154.,64.,4.));
#2060=CARTESIAN_POINT('',(154.,64.,4.));
#2061=CARTESIAN_POINT('',(99.,29.,4.));
#2062=CARTESIAN_POINT('',(99.,29.,4.));
#2063=CARTESIAN_POINT('',(99.,65.,4.));
#2064=CARTESIAN_POINT('',(99.,65.,4.));
#2065=CARTESIAN_POINT('',(99.,65.,4.));
#2066=CARTESIAN_POINT('',(99.,65.,4.));
#2067=CARTESIAN_POINT('',(155.,29.,4.));
#2068=CARTESIAN_POINT('',(155.,29.,4.));
#2069=CARTESIAN_POINT('',(99.,29.,4.));
#2070=CARTESIAN_POINT('',(99.,29.,4.));
#2071=CARTESIAN_POINT('',(155.,65.,4.));
#2072=CARTESIAN_POINT('',(155.,65.,4.));
#2073=CARTESIAN_POINT('',(155.,29.,4.));
#2074=CARTESIAN_POINT('',(155.,29.,4.));
#2075=CARTESIAN_POINT('',(155.,65.,4.));
#2076=CARTESIAN_POINT('',(155.,65.,4.));
#2077=CARTESIAN_POINT('',(154.,30.,2.));
#2078=CARTESIAN_POINT('',(154.,30.,4.));
#2079=CARTESIAN_POINT('',(154.,30.,4.));
#2080=CARTESIAN_POINT('',(0.,0.,4.));
#2081=CARTESIAN_POINT('',(5.,15.,2.));
#2082=CARTESIAN_POINT('',(20.,80.,2.));
#2083=CARTESIAN_POINT('',(20.,80.,2.));
#2084=CARTESIAN_POINT('',(20.,114.,2.));
#2085=CARTESIAN_POINT('',(20.,114.,4.));
#2086=CARTESIAN_POINT('',(20.,114.,4.));
#2087=CARTESIAN_POINT('',(20.,80.,4.));
#2088=CARTESIAN_POINT('',(20.,80.,4.));
#2089=CARTESIAN_POINT('',(20.,80.,4.));
#2090=CARTESIAN_POINT('',(20.,80.,4.));
#2091=CARTESIAN_POINT('',(20.,114.,2.));
#2092=CARTESIAN_POINT('',(84.,114.,2.));
#2093=CARTESIAN_POINT('',(84.,114.,4.));
#2094=CARTESIAN_POINT('',(84.,114.,4.));
#2095=CARTESIAN_POINT('',(20.,114.,4.));
#2096=CARTESIAN_POINT('',(20.,114.,4.));
#2097=CARTESIAN_POINT('',(84.,114.,2.));
#2098=CARTESIAN_POINT('',(84.,80.,2.));
#2099=CARTESIAN_POINT('',(84.,80.,4.));
#2100=CARTESIAN_POINT('',(84.,80.,4.));
#2101=CARTESIAN_POINT('',(84.,114.,4.));
#2102=CARTESIAN_POINT('',(84.,114.,4.));
#2103=CARTESIAN_POINT('',(19.,79.,4.));
#2104=CARTESIAN_POINT('',(19.,79.,4.));
#2105=CARTESIAN_POINT('',(19.,115.,4.));
#2106=CARTESIAN_POINT('',(19.,115.,4.));
#2107=CARTESIAN_POINT('',(19.,115.,4.));
#2108=CARTESIAN_POINT('',(19.,115.,4.));
#2109=CARTESIAN_POINT('',(85.,79.,4.));
#2110=CARTESIAN_POINT('',(85.,79.,4.));
#2111=CARTESIAN_POINT('',(19.,79.,4.));
#2112=CARTESIAN_POINT('',(19.,79.,4.));
#2113=CARTESIAN_POINT('',(85.,115.,4.));
#2114=CARTESIAN_POINT('',(85.,115.,4.));
#2115=CARTESIAN_POINT('',(85.,79.,4.));
#2116=CARTESIAN_POINT('',(85.,79.,4.));
#2117=CARTESIAN_POINT('',(85.,115.,4.));
#2118=CARTESIAN_POINT('',(85.,115.,4.));
#2119=CARTESIAN_POINT('',(84.,80.,2.));
#2120=CARTESIAN_POINT('',(84.,80.,4.));
#2121=CARTESIAN_POINT('',(84.,80.,4.));
#2122=CARTESIAN_POINT('',(0.,0.,4.));
#2123=CARTESIAN_POINT('',(5.,15.,2.));
#2124=CARTESIAN_POINT('',(20.,30.,2.));
#2125=CARTESIAN_POINT('',(20.,30.,2.));
#2126=CARTESIAN_POINT('',(20.,54.,2.));
#2127=CARTESIAN_POINT('',(20.,54.,4.));
#2128=CARTESIAN_POINT('',(20.,54.,4.));
#2129=CARTESIAN_POINT('',(20.,30.,4.));
#2130=CARTESIAN_POINT('',(20.,30.,4.));
#2131=CARTESIAN_POINT('',(20.,30.,4.));
#2132=CARTESIAN_POINT('',(20.,30.,4.));
#2133=CARTESIAN_POINT('',(20.,54.,2.));
#2134=CARTESIAN_POINT('',(64.,54.,2.));
#2135=CARTESIAN_POINT('',(64.,54.,4.));
#2136=CARTESIAN_POINT('',(64.,54.,4.));
#2137=CARTESIAN_POINT('',(20.,54.,4.));
#2138=CARTESIAN_POINT('',(20.,54.,4.));
#2139=CARTESIAN_POINT('',(64.,54.,2.));
#2140=CARTESIAN_POINT('',(64.,30.,2.));
#2141=CARTESIAN_POINT('',(64.,30.,4.));
#2142=CARTESIAN_POINT('',(64.,30.,4.));
#2143=CARTESIAN_POINT('',(64.,54.,4.));
#2144=CARTESIAN_POINT('',(64.,54.,4.));
#2145=CARTESIAN_POINT('',(19.,29.,4.));
#2146=CARTESIAN_POINT('',(19.,29.,4.));
#2147=CARTESIAN_POINT('',(19.,55.,4.));
#2148=CARTESIAN_POINT('',(19.,55.,4.));
#2149=CARTESIAN_POINT('',(19.,55.,4.));
#2150=CARTESIAN_POINT('',(19.,55.,4.));
#2151=CARTESIAN_POINT('',(65.,29.,4.));
#2152=CARTESIAN_POINT('',(65.,29.,4.));
#2153=CARTESIAN_POINT('',(19.,29.,4.));
#2154=CARTESIAN_POINT('',(19.,29.,4.));
#2155=CARTESIAN_POINT('',(65.,55.,4.));
#2156=CARTESIAN_POINT('',(65.,55.,4.));
#2157=CARTESIAN_POINT('',(65.,29.,4.));
#2158=CARTESIAN_POINT('',(65.,29.,4.));
#2159=CARTESIAN_POINT('',(65.,55.,4.));
#2160=CARTESIAN_POINT('',(65.,55.,4.));
#2161=CARTESIAN_POINT('',(64.,30.,2.));
#2162=CARTESIAN_POINT('',(64.,30.,4.));
#2163=CARTESIAN_POINT('',(64.,30.,4.));
#2164=CARTESIAN_POINT('',(0.,0.,4.));
#2165=CARTESIAN_POINT('',(5.,15.,2.));
#2166=MECHANICAL_DESIGN_GEOMETRIC_PRESENTATION_REPRESENTATION('',(#24),
#2167);
#2167=(
GEOMETRIC_REPRESENTATION_CONTEXT(3)
GLOBAL_UNCERTAINTY_ASSIGNED_CONTEXT((#2168))
GLOBAL_UNIT_ASSIGNED_CONTEXT((#2174,#2170,#2169))
REPRESENTATION_CONTEXT('pcb','TOP_LEVEL_ASSEMBLY_PART')
);
#2168=UNCERTAINTY_MEASURE_WITH_UNIT(LENGTH_MEASURE(2.E-5),#2174,
'DISTANCE_ACCURACY_VALUE','Maximum Tolerance applied to model');
#2169=(
NAMED_UNIT(*)
SI_UNIT($,.STERADIAN.)
SOLID_ANGLE_UNIT()
);
#2170=(
CONVERSION_BASED_UNIT('DEGREE',#2172)
NAMED_UNIT(#2171)
PLANE_ANGLE_UNIT()
);
#2171=DIMENSIONAL_EXPONENTS(0.,0.,0.,0.,0.,0.,0.);
#2172=PLANE_ANGLE_MEASURE_WITH_UNIT(PLANE_ANGLE_MEASURE(0.0174532925),#2173);
#2173=(
NAMED_UNIT(*)
PLANE_ANGLE_UNIT()
SI_UNIT($,.RADIAN.)
);
#2174=(
LENGTH_UNIT()
NAMED_UNIT(*)
SI_UNIT(.MILLI.,.METRE.)
);
ENDSEC;
END-ISO-10303-21;
