<svg width="100%" viewBox="0 0 680 704" role="img" xmlns="http://www.w3.org/2000/svg">
<title>Information tab redesign B — Identity and Materials expanded</title>
<desc>Navy DPP panel, scrollable body with Identity and Materials categories expanded showing Bosch MS 50.4 data, scrollbar at right, fade hints, grabber bar below.</desc>
<defs>
<linearGradient id="fadeTop" x1="0" y1="0" x2="0" y2="1">
<stop offset="0" stop-color="#0a1f44" stop-opacity="1"/><stop offset="1" stop-color="#0a1f44" stop-opacity="0"/>
</linearGradient>
<linearGradient id="fadeBot" x1="0" y1="0" x2="0" y2="1">
<stop offset="0" stop-color="#0a1f44" stop-opacity="0"/><stop offset="1" stop-color="#0a1f44" stop-opacity="1"/>
</linearGradient>
<clipPath id="clip2"><rect x="44" y="106" width="592" height="538" rx="8"/></clipPath>
</defs>
<rect x="20" y="20" width="640" height="640" rx="22" fill="#0a1f44"/>
<circle cx="62" cy="64" r="20" fill="#13366b" stroke="#2e5aa0" stroke-width="1.5"/>
<g transform="translate(62,64)" fill="none" stroke="#ffffff" stroke-width="2" stroke-linecap="round" stroke-linejoin="round">
<path d="M-7 1 L0 -6 L7 1"/><path d="M-5 0 L-5 7 L5 7 L5 0"/>
</g>
<rect x="150" y="46" width="180" height="38" rx="19" fill="#0d2a57" stroke="#2e5aa0" stroke-width="1.5"/>
<text x="240" y="70" font-family="-apple-system,'SF Pro Display','SF Pro Text',Helvetica,Arial,sans-serif" font-size="15" font-weight="bold" fill="#ffffff" text-anchor="middle">Informations</text>
<rect x="342" y="46" width="180" height="38" rx="19" fill="#324a6d"/>
<text x="432" y="70" font-family="-apple-system,'SF Pro Display','SF Pro Text',Helvetica,Arial,sans-serif" font-size="15" fill="#c2cee0" text-anchor="middle">Disassembly</text>
<line x1="44" y1="96" x2="636" y2="96" stroke="#1a335f" stroke-width="1"/>

<g clip-path="url(#clip2)">
<rect x="50" y="124" width="568" height="216" rx="13" fill="#0e2950" stroke="#21407a" stroke-width="1"/>
<g transform="translate(74,147)" fill="none" stroke="#7fd3b6" stroke-width="2" stroke-linecap="round" stroke-linejoin="round">
<circle cx="0" cy="-4" r="4"/><path d="M-6 9 a6 7 0 0 1 12 0"/></g>
<text x="96" y="152" font-family="-apple-system,'SF Pro Display','SF Pro Text',Helvetica,Arial,sans-serif" font-size="15.5" font-weight="bold" fill="#ffffff">Identity &amp; manufacturer</text>
<polyline points="592,151 600,143 608,151" fill="none" stroke="#9fb3d1" stroke-width="2" stroke-linecap="round" stroke-linejoin="round"/>
<line x1="74" y1="170" x2="594" y2="170" stroke="#21407a" stroke-width="1"/>
<text x="74" y="194" font-family="-apple-system,'SF Pro Display','SF Pro Text',Helvetica,Arial,sans-serif" font-size="13" fill="#8ba3c4">Manufacturer</text>
<text x="594" y="194" font-family="-apple-system,'SF Pro Display','SF Pro Text',Helvetica,Arial,sans-serif" font-size="13.5" fill="#ffffff" text-anchor="end">Bosch Motorsport</text>
<text x="74" y="220" font-family="-apple-system,'SF Pro Display','SF Pro Text',Helvetica,Arial,sans-serif" font-size="13" fill="#8ba3c4">Model</text>
<text x="594" y="220" font-family="-apple-system,'SF Pro Display','SF Pro Text',Helvetica,Arial,sans-serif" font-size="13.5" fill="#ffffff" text-anchor="end">Vehicle Control Unit MS 50.4</text>
<text x="74" y="246" font-family="-apple-system,'SF Pro Display','SF Pro Text',Helvetica,Arial,sans-serif" font-size="13" fill="#8ba3c4">Type number</text>
<text x="594" y="246" font-family="-apple-system,'SF Pro Display','SF Pro Text',Helvetica,Arial,sans-serif" font-size="13.5" fill="#ffffff" text-anchor="end">F02U.V02.965-02</text>
<text x="74" y="272" font-family="-apple-system,'SF Pro Display','SF Pro Text',Helvetica,Arial,sans-serif" font-size="13" fill="#8ba3c4">Production</text>
<text x="594" y="272" font-family="-apple-system,'SF Pro Display','SF Pro Text',Helvetica,Arial,sans-serif" font-size="13.5" fill="#ffffff" text-anchor="end">2026-03 · DE</text>
<text x="74" y="298" font-family="-apple-system,'SF Pro Display','SF Pro Text',Helvetica,Arial,sans-serif" font-size="13" fill="#8ba3c4">Specifications</text>
<text x="594" y="298" font-family="-apple-system,'SF Pro Display','SF Pro Text',Helvetica,Arial,sans-serif" font-size="13.5" fill="#ffffff" text-anchor="end">166×121×41 mm · 660 g · IP67</text>
<text x="74" y="324" font-family="-apple-system,'SF Pro Display','SF Pro Text',Helvetica,Arial,sans-serif" font-size="13" fill="#8ba3c4">Service life (design)</text>
<text x="594" y="324" font-family="-apple-system,'SF Pro Display','SF Pro Text',Helvetica,Arial,sans-serif" font-size="13.5" fill="#ffffff" text-anchor="end">15 y · 225,000 km</text>

<rect x="50" y="350" width="568" height="214" rx="13" fill="#0e2950" stroke="#21407a" stroke-width="1"/>
<g transform="translate(74,373)" fill="none" stroke="#7fd3b6" stroke-width="2" stroke-linecap="round" stroke-linejoin="round">
<path d="M-5 -5 L5 -5 L5 5 L-5 5 Z"/><path d="M-2 -1 L2 -1 M-2 2 L2 2"/></g>
<text x="96" y="378" font-family="-apple-system,'SF Pro Display','SF Pro Text',Helvetica,Arial,sans-serif" font-size="15.5" font-weight="bold" fill="#ffffff">Materials &amp; substances</text>
<polyline points="592,377 600,369 608,377" fill="none" stroke="#9fb3d1" stroke-width="2" stroke-linecap="round" stroke-linejoin="round"/>
<line x1="74" y1="396" x2="594" y2="396" stroke="#21407a" stroke-width="1"/>
<text x="74" y="420" font-family="-apple-system,'SF Pro Display','SF Pro Text',Helvetica,Arial,sans-serif" font-size="13" fill="#8ba3c4">Housing</text>
<text x="594" y="420" font-family="-apple-system,'SF Pro Display','SF Pro Text',Helvetica,Arial,sans-serif" font-size="13.5" fill="#ffffff" text-anchor="end">Die-cast aluminium (AlSi) · 363 g</text>
<text x="74" y="446" font-family="-apple-system,'SF Pro Display','SF Pro Text',Helvetica,Arial,sans-serif" font-size="13" fill="#8ba3c4">Connectors</text>
<text x="594" y="446" font-family="-apple-system,'SF Pro Display','SF Pro Text',Helvetica,Arial,sans-serif" font-size="13.5" fill="#ffffff" text-anchor="end">Brass + Au/Ni plating · 58 g</text>
<text x="74" y="472" font-family="-apple-system,'SF Pro Display','SF Pro Text',Helvetica,Arial,sans-serif" font-size="13" fill="#8ba3c4">PCB assembly</text>
<text x="594" y="472" font-family="-apple-system,'SF Pro Display','SF Pro Text',Helvetica,Arial,sans-serif" font-size="13.5" fill="#ffffff" text-anchor="end">FR-4 · Cu · ≈185 g</text>
<text x="74" y="498" font-family="-apple-system,'SF Pro Display','SF Pro Text',Helvetica,Arial,sans-serif" font-size="13" fill="#8ba3c4">Active components</text>
<text x="594" y="498" font-family="-apple-system,'SF Pro Display','SF Pro Text',Helvetica,Arial,sans-serif" font-size="13.5" fill="#ffffff" text-anchor="end">Silicon · 20 g</text>
<text x="74" y="524" font-family="-apple-system,'SF Pro Display','SF Pro Text',Helvetica,Arial,sans-serif" font-size="13" fill="#8ba3c4">Precious metals</text>
<text x="594" y="524" font-family="-apple-system,'SF Pro Display','SF Pro Text',Helvetica,Arial,sans-serif" font-size="13.5" fill="#9fe1cb" text-anchor="end">Au 63 · Ag 251 · Pd 28 mg</text>
<text x="74" y="550" font-family="-apple-system,'SF Pro Display','SF Pro Text',Helvetica,Arial,sans-serif" font-size="13" fill="#8ba3c4">Recycled content</text>
<text x="594" y="550" font-family="-apple-system,'SF Pro Display','SF Pro Text',Helvetica,Arial,sans-serif" font-size="13.5" fill="#ffffff" text-anchor="end">—</text>

<rect x="50" y="574" width="568" height="46" rx="13" fill="#0e2950" stroke="#21407a" stroke-width="1"/>
<g transform="translate(78,597)" fill="none" stroke="#7fd3b6" stroke-width="2" stroke-linecap="round" stroke-linejoin="round">
<path d="M0 -8 L8 6 L-8 6 Z"/><path d="M0 -2 L0 1.5"/><path d="M0 4 L0 4.01"/></g>
<text x="100" y="601" font-family="-apple-system,'SF Pro Display','SF Pro Text',Helvetica,Arial,sans-serif" font-size="15.5" font-weight="bold" fill="#ffffff">Hazardous &amp; safety</text>
<text x="562" y="601" font-family="-apple-system,'SF Pro Display','SF Pro Text',Helvetica,Arial,sans-serif" font-size="12.5" fill="#9fb3d1" text-anchor="end">no battery · lead-free</text>
<polyline points="592,593 600,601 608,593" fill="none" stroke="#9fb3d1" stroke-width="2" stroke-linecap="round" stroke-linejoin="round"/>
</g>

<rect x="44" y="106" width="592" height="26" fill="url(#fadeTop)"/>
<rect x="44" y="618" width="592" height="26" fill="url(#fadeBot)"/>
<rect x="624" y="110" width="5" height="500" rx="2.5" fill="#16335f"/>
<rect x="624" y="110" width="5" height="220" rx="2.5" fill="#5dcaa5"/>

<rect x="240" y="672" width="200" height="22" rx="11" fill="#0a0e16" stroke="#2a3344" stroke-width="1"/>
<rect x="318" y="681" width="44" height="4" rx="2" fill="#6b7686"/>
</svg>
