<svg width="100%" viewBox="0 0 680 520" role="img" xmlns="http://www.w3.org/2000/svg">
<title>Information tab v3 B — Life cycle analysis modal detail</title>
<desc>Navy DPP panel showing the LCA category as a full modal page: top-left back arrow button, breadcrumb, title, lifecycle headline, recovery potential panel, stage contribution bar with grid, and method row.</desc>
<rect x="20" y="20" width="640" height="430" rx="22" fill="#0a1f44"/>

<circle cx="62" cy="64" r="20" fill="#13366b" stroke="#2e5aa0" stroke-width="1.5"/>
<g transform="translate(62,64)" fill="none" stroke="#ffffff" stroke-width="2" stroke-linecap="round" stroke-linejoin="round">
<path d="M3 -6 L-4 0 L3 6"/><path d="M-4 0 L8 0"/>
</g>
<text x="96" y="58" font-family="-apple-system,'SF Pro Display','SF Pro Text',Helvetica,Arial,sans-serif" font-size="11.5" fill="#7f9bc4">Informations</text>
<g transform="translate(104,70)" fill="none" stroke="#5dcaa5" stroke-width="2" stroke-linecap="round" stroke-linejoin="round">
<path d="M-6 0 a6 6 0 1 1 6 6"/><path d="M0 6 L0 -2 M0 6 L-4 3 M0 6 L4 3" stroke-width="1.6"/></g>
<text x="122" y="76" font-family="-apple-system,'SF Pro Display','SF Pro Text',Helvetica,Arial,sans-serif" font-size="19" font-weight="bold" fill="#ffffff">Life cycle analysis</text>
<line x1="44" y1="96" x2="636" y2="96" stroke="#1a335f" stroke-width="1"/>

<text x="44" y="136" font-family="-apple-system,'SF Pro Display','SF Pro Text',Helvetica,Arial,sans-serif" font-size="13" fill="#8ba3c4">Lifecycle CO2 footprint</text>
<text x="44" y="176" font-family="-apple-system,'SF Pro Display','SF Pro Text',Helvetica,Arial,sans-serif" font-size="36" font-weight="bold" fill="#ffffff">63.9</text>
<text x="132" y="176" font-family="-apple-system,'SF Pro Display','SF Pro Text',Helvetica,Arial,sans-serif" font-size="16" fill="#9fb3d1">kg CO2e</text>
<text x="44" y="198" font-family="-apple-system,'SF Pro Display','SF Pro Text',Helvetica,Arial,sans-serif" font-size="12" fill="#6f86a8">per unit · cradle-to-grave</text>

<rect x="350" y="112" width="286" height="110" rx="10" fill="#0a2344" stroke="#21407a" stroke-width="1"/>
<text x="366" y="134" font-family="-apple-system,'SF Pro Display','SF Pro Text',Helvetica,Arial,sans-serif" font-size="12.5" fill="#9fe1cb">Recovery potential — up to 6.6 kg CO2e</text>
<rect x="366" y="146" width="134" height="11" rx="3" fill="#5dcaa5"/>
<text x="508" y="156" font-family="-apple-system,'SF Pro Display','SF Pro Text',Helvetica,Arial,sans-serif" font-size="11.5" fill="#bbccdd">Aluminium · 3.2</text>
<rect x="366" y="163" width="113" height="11" rx="3" fill="#1d9e75"/>
<text x="508" y="173" font-family="-apple-system,'SF Pro Display','SF Pro Text',Helvetica,Arial,sans-serif" font-size="11.5" fill="#bbccdd">Gold · 2.7</text>
<rect x="366" y="180" width="17" height="11" rx="3" fill="#1d9e75"/>
<text x="508" y="190" font-family="-apple-system,'SF Pro Display','SF Pro Text',Helvetica,Arial,sans-serif" font-size="11.5" fill="#bbccdd">Palladium · 0.4</text>
<rect x="366" y="197" width="18" height="11" rx="3" fill="#1d9e75"/>
<text x="508" y="207" font-family="-apple-system,'SF Pro Display','SF Pro Text',Helvetica,Arial,sans-serif" font-size="11.5" fill="#bbccdd">Other metals · 0.4</text>

<text x="44" y="242" font-family="-apple-system,'SF Pro Display','SF Pro Text',Helvetica,Arial,sans-serif" font-size="11.5" fill="#6f86a8">Stage contribution</text>
<rect x="44" y="250" width="83" height="12" fill="#2e5aa0"/>
<rect x="127" y="250" width="8" height="12" fill="#1d9e75"/>
<rect x="135" y="250" width="2" height="12" fill="#5dcaa5"/>
<rect x="137" y="250" width="499" height="12" fill="#324a6d"/>

<rect x="44" y="276" width="8" height="8" fill="#2e5aa0"/>
<text x="58" y="284" font-family="-apple-system,'SF Pro Display','SF Pro Text',Helvetica,Arial,sans-serif" font-size="12.5" fill="#8ba3c4">S1 Raw materials</text>
<text x="310" y="284" font-family="-apple-system,'SF Pro Display','SF Pro Text',Helvetica,Arial,sans-serif" font-size="13" fill="#ffffff" text-anchor="end">8.9</text>
<rect x="366" y="276" width="8" height="8" fill="#1d9e75"/>
<text x="380" y="284" font-family="-apple-system,'SF Pro Display','SF Pro Text',Helvetica,Arial,sans-serif" font-size="12.5" fill="#8ba3c4">S2 Manufacturing</text>
<text x="636" y="284" font-family="-apple-system,'SF Pro Display','SF Pro Text',Helvetica,Arial,sans-serif" font-size="13" fill="#ffffff" text-anchor="end">0.9</text>
<rect x="44" y="302" width="8" height="8" fill="#5dcaa5"/>
<text x="58" y="310" font-family="-apple-system,'SF Pro Display','SF Pro Text',Helvetica,Arial,sans-serif" font-size="12.5" fill="#8ba3c4">S3 Distribution</text>
<text x="310" y="310" font-family="-apple-system,'SF Pro Display','SF Pro Text',Helvetica,Arial,sans-serif" font-size="13" fill="#ffffff" text-anchor="end">0.1</text>
<rect x="366" y="302" width="8" height="8" fill="#324a6d"/>
<text x="380" y="310" font-family="-apple-system,'SF Pro Display','SF Pro Text',Helvetica,Arial,sans-serif" font-size="12.5" fill="#8ba3c4">S4 Use phase*</text>
<text x="636" y="310" font-family="-apple-system,'SF Pro Display','SF Pro Text',Helvetica,Arial,sans-serif" font-size="13" fill="#ffffff" text-anchor="end">54.0</text>

<line x1="44" y1="334" x2="636" y2="334" stroke="#21407a" stroke-width="1"/>
<text x="44" y="358" font-family="-apple-system,'SF Pro Display','SF Pro Text',Helvetica,Arial,sans-serif" font-size="12.5" fill="#8ba3c4">Method</text>
<text x="636" y="358" font-family="-apple-system,'SF Pro Display','SF Pro Text',Helvetica,Arial,sans-serif" font-size="12.5" fill="#ffffff" text-anchor="end">ISO 14040 · GWP100 (AR6) · estimated BOM</text>
<text x="44" y="380" font-family="-apple-system,'SF Pro Display','SF Pro Text',Helvetica,Arial,sans-serif" font-size="11.5" fill="#6f86a8">*modelled use profile · recovery net of process emissions</text>

<rect x="240" y="462" width="200" height="22" rx="11" fill="#0a0e16" stroke="#2a3344" stroke-width="1"/>
<rect x="318" y="471" width="44" height="4" rx="2" fill="#6b7686"/>
</svg>
