<svg width="100%" viewBox="0 0 680 578" role="img" xmlns="http://www.w3.org/2000/svg">
<title>DPP Canva v8 — prototype-aware Mechanical row, Electrical data tile, Compliance moved</title>
<desc>The DPP Canva landing page. A full-width Mechanical data row shows the measured size of the printed unit alongside the product declared IP rating, mass and temperature range, with a caption saying which is which, and a plus button at its right. Below it, Electrical data with the supply voltage chip and a count of the nine electrical parts, Service and repair, then Usage and repair history and Compliance and certification.</desc>
<rect x="20" y="20" width="640" height="430" rx="22" fill="#0a1f44"/>
<text x="44" y="55" font-family="-apple-system,'SF Pro Display','SF Pro Text',Helvetica,Arial,sans-serif" font-size="11.5" fill="#7f9bc4">Digital Product Passport</text>
<rect x="44" y="68" width="592" height="1" fill="#1a335f"/>
<text x="44" y="98" font-family="-apple-system,'SF Pro Display','SF Pro Text',Helvetica,Arial,sans-serif" font-size="16" font-weight="bold" fill="#ffffff">Bosch Motorsport | Vehicle Control Unit MS 50.4<tspan font-size="11" font-weight="normal" fill="#6f86a8"> - VCU0001</tspan></text>
<rect x="43" y="119" width="594" height="74" rx="13" fill="#2e5aa0"/><rect x="44" y="120" width="592" height="72" rx="13" fill="#0e2950"/>
<g stroke="#7fd3b6" stroke-width="1.6" fill="none" stroke-linecap="round" stroke-linejoin="round"><path d="M63 149 L70 145 L77 149 L70 153 Z"/><path d="M63 149 L63 156"/><path d="M77 149 L77 156"/><path d="M63 156 L70 160 L77 156"/><path d="M70 153 L70 160"/></g>
<text x="92" y="143" font-family="-apple-system,'SF Pro Display','SF Pro Text',Helvetica,Arial,sans-serif" font-size="14" fill="#ffffff" font-weight="bold">Mechanical data</text>
<rect x="92" y="150" width="117" height="20" rx="10" fill="#13366b"/><text x="150.5" y="164" font-family="-apple-system,'SF Pro Display','SF Pro Text',Helvetica,Arial,sans-serif" font-size="10.5" fill="#dbe4f0" text-anchor="middle">200 x 150 x 60 mm</text>
<rect x="215" y="150" width="50" height="20" rx="10" fill="#13366b"/><text x="240.0" y="164" font-family="-apple-system,'SF Pro Display','SF Pro Text',Helvetica,Arial,sans-serif" font-size="10.5" fill="#dbe4f0" text-anchor="middle">660 g</text>
<rect x="271" y="150" width="44" height="20" rx="10" fill="#13366b"/><text x="293.0" y="164" font-family="-apple-system,'SF Pro Display','SF Pro Text',Helvetica,Arial,sans-serif" font-size="10.5" fill="#dbe4f0" text-anchor="middle">IP67</text>
<rect x="321" y="150" width="84" height="20" rx="10" fill="#13366b"/><text x="363.0" y="164" font-family="-apple-system,'SF Pro Display','SF Pro Text',Helvetica,Arial,sans-serif" font-size="10.5" fill="#dbe4f0" text-anchor="middle">-20 to 80 °C</text>
<text x="92" y="185" font-family="-apple-system,'SF Pro Display','SF Pro Text',Helvetica,Arial,sans-serif" font-size="10" fill="#6f86a8">size measured on this unit · IP67, mass and temperature declared for the product</text>
<circle cx="606" cy="156" r="21.5" fill="#2e5aa0"/><circle cx="606" cy="156" r="20" fill="#13366b"/><g stroke="#ffffff" stroke-width="2.2" stroke-linecap="round"><line x1="598" y1="156" x2="614" y2="156"/><line x1="606" y1="148" x2="606" y2="164"/></g>
<rect x="43" y="199" width="292" height="74" rx="13" fill="#21407a"/><rect x="44" y="200" width="290" height="72" rx="13" fill="#0e2950"/>
<g stroke="#7fd3b6" stroke-width="1.7" fill="none" stroke-linecap="round" stroke-linejoin="round"><path d="M72 228 L66 237 L70 237 L68 244 L74 235 L70 235 Z"/></g>
<text x="92" y="223" font-family="-apple-system,'SF Pro Display','SF Pro Text',Helvetica,Arial,sans-serif" font-size="14" fill="#ffffff" font-weight="bold">Electrical data</text>
<rect x="92" y="230" width="72" height="20" rx="10" fill="#13366b"/><text x="128.0" y="244" font-family="-apple-system,'SF Pro Display','SF Pro Text',Helvetica,Arial,sans-serif" font-size="10.5" fill="#dbe4f0" text-anchor="middle">5 to 18 V</text>
<circle cx="97" cy="256" r="3.5" fill="#5dcaa5"/>
<text x="106" y="259.5" font-family="-apple-system,'SF Pro Display','SF Pro Text',Helvetica,Arial,sans-serif" font-size="11" fill="#9fb3d1">9 electrical parts</text>
<circle cx="304" cy="236" r="21.5" fill="#2e5aa0"/><circle cx="304" cy="236" r="20" fill="#13366b"/><g stroke="#ffffff" stroke-width="2.2" stroke-linecap="round"><line x1="296" y1="236" x2="312" y2="236"/><line x1="304" y1="228" x2="304" y2="244"/></g>
<rect x="345" y="199" width="292" height="74" rx="13" fill="#21407a"/><rect x="346" y="200" width="290" height="72" rx="13" fill="#0e2950"/>
<g stroke="#7fd3b6" stroke-width="1.8" fill="none" stroke-linecap="round" stroke-linejoin="round"><path d="M364.5 243 L372.5 235"/><path d="M375.5 232 a5.5 5.5 0 1 0 -0.2 -0.2"/></g>
<text x="394" y="223" font-family="-apple-system,'SF Pro Display','SF Pro Text',Helvetica,Arial,sans-serif" font-size="14" fill="#ffffff" font-weight="bold">Service &amp; repair</text>
<circle cx="399" cy="240" r="3.5" fill="#6f86a8"/>
<text x="408" y="243.5" font-family="-apple-system,'SF Pro Display','SF Pro Text',Helvetica,Arial,sans-serif" font-size="11" fill="#9fb3d1">Spare parts — not provided</text>
<circle cx="399" cy="256" r="3.5" fill="#6f86a8"/>
<text x="408" y="259.5" font-family="-apple-system,'SF Pro Display','SF Pro Text',Helvetica,Arial,sans-serif" font-size="11" fill="#9fb3d1">Disassembly guide — in app</text>
<polyline points="608,231 614,236 608,241" fill="none" stroke="#9fb3d1" stroke-width="1.8" stroke-linecap="round" stroke-linejoin="round"/>
<rect x="43" y="279" width="292" height="74" rx="13" fill="#21407a"/><rect x="44" y="280" width="290" height="72" rx="13" fill="#0e2950"/>
<g stroke="#7fd3b6" stroke-width="1.6" fill="none" stroke-linecap="round" stroke-linejoin="round"><circle cx="70" cy="316" r="9"/><path d="M70 311 L70 316 L74 319"/></g>
<text x="92" y="303" font-family="-apple-system,'SF Pro Display','SF Pro Text',Helvetica,Arial,sans-serif" font-size="14" fill="#ffffff" font-weight="bold">Usage &amp; repair history</text>
<circle cx="97" cy="320" r="3.5" fill="#6f86a8"/>
<text x="106" y="323.5" font-family="-apple-system,'SF Pro Display','SF Pro Text',Helvetica,Arial,sans-serif" font-size="11" fill="#9fb3d1">In service — not provided</text>
<circle cx="97" cy="336" r="3.5" fill="#6f86a8"/>
<text x="106" y="339.5" font-family="-apple-system,'SF Pro Display','SF Pro Text',Helvetica,Arial,sans-serif" font-size="11" fill="#9fb3d1">Repairs logged — none</text>
<polyline points="306,311 312,316 306,321" fill="none" stroke="#9fb3d1" stroke-width="1.8" stroke-linecap="round" stroke-linejoin="round"/>
<rect x="345" y="279" width="292" height="74" rx="13" fill="#21407a"/><rect x="346" y="280" width="290" height="72" rx="13" fill="#0e2950"/>
<g stroke="#7fd3b6" stroke-width="1.6" fill="none" stroke-linecap="round" stroke-linejoin="round"><path d="M372 306 L381 309 L381 318 C381 322, 376 325, 372 327 C368 325, 363 322, 363 318 L363 309 Z"/></g>
<text x="394" y="303" font-family="-apple-system,'SF Pro Display','SF Pro Text',Helvetica,Arial,sans-serif" font-size="14" fill="#ffffff" font-weight="bold">Compliance &amp; certification</text>
<rect x="394" y="310" width="34" height="16" rx="8" fill="#0e2950" stroke="#1d9e75" stroke-width="1.2"/>
<text x="411.0" y="321" font-family="-apple-system,'SF Pro Display','SF Pro Text',Helvetica,Arial,sans-serif" font-size="9.5" fill="#5dcaa5" text-anchor="middle">CE</text>
<rect x="432" y="310" width="46" height="16" rx="8" fill="#0e2950" stroke="#1d9e75" stroke-width="1.2"/>
<text x="455.0" y="321" font-family="-apple-system,'SF Pro Display','SF Pro Text',Helvetica,Arial,sans-serif" font-size="9.5" fill="#5dcaa5" text-anchor="middle">RoHS</text>
<rect x="482" y="310" width="52" height="16" rx="8" fill="#0e2950" stroke="#6f86a8" stroke-width="1.2"/>
<text x="508.0" y="321" font-family="-apple-system,'SF Pro Display','SF Pro Text',Helvetica,Arial,sans-serif" font-size="9.5" fill="#6f86a8" text-anchor="middle">REACH</text>
<circle cx="399" cy="336" r="3.5" fill="#6f86a8"/>
<text x="408" y="339.5" font-family="-apple-system,'SF Pro Display','SF Pro Text',Helvetica,Arial,sans-serif" font-size="11" fill="#9fb3d1">1 certificate on file</text>
<polyline points="608,311 614,316 608,321" fill="none" stroke="#9fb3d1" stroke-width="1.8" stroke-linecap="round" stroke-linejoin="round"/>
<rect x="44" y="374" width="180" height="52" rx="13" fill="#1a2740" stroke="#324a6d" stroke-width="2"/>
<text x="134" y="406" font-family="-apple-system,'SF Pro Display','SF Pro Text',Helvetica,Arial,sans-serif" font-size="16" fill="#9fb3d1" text-anchor="middle">Home</text>
<rect x="248" y="374" width="388" height="52" rx="13" fill="#1d9e75"/>
<text x="442" y="406" font-family="-apple-system,'SF Pro Display','SF Pro Text',Helvetica,Arial,sans-serif" font-size="16" fill="#ffffff" font-weight="bold" text-anchor="middle">Continue</text>
<polyline points="606,388 614,396 606,404" fill="none" stroke="#ffffff" stroke-width="2" stroke-linecap="round" stroke-linejoin="round"/>
<rect x="240" y="462" width="200" height="22" rx="11" fill="#0a0e16" stroke="#2a3344" stroke-width="1.5"/>
<line x1="305" y1="473" x2="375" y2="473" stroke="#6b7686" stroke-width="3" stroke-linecap="round"/>
<text x="20" y="14" font-family="-apple-system,'SF Pro Display','SF Pro Text',Helvetica,Arial,sans-serif" font-size="10.5" fill="#6f86a8">DPP Canva v8 · Mechanical 592x72 @ y100 (+ caption) · Electrical + Service @ y180 · Usage + Compliance @ y260 · both "+" circles are the only hit targets on their rows</text>
<text x="20" y="506" font-family="-apple-system,'SF Pro Display','SF Pro Text',Helvetica,Arial,sans-serif" font-size="11" fill="#5dcaa5" font-weight="bold">SIZE</text>
<text x="60.4" y="506" font-family="-apple-system,'SF Pro Display','SF Pro Text',Helvetica,Arial,sans-serif" font-size="10.5" fill="#9fb3d1">200 x 150 x 60 mm restored — it was always the prototype's measurement. The product's declared 166 x 121 x 41 mm moves to the Mechanical "+" page with the technical drawing.</text>
<text x="20" y="524" font-family="-apple-system,'SF Pro Display','SF Pro Text',Helvetica,Arial,sans-serif" font-size="11" fill="#e2a44a" font-weight="bold">THE CAPTION IS THE POINT</text>
<text x="192.39999999999998" y="524" font-family="-apple-system,'SF Pro Display','SF Pro Text',Helvetica,Arial,sans-serif" font-size="10.5" fill="#9fb3d1">one 10 pt line stops the row silently mixing a measured prop dimension with three declared product values. Without it a participant cannot tell which is which.</text>
<text x="20" y="542" font-family="-apple-system,'SF Pro Display','SF Pro Text',Helvetica,Arial,sans-serif" font-size="11" fill="#7f9bc4" font-weight="bold">ELECTRICAL FACE</text>
<text x="133.0" y="542" font-family="-apple-system,'SF Pro Display','SF Pro Text',Helvetica,Arial,sans-serif" font-size="10.5" fill="#9fb3d1">5 to 18 V is the product's declared supply. "9 electrical parts" = 3 connectors + 2 processors + 1 CPU + 3 sensors, the objects actually in the box. The "+" shows them.</text>
<text x="20" y="560" font-family="-apple-system,'SF Pro Display','SF Pro Text',Helvetica,Arial,sans-serif" font-size="11" fill="#e24b4a" font-weight="bold">GONE</text>
<text x="60.4" y="560" font-family="-apple-system,'SF Pro Display','SF Pro Text',Helvetica,Arial,sans-serif" font-size="10.5" fill="#9fb3d1">198 pins was dropped — that is the Bosch connector pin count, not your printed connectors. Substances & safety still has no tile anywhere.</text>
</svg>
